<svg xmlns="http://www.w3.org/2000/svg" xmlns:xlink="http://www.w3.org/1999/xlink" viewBox="0 0 1000 275.67"><defs><style>.cls-1{isolation:isolate;}.cls-2{fill:url(#radial-gradient);}.cls-3{fill:url(#radial-gradient-7);}.cls-4{fill:#ede495;mix-blend-mode:overlay;opacity:0.24;}.cls-5{fill:url(#radial-gradient-10);}</style><radialGradient id="radial-gradient" cx="500" cy="-312.94" r="883.26" gradientUnits="userSpaceOnUse"><stop offset="0.09" stop-color="#c5d068"/><stop offset="0.34" stop-color="#a1c563"/><stop offset="0.47" stop-color="#92c161"/><stop offset="0.96" stop-color="#00a462"/></radialGradient><radialGradient id="radial-gradient-7" cy="-312.95" r="883.26" xlink:href="#radial-gradient"/><radialGradient id="radial-gradient-10" cy="-312.95" r="883.26" xlink:href="#radial-gradient"/></defs><g class="cls-1"><g id="Layer_2" data-name="Layer 2"><g id="Moles"><g id="Ground"><path class="cls-2" d="M80.94,11.46A35.7,35.7,0,0,1,82.46,0Q41.44,3.32,0,7.28v38c28.55-.31,59.77-1.4,92.76-4C84.88,33.49,81.42,22.29,80.94,11.46Z"/><path class="cls-2" d="M378.55,199.43c-7.93-14.06-12.9-30.64-17.33-46.13q-3.25-11.36-5.94-22.89a49.94,49.94,0,0,1-9.79-4.87c-38.06.46-80.59.53-125.45-.15a47.65,47.65,0,0,1-4.1,9,47.8,47.8,0,0,1,7,22.88c.49,10.84-5.19,23.22-12.74,30.76a45.06,45.06,0,0,1-30.76,12.74c-2.21,0-4.4.18-6.59.4-13.17,2-26.25,4.44-39.53,5.85a93.52,93.52,0,0,1-17.14.54c-13.64-1-22.59-3.29-34.82-9.06-10.11-4.77-16.68-15.76-20-26-3.62-11.19-.95-23.42,4.38-33.51.36-.68.75-1.34,1.17-2a45.87,45.87,0,0,1-11.4-19C35.57,116,17,113.42,0,110.52V275.67H282.17c-25.55-1.81-51-4.72-76-10.8-13.43-3.27-26.22-7.48-39.89-9.58-11.84-1.82-17.53-10.36-19.29-21.93-4.4-28.94,38.13-31.88,57.38-33.37,34.8-2.68,69.48,2.77,103.94,6.87,17.29,2.06,34.64,3.8,52,4,8.86.12,17.77.07,26.43-1.34A39.52,39.52,0,0,1,378.55,199.43Z"/><path class="cls-2" d="M793.06,22.43c3.7,17.11,5.68,34.58,7.91,51.94.44,3.08.9,6.15,1.4,9.22l.74.37c8.61,4.55,18.21,16.24,20,26l.48,2.69C852,111.16,881,118,907.86,126.51l-.55-.18.55.18c1.79,0,4.29-.49,6,0q6.82,4.26,13.67,8.48c9.52,5.88,19,11.77,28.47,17.81,15,9.63,29.87,19.65,44,30.59V68.29C938.09,51.33,869,35.51,793.06,22.43Z"/><path class="cls-2" d="M604.38,175.28a43.85,43.85,0,0,1,0-23.13,40.62,40.62,0,0,1,10.14-17.82,48.8,48.8,0,0,1-13.7-1.13,37.15,37.15,0,0,1-16.42-8.59,45.41,45.41,0,0,1-17.23,1.11,43.24,43.24,0,0,1-20-8c-3.84.37-7.74.72-11.74,1.07-3.72,6.78-8.86,12.83-15.78,16.48a51.35,51.35,0,0,1-22,5.94,34.9,34.9,0,0,1-12.52-1.86c-4.2,10.74-8.14,21.68-12.87,32.08,26.55-2.3,53,6.9,78.82,12,19.26,3.76,38.65,3.7,58.08,3.1A43.74,43.74,0,0,1,604.38,175.28Z"/><path class="cls-2" d="M895.49,122.57l1.37.43Z"/><path class="cls-2" d="M897,123.05l2.5.8Z"/><path class="cls-3" d="M62.94,78.85c3.66-9,10.31-16,18.45-21.49A64.77,64.77,0,0,1,102,48.59a58.35,58.35,0,0,1-8.33-6.37c-.32-.3-.62-.61-.92-.91C59.77,43.9,28.55,45,0,45.3v65.22c17,2.9,35.57,5.47,55.55,7.55a48.34,48.34,0,0,1-2.13-12.14C53,96.71,57.07,86.38,62.94,78.85Z"/><path class="cls-3" d="M336,117.36a75.55,75.55,0,0,1-16.42-33,133.86,133.86,0,0,1-2.92-31.06c.06-4.09.2-8.2.15-12.29-24.09-.15-48.18.43-72.27,1.12a53.83,53.83,0,0,1-14.65,2.77C210.06,46,190.3,48.11,170.54,50.3a43.76,43.76,0,0,1,21.77,20.78,43.89,43.89,0,0,1,8.2,3.71l8.8,6.8c8.54,7.84,12.24,19.51,12.74,30.76a36.62,36.62,0,0,1-2,13c44.86.68,87.39.61,125.45.15A43.38,43.38,0,0,1,336,117.36Z"/><path class="cls-3" d="M539.32,110.22a63.05,63.05,0,0,1-3.85,8.53c4-.35,7.9-.7,11.74-1.07A43.21,43.21,0,0,1,539.32,110.22Z"/><path class="cls-4" d="M62.94,78.85c3.66-9,10.31-16,18.45-21.49A64.77,64.77,0,0,1,102,48.59a58.35,58.35,0,0,1-8.33-6.37c-.32-.3-.62-.61-.92-.91C59.77,43.9,28.55,45,0,45.3v65.22c17,2.9,35.57,5.47,55.55,7.55a48.34,48.34,0,0,1-2.13-12.14C53,96.71,57.07,86.38,62.94,78.85Z"/><path class="cls-4" d="M336,117.36a75.55,75.55,0,0,1-16.42-33,133.86,133.86,0,0,1-2.92-31.06c.06-4.09.2-8.2.15-12.29-24.09-.15-48.18.43-72.27,1.12a53.83,53.83,0,0,1-14.65,2.77C210.06,46,190.3,48.11,170.54,50.3a43.76,43.76,0,0,1,21.77,20.78,43.89,43.89,0,0,1,8.2,3.71l8.8,6.8c8.54,7.84,12.24,19.51,12.74,30.76a36.62,36.62,0,0,1-2,13c44.86.68,87.39.61,125.45.15A43.38,43.38,0,0,1,336,117.36Z"/><path class="cls-4" d="M539.32,110.22a63.05,63.05,0,0,1-3.85,8.53c4-.35,7.9-.7,11.74-1.07A43.21,43.21,0,0,1,539.32,110.22Z"/><path class="cls-5" d="M956,152.8c-9.43-6-19-11.93-28.47-17.81q-6.84-4.23-13.67-8.48c-1.71-.49-4.21,0-6,0C881,118,852,111.16,823.58,112.65c1.41,8.16,2.44,16.54,1.76,24.81-.73,8.78-1.53,18.5-5,26.81a32.74,32.74,0,0,1-7.79,14.79,21.86,21.86,0,0,1-7.8,7.81,41.7,41.7,0,0,1-12.21,6.64c-.21,1.56-.43,3.13-.64,4.7-2.52,11.09-10.7,20-20,26s-23.1,7.26-33.52,4.39a44.45,44.45,0,0,1-10-4.28c-1.62,0-3.23,0-4.84-.1-4.5,5.49-11.43,9.77-17.37,12.27-9.45,4-18.42,4.08-28.32,2.2-16-3.06-29.61-12.83-41.94-22.91a136.36,136.36,0,0,1-20.36-21.3,44.23,44.23,0,0,1-6.32-8c-19.43.6-38.82.66-58.08-3.1-25.79-5.05-52.27-14.25-78.82-12-7.74,17-17.61,32.64-34.29,43.64-15.66,10.33-37.52,6.64-51.23-5.47-8.66,1.41-17.57,1.46-26.43,1.34-17.41-.24-34.76-2-52-4-34.46-4.1-69.14-9.55-103.94-6.87-19.25,1.49-61.78,4.43-57.38,33.37,1.76,11.57,7.45,20.11,19.29,21.93,13.67,2.1,26.46,6.31,39.89,9.58,25,6.08,50.41,9,76,10.8H1000V183.39C985.87,172.45,971,162.43,956,152.8Z"/><path class="cls-4" d="M956,152.8c-9.43-6-19-11.93-28.47-17.81q-6.84-4.23-13.67-8.48c-1.71-.49-4.21,0-6,0C881,118,852,111.16,823.58,112.65c1.41,8.16,2.44,16.54,1.76,24.81-.73,8.78-1.53,18.5-5,26.81a32.74,32.74,0,0,1-7.79,14.79,21.86,21.86,0,0,1-7.8,7.81,41.7,41.7,0,0,1-12.21,6.64c-.21,1.56-.43,3.13-.64,4.7-2.52,11.09-10.7,20-20,26s-23.1,7.26-33.52,4.39a44.45,44.45,0,0,1-10-4.28c-1.62,0-3.23,0-4.84-.1-4.5,5.49-11.43,9.77-17.37,12.27-9.45,4-18.42,4.08-28.32,2.2-16-3.06-29.61-12.83-41.94-22.91a136.36,136.36,0,0,1-20.36-21.3,44.23,44.23,0,0,1-6.32-8c-19.43.6-38.82.66-58.08-3.1-25.79-5.05-52.27-14.25-78.82-12-7.74,17-17.61,32.64-34.29,43.64-15.66,10.33-37.52,6.64-51.23-5.47-8.66,1.41-17.57,1.46-26.43,1.34-17.41-.24-34.76-2-52-4-34.46-4.1-69.14-9.55-103.94-6.87-19.25,1.49-61.78,4.43-57.38,33.37,1.76,11.57,7.45,20.11,19.29,21.93,13.67,2.1,26.46,6.31,39.89,9.58,25,6.08,50.41,9,76,10.8H1000V183.39C985.87,172.45,971,162.43,956,152.8Z"/></g></g></g></g></svg>