<svg xmlns="http://www.w3.org/2000/svg" xmlns:xlink="http://www.w3.org/1999/xlink" viewBox="0 0 789.59 251.61"><defs><style>.cls-1{fill:url(#linear-gradient);}.cls-2{fill:url(#linear-gradient-2);}.cls-10,.cls-3,.cls-5,.cls-6,.cls-9{fill:#734d1e;stroke:#010101;}.cls-3{stroke-width:1.07px;}.cls-4,.cls-7,.cls-8{fill:#3a2b13;}.cls-5{stroke-width:1.64px;}.cls-6{stroke-width:1.13px;}.cls-7{isolation:isolate;opacity:0.8;}.cls-8{fill-opacity:0.51;}.cls-9{stroke-width:0.85px;}.cls-10{stroke-width:1.31px;}.cls-11{fill:url(#linear-gradient-3);}.cls-12{fill:url(#linear-gradient-4);}.cls-13{fill:url(#linear-gradient-5);}.cls-14{fill:url(#linear-gradient-6);}.cls-15{fill:url(#linear-gradient-7);}.cls-16{fill:url(#linear-gradient-8);}.cls-17{fill:url(#linear-gradient-9);}.cls-18{fill:url(#linear-gradient-10);}</style><linearGradient id="linear-gradient" x1="209.1" y1="100.58" x2="452.41" y2="100.58" gradientTransform="matrix(1, 0, 0, -1, -184.72, 148.96)" gradientUnits="userSpaceOnUse"><stop offset="0" stop-color="#583f16"/><stop offset="1" stop-color="#7f5422"/></linearGradient><linearGradient id="linear-gradient-2" x1="317.28" y1="98.43" x2="450.31" y2="98.43" gradientTransform="matrix(1, 0, 0, -1, -182.34, 146.88)" gradientUnits="userSpaceOnUse"><stop offset="0" stop-color="#563d15"/><stop offset="1" stop-color="#2a2111"/></linearGradient><linearGradient id="linear-gradient-3" x1="706.8" y1="94.07" x2="950.11" y2="94.07" xlink:href="#linear-gradient"/><linearGradient id="linear-gradient-4" x1="814.98" y1="91.93" x2="948.01" y2="91.93" xlink:href="#linear-gradient-2"/><linearGradient id="linear-gradient-5" x1="457.56" y1="27.4" x2="700.86" y2="27.4" xlink:href="#linear-gradient"/><linearGradient id="linear-gradient-6" x1="565.73" y1="25.26" x2="698.76" y2="25.26" xlink:href="#linear-gradient-2"/><linearGradient id="linear-gradient-7" x1="184.72" y1="-54.21" x2="428.03" y2="-54.21" xlink:href="#linear-gradient"/><linearGradient id="linear-gradient-8" x1="292.9" y1="-56.36" x2="425.93" y2="-56.36" xlink:href="#linear-gradient-2"/><linearGradient id="linear-gradient-9" x1="728.36" y1="-50.14" x2="971.67" y2="-50.14" xlink:href="#linear-gradient"/><linearGradient id="linear-gradient-10" x1="836.54" y1="-52.28" x2="969.57" y2="-52.28" xlink:href="#linear-gradient-2"/></defs><g id="Layer_2" data-name="Layer 2"><g id="Burrow_Fronts" data-name="Burrow Fronts"><g id="Burrow_Front" data-name="Burrow Front"><path id="path174-2-7" class="cls-1" d="M203.48,0a11.64,11.64,0,0,0-7,2.23,12.1,12.1,0,0,0-5.14-1.14c-6,0-10.86,4.31-10.86,9.63a8.79,8.79,0,0,0,.53,3,8.93,8.93,0,0,0-2.72,6.35,8.63,8.63,0,0,0,.34,2.39,11.25,11.25,0,0,0-2.7,1.17,10.62,10.62,0,0,0-4,3.14v0a25.74,25.74,0,0,0-2.86,1.27,12.28,12.28,0,0,0-8.89-7.54,10.59,10.59,0,0,0-14.24-.31,10.65,10.65,0,0,0-6.23-2.07c-6.23,0-11.34,5.59-11.9,12.72a10.56,10.56,0,0,0-3.5-.61,11.31,11.31,0,0,0-9.16,5c-.61,0-1.23-.07-1.85-.07a37.3,37.3,0,0,0-5.57.43c-2.06-4.19-5.93-7-10.36-7-5,0-9.34,3.64-11.11,8.79-1.88-4.86-6-8.24-10.87-8.24a11.31,11.31,0,0,0-9.12,5A10.33,10.33,0,0,0,61.64,33c-4.94,0-9.2,3.52-11,8.52a10.61,10.61,0,0,0-6-1.92c-4.44,0-8.33,2.84-10.39,7.05a6.11,6.11,0,0,0-2.83-.7c-3.87,0-7,3.68-7,8.21s3.13,8.22,7,8.22a6.22,6.22,0,0,0,3.28-.92c0,.07.1.13.14.2a7.33,7.33,0,0,0,5.45,5,10.36,10.36,0,0,0,10.25-.88c.84,3.43,3.54,5.94,6.74,5.94a6.14,6.14,0,0,0,1.49-.18,11.45,11.45,0,0,0,5,1.14A11.27,11.27,0,0,0,68,71.84a6.42,6.42,0,0,0,4.65,2.07,6.68,6.68,0,0,0,5.49-3.11C81,76,88.67,79.8,97.88,80.22A6.91,6.91,0,0,0,104,84.36a6.75,6.75,0,0,0,5.68-3.4,16.25,16.25,0,0,0,2.25,2c.54,3.9,3.44,6.88,6.93,6.88a6.49,6.49,0,0,0,4.87-2.31l.18,0a7.11,7.11,0,0,0,6.48,5.06,6.1,6.1,0,0,0,2.4-.5c4.15,2.85,10.17,4.63,16.86,4.63,8.86,0,16.52-3.14,20.26-7.72.5,0,1-.06,1.51-.1a11.69,11.69,0,0,0,4.61,1,10.92,10.92,0,0,0,10-6.12c.27-.21.52-.42.78-.64a10.7,10.7,0,0,0,4.54-.16,6.92,6.92,0,0,0,6.09,4.14,7,7,0,0,0,6.37-4.8,11.48,11.48,0,0,0,1.86.15A11.9,11.9,0,0,0,211.33,81a6.45,6.45,0,0,0,4.79,2.21c3,0,5.52-2.17,6.54-5.24a8.48,8.48,0,0,0,.88.06,8.64,8.64,0,0,0,2.15-.29,6.32,6.32,0,0,0,4.18,1.62,7.09,7.09,0,0,0,6.45-5A11.7,11.7,0,0,0,242,75.86a11,11,0,0,0,9.67-5.39,11.9,11.9,0,0,0,4.08.72c6,0,10.86-4.43,10.86-9.9a9,9,0,0,0-.21-1.88,9.09,9.09,0,0,0,1.31-4.71,9.58,9.58,0,0,0-4.24-7.83,9.13,9.13,0,0,0,.39-2.62c0-5.47-4.88-9.9-10.88-9.9a11.3,11.3,0,0,0-1.55.13,8.49,8.49,0,0,0,.32-2.32c0-5.31-4.85-9.63-10.85-9.63l-.51,0a6.92,6.92,0,0,0-6.09-4.11,6.23,6.23,0,0,0-2.85.71c-2.69-4.6-9.17-8.08-17.12-9,0-.18,0-.35,0-.53,0-5.32-4.86-9.61-10.86-9.61Zm27.35,35.85a9.73,9.73,0,0,0,1.62,2.38c-.6-.08-1.22-.14-1.84-.19a8.42,8.42,0,0,0,.22-2v-.16Zm-24,1.95c.81.07,1.63.1,2.46.12a9.9,9.9,0,0,0,.45,1.33,27.83,27.83,0,0,0-3-1.21,2.25,2.25,0,0,0,.08-.24Z"/><path id="path174-2-7-1" class="cls-2" d="M203.76.07a11.66,11.66,0,0,0-7,2.23,11.93,11.93,0,0,0-5.14-1.15,12.09,12.09,0,0,0-2.65.31A68,68,0,0,1,194.4,6c7.41.81,13.15,6.72,13.15,13.91a13.34,13.34,0,0,1-.77,4.48,32.6,32.6,0,0,1,1.65,10.12v0a13.59,13.59,0,0,1,4.74,10.25c0,7.67-6.56,13.92-14.69,14-.25.29-.5.58-.76.86a10.8,10.8,0,0,1,1,4.49c0,7.74-8.4,14-18.78,14a27.26,27.26,0,0,1-2.73-.14c-1.59,6.77-11,12-22.45,12a34.26,34.26,0,0,1-11-1.74,16,16,0,0,1-8.83,5.06,31.84,31.84,0,0,0,15,3.46c8.86,0,16.53-3.14,20.26-7.72.51,0,1-.06,1.51-.11a11.56,11.56,0,0,0,4.61,1,10.93,10.93,0,0,0,10-6.13c.27-.21.53-.41.78-.63a12.07,12.07,0,0,0,1.82.16,11.73,11.73,0,0,0,2.73-.33,6.91,6.91,0,0,0,6.08,4.14,7,7,0,0,0,6.37-4.79,12.76,12.76,0,0,0,1.87.14,11.88,11.88,0,0,0,5.65-1.41,6.48,6.48,0,0,0,4.79,2.21c3,0,5.52-2.18,6.54-5.24a8.48,8.48,0,0,0,.88.06,8.64,8.64,0,0,0,2.15-.29,6.32,6.32,0,0,0,4.18,1.62,7.09,7.09,0,0,0,6.45-5,11.6,11.6,0,0,0,5.66,1.43,11,11,0,0,0,9.66-5.38,11.9,11.9,0,0,0,4.08.71c6,0,10.86-4.42,10.86-9.89a9.12,9.12,0,0,0-.21-1.89A9.09,9.09,0,0,0,268,54.76a9.56,9.56,0,0,0-4.24-7.82,9.2,9.2,0,0,0,.39-2.63c0-5.46-4.87-9.89-10.87-9.89a13.14,13.14,0,0,0-1.56.12,8.43,8.43,0,0,0,.33-2.31c0-5.32-4.86-9.63-10.86-9.63l-.51,0a6.92,6.92,0,0,0-6.09-4.12,6,6,0,0,0-2.84.72c-2.69-4.61-9.18-8.09-17.13-9,0-.18,0-.36,0-.54,0-5.31-4.86-9.6-10.86-9.6Zm27.35,35.85a9.49,9.49,0,0,0,1.62,2.37c-.6-.08-1.22-.13-1.84-.18a8.54,8.54,0,0,0,.22-2v-.16Z"/><path id="path115416-7-2-8-85-6-9-9-4-53-1-24" class="cls-3" d="M130.19,75a5,5,0,0,1,2.59.74h.07a4.93,4.93,0,0,1,4.93,4.68v.25a5,5,0,0,1-.43,2,4.83,4.83,0,0,1,.83,2.73v.26a4.93,4.93,0,0,1-4.93,4.67,4.77,4.77,0,0,1-.76-.06,4.9,4.9,0,0,1-2.7.81,5,5,0,0,1-2.62-.75h-.29a4.94,4.94,0,0,1-4.94-4.93,4.87,4.87,0,0,1,.44-2,4.82,4.82,0,0,1-.84-2.73,4.94,4.94,0,0,1,4.94-4.93,5.23,5.23,0,0,1,1,.1,4.85,4.85,0,0,1,2.74-.84Z"/><path id="path115416-7-2-8-85-3-4-0-3-8-7-2-7" class="cls-4" d="M131.44,76.57a4.87,4.87,0,0,1,2.59.75h.07A4.94,4.94,0,0,1,139,82v.26a5,5,0,0,1-.43,2,4.92,4.92,0,0,1,.83,2.74v.25a4.94,4.94,0,0,1-5.7,4.62,4.94,4.94,0,0,1-2.69.8,4.89,4.89,0,0,1-2.62-.75h-.29A4.94,4.94,0,0,1,123.19,87a4.81,4.81,0,0,1,.44-2,4.84,4.84,0,0,1-.84-2.73,4.93,4.93,0,0,1,4.93-4.93,5.07,5.07,0,0,1,1,.09,4.91,4.91,0,0,1,2.75-.84Z"/><path id="path115416-7-2-8-85-6-9-9-4-53-1-24-8" class="cls-3" d="M184.67,74.65a4.87,4.87,0,0,1,2.59.74h.07a4.94,4.94,0,0,1,4.93,4.67v.26a5,5,0,0,1-.43,2,5,5,0,0,1,.83,2.74v.25a4.94,4.94,0,0,1-5.7,4.62,4.94,4.94,0,0,1-5.31,0h-.29a4.94,4.94,0,0,1-4.94-4.93,4.81,4.81,0,0,1,.44-2,4.84,4.84,0,0,1-.84-2.73A4.93,4.93,0,0,1,181,75.39a5.07,5.07,0,0,1,1,.09,5,5,0,0,1,2.75-.83Z"/><path id="path115416-7-2-8-85-3-4-0-3-8-7-2-7-1" class="cls-4" d="M185.91,76.22a5,5,0,0,1,2.6.74h.06a4.93,4.93,0,0,1,4.93,4.68,2.09,2.09,0,0,1,0,.25,4.91,4.91,0,0,1-.43,2,4.89,4.89,0,0,1,.83,2.74,2.26,2.26,0,0,1,0,.26A4.93,4.93,0,0,1,189,91.56a4.77,4.77,0,0,1-.76-.06,5,5,0,0,1-5.32,0h-.29a4.94,4.94,0,0,1-4.94-4.93,4.87,4.87,0,0,1,.44-2,4.82,4.82,0,0,1-.84-2.73A4.94,4.94,0,0,1,182.2,77a5.15,5.15,0,0,1,1,.1,4.87,4.87,0,0,1,2.74-.84Z"/><path id="path115416-7-2-8-85-6-9-9-4-53-1-24-6" class="cls-5" d="M256.08,44.11a7.61,7.61,0,0,1,4,1.14h.1a7.6,7.6,0,0,1,7.6,7.21c0,.13,0,.26,0,.4a7.61,7.61,0,0,1-.66,3.09,7.51,7.51,0,0,1,1.28,4.22c0,.13,0,.26,0,.39a7.61,7.61,0,0,1-7.61,7.21,7.72,7.72,0,0,1-1.18-.09,7.61,7.61,0,0,1-8.2.08H251A7.58,7.58,0,0,1,244,57.07a7.53,7.53,0,0,1-1.29-4.21,7.62,7.62,0,0,1,7.62-7.61,7.31,7.31,0,0,1,1.49.15,7.53,7.53,0,0,1,4.24-1.3Z"/><path id="path115416-7-2-8-85-3-4-0-3-8-7-2-7-5" class="cls-4" d="M258,46.54a7.56,7.56,0,0,1,4,1.14h.1a7.63,7.63,0,0,1,7.61,7.21c0,.13,0,.27,0,.4a7.61,7.61,0,0,1-.66,3.09,7.53,7.53,0,0,1,1.28,4.22V63a7.63,7.63,0,0,1-7.61,7.22,7.72,7.72,0,0,1-1.18-.09,7.63,7.63,0,0,1-4.15,1.23,7.55,7.55,0,0,1-4-1.16l-.45,0a7.61,7.61,0,0,1-7.61-7.61,7.47,7.47,0,0,1,.67-3.1,7.53,7.53,0,0,1-1.29-4.21,7.61,7.61,0,0,1,7.61-7.61,7.34,7.34,0,0,1,1.5.15A7.49,7.49,0,0,1,258,46.54Z"/><path id="path115416-7-2-8-85-6-9-9-4-53-1-24-6-7" class="cls-6" d="M223.14,30.69a5.25,5.25,0,0,1,2.75.78H226a5.24,5.24,0,0,1,5.23,5v.27a5.14,5.14,0,0,1-.46,2.12,5.2,5.2,0,0,1,.88,2.91,2.43,2.43,0,0,1,0,.27,5.23,5.23,0,0,1-5.23,5,5.52,5.52,0,0,1-.81-.06,5.16,5.16,0,0,1-2.85.85,5.25,5.25,0,0,1-2.78-.79h-.31a5.23,5.23,0,0,1-5.24-5.22,5.07,5.07,0,0,1,.47-2.13,5.15,5.15,0,0,1-.89-2.9,5.23,5.23,0,0,1,5.23-5.23,5.71,5.71,0,0,1,1,.1,5.18,5.18,0,0,1,2.91-.88Z"/><path id="path115416-7-2-8-85-3-4-0-3-8-7-2-7-5-9" class="cls-7" d="M225.56,33.45a5.26,5.26,0,0,1,2.75.79h.07a5.23,5.23,0,0,1,5.23,5v.27a5.21,5.21,0,0,1-.46,2.12,5.17,5.17,0,0,1,.88,2.9,2.43,2.43,0,0,1,0,.27,5.23,5.23,0,0,1-5.23,5,5.52,5.52,0,0,1-.81-.06,5.25,5.25,0,0,1-2.85.85,5.16,5.16,0,0,1-2.78-.8h-.31a5.24,5.24,0,0,1-5.24-5.23,5.07,5.07,0,0,1,.47-2.13,5.14,5.14,0,0,1-.89-2.89,5.23,5.23,0,0,1,5.23-5.23,4.93,4.93,0,0,1,1,.1,5.18,5.18,0,0,1,2.91-.89Z"/><path id="path115416-7-2-8-85-6-9-9-4-53-1-24-9" class="cls-3" d="M45,52.65a4.87,4.87,0,0,1,2.59.75h.07a4.94,4.94,0,0,1,4.93,4.67v.26a5,5,0,0,1-.43,2A4.92,4.92,0,0,1,53,63.07v.25a4.94,4.94,0,0,1-5.7,4.62A4.94,4.94,0,0,1,42,68h-.29a4.94,4.94,0,0,1-4.94-4.93,4.81,4.81,0,0,1,.44-2,4.87,4.87,0,0,1-.84-2.73A4.93,4.93,0,0,1,41.3,53.4a5.07,5.07,0,0,1,1,.09A4.91,4.91,0,0,1,45,52.65Z"/><path id="path115416-7-2-8-85-3-4-0-3-8-7-2-7-2" class="cls-4" d="M46.26,54.23a4.9,4.9,0,0,1,2.6.74h.06a4.93,4.93,0,0,1,4.93,4.67,2.26,2.26,0,0,1,0,.26,5,5,0,0,1-.43,2,4.87,4.87,0,0,1,.83,2.74,2.09,2.09,0,0,1,0,.25,4.93,4.93,0,0,1-4.93,4.68,4.77,4.77,0,0,1-.76-.06,5,5,0,0,1-5.32,0H43A4.94,4.94,0,0,1,38,64.64a4.81,4.81,0,0,1,.44-2,4.84,4.84,0,0,1-.84-2.73A4.94,4.94,0,0,1,42.55,55a5.15,5.15,0,0,1,1,.09,5,5,0,0,1,2.74-.83Z"/><path id="path115416-7-2-8-85-6-9-9-4-53-1-24-96" class="cls-3" d="M95.6,56a5,5,0,0,1,2.59.74h.07a4.93,4.93,0,0,1,4.93,4.68v.25a5,5,0,0,1-.43,2,4.91,4.91,0,0,1,.83,2.73v.26a4.94,4.94,0,0,1-5.7,4.61A4.87,4.87,0,0,1,95.2,72a5,5,0,0,1-2.62-.75h-.29a4.93,4.93,0,0,1-4.94-4.93,4.87,4.87,0,0,1,.44-2A4.82,4.82,0,0,1,87,61.62a4.94,4.94,0,0,1,4.94-4.93,5,5,0,0,1,1,.1A4.91,4.91,0,0,1,95.6,56Z"/><path id="path115416-7-2-8-85-3-4-0-3-8-7-2-7-23" class="cls-8" d="M96.85,57.52a4.9,4.9,0,0,1,2.59.75h.06a4.93,4.93,0,0,1,4.93,4.67,2.26,2.26,0,0,1,0,.26,4.79,4.79,0,0,1-.43,2,4.84,4.84,0,0,1,.83,2.74,2.09,2.09,0,0,1,0,.25,4.93,4.93,0,0,1-4.93,4.68,4.77,4.77,0,0,1-.76-.06,5,5,0,0,1-2.7.8,4.89,4.89,0,0,1-2.62-.75h-.29A4.93,4.93,0,0,1,89,65.93a4.92,4.92,0,0,1,4.1-7.66,5.15,5.15,0,0,1,1,.09,4.91,4.91,0,0,1,2.75-.84Z"/><path id="path115416-7-2-8-85-6-9-9-4-53-1-24-96-1" class="cls-9" d="M203.36,49.83a7.41,7.41,0,0,1,2.62.47H206c2.66,0,4.84,1.3,5,2.93a.85.85,0,0,1,0,.16,2.2,2.2,0,0,1-.43,1.26,2.35,2.35,0,0,1,.84,1.72v.16c-.14,1.63-2.31,2.93-5,2.93-.27,0-.52,0-.77,0a7.65,7.65,0,0,1-5.36,0H200c-2.74,0-5-1.39-5-3.09a2.17,2.17,0,0,1,.44-1.27,2.34,2.34,0,0,1-.85-1.71c0-1.71,2.23-3.09,5-3.09a7.82,7.82,0,0,1,1,.06,7.22,7.22,0,0,1,2.76-.53Z"/><path id="path115416-7-2-8-85-3-4-0-3-8-7-2-7-23-8" class="cls-8" d="M204.62,50.82a7.41,7.41,0,0,1,2.62.46h.06c2.66,0,4.84,1.3,5,2.94a.85.85,0,0,1,0,.16,2.17,2.17,0,0,1-.43,1.25,2.35,2.35,0,0,1,.84,1.72v.16c-.14,1.63-2.31,2.93-5,2.93a6.4,6.4,0,0,1-.77,0,7.24,7.24,0,0,1-2.72.51,7.48,7.48,0,0,1-2.64-.47h-.3c-2.74,0-5-1.38-5-3.09a2.12,2.12,0,0,1,.44-1.26,2.32,2.32,0,0,1-.85-1.71c0-1.71,2.23-3.1,5-3.1a7.93,7.93,0,0,1,1,.06,7.22,7.22,0,0,1,2.76-.52Z"/><path id="path115416-7-2-8-85-6-9-9-4-53-1-24-96-1-4" class="cls-9" d="M78,30.07a7.14,7.14,0,0,1,2.61.47h.07c2.66,0,4.83,1.29,5,2.93v.16a2.09,2.09,0,0,1-.44,1.25A2.37,2.37,0,0,1,86,36.6a.86.86,0,0,1,0,.16c-.13,1.63-2.31,2.93-5,2.93-.26,0-.52,0-.77,0a7.41,7.41,0,0,1-2.72.5,7.3,7.3,0,0,1-2.64-.47h-.29c-2.75,0-5-1.38-5-3.09a2.14,2.14,0,0,1,.44-1.26,2.35,2.35,0,0,1-.84-1.71c0-1.71,2.23-3.09,5-3.09a7.82,7.82,0,0,1,1,.06A7.05,7.05,0,0,1,78,30.07Z"/><path id="path115416-7-2-8-85-3-4-0-3-8-7-2-7-23-8-5" class="cls-8" d="M79.22,31.05a7.41,7.41,0,0,1,2.62.47h.06c2.66,0,4.84,1.3,5,2.93a.86.86,0,0,1,0,.16,2.2,2.2,0,0,1-.43,1.26,2.35,2.35,0,0,1,.84,1.71v.16c-.14,1.64-2.31,2.94-5,2.94-.27,0-.52,0-.77,0a7.65,7.65,0,0,1-5.36,0h-.3c-2.74,0-5-1.39-5-3.1a2.14,2.14,0,0,1,.44-1.26,2.34,2.34,0,0,1-.85-1.71c0-1.71,2.23-3.09,5-3.09a7.93,7.93,0,0,1,1,.06,7.22,7.22,0,0,1,2.76-.53Z"/><path id="path115416-7-2-8-85-6-9-9-4-53-1-24-96-1-4-2" class="cls-10" d="M159.8,40.89a11.29,11.29,0,0,1,4,.72h.11c4.09,0,7.45,2,7.65,4.52a1.92,1.92,0,0,1,0,.24,3.28,3.28,0,0,1-.67,1.94A3.6,3.6,0,0,1,172.2,51a2.08,2.08,0,0,1,0,.25c-.2,2.52-3.56,4.52-7.65,4.52a11.56,11.56,0,0,1-1.19-.06,11.16,11.16,0,0,1-4.18.78,11.32,11.32,0,0,1-4.08-.73h-.45c-4.23,0-7.67-2.13-7.67-4.76a3.32,3.32,0,0,1,.68-2,3.58,3.58,0,0,1-1.3-2.64c0-2.63,3.44-4.76,7.67-4.76a12.09,12.09,0,0,1,1.5.09,11.17,11.17,0,0,1,4.27-.81Z"/><path id="path115416-7-2-8-85-3-4-0-3-8-7-2-7-23-8-5-8" class="cls-8" d="M161.74,42.41a11.25,11.25,0,0,1,4,.72h.11c4.09,0,7.45,2,7.65,4.52a2.08,2.08,0,0,1,0,.25,3.31,3.31,0,0,1-.66,1.93,3.63,3.63,0,0,1,1.28,2.65,1.92,1.92,0,0,1,0,.24c-.2,2.52-3.55,4.52-7.65,4.52a11.56,11.56,0,0,1-1.19-.06,11.16,11.16,0,0,1-4.18.78,11.32,11.32,0,0,1-4.08-.73h-.45c-4.23,0-7.67-2.13-7.67-4.76a3.32,3.32,0,0,1,.68-1.95,3.58,3.58,0,0,1-1.3-2.63c0-2.64,3.44-4.77,7.67-4.77a12.09,12.09,0,0,1,1.5.09,11.17,11.17,0,0,1,4.27-.81Z"/></g><g id="Burrow_Front-2" data-name="Burrow Front"><path id="path174-2-7-2" data-name="path174-2-7" class="cls-11" d="M701.19,6.51a11.67,11.67,0,0,0-7,2.23,11.93,11.93,0,0,0-5.14-1.15c-6,0-10.86,4.32-10.86,9.63a8.56,8.56,0,0,0,.54,3A8.94,8.94,0,0,0,676,26.56a8.7,8.7,0,0,0,.35,2.4,11.5,11.5,0,0,0-2.71,1.17,10.56,10.56,0,0,0-4,3.13v0a25.91,25.91,0,0,0-2.87,1.27A12.28,12.28,0,0,0,657.88,27a10.59,10.59,0,0,0-14.24-.31,10.62,10.62,0,0,0-6.22-2.06c-6.23,0-11.34,5.59-11.91,12.72a10.23,10.23,0,0,0-3.5-.62,11.37,11.37,0,0,0-9.16,5c-.6,0-1.22-.06-1.84-.06a35.83,35.83,0,0,0-5.57.43c-2.07-4.2-5.94-7-10.37-7-5,0-9.33,3.64-11.1,8.79-1.88-4.85-6-8.23-10.88-8.23a11.35,11.35,0,0,0-9.12,5,10.42,10.42,0,0,0-4.63-1.1c-4.94,0-9.19,3.51-11,8.52a10.54,10.54,0,0,0-6-1.93c-4.44,0-8.32,2.84-10.39,7.05a6.19,6.19,0,0,0-2.82-.7c-3.88,0-7,3.68-7,8.22s3.13,8.21,7,8.21a6.27,6.27,0,0,0,3.28-.92c0,.07.1.14.14.21a7.35,7.35,0,0,0,5.45,5,10.32,10.32,0,0,0,10.24-.89c.85,3.43,3.54,6,6.74,6a6.29,6.29,0,0,0,1.5-.19,11.27,11.27,0,0,0,9.23.31,6.44,6.44,0,0,0,4.66,2.07,6.69,6.69,0,0,0,5.49-3.12c2.88,5.2,10.56,9,19.76,9.43a6.92,6.92,0,0,0,6.09,4.14,6.74,6.74,0,0,0,5.67-3.41,16.35,16.35,0,0,0,2.26,2c.54,3.91,3.43,6.89,6.92,6.89A6.49,6.49,0,0,0,621.4,94l.18,0a7.1,7.1,0,0,0,6.47,5.06,6.09,6.09,0,0,0,2.4-.49c4.15,2.85,10.17,4.63,16.86,4.63,8.87,0,16.53-3.14,20.26-7.72.51,0,1-.06,1.52-.11a11.49,11.49,0,0,0,4.61,1,10.91,10.91,0,0,0,10-6.13c.27-.21.53-.41.78-.63a12.19,12.19,0,0,0,1.82.16,11.6,11.6,0,0,0,2.73-.33,6.91,6.91,0,0,0,6.08,4.14,7,7,0,0,0,6.37-4.79,12.76,12.76,0,0,0,1.87.14A11.88,11.88,0,0,0,709,87.55a6.5,6.5,0,0,0,4.8,2.21c3,0,5.51-2.18,6.53-5.24a7.57,7.57,0,0,0,3-.23,6.32,6.32,0,0,0,4.18,1.62,7.09,7.09,0,0,0,6.45-5,11.71,11.71,0,0,0,5.66,1.43A11,11,0,0,0,749.35,77a11.84,11.84,0,0,0,4.07.71c6,0,10.86-4.43,10.86-9.89a9.12,9.12,0,0,0-.2-1.89,9.19,9.19,0,0,0,1.31-4.71,9.59,9.59,0,0,0-4.24-7.82,9.2,9.2,0,0,0,.39-2.63c0-5.46-4.88-9.89-10.88-9.89a13.31,13.31,0,0,0-1.56.12,8.43,8.43,0,0,0,.33-2.31c0-5.32-4.86-9.63-10.86-9.63l-.51,0A6.92,6.92,0,0,0,732,24.94a6.06,6.06,0,0,0-2.85.72c-2.69-4.61-9.18-8.09-17.13-9,0-.18,0-.36,0-.54,0-5.31-4.85-9.61-10.85-9.61Zm27.35,35.85a9.45,9.45,0,0,0,1.61,2.37c-.6-.08-1.22-.13-1.84-.18a8.54,8.54,0,0,0,.23-2v-.16Zm-24,1.94c.8.07,1.63.11,2.46.12a8.12,8.12,0,0,0,.45,1.34,26.65,26.65,0,0,0-3-1.21,2.41,2.41,0,0,1,.08-.25Z"/><path id="path174-2-7-1-2" data-name="path174-2-7-1" class="cls-12" d="M701.47,6.57a11.76,11.76,0,0,0-7,2.23,12.07,12.07,0,0,0-5.14-1.14,12.71,12.71,0,0,0-2.64.3,68,68,0,0,1,5.39,4.55c7.4.82,13.15,6.73,13.15,13.91a13.41,13.41,0,0,1-.78,4.49A32.22,32.22,0,0,1,706.14,41v0a13.56,13.56,0,0,1,4.73,10.24c0,7.68-6.56,13.92-14.69,14-.24.29-.5.58-.75.87a10.91,10.91,0,0,1,1,4.48c0,7.74-8.41,14-18.79,14a24.4,24.4,0,0,1-2.72-.14c-1.59,6.78-11,12-22.45,12a33.89,33.89,0,0,1-11-1.74,16,16,0,0,1-8.83,5.06,31.68,31.68,0,0,0,15,3.46c8.87,0,16.53-3.14,20.26-7.72.51,0,1-.06,1.52-.1a11.66,11.66,0,0,0,4.61,1,10.89,10.89,0,0,0,10-6.12c.28-.21.53-.42.78-.64a10.75,10.75,0,0,0,4.55-.16,6.91,6.91,0,0,0,6.08,4.14,7.06,7.06,0,0,0,6.38-4.8,11.3,11.3,0,0,0,1.86.15,11.86,11.86,0,0,0,5.65-1.42,6.48,6.48,0,0,0,4.8,2.22c3,0,5.51-2.18,6.53-5.25a8.67,8.67,0,0,0,.88.06,8.51,8.51,0,0,0,2.15-.28A6.31,6.31,0,0,0,727.85,86a7.11,7.11,0,0,0,6.46-5A11.64,11.64,0,0,0,740,82.43,11,11,0,0,0,749.63,77a11.9,11.9,0,0,0,4.08.72c6,0,10.85-4.43,10.85-9.9a9,9,0,0,0-.2-1.88,9.19,9.19,0,0,0,1.31-4.71,9.61,9.61,0,0,0-4.24-7.83,9.13,9.13,0,0,0,.39-2.62c0-5.47-4.88-9.89-10.88-9.89a11.45,11.45,0,0,0-1.56.12,8.5,8.5,0,0,0,.33-2.32c0-5.31-4.86-9.63-10.86-9.63-.17,0-.34,0-.51,0A6.89,6.89,0,0,0,732.26,25a6.17,6.17,0,0,0-2.85.71c-2.69-4.6-9.18-8.08-17.13-9a4.75,4.75,0,0,0,.05-.53c0-5.32-4.86-9.61-10.86-9.61Zm27.35,35.85a9.29,9.29,0,0,0,1.62,2.38c-.61-.08-1.23-.14-1.85-.19a8.4,8.4,0,0,0,.23-2v-.17Z"/><path id="path115416-7-2-8-85-6-9-9-4-53-1-24-2" data-name="path115416-7-2-8-85-6-9-9-4-53-1-24" class="cls-3" d="M627.9,81.51a4.87,4.87,0,0,1,2.59.74h.07a4.93,4.93,0,0,1,4.92,4.67,2.26,2.26,0,0,1,0,.26,4.79,4.79,0,0,1-.43,2,4.85,4.85,0,0,1,.84,2.74v.25A5,5,0,0,1,631,96.85a4.81,4.81,0,0,1-.77-.06,4.94,4.94,0,0,1-2.69.8,4.86,4.86,0,0,1-2.62-.75h-.3a4.93,4.93,0,0,1-4.5-6.94,4.92,4.92,0,0,1,4.1-7.66,5.07,5.07,0,0,1,1,.09,4.9,4.9,0,0,1,2.75-.83Z"/><path id="path115416-7-2-8-85-3-4-0-3-8-7-2-7-2-2" data-name="path115416-7-2-8-85-3-4-0-3-8-7-2-7" class="cls-4" d="M629.14,83.08a5,5,0,0,1,2.6.74h.06a4.93,4.93,0,0,1,4.93,4.68v.25a4.91,4.91,0,0,1-.43,2,4.89,4.89,0,0,1,.83,2.74,2.26,2.26,0,0,1,0,.26,4.93,4.93,0,0,1-4.93,4.67,4.77,4.77,0,0,1-.76-.06,5,5,0,0,1-5.32,0h-.29a4.94,4.94,0,0,1-4.94-4.93,4.84,4.84,0,0,1,.44-2,4.82,4.82,0,0,1-.84-2.73,4.94,4.94,0,0,1,4.94-4.93,4.5,4.5,0,0,1,1,.1,4.85,4.85,0,0,1,2.74-.84Z"/><path id="path115416-7-2-8-85-6-9-9-4-53-1-24-8-2" data-name="path115416-7-2-8-85-6-9-9-4-53-1-24-8" class="cls-3" d="M682.37,81.15a5,5,0,0,1,2.59.74H685A4.93,4.93,0,0,1,690,86.57v.25a5,5,0,0,1-.43,2,4.83,4.83,0,0,1,.83,2.73,2.25,2.25,0,0,1,0,.26,4.93,4.93,0,0,1-4.93,4.67,6.33,6.33,0,0,1-.76,0,5,5,0,0,1-5.32,0h-.29a4.94,4.94,0,0,1-4.94-4.93,4.87,4.87,0,0,1,.44-2,4.82,4.82,0,0,1-.84-2.73,4.94,4.94,0,0,1,4.94-4.93,5.23,5.23,0,0,1,1,.1,4.85,4.85,0,0,1,2.74-.84Z"/><path id="path115416-7-2-8-85-3-4-0-3-8-7-2-7-1-2" data-name="path115416-7-2-8-85-3-4-0-3-8-7-2-7-1" class="cls-4" d="M683.62,82.73a4.87,4.87,0,0,1,2.59.74h.07a4.94,4.94,0,0,1,4.93,4.67v.26a5,5,0,0,1-.43,2,4.92,4.92,0,0,1,.83,2.74v.25a13.07,13.07,0,0,1-8.39,5.42,4.89,4.89,0,0,1-2.62-.75h-.29a4.94,4.94,0,0,1-4.94-4.93,4.81,4.81,0,0,1,.44-2A4.84,4.84,0,0,1,675,88.4a4.93,4.93,0,0,1,4.93-4.93,5.07,5.07,0,0,1,1,.09,4.9,4.9,0,0,1,2.75-.83Z"/><path id="path115416-7-2-8-85-6-9-9-4-53-1-24-6-2" data-name="path115416-7-2-8-85-6-9-9-4-53-1-24-6" class="cls-5" d="M753.78,50.61a7.57,7.57,0,0,1,4,1.15h.1A7.62,7.62,0,0,1,765.49,59v.39a7.58,7.58,0,0,1-.67,3.09,7.56,7.56,0,0,1,1.28,4.22c0,.13,0,.27,0,.4a7.62,7.62,0,0,1-8.78,7.12,7.66,7.66,0,0,1-8.2.08h-.45a7.62,7.62,0,0,1-7.62-7.61,7.51,7.51,0,0,1,.68-3.1,7.41,7.41,0,0,1-1.29-4.21,7.61,7.61,0,0,1,7.61-7.6,8.29,8.29,0,0,1,1.5.14,7.57,7.57,0,0,1,4.23-1.29Z"/><path id="path115416-7-2-8-85-3-4-0-3-8-7-2-7-5-2" data-name="path115416-7-2-8-85-3-4-0-3-8-7-2-7-5" class="cls-4" d="M755.71,53a7.57,7.57,0,0,1,4,1.15h.1a7.6,7.6,0,0,1,7.6,7.21c0,.13,0,.26,0,.39a7.57,7.57,0,0,1-.66,3.09A7.56,7.56,0,0,1,768,69.11c0,.13,0,.26,0,.39a7.6,7.6,0,0,1-7.6,7.21,7.53,7.53,0,0,1-1.18-.09,7.61,7.61,0,0,1-8.2.08h-.45a7.61,7.61,0,0,1-7.62-7.6,7.44,7.44,0,0,1,.68-3.1,7.47,7.47,0,0,1-1.3-4.22,7.61,7.61,0,0,1,7.62-7.6,8.1,8.1,0,0,1,1.49.14A7.63,7.63,0,0,1,755.71,53Z"/><path id="path115416-7-2-8-85-6-9-9-4-53-1-24-6-7-2" data-name="path115416-7-2-8-85-6-9-9-4-53-1-24-6-7" class="cls-6" d="M720.85,37.19a5.17,5.17,0,0,1,2.75.79h.06a5.23,5.23,0,0,1,5.23,5,2.43,2.43,0,0,1,0,.27,5.2,5.2,0,0,1-.45,2.12,5.25,5.25,0,0,1,.88,2.9v.27a5.23,5.23,0,0,1-5.23,5,5.32,5.32,0,0,1-.81-.06,5.25,5.25,0,0,1-2.86.85,5.19,5.19,0,0,1-2.78-.8h-.31a5.22,5.22,0,0,1-4.77-7.36,5.14,5.14,0,0,1-.89-2.89A5.24,5.24,0,0,1,716.91,38a5.07,5.07,0,0,1,1,.1,5.18,5.18,0,0,1,2.91-.89Z"/><path id="path115416-7-2-8-85-3-4-0-3-8-7-2-7-5-9-2" data-name="path115416-7-2-8-85-3-4-0-3-8-7-2-7-5-9" class="cls-7" d="M723.27,40a5.13,5.13,0,0,1,2.74.79h.07a5.23,5.23,0,0,1,5.23,5,2.43,2.43,0,0,1,0,.27,5.38,5.38,0,0,1-.45,2.13,5.22,5.22,0,0,1,.88,2.9v.27a5.24,5.24,0,0,1-5.23,5,4.28,4.28,0,0,1-.81-.07,5.2,5.2,0,0,1-2.86.85,5.27,5.27,0,0,1-2.78-.79h-.31A5.22,5.22,0,0,1,715,48.87a5.15,5.15,0,0,1-.89-2.9,5.23,5.23,0,0,1,5.24-5.22,4.9,4.9,0,0,1,1,.1,5.24,5.24,0,0,1,2.92-.89Z"/><path id="path115416-7-2-8-85-6-9-9-4-53-1-24-9-2" data-name="path115416-7-2-8-85-6-9-9-4-53-1-24-9" class="cls-3" d="M542.72,59.16a4.93,4.93,0,0,1,2.6.74h.06a4.93,4.93,0,0,1,4.93,4.68v.25a5,5,0,0,1-.43,2,4.89,4.89,0,0,1,.83,2.74,2.26,2.26,0,0,1,0,.26,4.93,4.93,0,0,1-4.93,4.67,4.77,4.77,0,0,1-.76-.06,5,5,0,0,1-5.32,0h-.29a4.94,4.94,0,0,1-4.94-4.93,4.81,4.81,0,0,1,.44-2,4.82,4.82,0,0,1-.84-2.73A4.94,4.94,0,0,1,539,59.9a4.5,4.5,0,0,1,1,.1,4.85,4.85,0,0,1,2.74-.84Z"/><path id="path115416-7-2-8-85-3-4-0-3-8-7-2-7-2-3" data-name="path115416-7-2-8-85-3-4-0-3-8-7-2-7-2" class="cls-4" d="M544,60.73a5,5,0,0,1,2.59.74h.07a5,5,0,0,1,4.93,4.68v.25a5,5,0,0,1-.43,2,4.91,4.91,0,0,1,.83,2.73v.26A4.94,4.94,0,0,1,547,76.07a6.49,6.49,0,0,1-.77,0,4.94,4.94,0,0,1-5.31,0h-.29a4.93,4.93,0,0,1-4.94-4.93,4.87,4.87,0,0,1,.44-2,4.82,4.82,0,0,1-.84-2.73,4.94,4.94,0,0,1,4.94-4.93,5,5,0,0,1,1,.1,4.91,4.91,0,0,1,2.75-.84Z"/><path id="path115416-7-2-8-85-6-9-9-4-53-1-24-96-2" data-name="path115416-7-2-8-85-6-9-9-4-53-1-24-96" class="cls-3" d="M593.3,62.46a4.9,4.9,0,0,1,2.6.74H596a4.93,4.93,0,0,1,4.93,4.67,2.26,2.26,0,0,1,0,.26,5,5,0,0,1-.43,2,4.84,4.84,0,0,1,.83,2.74,2.09,2.09,0,0,1,0,.25,4.93,4.93,0,0,1-4.93,4.68,4.77,4.77,0,0,1-.76-.06,5,5,0,0,1-2.7.8,4.89,4.89,0,0,1-2.62-.75H590a4.91,4.91,0,0,1-4.5-6.94,4.84,4.84,0,0,1-.84-2.73,4.94,4.94,0,0,1,4.94-4.93,5.15,5.15,0,0,1,1,.09,4.89,4.89,0,0,1,2.74-.83Z"/><path id="path115416-7-2-8-85-3-4-0-3-8-7-2-7-23-2" data-name="path115416-7-2-8-85-3-4-0-3-8-7-2-7-23" class="cls-8" d="M594.55,64a5,5,0,0,1,2.59.74h.07a4.93,4.93,0,0,1,4.93,4.68v.25a4.91,4.91,0,0,1-.43,2,5,5,0,0,1,.83,2.74v.26a4.94,4.94,0,0,1-5.7,4.61,4.94,4.94,0,0,1-5.31,0h-.29a4.93,4.93,0,0,1-4.94-4.93,4.84,4.84,0,0,1,.44-2,4.82,4.82,0,0,1-.84-2.73,4.94,4.94,0,0,1,4.94-4.93,4.34,4.34,0,0,1,1,.1,4.91,4.91,0,0,1,2.75-.84Z"/><path id="path115416-7-2-8-85-6-9-9-4-53-1-24-96-1-2" data-name="path115416-7-2-8-85-6-9-9-4-53-1-24-96-1" class="cls-9" d="M701.07,56.34a7.14,7.14,0,0,1,2.61.47h.07c2.66,0,4.83,1.29,5,2.93v.16a2.09,2.09,0,0,1-.44,1.25,2.35,2.35,0,0,1,.84,1.72.86.86,0,0,1,0,.16c-.13,1.63-2.31,2.93-5,2.93-.26,0-.52,0-.77,0A7.65,7.65,0,0,1,698,66h-.29c-2.75,0-5-1.38-5-3.09a2.12,2.12,0,0,1,.44-1.26,2.35,2.35,0,0,1-.84-1.71c0-1.71,2.23-3.09,5-3.09a7.66,7.66,0,0,1,1,.06,7.05,7.05,0,0,1,2.77-.53Z"/><path id="path115416-7-2-8-85-3-4-0-3-8-7-2-7-23-8-2" data-name="path115416-7-2-8-85-3-4-0-3-8-7-2-7-23-8" class="cls-8" d="M702.33,57.32a7.35,7.35,0,0,1,2.61.47H705c2.66,0,4.83,1.3,5,2.93v.16a2.14,2.14,0,0,1-.44,1.26,2.35,2.35,0,0,1,.84,1.71V64c-.13,1.64-2.31,2.94-5,2.94-.26,0-.52,0-.77,0a7.21,7.21,0,0,1-2.72.5,7.3,7.3,0,0,1-2.64-.47H699c-2.75,0-5-1.39-5-3.1a2.14,2.14,0,0,1,.44-1.26,2.33,2.33,0,0,1-.84-1.71c0-1.71,2.23-3.09,5-3.09a7.82,7.82,0,0,1,1,.06,7.23,7.23,0,0,1,2.77-.53Z"/><path id="path115416-7-2-8-85-6-9-9-4-53-1-24-96-1-4-2-2" data-name="path115416-7-2-8-85-6-9-9-4-53-1-24-96-1-4" class="cls-9" d="M575.67,36.58a7.41,7.41,0,0,1,2.62.46h.06c2.66,0,4.84,1.3,5,2.93a.85.85,0,0,1,0,.16,2.2,2.2,0,0,1-.43,1.26,2.35,2.35,0,0,1,.84,1.72v.16c-.14,1.63-2.31,2.93-5,2.93a6.68,6.68,0,0,1-.78,0,7.19,7.19,0,0,1-2.71.5,7.26,7.26,0,0,1-2.64-.47h-.3c-2.74,0-5-1.39-5-3.09a2.12,2.12,0,0,1,.44-1.26,2.34,2.34,0,0,1-.85-1.72c0-1.71,2.23-3.09,5-3.09a7.93,7.93,0,0,1,1,.06,7.22,7.22,0,0,1,2.76-.52Z"/><path id="path115416-7-2-8-85-3-4-0-3-8-7-2-7-23-8-5-2" data-name="path115416-7-2-8-85-3-4-0-3-8-7-2-7-23-8-5" class="cls-8" d="M576.93,37.56a7.36,7.36,0,0,1,2.61.46h.07c2.66,0,4.83,1.3,5,2.94v.16a2.11,2.11,0,0,1-.44,1.25,2.35,2.35,0,0,1,.84,1.72.86.86,0,0,1,0,.16c-.13,1.63-2.31,2.93-5,2.93a6.51,6.51,0,0,1-.77,0,7.21,7.21,0,0,1-2.72.51,7.52,7.52,0,0,1-2.64-.47h-.29c-2.75,0-5-1.38-5-3.09a2.12,2.12,0,0,1,.44-1.26,2.35,2.35,0,0,1-.84-1.71c0-1.71,2.23-3.1,5-3.1a7.82,7.82,0,0,1,1,.06,7.24,7.24,0,0,1,2.77-.52Z"/><path id="path115416-7-2-8-85-6-9-9-4-53-1-24-96-1-4-2-3" data-name="path115416-7-2-8-85-6-9-9-4-53-1-24-96-1-4-2" class="cls-10" d="M657.5,47.4a11.3,11.3,0,0,1,4,.72h.1c4.1,0,7.45,2,7.66,4.51v.25a3.32,3.32,0,0,1-.67,1.93,3.62,3.62,0,0,1,1.29,2.65,2.09,2.09,0,0,1,0,.25c-.21,2.51-3.56,4.51-7.66,4.51-.4,0-.8,0-1.19,0a11.16,11.16,0,0,1-4.18.77,11.31,11.31,0,0,1-4.07-.72h-.45c-4.23,0-7.67-2.13-7.67-4.76a3.29,3.29,0,0,1,.68-1.94,3.62,3.62,0,0,1-1.3-2.64c0-2.63,3.43-4.76,7.66-4.76a12.38,12.38,0,0,1,1.51.09,11.11,11.11,0,0,1,4.26-.81Z"/><path id="path115416-7-2-8-85-3-4-0-3-8-7-2-7-23-8-5-8-2" data-name="path115416-7-2-8-85-3-4-0-3-8-7-2-7-23-8-5-8" class="cls-8" d="M659.44,48.92a11.3,11.3,0,0,1,4,.72h.1c4.1,0,7.45,2,7.66,4.51v.25a3.37,3.37,0,0,1-.67,1.94A3.59,3.59,0,0,1,671.85,59a2.09,2.09,0,0,1,0,.25c-.21,2.51-3.56,4.51-7.66,4.51a11.72,11.72,0,0,1-1.19-.05,11.16,11.16,0,0,1-4.18.77,11.31,11.31,0,0,1-4.07-.72h-.45c-4.23,0-7.67-2.13-7.67-4.76a3.29,3.29,0,0,1,.68-1.94A3.62,3.62,0,0,1,646,54.4c0-2.63,3.43-4.76,7.66-4.76a12.38,12.38,0,0,1,1.51.09,11.11,11.11,0,0,1,4.26-.81Z"/></g><g id="Burrow_Front-3" data-name="Burrow Front"><path id="path174-2-7-3" data-name="path174-2-7" class="cls-13" d="M451.94,73.18a11.67,11.67,0,0,0-7,2.23,11.93,11.93,0,0,0-5.14-1.15c-6,0-10.86,4.32-10.86,9.63a8.56,8.56,0,0,0,.54,3,8.94,8.94,0,0,0-2.73,6.35,8.7,8.7,0,0,0,.35,2.4,11.25,11.25,0,0,0-2.7,1.17,10.59,10.59,0,0,0-4,3.13v0a25.91,25.91,0,0,0-2.87,1.27,12.29,12.29,0,0,0-8.89-7.54,10.57,10.57,0,0,0-14.24-.3,10.56,10.56,0,0,0-6.22-2.07c-6.23,0-11.34,5.59-11.91,12.72a10.23,10.23,0,0,0-3.5-.62,11.37,11.37,0,0,0-9.16,5c-.6,0-1.22-.06-1.84-.06a35.93,35.93,0,0,0-5.57.43c-2.07-4.2-5.94-7-10.37-7-5,0-9.33,3.64-11.1,8.79-1.88-4.85-6-8.23-10.88-8.23a11.3,11.3,0,0,0-9.11,5,10.36,10.36,0,0,0-4.63-1.11c-5,0-9.2,3.51-11,8.52a10.61,10.61,0,0,0-6-1.92c-4.44,0-8.32,2.83-10.38,7a6.26,6.26,0,0,0-2.83-.69c-3.87,0-7,3.67-7,8.21s3.13,8.22,7,8.22a6.28,6.28,0,0,0,3.28-.93c0,.08.1.14.14.21a7.34,7.34,0,0,0,5.45,5,10.46,10.46,0,0,0,4.34,1A10.59,10.59,0,0,0,299,139c.85,3.42,3.54,5.94,6.74,5.94a5.82,5.82,0,0,0,1.5-.19,11.3,11.3,0,0,0,9.24.31,6.4,6.4,0,0,0,4.65,2.07,6.7,6.7,0,0,0,5.49-3.11c2.88,5.19,10.56,9,19.76,9.42a6.92,6.92,0,0,0,6.09,4.14,6.76,6.76,0,0,0,5.67-3.4,17,17,0,0,0,2.26,2c.54,3.91,3.43,6.89,6.92,6.89a6.49,6.49,0,0,0,4.88-2.32l.18,0a7.11,7.11,0,0,0,6.47,5.06,6.06,6.06,0,0,0,2.4-.49c4.15,2.85,10.17,4.63,16.86,4.63,8.87,0,16.53-3.14,20.26-7.72.51,0,1-.06,1.52-.1a11.66,11.66,0,0,0,4.61,1,10.89,10.89,0,0,0,10-6.13c.28-.21.53-.41.78-.63a12.19,12.19,0,0,0,1.82.16,11.6,11.6,0,0,0,2.73-.33,6.91,6.91,0,0,0,6.08,4.14,7,7,0,0,0,6.37-4.79,12.76,12.76,0,0,0,1.87.14,11.86,11.86,0,0,0,5.65-1.41,6.47,6.47,0,0,0,4.8,2.21c3,0,5.51-2.18,6.53-5.24a7.57,7.57,0,0,0,3-.23,6.32,6.32,0,0,0,4.18,1.62,7.11,7.11,0,0,0,6.46-5,11.54,11.54,0,0,0,5.65,1.44,11,11,0,0,0,9.67-5.39,11.9,11.9,0,0,0,4.08.71c6,0,10.85-4.42,10.85-9.89a9,9,0,0,0-.2-1.88,9.25,9.25,0,0,0,1.31-4.72,9.59,9.59,0,0,0-4.24-7.82,9.13,9.13,0,0,0,.39-2.62c0-5.47-4.88-9.9-10.88-9.9a13.31,13.31,0,0,0-1.56.12,8.43,8.43,0,0,0,.33-2.31c0-5.31-4.86-9.63-10.86-9.63l-.51,0a6.91,6.91,0,0,0-6.08-4.12,6.18,6.18,0,0,0-2.85.72c-2.69-4.61-9.18-8.09-17.13-9,0-.18,0-.36,0-.54,0-5.31-4.85-9.6-10.85-9.6ZM479.29,109a9.45,9.45,0,0,0,1.61,2.37c-.6-.08-1.22-.13-1.84-.18a8.54,8.54,0,0,0,.23-2V109Zm-24,1.94c.8.07,1.63.11,2.46.13a8,8,0,0,0,.45,1.33,26.65,26.65,0,0,0-3-1.21c0-.08.05-.16.08-.25Z"/><path id="path174-2-7-1-3" data-name="path174-2-7-1" class="cls-14" d="M452.22,73.24a11.7,11.7,0,0,0-7,2.24,11.93,11.93,0,0,0-5.14-1.15,12.07,12.07,0,0,0-2.64.31,67.88,67.88,0,0,1,5.39,4.54C450.26,80,456,85.91,456,93.09a13.41,13.41,0,0,1-.78,4.49,32.22,32.22,0,0,1,1.66,10.12v0A13.58,13.58,0,0,1,461.62,118c0,7.68-6.55,13.92-14.69,14l-.75.86a10.91,10.91,0,0,1,1,4.48c0,7.75-8.4,14-18.79,14a24.39,24.39,0,0,1-2.72-.15c-1.59,6.78-11,12-22.45,12a33.89,33.89,0,0,1-11-1.75,16,16,0,0,1-8.83,5.06A31.68,31.68,0,0,0,398.34,170c8.87,0,16.53-3.14,20.26-7.73.51,0,1-.06,1.52-.1a11.66,11.66,0,0,0,4.61,1,10.89,10.89,0,0,0,10-6.12c.28-.21.53-.42.78-.64a11,11,0,0,0,1.83.17,12.13,12.13,0,0,0,2.72-.33,6.92,6.92,0,0,0,6.09,4.14,7.06,7.06,0,0,0,6.37-4.8,11.3,11.3,0,0,0,1.86.15,11.75,11.75,0,0,0,5.65-1.42,6.48,6.48,0,0,0,4.8,2.22c3,0,5.51-2.18,6.53-5.25.3,0,.59.06.88.06a8.51,8.51,0,0,0,2.15-.28,6.34,6.34,0,0,0,4.18,1.62,7.11,7.11,0,0,0,6.46-5,11.64,11.64,0,0,0,5.65,1.43,11,11,0,0,0,9.67-5.39,11.67,11.67,0,0,0,4.08.72c6,0,10.85-4.43,10.85-9.89a9,9,0,0,0-.2-1.89,9.09,9.09,0,0,0,1.31-4.71,9.61,9.61,0,0,0-4.24-7.83,9.08,9.08,0,0,0,.39-2.62c0-5.46-4.88-9.89-10.88-9.89a11.45,11.45,0,0,0-1.56.12,8.5,8.5,0,0,0,.33-2.32c0-5.31-4.86-9.62-10.86-9.62l-.51,0A6.91,6.91,0,0,0,483,91.68a6.06,6.06,0,0,0-2.85.72c-2.69-4.61-9.18-8.09-17.13-9a4.75,4.75,0,0,0,.05-.53c0-5.31-4.86-9.61-10.86-9.61Zm27.35,35.85a9.29,9.29,0,0,0,1.62,2.38c-.61-.08-1.23-.14-1.85-.19a8.4,8.4,0,0,0,.23-2v-.17Z"/><path id="path115416-7-2-8-85-6-9-9-4-53-1-24-3" data-name="path115416-7-2-8-85-6-9-9-4-53-1-24" class="cls-3" d="M378.65,148.18a4.87,4.87,0,0,1,2.59.74h.07a5,5,0,0,1,4.93,4.68v.25a5,5,0,0,1-.43,2,5,5,0,0,1,.83,2.74v.25a4.94,4.94,0,0,1-5.7,4.62,4.94,4.94,0,0,1-5.31,0h-.29a4.94,4.94,0,0,1-4.94-4.93,4.81,4.81,0,0,1,.44-2,4.84,4.84,0,0,1-.84-2.73,4.93,4.93,0,0,1,4.93-4.93,4.37,4.37,0,0,1,1,.1,4.91,4.91,0,0,1,2.75-.84Z"/><path id="path115416-7-2-8-85-3-4-0-3-8-7-2-7-3" data-name="path115416-7-2-8-85-3-4-0-3-8-7-2-7" class="cls-4" d="M379.89,149.75a5,5,0,0,1,2.6.74h.06a4.93,4.93,0,0,1,4.93,4.68,2.09,2.09,0,0,1,0,.25,5,5,0,0,1-.43,2,4.83,4.83,0,0,1,.83,2.73,2.26,2.26,0,0,1,0,.26,4.93,4.93,0,0,1-4.93,4.67,4.77,4.77,0,0,1-.76-.06,4.9,4.9,0,0,1-2.7.81,5,5,0,0,1-2.62-.75h-.29a4.94,4.94,0,0,1-4.94-4.93,4.87,4.87,0,0,1,.44-2,4.82,4.82,0,0,1-.84-2.73,4.94,4.94,0,0,1,4.94-4.93,5.15,5.15,0,0,1,1,.1,4.87,4.87,0,0,1,2.74-.84Z"/><path id="path115416-7-2-8-85-6-9-9-4-53-1-24-8-3" data-name="path115416-7-2-8-85-6-9-9-4-53-1-24-8" class="cls-3" d="M433.12,147.82a4.93,4.93,0,0,1,2.6.75h.06a4.93,4.93,0,0,1,4.93,4.67,2.26,2.26,0,0,1,0,.26,5,5,0,0,1-.43,2,4.84,4.84,0,0,1,.83,2.74,2.09,2.09,0,0,1,0,.25,4.93,4.93,0,0,1-4.93,4.68,4.77,4.77,0,0,1-.76-.06,5,5,0,0,1-5.32,0h-.29a4.94,4.94,0,0,1-4.94-4.93,4.81,4.81,0,0,1,.44-2,4.87,4.87,0,0,1-.84-2.73,4.94,4.94,0,0,1,4.94-4.93,5.15,5.15,0,0,1,1,.09,4.87,4.87,0,0,1,2.74-.84Z"/><path id="path115416-7-2-8-85-3-4-0-3-8-7-2-7-1-3" data-name="path115416-7-2-8-85-3-4-0-3-8-7-2-7-1" class="cls-4" d="M434.37,149.4a4.87,4.87,0,0,1,2.59.74H437a4.94,4.94,0,0,1,4.93,4.67v.26a5,5,0,0,1-.43,2,5,5,0,0,1,.83,2.74v.25a4.94,4.94,0,0,1-5.7,4.62,4.94,4.94,0,0,1-5.31,0h-.29a4.94,4.94,0,0,1-4.94-4.93,4.81,4.81,0,0,1,.44-2,4.84,4.84,0,0,1-.84-2.73,4.94,4.94,0,0,1,4.94-4.93,5,5,0,0,1,1,.09,5,5,0,0,1,2.75-.83Z"/><path id="path115416-7-2-8-85-6-9-9-4-53-1-24-6-3" data-name="path115416-7-2-8-85-6-9-9-4-53-1-24-6" class="cls-5" d="M504.53,117.28a7.57,7.57,0,0,1,4,1.15h.1a7.62,7.62,0,0,1,7.61,7.21V126a7.58,7.58,0,0,1-.67,3.09,7.56,7.56,0,0,1,1.28,4.23c0,.13,0,.26,0,.39a7.6,7.6,0,0,1-7.6,7.21,7.72,7.72,0,0,1-1.18-.09,7.61,7.61,0,0,1-8.2.08h-.45a7.61,7.61,0,0,1-7.62-7.6,7.52,7.52,0,0,1,.68-3.11,7.48,7.48,0,0,1-1.29-4.21,7.61,7.61,0,0,1,7.61-7.6,8.2,8.2,0,0,1,1.5.14,7.57,7.57,0,0,1,4.23-1.29Z"/><path id="path115416-7-2-8-85-3-4-0-3-8-7-2-7-5-3" data-name="path115416-7-2-8-85-3-4-0-3-8-7-2-7-5" class="cls-4" d="M506.46,119.71a7.57,7.57,0,0,1,4,1.15h.1a7.6,7.6,0,0,1,7.6,7.21c0,.13,0,.26,0,.39a7.54,7.54,0,0,1-.66,3.09,7.56,7.56,0,0,1,1.28,4.23c0,.13,0,.26,0,.39a7.6,7.6,0,0,1-7.6,7.21,7.53,7.53,0,0,1-1.18-.09,7.62,7.62,0,0,1-4.16,1.24,7.54,7.54,0,0,1-4-1.16h-.45a7.61,7.61,0,0,1-7.62-7.6,7.44,7.44,0,0,1,.68-3.1,7.47,7.47,0,0,1-1.3-4.22,7.61,7.61,0,0,1,7.62-7.6,7.31,7.31,0,0,1,1.49.15,7.56,7.56,0,0,1,4.24-1.3Z"/><path id="path115416-7-2-8-85-6-9-9-4-53-1-24-6-7-3" data-name="path115416-7-2-8-85-6-9-9-4-53-1-24-6-7" class="cls-6" d="M471.6,103.86a5.26,5.26,0,0,1,2.75.79h.07a5.23,5.23,0,0,1,5.22,5,2.43,2.43,0,0,1,0,.27,5.2,5.2,0,0,1-.45,2.12,5.25,5.25,0,0,1,.88,2.9v.27a5.23,5.23,0,0,1-5.23,5,5.32,5.32,0,0,1-.81-.06,5.25,5.25,0,0,1-2.86.85,5.19,5.19,0,0,1-2.78-.8h-.31a5.22,5.22,0,0,1-4.77-7.36,5.14,5.14,0,0,1-.89-2.89,5.24,5.24,0,0,1,5.24-5.23,5.07,5.07,0,0,1,1,.1,5.18,5.18,0,0,1,2.91-.89Z"/><path id="path115416-7-2-8-85-3-4-0-3-8-7-2-7-5-9-3" data-name="path115416-7-2-8-85-3-4-0-3-8-7-2-7-5-9" class="cls-7" d="M474,106.63a5.13,5.13,0,0,1,2.74.79h.07a5.23,5.23,0,0,1,5.23,5,2.43,2.43,0,0,1,0,.27,5.38,5.38,0,0,1-.45,2.13,5.22,5.22,0,0,1,.88,2.9v.27a5.24,5.24,0,0,1-5.23,5,5.29,5.29,0,0,0-3.67.79,5.28,5.28,0,0,1-2.78-.8h-.31a5.22,5.22,0,0,1-4.77-7.36,5.15,5.15,0,0,1-.89-2.9,5.23,5.23,0,0,1,5.24-5.22,5.07,5.07,0,0,1,1,.1,5.18,5.18,0,0,1,2.91-.89Z"/><path id="path115416-7-2-8-85-6-9-9-4-53-1-24-9-3" data-name="path115416-7-2-8-85-6-9-9-4-53-1-24-9" class="cls-3" d="M293.47,125.83a5,5,0,0,1,2.6.74h.06a4.93,4.93,0,0,1,4.93,4.68,2.09,2.09,0,0,1,0,.25,4.91,4.91,0,0,1-.43,2,4.89,4.89,0,0,1,.83,2.74,2.26,2.26,0,0,1,0,.26,4.93,4.93,0,0,1-4.93,4.67,4.77,4.77,0,0,1-.76-.06,5,5,0,0,1-5.32,0h-.29a4.94,4.94,0,0,1-4.94-4.93,4.87,4.87,0,0,1,.44-2,4.82,4.82,0,0,1-.84-2.73,4.94,4.94,0,0,1,4.94-4.93,5.15,5.15,0,0,1,1,.1,4.87,4.87,0,0,1,2.74-.84Z"/><path id="path115416-7-2-8-85-3-4-0-3-8-7-2-7-2-4" data-name="path115416-7-2-8-85-3-4-0-3-8-7-2-7-2" class="cls-4" d="M294.72,127.4a4.87,4.87,0,0,1,2.59.75h.07a4.94,4.94,0,0,1,4.93,4.67v.26a5,5,0,0,1-.43,2,4.92,4.92,0,0,1,.83,2.74v.25a4.94,4.94,0,0,1-5.7,4.62,4.94,4.94,0,0,1-5.31.05h-.29a4.94,4.94,0,0,1-4.94-4.93,4.81,4.81,0,0,1,.44-2,4.87,4.87,0,0,1-.84-2.73,4.93,4.93,0,0,1,4.94-4.93,5,5,0,0,1,1,.09,4.91,4.91,0,0,1,2.75-.84Z"/><path id="path115416-7-2-8-85-6-9-9-4-53-1-24-96-3" data-name="path115416-7-2-8-85-6-9-9-4-53-1-24-96" class="cls-3" d="M344.06,129.13a4.89,4.89,0,0,1,2.59.74h.06a4.93,4.93,0,0,1,4.93,4.67,2.26,2.26,0,0,1,0,.26,4.79,4.79,0,0,1-.43,2,4.87,4.87,0,0,1,.83,2.74,2.08,2.08,0,0,1,0,.25,4.93,4.93,0,0,1-4.93,4.68,4.77,4.77,0,0,1-.76-.06,5,5,0,0,1-5.32.05h-.29a4.93,4.93,0,0,1-4.5-6.94,4.91,4.91,0,0,1,4.1-7.66,4.43,4.43,0,0,1,1,.1,4.91,4.91,0,0,1,2.75-.84Z"/><path id="path115416-7-2-8-85-3-4-0-3-8-7-2-7-23-3" data-name="path115416-7-2-8-85-3-4-0-3-8-7-2-7-23" class="cls-8" d="M345.3,130.7a5,5,0,0,1,2.59.74H348a4.93,4.93,0,0,1,4.93,4.68v.25a5,5,0,0,1-.43,2,4.91,4.91,0,0,1,.83,2.73v.26a4.94,4.94,0,0,1-5.7,4.61,4.87,4.87,0,0,1-2.69.81,5,5,0,0,1-2.62-.75H342a4.93,4.93,0,0,1-4.94-4.93,4.87,4.87,0,0,1,.44-2,4.82,4.82,0,0,1-.84-2.73,4.94,4.94,0,0,1,4.94-4.93,5.23,5.23,0,0,1,1,.1,4.85,4.85,0,0,1,2.74-.84Z"/><path id="path115416-7-2-8-85-6-9-9-4-53-1-24-96-1-3" data-name="path115416-7-2-8-85-6-9-9-4-53-1-24-96-1" class="cls-9" d="M451.82,123a7.14,7.14,0,0,1,2.61.47h.07c2.66,0,4.84,1.3,5,2.93v.16a2.15,2.15,0,0,1-.43,1.25,2.36,2.36,0,0,1,.83,1.72.85.85,0,0,1,0,.16c-.13,1.64-2.31,2.93-5,2.93-.26,0-.52,0-.77,0a7.65,7.65,0,0,1-5.36,0h-.29c-2.75,0-5-1.38-5-3.09a2.14,2.14,0,0,1,.44-1.26,2.33,2.33,0,0,1-.84-1.71c0-1.71,2.23-3.09,5-3.09a7.66,7.66,0,0,1,1,.06,7.23,7.23,0,0,1,2.77-.53Z"/><path id="path115416-7-2-8-85-3-4-0-3-8-7-2-7-23-8-3" data-name="path115416-7-2-8-85-3-4-0-3-8-7-2-7-23-8" class="cls-8" d="M453.08,124a7.35,7.35,0,0,1,2.61.47h.07c2.66,0,4.83,1.3,5,2.93v.16a2.14,2.14,0,0,1-.44,1.26,2.35,2.35,0,0,1,.84,1.72.75.75,0,0,1,0,.15c-.13,1.64-2.31,2.94-5,2.94-.26,0-.52,0-.77,0a7.21,7.21,0,0,1-2.72.5,7.3,7.3,0,0,1-2.64-.47h-.29c-2.75,0-5-1.39-5-3.09a2.17,2.17,0,0,1,.44-1.27,2.33,2.33,0,0,1-.84-1.71c0-1.71,2.23-3.09,5-3.09a7.82,7.82,0,0,1,1,.06,7.23,7.23,0,0,1,2.77-.53Z"/><path id="path115416-7-2-8-85-6-9-9-4-53-1-24-96-1-4-3" data-name="path115416-7-2-8-85-6-9-9-4-53-1-24-96-1-4" class="cls-9" d="M326.42,103.25a7.41,7.41,0,0,1,2.62.46h.06c2.66,0,4.84,1.3,5,2.93a.85.85,0,0,1,0,.16,2.18,2.18,0,0,1-.43,1.26,2.35,2.35,0,0,1,.84,1.72v.16c-.14,1.63-2.31,2.93-5,2.93a6.4,6.4,0,0,1-.77,0,7.65,7.65,0,0,1-5.36,0h-.3c-2.74,0-5-1.38-5-3.09a2.12,2.12,0,0,1,.44-1.26,2.36,2.36,0,0,1-.85-1.72c0-1.7,2.23-3.09,5-3.09a7.93,7.93,0,0,1,1,.06,7.22,7.22,0,0,1,2.76-.52Z"/><path id="path115416-7-2-8-85-3-4-0-3-8-7-2-7-23-8-5-3" data-name="path115416-7-2-8-85-3-4-0-3-8-7-2-7-23-8-5" class="cls-8" d="M327.68,104.23a7.14,7.14,0,0,1,2.61.47h.07c2.66,0,4.83,1.29,5,2.93v.16a2.09,2.09,0,0,1-.44,1.25,2.37,2.37,0,0,1,.84,1.72.86.86,0,0,1,0,.16c-.13,1.63-2.31,2.93-5,2.93-.26,0-.52,0-.77,0a7.65,7.65,0,0,1-5.36,0h-.29c-2.75,0-5-1.38-5-3.09a2.14,2.14,0,0,1,.44-1.26,2.35,2.35,0,0,1-.84-1.71c0-1.71,2.23-3.09,5-3.09a7.7,7.7,0,0,1,1,.06,7.05,7.05,0,0,1,2.77-.53Z"/><path id="path115416-7-2-8-85-6-9-9-4-53-1-24-96-1-4-2-4" data-name="path115416-7-2-8-85-6-9-9-4-53-1-24-96-1-4-2" class="cls-10" d="M408.25,114.07a11.3,11.3,0,0,1,4,.72h.1c4.1,0,7.45,2,7.66,4.51v.25a3.37,3.37,0,0,1-.67,1.94,3.59,3.59,0,0,1,1.29,2.64,2.09,2.09,0,0,1,0,.25c-.21,2.52-3.56,4.51-7.66,4.51a11.4,11.4,0,0,1-1.18,0,11.82,11.82,0,0,1-8.26,0h-.45c-4.23,0-7.67-2.14-7.67-4.77a3.29,3.29,0,0,1,.68-1.94,3.62,3.62,0,0,1-1.3-2.64c0-2.63,3.43-4.76,7.66-4.76a12.38,12.38,0,0,1,1.51.09,11.11,11.11,0,0,1,4.26-.81Z"/><path id="path115416-7-2-8-85-3-4-0-3-8-7-2-7-23-8-5-8-3" data-name="path115416-7-2-8-85-3-4-0-3-8-7-2-7-23-8-5-8" class="cls-8" d="M410.19,115.59a11.3,11.3,0,0,1,4,.72h.1c4.1,0,7.45,2,7.66,4.52v.24a3.35,3.35,0,0,1-.67,1.94,3.59,3.59,0,0,1,1.29,2.64,2.09,2.09,0,0,1,0,.25c-.21,2.52-3.56,4.52-7.66,4.52a11.37,11.37,0,0,1-1.18-.06,11.82,11.82,0,0,1-8.26,0h-.45c-4.23,0-7.67-2.14-7.67-4.77a3.29,3.29,0,0,1,.68-1.94,3.62,3.62,0,0,1-1.3-2.64c0-2.63,3.43-4.76,7.66-4.76a12.38,12.38,0,0,1,1.51.09,11.11,11.11,0,0,1,4.26-.81Z"/></g><g id="Burrow_Front-4" data-name="Burrow Front"><path id="path174-2-7-4" data-name="path174-2-7" class="cls-15" d="M179.11,154.79a11.67,11.67,0,0,0-7,2.24,11.93,11.93,0,0,0-5.14-1.15c-6,0-10.86,4.31-10.86,9.63a8.79,8.79,0,0,0,.53,3,9,9,0,0,0-2.72,6.35,8.7,8.7,0,0,0,.35,2.4,11.54,11.54,0,0,0-2.71,1.16,10.68,10.68,0,0,0-4,3.14v0a25.91,25.91,0,0,0-2.87,1.27,12.28,12.28,0,0,0-8.89-7.54,10.59,10.59,0,0,0-14.24-.31,10.63,10.63,0,0,0-6.23-2.07c-6.23,0-11.33,5.6-11.9,12.73a10.23,10.23,0,0,0-3.5-.62,11.34,11.34,0,0,0-9.16,5c-.6,0-1.22-.06-1.84-.06a35.83,35.83,0,0,0-5.57.43c-2.07-4.2-5.94-7-10.37-7-5,0-9.33,3.64-11.1,8.79-1.88-4.85-6-8.24-10.88-8.24a11.35,11.35,0,0,0-9.12,5,10.42,10.42,0,0,0-4.63-1.1c-4.94,0-9.19,3.51-11,8.52a10.54,10.54,0,0,0-6-1.93c-4.44,0-8.32,2.84-10.39,7a6.19,6.19,0,0,0-2.82-.7c-3.88,0-7,3.68-7,8.22s3.13,8.21,7,8.21a6.21,6.21,0,0,0,3.27-.92l.15.2a7.32,7.32,0,0,0,5.45,5,10.32,10.32,0,0,0,4.34,1,10.52,10.52,0,0,0,5.9-1.85c.84,3.43,3.54,5.94,6.74,5.94a6.14,6.14,0,0,0,1.49-.18,11.3,11.3,0,0,0,9.24.31,6.48,6.48,0,0,0,4.65,2.07,6.66,6.66,0,0,0,5.49-3.12c2.89,5.19,10.56,9,19.77,9.43a6.91,6.91,0,0,0,6.09,4.13,6.73,6.73,0,0,0,5.67-3.4,16.25,16.25,0,0,0,2.25,2c.55,3.91,3.44,6.88,6.93,6.88a6.48,6.48,0,0,0,4.87-2.31l.19,0a7.09,7.09,0,0,0,6.47,5.06,6.28,6.28,0,0,0,2.4-.49c4.15,2.84,10.17,4.63,16.86,4.63,8.87,0,16.53-3.14,20.26-7.73.51,0,1-.06,1.51-.1a11.73,11.73,0,0,0,4.61,1,10.91,10.91,0,0,0,10-6.12c.27-.21.53-.42.78-.64a10.9,10.9,0,0,0,1.82.17,11.66,11.66,0,0,0,2.73-.33,6.91,6.91,0,0,0,6.08,4.14,7,7,0,0,0,6.37-4.8,11.51,11.51,0,0,0,1.87.15,11.78,11.78,0,0,0,5.65-1.42,6.47,6.47,0,0,0,4.79,2.22c3,0,5.52-2.18,6.54-5.25a7.74,7.74,0,0,0,3-.22,6.32,6.32,0,0,0,4.18,1.62,7.09,7.09,0,0,0,6.45-5,11.71,11.71,0,0,0,5.66,1.43,11,11,0,0,0,9.67-5.39,11.61,11.61,0,0,0,4.07.72c6,0,10.86-4.43,10.86-9.89a9,9,0,0,0-.2-1.89,9.19,9.19,0,0,0,1.31-4.71,9.61,9.61,0,0,0-4.24-7.83,9.08,9.08,0,0,0,.39-2.62c0-5.46-4.88-9.89-10.88-9.89a11.45,11.45,0,0,0-1.56.12,8.48,8.48,0,0,0,.33-2.31c0-5.32-4.86-9.63-10.86-9.63l-.51,0a6.92,6.92,0,0,0-6.09-4.12,6,6,0,0,0-2.84.72c-2.69-4.61-9.18-8.09-17.13-9,0-.17,0-.35,0-.53,0-5.31-4.85-9.61-10.85-9.61Zm27.34,35.85a9.63,9.63,0,0,0,1.62,2.38c-.6-.08-1.22-.13-1.84-.18a8.54,8.54,0,0,0,.22-2,1,1,0,0,0,0-.17Zm-24,2c.8.07,1.62.11,2.45.12a8.71,8.71,0,0,0,.46,1.33,28,28,0,0,0-3-1.2l.09-.25Z"/><path id="path174-2-7-1-4" data-name="path174-2-7-1" class="cls-16" d="M179.39,154.86a11.67,11.67,0,0,0-7,2.23,11.93,11.93,0,0,0-5.14-1.15,12.07,12.07,0,0,0-2.64.31A69.81,69.81,0,0,1,170,160.8c7.4.82,13.15,6.73,13.15,13.91a13.41,13.41,0,0,1-.78,4.49,32.22,32.22,0,0,1,1.66,10.12v0a13.56,13.56,0,0,1,4.73,10.24c0,7.67-6.56,13.92-14.69,14-.25.29-.5.58-.76.86a10.81,10.81,0,0,1,1,4.49c0,7.74-8.41,14-18.79,14a27.06,27.06,0,0,1-2.72-.14c-1.6,6.78-11,12-22.45,12a33.89,33.89,0,0,1-11-1.74,16,16,0,0,1-8.83,5.06,31.68,31.68,0,0,0,15,3.46c8.87,0,16.53-3.14,20.26-7.72.51,0,1-.06,1.52-.1a11.66,11.66,0,0,0,4.61,1,10.9,10.9,0,0,0,10-6.12c.27-.22.53-.42.78-.64a11.22,11.22,0,0,0,4.55-.16,6.9,6.9,0,0,0,6.08,4.13,7,7,0,0,0,6.37-4.79,12.76,12.76,0,0,0,1.87.14,11.88,11.88,0,0,0,5.65-1.41,6.47,6.47,0,0,0,4.8,2.21c3,0,5.51-2.18,6.53-5.24a7.57,7.57,0,0,0,3-.23,6.32,6.32,0,0,0,4.18,1.62,7.11,7.11,0,0,0,6.46-5,11.54,11.54,0,0,0,5.65,1.44,11,11,0,0,0,9.67-5.39,11.86,11.86,0,0,0,4.08.72c6,0,10.85-4.43,10.85-9.9a9,9,0,0,0-.2-1.88,9.22,9.22,0,0,0,1.31-4.71,9.61,9.61,0,0,0-4.24-7.83,9.13,9.13,0,0,0,.39-2.62c0-5.47-4.88-9.9-10.88-9.9a11.45,11.45,0,0,0-1.56.13,8.56,8.56,0,0,0,.33-2.32c0-5.31-4.86-9.63-10.86-9.63l-.51,0a6.9,6.9,0,0,0-6.08-4.11,6.17,6.17,0,0,0-2.85.71c-2.69-4.61-9.18-8.09-17.13-9,0-.18,0-.35,0-.53,0-5.32-4.85-9.61-10.85-9.61Zm27.35,35.85a9.69,9.69,0,0,0,1.61,2.38c-.6-.08-1.22-.14-1.84-.19a8.54,8.54,0,0,0,.23-2v-.16Z"/><path id="path115416-7-2-8-85-6-9-9-4-53-1-24-4" data-name="path115416-7-2-8-85-6-9-9-4-53-1-24" class="cls-3" d="M105.82,229.79a4.87,4.87,0,0,1,2.59.75h.06a4.93,4.93,0,0,1,4.93,4.67,2.26,2.26,0,0,1,0,.26,4.79,4.79,0,0,1-.43,2,4.84,4.84,0,0,1,.83,2.74,2.09,2.09,0,0,1,0,.25,4.93,4.93,0,0,1-4.93,4.68,4.77,4.77,0,0,1-.76-.06,5,5,0,0,1-5.32,0h-.29A4.93,4.93,0,0,1,98,238.2a4.92,4.92,0,0,1,4.1-7.66,5.07,5.07,0,0,1,1,.09,4.91,4.91,0,0,1,2.75-.84Z"/><path id="path115416-7-2-8-85-3-4-0-3-8-7-2-7-4" data-name="path115416-7-2-8-85-3-4-0-3-8-7-2-7" class="cls-4" d="M107.06,231.37a4.87,4.87,0,0,1,2.59.74h.07a4.93,4.93,0,0,1,4.93,4.67V237a5,5,0,0,1-.43,2,5,5,0,0,1,.83,2.74V242a4.93,4.93,0,0,1-4.93,4.68,4.77,4.77,0,0,1-.76-.06,5,5,0,0,1-5.32,0h-.29a4.94,4.94,0,0,1-4.94-4.93,4.81,4.81,0,0,1,.44-2,4.84,4.84,0,0,1-.84-2.73,4.94,4.94,0,0,1,4.94-4.93,5.23,5.23,0,0,1,1,.09,4.92,4.92,0,0,1,2.74-.83Z"/><path id="path115416-7-2-8-85-6-9-9-4-53-1-24-8-4" data-name="path115416-7-2-8-85-6-9-9-4-53-1-24-8" class="cls-3" d="M160.29,229.44a5,5,0,0,1,2.59.74H163a4.93,4.93,0,0,1,4.93,4.68v.25a4.91,4.91,0,0,1-.43,2,5,5,0,0,1,.83,2.74v.26a4.93,4.93,0,0,1-4.93,4.67,4.77,4.77,0,0,1-.76-.06,5,5,0,0,1-5.32.05H157a4.94,4.94,0,0,1-4.94-4.93,4.87,4.87,0,0,1,.44-2,4.82,4.82,0,0,1-.84-2.73,4.94,4.94,0,0,1,4.94-4.93,5.23,5.23,0,0,1,1,.1,4.85,4.85,0,0,1,2.74-.84Z"/><path id="path115416-7-2-8-85-3-4-0-3-8-7-2-7-1-4" data-name="path115416-7-2-8-85-3-4-0-3-8-7-2-7-1" class="cls-4" d="M161.54,231a4.87,4.87,0,0,1,2.59.75h.06a4.93,4.93,0,0,1,4.93,4.67,2.25,2.25,0,0,1,0,.26,4.79,4.79,0,0,1-.43,2,4.84,4.84,0,0,1,.83,2.74,2.09,2.09,0,0,1,0,.25,4.93,4.93,0,0,1-4.92,4.68,4.81,4.81,0,0,1-.77-.06,4.94,4.94,0,0,1-5.31,0h-.3a4.93,4.93,0,0,1-4.5-6.94,4.92,4.92,0,0,1,4.1-7.66,5.07,5.07,0,0,1,1,.09,4.91,4.91,0,0,1,2.75-.84Z"/><path id="path115416-7-2-8-85-6-9-9-4-53-1-24-6-4" data-name="path115416-7-2-8-85-6-9-9-4-53-1-24-6" class="cls-5" d="M231.7,198.9a7.56,7.56,0,0,1,4,1.14h.1a7.61,7.61,0,0,1,7.6,7.22c0,.13,0,.26,0,.39a7.61,7.61,0,0,1-.66,3.09A7.56,7.56,0,0,1,244,215c0,.13,0,.27,0,.39a7.62,7.62,0,0,1-8.78,7.13,7.66,7.66,0,0,1-8.2.08h-.45A7.62,7.62,0,0,1,219,215a7.47,7.47,0,0,1,.68-3.1,7.46,7.46,0,0,1-1.3-4.21A7.62,7.62,0,0,1,226,200a7.31,7.31,0,0,1,1.49.15,7.55,7.55,0,0,1,4.24-1.29Z"/><path id="path115416-7-2-8-85-3-4-0-3-8-7-2-7-5-4" data-name="path115416-7-2-8-85-3-4-0-3-8-7-2-7-5" class="cls-4" d="M233.63,201.33a7.62,7.62,0,0,1,4,1.15h.1a7.6,7.6,0,0,1,7.6,7.21c0,.13,0,.26,0,.39a7.57,7.57,0,0,1-.66,3.09,7.56,7.56,0,0,1,1.28,4.22c0,.13,0,.27,0,.4a7.61,7.61,0,0,1-7.61,7.21,7.49,7.49,0,0,1-1.17-.09,7.66,7.66,0,0,1-8.2.08h-.45a7.59,7.59,0,0,1-7-10.71,7.48,7.48,0,0,1-1.29-4.21,7.61,7.61,0,0,1,7.62-7.6,8.1,8.1,0,0,1,1.49.14,7.6,7.6,0,0,1,4.24-1.29Z"/><path id="path115416-7-2-8-85-6-9-9-4-53-1-24-6-7-4" data-name="path115416-7-2-8-85-6-9-9-4-53-1-24-6-7" class="cls-6" d="M198.77,185.48a5.13,5.13,0,0,1,2.74.79h.07a5.23,5.23,0,0,1,5.23,4.95,2.43,2.43,0,0,1,0,.27,5.38,5.38,0,0,1-.45,2.13,5.22,5.22,0,0,1,.88,2.9v.27a5.24,5.24,0,0,1-5.23,5,5.32,5.32,0,0,1-.81-.06,5.23,5.23,0,0,1-5.64.05h-.31a5.22,5.22,0,0,1-4.77-7.36,5.15,5.15,0,0,1-.89-2.9,5.23,5.23,0,0,1,5.24-5.22,4.9,4.9,0,0,1,1,.1,5.24,5.24,0,0,1,2.92-.89Z"/><path id="path115416-7-2-8-85-3-4-0-3-8-7-2-7-5-9-4" data-name="path115416-7-2-8-85-3-4-0-3-8-7-2-7-5-9" class="cls-7" d="M201.18,188.25a5.25,5.25,0,0,1,2.75.78H204a5.24,5.24,0,0,1,5.23,5v.27a5.17,5.17,0,0,1-.46,2.12,5.2,5.2,0,0,1,.88,2.91,2.43,2.43,0,0,1,0,.27,5.23,5.23,0,0,1-5.22,4.95,5.32,5.32,0,0,1-.81-.06,5.26,5.26,0,0,1-5.64.06h-.31a5.21,5.21,0,0,1-4.77-7.35,5.15,5.15,0,0,1-.89-2.9,5.24,5.24,0,0,1,5.24-5.23,5.69,5.69,0,0,1,1,.1,5.2,5.2,0,0,1,2.91-.88Z"/><path id="path115416-7-2-8-85-6-9-9-4-53-1-24-9-4" data-name="path115416-7-2-8-85-6-9-9-4-53-1-24-9" class="cls-3" d="M20.64,207.45a4.87,4.87,0,0,1,2.59.74h.07a4.93,4.93,0,0,1,4.93,4.67v.26a5,5,0,0,1-.43,2,5,5,0,0,1,.83,2.74v.25a4.93,4.93,0,0,1-4.93,4.68,4.77,4.77,0,0,1-.76-.06,5,5,0,0,1-5.32.05h-.29a4.94,4.94,0,0,1-4.94-4.93,4.81,4.81,0,0,1,.44-2,4.84,4.84,0,0,1-.84-2.73,4.94,4.94,0,0,1,4.94-4.93,5.23,5.23,0,0,1,1,.09,4.92,4.92,0,0,1,2.74-.83Z"/><path id="path115416-7-2-8-85-3-4-0-3-8-7-2-7-2-5" data-name="path115416-7-2-8-85-3-4-0-3-8-7-2-7-2" class="cls-4" d="M21.89,209a5,5,0,0,1,2.59.74h.07a4.93,4.93,0,0,1,4.92,4.68,2.09,2.09,0,0,1,0,.25,4.75,4.75,0,0,1-.43,2,4.89,4.89,0,0,1,.83,2.74,2.26,2.26,0,0,1,0,.26A4.93,4.93,0,0,1,25,224.36a4.81,4.81,0,0,1-.77-.06,4.94,4.94,0,0,1-5.31,0h-.3a4.93,4.93,0,0,1-4.93-4.93,5,5,0,0,1,.43-2,4.92,4.92,0,0,1,4.1-7.66,5.06,5.06,0,0,1,1,.1,4.91,4.91,0,0,1,2.75-.84Z"/><path id="path115416-7-2-8-85-6-9-9-4-53-1-24-96-4" data-name="path115416-7-2-8-85-6-9-9-4-53-1-24-96" class="cls-3" d="M71.22,210.74a4.93,4.93,0,0,1,2.6.75h.06a4.93,4.93,0,0,1,4.93,4.67,2.26,2.26,0,0,1,0,.26,5,5,0,0,1-.43,2,4.84,4.84,0,0,1,.83,2.74,2.09,2.09,0,0,1,0,.25,4.93,4.93,0,0,1-4.93,4.68,4.77,4.77,0,0,1-.76-.06,5,5,0,0,1-5.32.05h-.29A4.94,4.94,0,0,1,63,221.16a4.81,4.81,0,0,1,.44-2,4.87,4.87,0,0,1-.84-2.73,4.94,4.94,0,0,1,4.94-4.93,5.23,5.23,0,0,1,1,.09,4.87,4.87,0,0,1,2.74-.84Z"/><path id="path115416-7-2-8-85-3-4-0-3-8-7-2-7-23-4" data-name="path115416-7-2-8-85-3-4-0-3-8-7-2-7-23" class="cls-8" d="M72.47,212.32a4.87,4.87,0,0,1,2.59.74h.07a4.94,4.94,0,0,1,4.93,4.67V218a5,5,0,0,1-.43,2,5,5,0,0,1,.83,2.74V223a4.94,4.94,0,0,1-5.7,4.62,4.94,4.94,0,0,1-5.31.05h-.29a4.94,4.94,0,0,1-4.94-4.93,4.81,4.81,0,0,1,.44-2,4.84,4.84,0,0,1-.84-2.73,4.94,4.94,0,0,1,4.94-4.93,5,5,0,0,1,1,.09,5,5,0,0,1,2.75-.83Z"/><path id="path115416-7-2-8-85-6-9-9-4-53-1-24-96-1-4-4" data-name="path115416-7-2-8-85-6-9-9-4-53-1-24-96-1" class="cls-9" d="M179,204.63a7.36,7.36,0,0,1,2.61.46h.07c2.66,0,4.83,1.3,5,2.94v.16a2.11,2.11,0,0,1-.44,1.25,2.35,2.35,0,0,1,.84,1.72.86.86,0,0,1,0,.16c-.13,1.63-2.31,2.93-5,2.93a6.51,6.51,0,0,1-.77,0,7.21,7.21,0,0,1-2.72.51,7.52,7.52,0,0,1-2.64-.47h-.29c-2.75,0-5-1.38-5-3.09a2.12,2.12,0,0,1,.44-1.26,2.35,2.35,0,0,1-.84-1.71c0-1.71,2.23-3.1,5-3.1a7.82,7.82,0,0,1,1,.06,7.24,7.24,0,0,1,2.77-.52Z"/><path id="path115416-7-2-8-85-3-4-0-3-8-7-2-7-23-8-4" data-name="path115416-7-2-8-85-3-4-0-3-8-7-2-7-23-8" class="cls-8" d="M180.25,205.61a7.14,7.14,0,0,1,2.61.47h.07c2.66,0,4.83,1.29,5,2.93v.16a2.09,2.09,0,0,1-.44,1.25,2.37,2.37,0,0,1,.84,1.72v.16c-.13,1.64-2.31,2.93-5,2.93-.26,0-.52,0-.77,0a7.45,7.45,0,0,1-2.72.5,7.26,7.26,0,0,1-2.64-.47h-.29c-2.75,0-5-1.38-5-3.09a2.14,2.14,0,0,1,.44-1.26,2.35,2.35,0,0,1-.84-1.71c0-1.71,2.23-3.09,5-3.09a7.82,7.82,0,0,1,1,.06,7.05,7.05,0,0,1,2.77-.53Z"/><path id="path115416-7-2-8-85-6-9-9-4-53-1-24-96-1-4-5" data-name="path115416-7-2-8-85-6-9-9-4-53-1-24-96-1-4" class="cls-9" d="M53.59,184.86a7.31,7.31,0,0,1,2.61.47h.07c2.66,0,4.84,1.3,5,2.93v.16a2.2,2.2,0,0,1-.43,1.26,2.34,2.34,0,0,1,.83,1.71.85.85,0,0,1,0,.16c-.13,1.64-2.31,2.94-5,2.94-.26,0-.51,0-.77,0a7.19,7.19,0,0,1-2.71.5,7.36,7.36,0,0,1-2.65-.47h-.29c-2.74,0-5-1.39-5-3.1a2.21,2.21,0,0,1,.44-1.26,2.33,2.33,0,0,1-.84-1.71c0-1.71,2.23-3.09,5-3.09a7.66,7.66,0,0,1,1,.06,7.27,7.27,0,0,1,2.77-.53Z"/><path id="path115416-7-2-8-85-3-4-0-3-8-7-2-7-23-8-5-4" data-name="path115416-7-2-8-85-3-4-0-3-8-7-2-7-23-8-5" class="cls-8" d="M54.85,185.85a7.36,7.36,0,0,1,2.61.46h.07c2.66,0,4.83,1.3,5,2.93v.16a2.12,2.12,0,0,1-.44,1.26,2.35,2.35,0,0,1,.84,1.72v.16c-.13,1.63-2.31,2.93-5,2.93a6.51,6.51,0,0,1-.77,0,7.65,7.65,0,0,1-5.36,0h-.29c-2.75,0-5-1.39-5-3.09a2.12,2.12,0,0,1,.44-1.26,2.35,2.35,0,0,1-.84-1.72c0-1.7,2.23-3.09,5-3.09a7.82,7.82,0,0,1,1,.06,7.24,7.24,0,0,1,2.77-.52Z"/><path id="path115416-7-2-8-85-6-9-9-4-53-1-24-96-1-4-2-5" data-name="path115416-7-2-8-85-6-9-9-4-53-1-24-96-1-4-2" class="cls-10" d="M135.42,195.69a11.31,11.31,0,0,1,4,.71h.1c4.1,0,7.45,2,7.66,4.52v.25a3.32,3.32,0,0,1-.67,1.93,3.66,3.66,0,0,1,1.29,2.65V206c-.21,2.52-3.56,4.52-7.66,4.52-.4,0-.8,0-1.19,0a11.72,11.72,0,0,1-8.25,0h-.46c-4.23,0-7.66-2.13-7.66-4.76a3.26,3.26,0,0,1,.67-1.94,3.65,3.65,0,0,1-1.3-2.64c0-2.63,3.44-4.77,7.67-4.77a12.35,12.35,0,0,1,1.51.1,10.93,10.93,0,0,1,4.26-.81Z"/><path id="path115416-7-2-8-85-3-4-0-3-8-7-2-7-23-8-5-8-4" data-name="path115416-7-2-8-85-3-4-0-3-8-7-2-7-23-8-5-8" class="cls-8" d="M137.36,197.21a11.31,11.31,0,0,1,4,.71h.1c4.1,0,7.45,2,7.66,4.52v.25a3.32,3.32,0,0,1-.67,1.93,3.66,3.66,0,0,1,1.29,2.65v.25c-.21,2.51-3.56,4.51-7.66,4.51-.4,0-.8,0-1.19-.05a11.8,11.8,0,0,1-8.25.05h-.46c-4.23,0-7.66-2.13-7.66-4.76a3.35,3.35,0,0,1,.67-1.94,3.65,3.65,0,0,1-1.3-2.64c0-2.63,3.44-4.77,7.67-4.77a12.35,12.35,0,0,1,1.51.1,11.11,11.11,0,0,1,4.26-.81Z"/></g><g id="Burrow_Front-5" data-name="Burrow Front"><path id="path174-2-7-5" data-name="path174-2-7" class="cls-17" d="M722.74,150.72a11.66,11.66,0,0,0-7,2.23,11.93,11.93,0,0,0-5.14-1.15c-6,0-10.86,4.32-10.86,9.63a8.79,8.79,0,0,0,.53,3,9,9,0,0,0-2.72,6.35,8.7,8.7,0,0,0,.35,2.4,11.16,11.16,0,0,0-2.71,1.17,10.49,10.49,0,0,0-4,3.13v0a25.11,25.11,0,0,0-2.87,1.27,12.28,12.28,0,0,0-8.89-7.54,10.59,10.59,0,0,0-14.24-.31,10.65,10.65,0,0,0-6.23-2.06c-6.23,0-11.33,5.59-11.9,12.72a10.32,10.32,0,0,0-3.5-.62,11.35,11.35,0,0,0-9.16,5c-.61,0-1.23-.06-1.84-.06a36.06,36.06,0,0,0-5.58.43c-2.06-4.2-5.93-7-10.36-7-5,0-9.33,3.64-11.1,8.79-1.89-4.85-6-8.23-10.88-8.23a11.34,11.34,0,0,0-9.12,5,10.45,10.45,0,0,0-4.63-1.1c-4.94,0-9.19,3.51-11,8.52a10.54,10.54,0,0,0-6-1.93c-4.44,0-8.32,2.84-10.39,7.05a6.23,6.23,0,0,0-2.83-.7c-3.87,0-7,3.68-7,8.22s3.13,8.21,7,8.21a6.22,6.22,0,0,0,3.28-.92c0,.07.1.14.15.21a7.34,7.34,0,0,0,5.44,5,10.33,10.33,0,0,0,10.25-.89c.84,3.43,3.54,5.95,6.74,5.95a6.15,6.15,0,0,0,1.49-.19,11.3,11.3,0,0,0,9.24.31,6.44,6.44,0,0,0,4.65,2.07,6.66,6.66,0,0,0,5.49-3.12c2.89,5.2,10.56,9,19.77,9.43a6.9,6.9,0,0,0,6.08,4.13,6.75,6.75,0,0,0,5.68-3.4,16.25,16.25,0,0,0,2.25,2c.55,3.91,3.44,6.89,6.93,6.89a6.47,6.47,0,0,0,4.87-2.32l.19,0a7.09,7.09,0,0,0,6.47,5.06,6.09,6.09,0,0,0,2.4-.49c4.15,2.85,10.17,4.63,16.86,4.63,8.86,0,16.53-3.14,20.26-7.72.51,0,1-.06,1.51-.11a11.56,11.56,0,0,0,4.61,1,10.93,10.93,0,0,0,10-6.13c.27-.21.53-.41.78-.63a12.07,12.07,0,0,0,1.82.16,11.66,11.66,0,0,0,2.73-.33,6.91,6.91,0,0,0,6.08,4.14,7.05,7.05,0,0,0,6.37-4.79,12.76,12.76,0,0,0,1.87.14,11.88,11.88,0,0,0,5.65-1.41,6.48,6.48,0,0,0,4.79,2.21c3,0,5.52-2.18,6.54-5.25a6.4,6.4,0,0,0,.88.07,8.57,8.57,0,0,0,2.15-.29,6.32,6.32,0,0,0,4.18,1.62,7.09,7.09,0,0,0,6.45-5,11.71,11.71,0,0,0,5.66,1.43,11,11,0,0,0,9.67-5.38,11.8,11.8,0,0,0,4.07.71c6,0,10.86-4.43,10.86-9.89a9.12,9.12,0,0,0-.21-1.89,9.1,9.1,0,0,0,1.32-4.71,9.57,9.57,0,0,0-4.25-7.82,9.2,9.2,0,0,0,.39-2.63c0-5.46-4.87-9.89-10.87-9.89a11.45,11.45,0,0,0-1.56.12,8.43,8.43,0,0,0,.33-2.31c0-5.32-4.86-9.63-10.86-9.63l-.51,0a6.92,6.92,0,0,0-6.09-4.12,6,6,0,0,0-2.84.72c-2.69-4.61-9.18-8.09-17.13-9,0-.17,0-.35,0-.53,0-5.31-4.86-9.61-10.86-9.61Zm27.35,35.85a9.49,9.49,0,0,0,1.62,2.37c-.6-.08-1.22-.13-1.84-.18a8.54,8.54,0,0,0,.22-2v-.16Zm-24,1.94q1.21.11,2.46.12A10.54,10.54,0,0,0,729,190a25.2,25.2,0,0,0-3-1.21,2.41,2.41,0,0,0,.08-.25Z"/><path id="path174-2-7-1-5" data-name="path174-2-7-1" class="cls-18" d="M723,150.78a11.67,11.67,0,0,0-7,2.23,12.07,12.07,0,0,0-5.14-1.14,11.93,11.93,0,0,0-2.64.3,69.63,69.63,0,0,1,5.38,4.55c7.41.82,13.16,6.73,13.16,13.91a13.41,13.41,0,0,1-.78,4.49,32.22,32.22,0,0,1,1.66,10.12v0a13.59,13.59,0,0,1,4.73,10.24c0,7.67-6.56,13.92-14.69,14-.25.29-.5.58-.76.86a10.84,10.84,0,0,1,1,4.49c0,7.74-8.41,14-18.79,14a24.28,24.28,0,0,1-2.72-.14c-1.6,6.78-11,12-22.46,12A34,34,0,0,1,663,239a16,16,0,0,1-8.83,5.06,31.72,31.72,0,0,0,15,3.46c8.87,0,16.53-3.14,20.26-7.72.51,0,1-.06,1.51-.1a11.73,11.73,0,0,0,4.61,1,10.91,10.91,0,0,0,10-6.12c.27-.21.53-.42.78-.64a12.07,12.07,0,0,0,1.82.17,12.22,12.22,0,0,0,2.73-.33,6.91,6.91,0,0,0,6.08,4.14,7,7,0,0,0,6.37-4.8,11.51,11.51,0,0,0,1.87.15,11.89,11.89,0,0,0,5.65-1.42,6.45,6.45,0,0,0,4.79,2.21c3,0,5.52-2.17,6.54-5.24a8.48,8.48,0,0,0,.88.06,8.08,8.08,0,0,0,2.15-.29,6.32,6.32,0,0,0,4.18,1.62,7.09,7.09,0,0,0,6.45-5,11.71,11.71,0,0,0,5.66,1.43,11,11,0,0,0,9.67-5.39,11.84,11.84,0,0,0,4.07.72c6,0,10.86-4.43,10.86-9.9a9,9,0,0,0-.2-1.88,9.19,9.19,0,0,0,1.31-4.71,9.61,9.61,0,0,0-4.24-7.83,9.13,9.13,0,0,0,.39-2.62c0-5.47-4.88-9.9-10.88-9.9a11.45,11.45,0,0,0-1.56.13,8.5,8.5,0,0,0,.33-2.32c0-5.31-4.86-9.63-10.86-9.63l-.51,0a6.91,6.91,0,0,0-6.09-4.11,6.16,6.16,0,0,0-2.84.71c-2.69-4.6-9.18-8.08-17.13-9,0-.18,0-.35,0-.53,0-5.32-4.86-9.61-10.85-9.61Zm27.34,35.85A10,10,0,0,0,752,189c-.6-.08-1.22-.14-1.84-.19a8.42,8.42,0,0,0,.22-2,.85.85,0,0,0,0-.16Z"/><path id="path115416-7-2-8-85-6-9-9-4-53-1-24-5" data-name="path115416-7-2-8-85-6-9-9-4-53-1-24" class="cls-3" d="M649.45,225.72a4.9,4.9,0,0,1,2.6.74h.06a4.93,4.93,0,0,1,4.93,4.67,2.26,2.26,0,0,1,0,.26,5,5,0,0,1-.43,2,4.84,4.84,0,0,1,.83,2.74,2.09,2.09,0,0,1,0,.25,4.93,4.93,0,0,1-4.93,4.68,4.77,4.77,0,0,1-.76-.06,5,5,0,0,1-2.7.8,4.89,4.89,0,0,1-2.62-.75h-.29a4.91,4.91,0,0,1-4.5-6.94,4.84,4.84,0,0,1-.84-2.73,4.94,4.94,0,0,1,4.94-4.93,5.15,5.15,0,0,1,1,.09,4.87,4.87,0,0,1,2.74-.83Z"/><path id="path115416-7-2-8-85-3-4-0-3-8-7-2-7-5-5" data-name="path115416-7-2-8-85-3-4-0-3-8-7-2-7" class="cls-4" d="M650.7,227.29a5,5,0,0,1,2.59.74h.07a4.93,4.93,0,0,1,4.93,4.68V233a4.91,4.91,0,0,1-.43,2,5,5,0,0,1,.83,2.74V238a4.94,4.94,0,0,1-5.7,4.61,4.94,4.94,0,0,1-5.31.05h-.29a4.94,4.94,0,0,1-4.94-4.93,4.84,4.84,0,0,1,.44-2,4.82,4.82,0,0,1-.84-2.73A4.94,4.94,0,0,1,647,228a4.34,4.34,0,0,1,1,.1,4.91,4.91,0,0,1,2.75-.84Z"/><path id="path115416-7-2-8-85-6-9-9-4-53-1-24-8-5" data-name="path115416-7-2-8-85-6-9-9-4-53-1-24-8" class="cls-3" d="M703.93,225.36a5,5,0,0,1,2.59.74h.07a4.94,4.94,0,0,1,4.93,4.68V231a5,5,0,0,1-.43,2,4.91,4.91,0,0,1,.83,2.73V236A4.93,4.93,0,0,1,707,240.7a6.49,6.49,0,0,1-.77,0,4.94,4.94,0,0,1-5.31,0h-.29a4.93,4.93,0,0,1-4.94-4.93,4.87,4.87,0,0,1,.44-2,4.82,4.82,0,0,1-.84-2.73,4.94,4.94,0,0,1,4.94-4.93,5,5,0,0,1,1,.1,4.91,4.91,0,0,1,2.75-.84Z"/><path id="path115416-7-2-8-85-3-4-0-3-8-7-2-7-1-5" data-name="path115416-7-2-8-85-3-4-0-3-8-7-2-7-1" class="cls-4" d="M705.18,226.93a4.9,4.9,0,0,1,2.59.75h.06a4.93,4.93,0,0,1,4.93,4.67,2.26,2.26,0,0,1,0,.26,4.79,4.79,0,0,1-.43,2,4.84,4.84,0,0,1,.83,2.74,2.09,2.09,0,0,1,0,.25,4.93,4.93,0,0,1-4.93,4.68,4.77,4.77,0,0,1-.76-.06,5,5,0,0,1-2.7.8,4.89,4.89,0,0,1-2.62-.75h-.29a4.93,4.93,0,0,1-4.5-6.94,4.92,4.92,0,0,1,4.1-7.66,5.15,5.15,0,0,1,1,.09,4.91,4.91,0,0,1,2.75-.84Z"/><path id="path115416-7-2-8-85-6-9-9-4-53-1-24-6-5" data-name="path115416-7-2-8-85-6-9-9-4-53-1-24-6" class="cls-5" d="M775.34,194.82a7.57,7.57,0,0,1,4,1.15h.1a7.6,7.6,0,0,1,7.6,7.21c0,.13,0,.26,0,.39a7.57,7.57,0,0,1-.66,3.09,7.56,7.56,0,0,1,1.28,4.22c0,.13,0,.27,0,.4a7.6,7.6,0,0,1-7.6,7.21,7.53,7.53,0,0,1-1.18-.09,7.66,7.66,0,0,1-8.2.08h-.45a7.59,7.59,0,0,1-7-10.71,7.48,7.48,0,0,1-1.29-4.21,7.61,7.61,0,0,1,7.62-7.6,8.1,8.1,0,0,1,1.49.14,7.63,7.63,0,0,1,4.24-1.29Z"/><path id="path115416-7-2-8-85-3-4-0-3-8-7-2-7-5-6" data-name="path115416-7-2-8-85-3-4-0-3-8-7-2-7-5" class="cls-4" d="M777.27,197.25a7.56,7.56,0,0,1,4,1.15h.11a7.6,7.6,0,0,1,7.6,7.21c0,.13,0,.26,0,.39a7.57,7.57,0,0,1-.66,3.09,7.56,7.56,0,0,1,1.28,4.23c0,.13,0,.26,0,.39a7.62,7.62,0,0,1-7.61,7.21,7.72,7.72,0,0,1-1.18-.09,7.61,7.61,0,0,1-8.2.08h-.45a7.59,7.59,0,0,1-6.94-10.71,7.48,7.48,0,0,1-1.29-4.21,7.61,7.61,0,0,1,7.62-7.6,8.1,8.1,0,0,1,1.49.14,7.58,7.58,0,0,1,4.24-1.29Z"/><path id="path115416-7-2-8-85-6-9-9-4-53-1-24-6-7-5" data-name="path115416-7-2-8-85-6-9-9-4-53-1-24-6-7" class="cls-6" d="M742.4,181.4a5.17,5.17,0,0,1,2.75.79h.07a5.23,5.23,0,0,1,5.23,5v.27a5.21,5.21,0,0,1-.46,2.12,5.17,5.17,0,0,1,.88,2.9,2.43,2.43,0,0,1,0,.27,5.23,5.23,0,0,1-5.22,5,5.29,5.29,0,0,0-3.67.79,5.16,5.16,0,0,1-2.78-.8h-.31a5.22,5.22,0,0,1-4.77-7.36,5.14,5.14,0,0,1-.89-2.89,5.24,5.24,0,0,1,5.24-5.23,4.9,4.9,0,0,1,1,.1,5.21,5.21,0,0,1,2.91-.89Z"/><path id="path115416-7-2-8-85-3-4-0-3-8-7-2-7-5-9-5" data-name="path115416-7-2-8-85-3-4-0-3-8-7-2-7-5-9" class="cls-7" d="M744.82,184.17a5.17,5.17,0,0,1,2.75.79s0,0,.07,0a5.23,5.23,0,0,1,5.23,4.95v.27a5.22,5.22,0,0,1-.46,2.13,5.14,5.14,0,0,1,.88,2.9,2.43,2.43,0,0,1,0,.27,5.23,5.23,0,0,1-5.22,5,5.55,5.55,0,0,1-.82-.07,5.16,5.16,0,0,1-2.85.85,5.25,5.25,0,0,1-2.78-.79h-.31a5.24,5.24,0,0,1-5.24-5.23,5.07,5.07,0,0,1,.47-2.13,5.15,5.15,0,0,1-.89-2.9,5.23,5.23,0,0,1,5.23-5.23,4.93,4.93,0,0,1,1,.11,5.11,5.11,0,0,1,2.91-.89Z"/><path id="path115416-7-2-8-85-6-9-9-4-53-1-24-9-5" data-name="path115416-7-2-8-85-6-9-9-4-53-1-24-9" class="cls-3" d="M564.28,203.37a4.87,4.87,0,0,1,2.59.74h.07a4.93,4.93,0,0,1,4.93,4.68V209a5,5,0,0,1-.43,2,5,5,0,0,1,.83,2.74V214a4.94,4.94,0,0,1-5.7,4.61,4.94,4.94,0,0,1-5.31,0H561a4.94,4.94,0,0,1-4.94-4.93,4.81,4.81,0,0,1,.44-2,4.82,4.82,0,0,1-.84-2.73,4.94,4.94,0,0,1,4.94-4.93,4.34,4.34,0,0,1,1,.1,4.91,4.91,0,0,1,2.75-.84Z"/><path id="path115416-7-2-8-85-3-4-0-3-8-7-2-7-2-6" data-name="path115416-7-2-8-85-3-4-0-3-8-7-2-7-2" class="cls-4" d="M565.53,204.94a5,5,0,0,1,2.59.74h.06a4.93,4.93,0,0,1,4.93,4.68,2.09,2.09,0,0,1,0,.25,4.83,4.83,0,0,1-.43,2,4.83,4.83,0,0,1,.83,2.73,2.26,2.26,0,0,1,0,.26,4.93,4.93,0,0,1-4.93,4.67,6.33,6.33,0,0,1-.76-.05,5,5,0,0,1-5.32.05h-.29a4.93,4.93,0,0,1-4.93-4.93,5,5,0,0,1,.43-2,4.92,4.92,0,0,1,4.1-7.66,5.15,5.15,0,0,1,1,.1,4.91,4.91,0,0,1,2.75-.84Z"/><path id="path115416-7-2-8-85-6-9-9-4-53-1-24-96-5" data-name="path115416-7-2-8-85-6-9-9-4-53-1-24-96" class="cls-3" d="M614.86,206.67a4.87,4.87,0,0,1,2.59.74h.07a4.93,4.93,0,0,1,4.93,4.67v.26a5,5,0,0,1-.43,2,4.92,4.92,0,0,1,.83,2.74v.25a4.93,4.93,0,0,1-4.93,4.68,4.77,4.77,0,0,1-.76-.06,5,5,0,0,1-2.7.8,4.89,4.89,0,0,1-2.62-.75h-.29a4.94,4.94,0,0,1-4.94-4.93,4.81,4.81,0,0,1,.44-2,4.84,4.84,0,0,1-.84-2.73,4.93,4.93,0,0,1,4.94-4.93,5.23,5.23,0,0,1,1,.09,4.84,4.84,0,0,1,2.74-.83Z"/><path id="path115416-7-2-8-85-3-4-0-3-8-7-2-7-23-5" data-name="path115416-7-2-8-85-3-4-0-3-8-7-2-7-23" class="cls-8" d="M616.11,208.24a5,5,0,0,1,2.59.74h.06a4.93,4.93,0,0,1,4.93,4.68,2.09,2.09,0,0,1,0,.25,4.75,4.75,0,0,1-.43,2,4.89,4.89,0,0,1,.83,2.74,2.26,2.26,0,0,1,0,.26,4.93,4.93,0,0,1-4.92,4.67,4.81,4.81,0,0,1-.77-.06,4.94,4.94,0,0,1-5.31,0h-.3a4.93,4.93,0,0,1-4.93-4.93,5,5,0,0,1,.43-2,4.92,4.92,0,0,1,4.1-7.66,4.37,4.37,0,0,1,1,.1,4.91,4.91,0,0,1,2.75-.84Z"/><path id="path115416-7-2-8-85-6-9-9-4-53-1-24-96-1-5" data-name="path115416-7-2-8-85-6-9-9-4-53-1-24-96-1" class="cls-9" d="M722.63,200.55a7.18,7.18,0,0,1,2.61.47h.07c2.66,0,4.83,1.29,5,2.93a.85.85,0,0,1,0,.16,2.1,2.1,0,0,1-.43,1.25,2.35,2.35,0,0,1,.84,1.72v.16c-.13,1.63-2.31,2.93-5,2.93a6.51,6.51,0,0,1-.77,0,7.58,7.58,0,0,1-5.36,0h-.29c-2.75,0-5-1.38-5-3.09a2.12,2.12,0,0,1,.44-1.26,2.35,2.35,0,0,1-.84-1.71c0-1.71,2.23-3.09,5-3.09.34,0,.66,0,1,0a7.24,7.24,0,0,1,2.77-.52Z"/><path id="path115416-7-2-8-85-3-4-0-3-8-7-2-7-23-8-5-5" data-name="path115416-7-2-8-85-3-4-0-3-8-7-2-7-23-8" class="cls-8" d="M723.88,201.53a7.41,7.41,0,0,1,2.62.47h.06c2.66,0,4.84,1.3,5,2.93a.86.86,0,0,1,0,.16,2.13,2.13,0,0,1-.43,1.26,2.35,2.35,0,0,1,.84,1.71v.16c-.14,1.64-2.31,2.93-5,2.93-.27,0-.52,0-.77,0a7.45,7.45,0,0,1-2.72.5,7.26,7.26,0,0,1-2.64-.47h-.3c-2.74,0-5-1.38-5-3.09a2.14,2.14,0,0,1,.44-1.26,2.34,2.34,0,0,1-.85-1.71c0-1.71,2.24-3.09,5-3.09a7.82,7.82,0,0,1,1,.06,7.22,7.22,0,0,1,2.76-.53Z"/><path id="path115416-7-2-8-85-6-9-9-4-53-1-24-96-1-4-6" data-name="path115416-7-2-8-85-6-9-9-4-53-1-24-96-1-4" class="cls-9" d="M597.23,180.78a7.35,7.35,0,0,1,2.61.47h.07c2.66,0,4.84,1.3,5,2.93v.16a2.2,2.2,0,0,1-.43,1.26,2.34,2.34,0,0,1,.83,1.72.85.85,0,0,1,0,.16c-.13,1.63-2.31,2.93-5,2.93-.26,0-.52,0-.77,0a7.19,7.19,0,0,1-2.71.5,7.36,7.36,0,0,1-2.65-.47h-.29c-2.75,0-5-1.39-5-3.09a2.17,2.17,0,0,1,.44-1.27,2.33,2.33,0,0,1-.84-1.71c0-1.71,2.23-3.09,5-3.09a7.66,7.66,0,0,1,1,.06,7.23,7.23,0,0,1,2.77-.53Z"/><path id="path115416-7-2-8-85-3-4-0-3-8-7-2-7-23-8-5-6" data-name="path115416-7-2-8-85-3-4-0-3-8-7-2-7-23-8-5" class="cls-8" d="M598.48,181.77a7.41,7.41,0,0,1,2.62.46h.06c2.66,0,4.84,1.3,5,2.94a.85.85,0,0,1,0,.16,2.1,2.1,0,0,1-.43,1.25,2.35,2.35,0,0,1,.84,1.72v.16c-.14,1.63-2.31,2.93-5,2.93a6.51,6.51,0,0,1-.77,0,7.24,7.24,0,0,1-2.72.51,7.48,7.48,0,0,1-2.64-.47h-.3c-2.74,0-5-1.38-5-3.09a2.12,2.12,0,0,1,.44-1.26,2.36,2.36,0,0,1-.85-1.71c0-1.71,2.24-3.1,5-3.1a7.82,7.82,0,0,1,1,.06,7.22,7.22,0,0,1,2.76-.52Z"/><path id="path115416-7-2-8-85-6-9-9-4-53-1-24-96-1-4-2-6" data-name="path115416-7-2-8-85-6-9-9-4-53-1-24-96-1-4-2" class="cls-10" d="M679.06,191.61a11.09,11.09,0,0,1,4,.72h.1c4.09,0,7.45,2,7.65,4.51a2.09,2.09,0,0,1,0,.25,3.31,3.31,0,0,1-.66,1.93,3.66,3.66,0,0,1,1.29,2.65v.25c-.21,2.51-3.56,4.51-7.66,4.51-.41,0-.8,0-1.19-.05a11.36,11.36,0,0,1-4.18.77,11.23,11.23,0,0,1-4.07-.72h-.46c-4.23,0-7.67-2.13-7.67-4.76a3.29,3.29,0,0,1,.68-1.94,3.62,3.62,0,0,1-1.3-2.64c0-2.63,3.44-4.76,7.67-4.76a12.09,12.09,0,0,1,1.5.09,11.2,11.2,0,0,1,4.27-.81Z"/><path id="path115416-7-2-8-85-3-4-0-3-8-7-2-7-23-8-5-8-5" data-name="path115416-7-2-8-85-3-4-0-3-8-7-2-7-23-8-5-8" class="cls-8" d="M681,193.13a11.3,11.3,0,0,1,4,.72h.1c4.1,0,7.45,2,7.65,4.51a2.09,2.09,0,0,1,0,.25,3.31,3.31,0,0,1-.66,1.93,3.66,3.66,0,0,1,1.29,2.65v.25c-.21,2.51-3.56,4.51-7.66,4.51-.41,0-.8,0-1.19,0a11.8,11.8,0,0,1-8.25,0h-.46c-4.23,0-7.67-2.13-7.67-4.76a3.29,3.29,0,0,1,.68-1.94,3.62,3.62,0,0,1-1.3-2.64c0-2.63,3.44-4.76,7.67-4.76a12.38,12.38,0,0,1,1.51.09,11.11,11.11,0,0,1,4.26-.81Z"/></g></g></g></svg>