<?xml version="1.0" encoding="utf-8"?>
<!-- Generator: Adobe Illustrator 25.4.1, SVG Export Plug-In . SVG Version: 6.00 Build 0)  -->
<svg version="1.1" id="Layer_1" xmlns="http://www.w3.org/2000/svg" xmlns:xlink="http://www.w3.org/1999/xlink" x="0px" y="0px"
	 viewBox="0 0 1000 288.3" style="enable-background:new 0 0 1000 288.3;" xml:space="preserve">
<style type="text/css">
	.st0{fill:url(#SVGID_1_);}
	.st1{fill:url(#SVGID_00000114763606311868667190000002858967740504481157_);}
	.st2{fill:url(#SVGID_00000146478034998290103850000006595806661256542859_);}
	.st3{fill:url(#SVGID_00000021101506238066820210000009379610023796014763_);}
	.st4{fill:url(#SVGID_00000026884086674498211770000008239208224968806063_);}
	.st5{fill:url(#SVGID_00000071529907260740282620000011102443873544598153_);}
	.st6{fill:url(#SVGID_00000132776910120545307980000016727109512128522665_);}
	.st7{opacity:0.24;fill:#EDE495;enable-background:new    ;}
	.st8{fill:url(#SVGID_00000138545947399172343930000009907030368395149210_);}
</style>
<g>
	<g id="Layer_2_00000142879924297067719730000012721780575094974365_">
		<g id="Moles">
			<g id="Ground">
				
					<radialGradient id="SVGID_1_" cx="500" cy="590.29" r="883.26" gradientTransform="matrix(1 0 0 -1 0 290)" gradientUnits="userSpaceOnUse">
					<stop  offset="9.000000e-02" style="stop-color:#C5D068"/>
					<stop  offset="0.34" style="stop-color:#A1C563"/>
					<stop  offset="0.47" style="stop-color:#92C161"/>
					<stop  offset="0.96" style="stop-color:#00A462"/>
				</radialGradient>
				<path class="st0" d="M43,51.1l4.4-10.4c5.3-10.1,15.5-16.6,26-20c0.7-0.2,1.5-0.4,2.3-0.6c-0.2-1.2-0.3-2.5-0.3-3.7
					c-0.1-1-0.1-2.1,0-3.1c-25,2.1-50.1,4.3-75.4,6.7V58c13.4-0.1,27.4-0.5,41.9-1C42.1,55,42.5,53,43,51.1z"/>
				
					<radialGradient id="SVGID_00000117675929842609714120000008424986913627709842_" cx="499.96" cy="590.29" r="883.3093" gradientTransform="matrix(1 0 0 -1 0 290)" gradientUnits="userSpaceOnUse">
					<stop  offset="9.000000e-02" style="stop-color:#C5D068"/>
					<stop  offset="0.34" style="stop-color:#A1C563"/>
					<stop  offset="0.47" style="stop-color:#92C161"/>
					<stop  offset="0.96" style="stop-color:#00A462"/>
				</radialGradient>
				<path style="fill:url(#SVGID_00000117675929842609714120000008424986913627709842_);" d="M919.4,60.6c-0.3,0.1-0.5,0.2-0.8,0.3
					C900,68,882.1,77.2,863,82.6c-22.5,6.2-45.6,9.7-68.8,12.1c-33.8,3.5-67.9,3.2-101.9,3c-18,14.6-72,27.7-178.5,35.6
					c0,0-7.1,0.4-20.1,1c-1.7,1.8-3.5,3.4-5.4,4.9c-4.2,3.8-9.3,6.5-14.8,7.8l-11.5,1.5c-2-0.3-4.1-0.4-6.2-0.4
					c-3.6,0.9-7.1,1.8-10.7,2.5c-9.1,1.9-18.5,2.9-27.8,2.9c-10.3-0.1-20.6-1.4-30.9-0.9l-0.8,0.2c-12.9,5.9-27.8,5.1-40-2
					c-5.3-3.1-9.8-7.3-13.3-12.3c-33.2,0.3-69.4,0.3-107.4-0.2c1.3,2.4,2.7,4.8,4.2,7.1c6.4,9.9,6.9,22.4,4.4,33.5s-10.7,20-20,26
					s-23.1,7.3-33.5,4.4c-11-3-19.9-10.5-26-20c-0.5-0.8-1-1.5-1.5-2.3l-1.7,3.9c-2.8,6.7-5.5,13.4-8.2,20.1
					c-4.1,10.4-9.6,20.5-20,26c-6.8,3.6-14.3,5.6-22,5.9c-11.2,0.5-21.7-4.4-29.6-12c-9.8-0.8-20.2-6-26.8-12.6
					c-8-8.2-12.6-19.3-12.7-30.8v-59.5c-10.9-1.4-21.4-3-31.4-4.7v165.2h282.2c-25.5-1.8-51-4.7-76-10.8
					c-13.4-3.3-26.2-7.5-39.9-9.6c-11.8-1.8-17.5-10.4-19.3-21.9c-4.4-28.9,38.1-31.9,57.4-33.4c34.8-2.7,69.5,2.8,103.9,6.9
					c17.3,2.1,34.6,3.8,52,4c14.4,0.2,28.8,0,42.2-5.8c20.7-8.9,35.8-26.9,58.4-32c30.3-6.7,60.7,4.5,90.2,10.2
					c35,6.8,70.4,1,105.7,2.3c25,0.9,50.3,7.7,75.4,3.5c11.1-1.9,21.3-6.3,28.3-15.5c5.8-7.7,8.4-16.9,10.8-26.1
					c2.2-8.4,4.9-16.6,11.6-22.5c9.5-8.5,23.5-11.1,35.8-12.1c29.9-2.6,60.7,4.5,89.1,13.5c1.8,0,4.3-0.5,6,0
					c4.5,2.8,9.1,5.7,13.7,8.5c9.5,5.9,19,11.8,28.5,17.8c15,9.6,29.9,19.7,44,30.6v-115C973.2,73.7,946.4,66.9,919.4,60.6z"/>
				
					<radialGradient id="SVGID_00000136411965104616892420000003382479758700928445_" cx="500" cy="590.29" r="883.26" gradientTransform="matrix(1 0 0 -1 0 290)" gradientUnits="userSpaceOnUse">
					<stop  offset="9.000000e-02" style="stop-color:#C5D068"/>
					<stop  offset="0.34" style="stop-color:#A1C563"/>
					<stop  offset="0.47" style="stop-color:#92C161"/>
					<stop  offset="0.96" style="stop-color:#00A462"/>
				</radialGradient>
				<path style="fill:url(#SVGID_00000136411965104616892420000003382479758700928445_);" d="M895.5,135.2l1.4,0.4L895.5,135.2z"/>
				
					<radialGradient id="SVGID_00000005954849040950610410000013496983616048605568_" cx="500" cy="590.29" r="883.26" gradientTransform="matrix(1 0 0 -1 0 290)" gradientUnits="userSpaceOnUse">
					<stop  offset="9.000000e-02" style="stop-color:#C5D068"/>
					<stop  offset="0.34" style="stop-color:#A1C563"/>
					<stop  offset="0.47" style="stop-color:#92C161"/>
					<stop  offset="0.96" style="stop-color:#00A462"/>
				</radialGradient>
				<path style="fill:url(#SVGID_00000005954849040950610410000013496983616048605568_);" d="M897,135.7l2.5,0.8L897,135.7z"/>
				
					<radialGradient id="SVGID_00000036225588721346077700000009366143081819976104_" cx="500" cy="590.29" r="883.26" gradientTransform="matrix(1 0 0 -1 0 290)" gradientUnits="userSpaceOnUse">
					<stop  offset="9.000000e-02" style="stop-color:#C5D068"/>
					<stop  offset="0.34" style="stop-color:#A1C563"/>
					<stop  offset="0.47" style="stop-color:#92C161"/>
					<stop  offset="0.96" style="stop-color:#00A462"/>
				</radialGradient>
				<path style="fill:url(#SVGID_00000036225588721346077700000009366143081819976104_);" d="M324.1,100.5c-4.2,1.4-8.6,2.1-13.1,2
					c-15.5-0.5-31,1.1-46.6,1.1c-11.4,0-22.6-1.2-33.9-3c-4.4-0.7-8.6-1.8-12.6-3.1c0,6.6,0.3,13.2,0.9,19.7
					c1.1,6.4,2.7,12.6,4.9,18.7c0.4,0.7,0.7,1.4,1.1,2.1c38,0.5,74.2,0.5,107.4,0.2c-5.1-7.5-7.9-16.2-8.2-25.2
					C323.8,108.9,323.9,104.7,324.1,100.5z"/>
				
					<radialGradient id="SVGID_00000097502671212853877460000003604978105466925696_" cx="500" cy="590.29" r="883.26" gradientTransform="matrix(1 0 0 -1 0 290)" gradientUnits="userSpaceOnUse">
					<stop  offset="9.000000e-02" style="stop-color:#C5D068"/>
					<stop  offset="0.34" style="stop-color:#A1C563"/>
					<stop  offset="0.47" style="stop-color:#92C161"/>
					<stop  offset="0.96" style="stop-color:#00A462"/>
				</radialGradient>
				<path style="fill:url(#SVGID_00000097502671212853877460000003604978105466925696_);" d="M31.4,103.9c0-10.9,4.2-21.4,11.7-29.3
					c0-0.2,0-0.3-0.1-0.4c-1.5-5.6-1.9-11.5-1.2-17.3C27.4,57.5,13.4,57.8,0,58v65.2c10,1.7,20.4,3.3,31.4,4.7V103.9z"/>
				
					<radialGradient id="SVGID_00000152967693317228927130000002878600251535698067_" cx="500" cy="590.29" r="883.26" gradientTransform="matrix(1 0 0 -1 0 290)" gradientUnits="userSpaceOnUse">
					<stop  offset="9.000000e-02" style="stop-color:#C5D068"/>
					<stop  offset="0.34" style="stop-color:#A1C563"/>
					<stop  offset="0.47" style="stop-color:#92C161"/>
					<stop  offset="0.96" style="stop-color:#00A462"/>
				</radialGradient>
				<path style="fill:url(#SVGID_00000152967693317228927130000002878600251535698067_);" d="M673,97.5c-12.8,0-23.9-5.5-31.6-14.1
					c-8.3-1.7-16.2-4.5-23.4-9.1c-31.5,4.1-63.2,3.3-95,3.3c-6.5,0-12.6-1.5-18.1-4c1.8,14.6,2.2,27.8-1,42.9
					c-1.4,6.6-5.3,12.8-10.1,17.7c13-0.6,20.1-1,20.1-1c106.4-7.9,160.3-21,178.4-35.5C685.8,97.5,679.4,97.5,673,97.5z"/>
				<path class="st7" d="M31.4,103.9c0-10.9,4.2-21.4,11.7-29.3c0-0.2,0-0.3-0.1-0.4c-1.5-5.6-1.9-11.5-1.2-17.3
					C27.4,57.5,13.4,57.8,0,58v65.2c10,1.7,20.4,3.3,31.4,4.7V103.9z"/>
				<path class="st7" d="M324.1,100.5c-4.2,1.4-8.6,2.1-13.1,2c-15.5-0.5-31,1.1-46.6,1.1c-11.4,0-22.6-1.2-33.9-3
					c-4.4-0.7-8.6-1.8-12.6-3.1c0,6.6,0.3,13.2,0.9,19.7c1.1,6.4,2.7,12.6,4.9,18.7c0.4,0.7,0.7,1.4,1.1,2.1
					c38,0.5,74.2,0.5,107.4,0.2c-5.1-7.5-7.9-16.2-8.2-25.2C323.8,108.9,323.9,104.7,324.1,100.5z"/>
				<path class="st7" d="M673,97.5c-12.8,0-23.9-5.5-31.6-14.1c-8.3-1.7-16.2-4.5-23.4-9.1c-31.5,4.1-63.2,3.3-95,3.3
					c-6.5,0-12.6-1.5-18.1-4c1.8,14.6,2.2,27.8-1,42.9c-1.4,6.6-5.3,12.8-10.1,17.7c13-0.6,20.1-1,20.1-1
					c106.4-7.9,160.3-21,178.4-35.5C685.8,97.5,679.4,97.5,673,97.5z"/>
				
					<radialGradient id="SVGID_00000098209518008123216160000014405940477503836846_" cx="500" cy="590.29" r="883.26" gradientTransform="matrix(1 0 0 -1 0 290)" gradientUnits="userSpaceOnUse">
					<stop  offset="9.000000e-02" style="stop-color:#C5D068"/>
					<stop  offset="0.34" style="stop-color:#A1C563"/>
					<stop  offset="0.47" style="stop-color:#92C161"/>
					<stop  offset="0.96" style="stop-color:#00A462"/>
				</radialGradient>
				<path style="fill:url(#SVGID_00000098209518008123216160000014405940477503836846_);" d="M956,165.4c-9.4-6-19-11.9-28.5-17.8
					c-4.6-2.8-9.1-5.6-13.7-8.5c-1.7-0.5-4.2,0-6,0c-28.4-9-59.1-16.1-89.1-13.5c-12.3,1.1-26.3,3.7-35.8,12.2
					c-6.7,5.9-9.4,14.2-11.6,22.5c-2.4,9.2-5,18.3-10.8,26.1c-6.9,9.2-17.2,13.6-28.3,15.5c-25.1,4.2-50.4-2.6-75.4-3.5
					c-35.3-1.3-70.7,4.5-105.7-2.3c-29.5-5.8-59.9-17-90.2-10.2c-22.6,5-37.7,23-58.4,32c-13.4,5.8-27.8,6-42.2,5.8
					c-17.4-0.2-34.8-2-52-4c-34.5-4.1-69.1-9.6-103.9-6.9c-19.2,1.5-61.8,4.4-57.4,33.4c1.8,11.6,7.4,20.1,19.3,21.9
					c13.7,2.1,26.5,6.3,39.9,9.6c25,6.1,50.4,9,76,10.8H1000v-92.3C985.9,185.1,971,175.1,956,165.4z"/>
				<path class="st7" d="M956,165.4c-9.4-6-19-11.9-28.5-17.8c-4.6-2.8-9.1-5.6-13.7-8.5c-1.7-0.5-4.2,0-6,0
					c-28.4-9-59.1-16.1-89.1-13.5c-12.3,1.1-26.3,3.7-35.8,12.2c-6.7,5.9-9.4,14.2-11.6,22.5c-2.4,9.2-5,18.3-10.8,26.1
					c-6.9,9.2-17.2,13.6-28.3,15.5c-25.1,4.2-50.4-2.6-75.4-3.5c-35.3-1.3-70.7,4.5-105.7-2.3c-29.5-5.8-59.9-17-90.2-10.2
					c-22.6,5-37.7,23-58.4,32c-13.4,5.8-27.8,6-42.2,5.8c-17.4-0.2-34.8-2-52-4c-34.5-4.1-69.1-9.6-103.9-6.9
					c-19.2,1.5-61.8,4.4-57.4,33.4c1.8,11.6,7.4,20.1,19.3,21.9c13.7,2.1,26.5,6.3,39.9,9.6c25,6.1,50.4,9,76,10.8H1000v-92.3
					C985.9,185.1,971,175.1,956,165.4z"/>
			</g>
		</g>
	</g>
</g>
</svg>
