<svg xmlns="http://www.w3.org/2000/svg" xmlns:xlink="http://www.w3.org/1999/xlink" viewBox="0 0 1000 288.32"><defs><style>.cls-1{isolation:isolate;}.cls-2{fill:url(#radial-gradient);}.cls-3{fill:url(#radial-gradient-7);}.cls-4{fill:#ede495;mix-blend-mode:overlay;opacity:0.24;}.cls-5{fill:url(#radial-gradient-10);}</style><radialGradient id="radial-gradient" cx="500" cy="-300.29" r="883.26" gradientUnits="userSpaceOnUse"><stop offset="0.09" stop-color="#c5d068"/><stop offset="0.34" stop-color="#a1c563"/><stop offset="0.47" stop-color="#92c161"/><stop offset="0.96" stop-color="#00a462"/></radialGradient><radialGradient id="radial-gradient-7" cx="500" cy="-300.29" r="883.26" xlink:href="#radial-gradient"/><radialGradient id="radial-gradient-10" cx="500" cy="-300.29" r="883.26" xlink:href="#radial-gradient"/></defs><g class="cls-1"><g id="Layer_2" data-name="Layer 2"><g id="Moles"><g id="Ground"><path class="cls-2" d="M43.05,51.07l4.39-10.39c5.32-10.07,15.47-16.59,26-20q1.11-.36,2.28-.63c-.15-1.23-.27-2.47-.33-3.72a29.37,29.37,0,0,1,0-3.11Q37.88,16.31,0,19.93V58c13.4-.14,27.4-.46,41.88-1A46.58,46.58,0,0,1,43.05,51.07Z"/><path class="cls-2" d="M250.64,35.05c24.42-2.65,51.85-5.27,80.63-7.39,1.13-9.58,3.36-19.32,8-27.66q-43.83.5-88,2.27a46.47,46.47,0,0,1,1.37,27.47A40.46,40.46,0,0,1,250.64,35.05Z"/><path class="cls-2" d="M563.39,26.86c-.29-6.42,1.59-13.37,4.74-19.55Q534.42,4.73,499.43,3c0,3.84-.08,7.67-.14,11.51-.05,3.23-.13,6.46-.17,9.69A577,577,0,0,1,561,30.4c.9.14,1.79.3,2.7.45C563.57,29.53,563.45,28.2,563.39,26.86Z"/><path class="cls-2" d="M755.76,29c0,.53.08,1.05.1,1.57.49,10.84-5.19,23.21-12.74,30.76a44,44,0,0,1-16.37,10.17,49.27,49.27,0,0,1-12,5.6,143.23,143.23,0,0,1-16.38,4c8.55,20.72-38.91,41.3-184.52,52.08,0,0-7.12.4-20.09,1a51.31,51.31,0,0,1-5.44,4.87,32.83,32.83,0,0,1-14.8,7.79L462,148.32a49.74,49.74,0,0,0-6.17-.43c-3.56.86-7.1,1.84-10.7,2.55a138.92,138.92,0,0,1-27.8,2.92c-10.31-.1-20.63-1.37-30.92-.94l-.85.22a43.41,43.41,0,0,1-40-2,41.78,41.78,0,0,1-13.33-12.31c-33.19.32-69.44.32-107.42-.22,1.29,2.43,2.67,4.81,4.17,7.13,6.38,9.87,6.92,22.39,4.38,33.52s-10.7,20-20,26-23.11,7.26-33.52,4.39c-11-3-19.89-10.54-26-20-.49-.77-1-1.55-1.46-2.33l-1.67,3.92q-4.19,10-8.16,20.12c-4.08,10.41-9.59,20.5-20,26a51.57,51.57,0,0,1-22,5.93c-11.19.51-21.69-4.38-29.59-12-9.8-.81-20.2-6-26.85-12.65a44.88,44.88,0,0,1-12.74-30.76V127.89Q15,125.73,0,123.17V288.32H282.17c-25.55-1.81-51-4.71-76-10.8-13.43-3.27-26.22-7.48-39.89-9.58C154.48,266.13,148.79,257.58,147,246c-4.4-28.93,38.13-31.88,57.38-33.36,34.8-2.69,69.48,2.76,103.94,6.86,17.29,2.06,34.64,3.8,52,4,14.35.2,28.81-.05,42.17-5.82,20.7-8.94,35.75-26.92,58.4-32,30.34-6.74,60.72,4.45,90.2,10.22,35,6.84,70.42,1,105.74,2.32,25.05.91,50.33,7.69,75.41,3.53,11.11-1.85,21.35-6.34,28.29-15.5,5.85-7.72,8.38-16.85,10.8-26.06,2.18-8.35,4.91-16.62,11.56-22.51,9.53-8.45,23.54-11.09,35.82-12.15,29.94-2.58,60.71,4.5,89.07,13.54l-.55-.17.55.17c1.79,0,4.29-.49,6,0q6.82,4.26,13.67,8.48c9.52,5.89,19,11.77,28.47,17.81,15,9.63,29.87,19.66,44,30.6V80.94A2211.13,2211.13,0,0,0,755.76,29Z"/><path class="cls-2" d="M895.49,135.22l1.37.44Z"/><path class="cls-2" d="M897,135.7l2.5.8Z"/><path class="cls-3" d="M324,113.08c-.82-18,2.77-36,5.93-53.73.39-6.9.08-13.83.44-20.73.18-3.57.46-7.25.9-11-28.78,2.12-56.21,4.74-80.63,7.39-3.63,8.3-10.42,17.26-18.07,20.68-4.41,2-8.84,3.94-13.33,5.72-1,18.64-2.12,37.26-.37,55.86a120.53,120.53,0,0,0,4.86,18.74c.35.69.7,1.38,1.06,2.06,38,.54,74.23.54,107.42.22A47.62,47.62,0,0,1,324,113.08Z"/><path class="cls-3" d="M31.41,103.91A42,42,0,0,1,43.12,74.63c0-.15,0-.29-.07-.43a44,44,0,0,1-1.17-17.28C27.4,57.49,13.4,57.81,0,58v65.22q14.94,2.53,31.41,4.72Z"/><path class="cls-3" d="M693,82c-12,1.94-24.77,4.08-37,3.25-16.29-1.09-31.26-4.86-43.77-15.24a41,41,0,0,1-5.28.36c-23,0-40.36-17.73-43.15-39.51-.91-.15-1.8-.31-2.7-.45a577,577,0,0,0-61.92-6.23c-.08,5.41,0,10.81.4,16.2,1.42,8.52,3.14,17,4.36,25.55,2.51,17.67,3.75,32.76,0,50.47-1.39,6.65-5.33,12.77-10.14,17.72,13-.58,20.09-1,20.09-1,145.61-10.78,193.07-31.36,184.52-52.08C696.59,81.39,694.78,81.7,693,82Z"/><path class="cls-4" d="M31.41,103.91A42,42,0,0,1,43.12,74.63c0-.15,0-.29-.07-.43a44,44,0,0,1-1.17-17.28C27.4,57.49,13.4,57.81,0,58v65.22q14.94,2.53,31.41,4.72Z"/><path class="cls-4" d="M324,113.08c-.82-18,2.77-36,5.93-53.73.39-6.9.08-13.83.44-20.73.18-3.57.46-7.25.9-11-28.78,2.12-56.21,4.74-80.63,7.39-3.63,8.3-10.42,17.26-18.07,20.68-4.41,2-8.84,3.94-13.33,5.72-1,18.64-2.12,37.26-.37,55.86a120.53,120.53,0,0,0,4.86,18.74c.35.69.7,1.38,1.06,2.06,38,.54,74.23.54,107.42.22A47.62,47.62,0,0,1,324,113.08Z"/><path class="cls-4" d="M693,82c-12,1.94-24.77,4.08-37,3.25-16.29-1.09-31.26-4.86-43.77-15.24a41,41,0,0,1-5.28.36c-23,0-40.36-17.73-43.15-39.51-.91-.15-1.8-.31-2.7-.45a577,577,0,0,0-61.92-6.23c-.08,5.41,0,10.81.4,16.2,1.42,8.52,3.14,17,4.36,25.55,2.51,17.67,3.75,32.76,0,50.47-1.39,6.65-5.33,12.77-10.14,17.72,13-.58,20.09-1,20.09-1,145.61-10.78,193.07-31.36,184.52-52.08C696.59,81.39,694.78,81.7,693,82Z"/><path class="cls-5" d="M956,165.45c-9.43-6-19-11.92-28.47-17.81q-6.84-4.23-13.67-8.48c-1.71-.49-4.21,0-6,0-28.36-9-59.13-16.12-89.07-13.54-12.28,1.06-26.29,3.71-35.82,12.15-6.65,5.89-9.38,14.16-11.56,22.51-2.42,9.21-4.95,18.34-10.8,26.06-6.94,9.16-17.18,13.65-28.29,15.5-25.08,4.16-50.36-2.62-75.41-3.53-35.32-1.27-70.74,4.52-105.74-2.32-29.48-5.77-59.86-17-90.2-10.22-22.65,5-37.7,23-58.4,32-13.36,5.77-27.82,6-42.17,5.82-17.41-.24-34.76-2-52-4-34.46-4.1-69.14-9.55-103.94-6.86-19.25,1.48-61.78,4.43-57.38,33.36,1.76,11.57,7.45,20.12,19.29,21.93,13.67,2.1,26.46,6.31,39.89,9.58,25,6.09,50.41,9,76,10.8H1000V196.05C985.87,185.11,971,175.08,956,165.45Z"/><path class="cls-4" d="M956,165.45c-9.43-6-19-11.92-28.47-17.81q-6.84-4.23-13.67-8.48c-1.71-.49-4.21,0-6,0-28.36-9-59.13-16.12-89.07-13.54-12.28,1.06-26.29,3.71-35.82,12.15-6.65,5.89-9.38,14.16-11.56,22.51-2.42,9.21-4.95,18.34-10.8,26.06-6.94,9.16-17.18,13.65-28.29,15.5-25.08,4.16-50.36-2.62-75.41-3.53-35.32-1.27-70.74,4.52-105.74-2.32-29.48-5.77-59.86-17-90.2-10.22-22.65,5-37.7,23-58.4,32-13.36,5.77-27.82,6-42.17,5.82-17.41-.24-34.76-2-52-4-34.46-4.1-69.14-9.55-103.94-6.86-19.25,1.48-61.78,4.43-57.38,33.36,1.76,11.57,7.45,20.12,19.29,21.93,13.67,2.1,26.46,6.31,39.89,9.58,25,6.09,50.41,9,76,10.8H1000V196.05C985.87,185.11,971,175.08,956,165.45Z"/></g></g></g></g></svg>