<?xml version="1.0" encoding="utf-8"?>
<!-- Generator: Adobe Illustrator 25.4.1, SVG Export Plug-In . SVG Version: 6.00 Build 0)  -->
<svg version="1.1" id="Layer_1" xmlns="http://www.w3.org/2000/svg" xmlns:xlink="http://www.w3.org/1999/xlink" x="0px" y="0px"
	 viewBox="0 0 1000 275.7" style="enable-background:new 0 0 1000 275.7;" xml:space="preserve">
<style type="text/css">
	.st0{fill:url(#SVGID_1_);}
	.st1{fill:url(#SVGID_00000020374599643360315840000000283733874449994420_);}
	.st2{fill:url(#SVGID_00000037672895706060575660000016114837145880561540_);}
	.st3{fill:url(#SVGID_00000042013170241270129280000005300959350763396017_);}
	.st4{fill:url(#SVGID_00000037692373889816224960000012687413229092361901_);}
	.st5{fill:url(#SVGID_00000141419873418370084080000016075940455162260655_);}
	.st6{fill:url(#SVGID_00000100364804344149687340000016780340681456020882_);}
	.st7{fill:url(#SVGID_00000121271244204905502110000016718204032558561457_);}
	.st8{fill:url(#SVGID_00000148660193430301183930000013900485611884101264_);}
	.st9{opacity:0.24;fill:#EDE495;enable-background:new    ;}
	.st10{fill:url(#SVGID_00000072985210451965686290000008127280531236538498_);}
</style>
<g>
	<g id="Layer_2_00000106853786377231260070000007775450372348172730_">
		<g id="Moles">
			<g id="Ground">
				
					<radialGradient id="SVGID_1_" cx="500" cy="590.94" r="883.26" gradientTransform="matrix(1 0 0 -1 0 278)" gradientUnits="userSpaceOnUse">
					<stop  offset="9.000000e-02" style="stop-color:#C5D068"/>
					<stop  offset="0.34" style="stop-color:#A1C563"/>
					<stop  offset="0.47" style="stop-color:#92C161"/>
					<stop  offset="0.96" style="stop-color:#00A462"/>
				</radialGradient>
				<path class="st0" d="M80.9,11.5C80.8,7.6,81.3,3.7,82.5,0C55.1,2.2,27.6,4.6,0,7.3v38c28.5-0.3,59.8-1.4,92.8-4
					C84.9,33.5,81.4,22.3,80.9,11.5z"/>
				
					<radialGradient id="SVGID_00000134968508219042787630000011162651145620697510_" cx="500" cy="590.9425" r="883.2642" gradientTransform="matrix(1 0 0 -1 0 278)" gradientUnits="userSpaceOnUse">
					<stop  offset="9.000000e-02" style="stop-color:#C5D068"/>
					<stop  offset="0.34" style="stop-color:#A1C563"/>
					<stop  offset="0.47" style="stop-color:#92C161"/>
					<stop  offset="0.96" style="stop-color:#00A462"/>
				</radialGradient>
				<path style="fill:url(#SVGID_00000134968508219042787630000011162651145620697510_);" d="M378.5,199.4c-1.2-2-2.2-4.1-3.3-6.3
					c-3.3,1.3-6.8,2.4-10.3,3.1c-7.5,1.5-15.2,2.5-22.9,3.1c-9.5,0.8-19.1,0.7-28.7,0.5c-11.1-0.3-21.9-0.4-33,0.4
					c-6.1,0.4-12.3,0.8-18.4,1.1c15.5,1.5,30.9,3.6,46.3,5.5c17.3,2.1,34.6,3.8,52,4c8.9,0.1,17.8,0.1,26.4-1.3
					C383.5,206.6,380.7,203.2,378.5,199.4z"/>
				
					<radialGradient id="SVGID_00000080181170541988281090000006609244246833975195_" cx="500" cy="590.94" r="883.26" gradientTransform="matrix(1 0 0 -1 0 278)" gradientUnits="userSpaceOnUse">
					<stop  offset="9.000000e-02" style="stop-color:#C5D068"/>
					<stop  offset="0.34" style="stop-color:#A1C563"/>
					<stop  offset="0.47" style="stop-color:#92C161"/>
					<stop  offset="0.96" style="stop-color:#00A462"/>
				</radialGradient>
				<path style="fill:url(#SVGID_00000080181170541988281090000006609244246833975195_);" d="M166.3,255.3
					c-11.8-1.8-17.5-10.4-19.3-21.9c-4.4-28.9,38.1-31.9,57.4-33.4c2.7-0.2,5.4-0.4,8.2-0.5c-4.7-0.8-9.3-1.9-13.9-3.4
					c-5.9,2.9-12.5,4.5-19.2,4.6c-2.2,0-4.4,0.2-6.6,0.4c-13.2,2-26.2,4.4-39.5,5.9c-5.7,0.7-11.4,0.9-17.1,0.5
					c-13.6-1-22.6-3.3-34.8-9.1c-10.1-4.8-16.7-15.8-20-26c-3.6-11.2-1-23.4,4.4-33.5c0.4-0.7,0.8-1.3,1.2-2
					c-5.3-5.3-9.2-11.8-11.4-19c-19.9-2-38.5-4.6-55.5-7.5v165.2h282.2c-25.5-1.8-51-4.7-76-10.8C192.7,261.6,180,257.4,166.3,255.3
					z"/>
				
					<radialGradient id="SVGID_00000003794395881728055650000012264351928416975027_" cx="500" cy="590.94" r="883.26" gradientTransform="matrix(1 0 0 -1 0 278)" gradientUnits="userSpaceOnUse">
					<stop  offset="9.000000e-02" style="stop-color:#C5D068"/>
					<stop  offset="0.34" style="stop-color:#A1C563"/>
					<stop  offset="0.47" style="stop-color:#92C161"/>
					<stop  offset="0.96" style="stop-color:#00A462"/>
				</radialGradient>
				<path style="fill:url(#SVGID_00000003794395881728055650000012264351928416975027_);" d="M912.9,46.4c0.4,2.2,0.6,4.4,0.6,6.6
					c0.5,21.2-4.5,43.2-20.4,58.3c-3.3,3.1-6.9,5.7-10.7,8c8.6,2.1,17.1,4.6,25.4,7.2c1.8,0,4.3-0.5,6,0c4.5,2.8,9.1,5.7,13.7,8.5
					c9.5,5.9,19,11.8,28.5,17.8c15,9.6,29.9,19.6,44,30.6V68.3C972.4,60.7,943.3,53.4,912.9,46.4z"/>
				
					<radialGradient id="SVGID_00000121239665482574772540000008991500575231682177_" cx="500" cy="590.94" r="883.26" gradientTransform="matrix(1 0 0 -1 0 278)" gradientUnits="userSpaceOnUse">
					<stop  offset="9.000000e-02" style="stop-color:#C5D068"/>
					<stop  offset="0.34" style="stop-color:#A1C563"/>
					<stop  offset="0.47" style="stop-color:#92C161"/>
					<stop  offset="0.96" style="stop-color:#00A462"/>
				</radialGradient>
				<path style="fill:url(#SVGID_00000121239665482574772540000008991500575231682177_);" d="M604.4,175.3c-2.1-7.6-2.1-15.6,0-23.1
					c1.8-6.7,5.3-12.8,10.1-17.8c-4.6,0.3-9.2-0.1-13.7-1.1c-6.1-1.4-11.8-4.4-16.4-8.6c-5.6,1.5-11.5,1.8-17.2,1.1
					c-7.2-0.9-14.1-3.7-20-8c-3.8,0.4-7.7,0.7-11.7,1.1c-3.7,6.8-8.9,12.8-15.8,16.5c-6.8,3.6-14.3,5.6-22,5.9
					c-4.3,0.1-8.5-0.5-12.5-1.9c-4.2,10.7-8.1,21.7-12.9,32.1c26.5-2.3,53,6.9,78.8,12c19.3,3.8,38.7,3.7,58.1,3.1
					C607,183,605.4,179.2,604.4,175.3z"/>
				
					<radialGradient id="SVGID_00000031181108742984644400000016456150465227113647_" cx="500" cy="590.94" r="883.26" gradientTransform="matrix(1 0 0 -1 0 278)" gradientUnits="userSpaceOnUse">
					<stop  offset="9.000000e-02" style="stop-color:#C5D068"/>
					<stop  offset="0.34" style="stop-color:#A1C563"/>
					<stop  offset="0.47" style="stop-color:#92C161"/>
					<stop  offset="0.96" style="stop-color:#00A462"/>
				</radialGradient>
				<path style="fill:url(#SVGID_00000031181108742984644400000016456150465227113647_);" d="M895.5,122.6l1.4,0.4L895.5,122.6z"/>
				
					<radialGradient id="SVGID_00000008829078160931094610000018028208944846448274_" cx="500" cy="590.94" r="883.26" gradientTransform="matrix(1 0 0 -1 0 278)" gradientUnits="userSpaceOnUse">
					<stop  offset="9.000000e-02" style="stop-color:#C5D068"/>
					<stop  offset="0.34" style="stop-color:#A1C563"/>
					<stop  offset="0.47" style="stop-color:#92C161"/>
					<stop  offset="0.96" style="stop-color:#00A462"/>
				</radialGradient>
				<path style="fill:url(#SVGID_00000008829078160931094610000018028208944846448274_);" d="M897,123.1l2.5,0.8L897,123.1z"/>
				
					<radialGradient id="SVGID_00000062879450261315100580000009225106253892162986_" cx="500" cy="590.95" r="883.26" gradientTransform="matrix(1 0 0 -1 0 278)" gradientUnits="userSpaceOnUse">
					<stop  offset="9.000000e-02" style="stop-color:#C5D068"/>
					<stop  offset="0.34" style="stop-color:#A1C563"/>
					<stop  offset="0.47" style="stop-color:#92C161"/>
					<stop  offset="0.96" style="stop-color:#00A462"/>
				</radialGradient>
				<path style="fill:url(#SVGID_00000062879450261315100580000009225106253892162986_);" d="M62.9,78.8c3.7-9,10.3-16,18.5-21.5
					c6.3-4.1,13.3-7.1,20.6-8.8c-3-1.9-5.8-4-8.3-6.4c-0.3-0.3-0.6-0.6-0.9-0.9c-33,2.6-64.2,3.7-92.8,4v65.2
					c17,2.9,35.6,5.5,55.5,7.6c-1.2-3.9-1.9-8-2.1-12.1C53,96.7,57.1,86.4,62.9,78.8z"/>
				
					<radialGradient id="SVGID_00000178914932556579788140000005891166407715514558_" cx="500" cy="590.95" r="883.26" gradientTransform="matrix(1 0 0 -1 0 278)" gradientUnits="userSpaceOnUse">
					<stop  offset="9.000000e-02" style="stop-color:#C5D068"/>
					<stop  offset="0.34" style="stop-color:#A1C563"/>
					<stop  offset="0.47" style="stop-color:#92C161"/>
					<stop  offset="0.96" style="stop-color:#00A462"/>
				</radialGradient>
				<path style="fill:url(#SVGID_00000178914932556579788140000005891166407715514558_);" d="M539.3,110.2c-1.1,2.9-2.4,5.8-3.8,8.5
					c4-0.3,7.9-0.7,11.7-1.1C544.3,115.5,541.6,113,539.3,110.2z"/>
				<path class="st9" d="M62.9,78.8c3.7-9,10.3-16,18.5-21.5c6.3-4.1,13.3-7.1,20.6-8.8c-3-1.9-5.8-4-8.3-6.4
					c-0.3-0.3-0.6-0.6-0.9-0.9c-33,2.6-64.2,3.7-92.8,4v65.2c17,2.9,35.6,5.5,55.5,7.6c-1.2-3.9-1.9-8-2.1-12.1
					C53,96.7,57.1,86.4,62.9,78.8z"/>
				<path class="st9" d="M539.3,110.2c-1.1,2.9-2.4,5.8-3.8,8.5c4-0.3,7.9-0.7,11.7-1.1C544.3,115.5,541.6,113,539.3,110.2z"/>
				
					<radialGradient id="SVGID_00000003820079075595384590000003286467846457153445_" cx="500" cy="590.95" r="883.26" gradientTransform="matrix(1 0 0 -1 0 278)" gradientUnits="userSpaceOnUse">
					<stop  offset="9.000000e-02" style="stop-color:#C5D068"/>
					<stop  offset="0.34" style="stop-color:#A1C563"/>
					<stop  offset="0.47" style="stop-color:#92C161"/>
					<stop  offset="0.96" style="stop-color:#00A462"/>
				</radialGradient>
				<path style="fill:url(#SVGID_00000003820079075595384590000003286467846457153445_);" d="M956,152.8c-9.4-6-19-11.9-28.5-17.8
					c-4.6-2.8-9.1-5.6-13.7-8.5c-1.7-0.5-4.2,0-6,0c-8.3-2.6-16.8-5.1-25.4-7.2c-13.1,7.7-28.9,10.4-44.1,8.7
					c-4.3-0.5-8.6-0.9-13-1.5c0.2,3.7,0.3,7.3,0,11c-0.7,8.8-1.5,18.5-5,26.8c-1.3,5.5-4,10.6-7.8,14.8c-1.9,3.2-4.6,5.9-7.8,7.8
					c-3.7,2.9-7.8,5.1-12.2,6.6c-0.2,1.6-0.4,3.1-0.6,4.7c-2.5,11.1-10.7,20-20,26s-23.1,7.3-33.5,4.4c-3.5-1-6.9-2.4-10-4.3
					c-1.6,0-3.2,0-4.8-0.1c-4.5,5.5-11.4,9.8-17.4,12.3c-9.5,4-18.4,4.1-28.3,2.2c-16-3.1-29.6-12.8-41.9-22.9
					c-7.5-6.3-14.4-13.5-20.4-21.3c-2.4-2.4-4.5-5.1-6.3-8c-19.4,0.6-38.8,0.7-58.1-3.1c-25.8-5-52.3-14.2-78.8-12
					c-7.7,17-17.6,32.6-34.3,43.6c-15.7,10.3-37.5,6.6-51.2-5.5c-8.7,1.4-17.6,1.5-26.4,1.3c-17.4-0.2-34.8-2-52-4
					c-15.5-1.8-31-3.9-46.6-5.5c-6.8,0.3-13.7,0.5-20.5,0.5c-9.6-0.1-19.2-0.7-28.7-2.3c-2.7,0.1-5.5,0.3-8.3,0.5
					c-19.2,1.5-61.8,4.4-57.4,33.4c1.8,11.6,7.5,20.1,19.3,21.9c13.7,2.1,26.5,6.3,39.9,9.6c25,6.1,50.4,9,76,10.8H1000v-92.3
					C985.9,172.4,971,162.4,956,152.8z"/>
				<path class="st9" d="M956,152.8c-9.4-6-19-11.9-28.5-17.8c-4.6-2.8-9.1-5.6-13.7-8.5c-1.7-0.5-4.2,0-6,0
					c-8.3-2.6-16.8-5.1-25.4-7.2c-13.1,7.7-28.9,10.4-44.1,8.7c-4.3-0.5-8.6-0.9-13-1.5c0.2,3.7,0.3,7.3,0,11
					c-0.7,8.8-1.5,18.5-5,26.8c-1.3,5.5-4,10.6-7.8,14.8c-1.9,3.2-4.6,5.9-7.8,7.8c-3.7,2.9-7.8,5.1-12.2,6.6
					c-0.2,1.6-0.4,3.1-0.6,4.7c-2.5,11.1-10.7,20-20,26s-23.1,7.3-33.5,4.4c-3.5-1-6.9-2.4-10-4.3c-1.6,0-3.2,0-4.8-0.1
					c-4.5,5.5-11.4,9.8-17.4,12.3c-9.5,4-18.4,4.1-28.3,2.2c-16-3.1-29.6-12.8-41.9-22.9c-7.5-6.3-14.4-13.5-20.4-21.3
					c-2.4-2.4-4.5-5.1-6.3-8c-19.4,0.6-38.8,0.7-58.1-3.1c-25.8-5-52.3-14.2-78.8-12c-7.7,17-17.6,32.6-34.3,43.6
					c-15.7,10.3-37.5,6.6-51.2-5.5c-8.7,1.4-17.6,1.5-26.4,1.3c-17.4-0.2-34.8-2-52-4c-15.5-1.8-31-3.9-46.6-5.5
					c-6.8,0.3-13.7,0.5-20.5,0.5c-9.6-0.1-19.2-0.7-28.7-2.3c-2.7,0.1-5.5,0.3-8.3,0.5c-19.2,1.5-61.8,4.4-57.4,33.4
					c1.8,11.6,7.5,20.1,19.3,21.9c13.7,2.1,26.5,6.3,39.9,9.6c25,6.1,50.4,9,76,10.8H1000v-92.3C985.9,172.4,971,162.4,956,152.8z"
					/>
			</g>
		</g>
	</g>
</g>
</svg>
