<svg xmlns="http://www.w3.org/2000/svg" xmlns:xlink="http://www.w3.org/1999/xlink" viewBox="0 0 1000 288.17"><defs><style>.cls-1{isolation:isolate;}.cls-2{fill:url(#radial-gradient);}.cls-3{fill:url(#radial-gradient-8);}.cls-4{fill:#ede495;mix-blend-mode:overlay;opacity:0.24;}.cls-5{fill:url(#radial-gradient-11);}</style><radialGradient id="radial-gradient" cx="500" cy="-300.44" r="883.26" gradientUnits="userSpaceOnUse"><stop offset="0.09" stop-color="#c5d068"/><stop offset="0.34" stop-color="#a1c563"/><stop offset="0.47" stop-color="#92c161"/><stop offset="0.96" stop-color="#00a462"/></radialGradient><radialGradient id="radial-gradient-8" cy="-300.44" r="883.26" xlink:href="#radial-gradient"/><radialGradient id="radial-gradient-11" cy="-300.44" r="883.26" xlink:href="#radial-gradient"/></defs><g class="cls-1"><g id="Layer_2" data-name="Layer 2"><g id="Moles"><g id="Ground"><path class="cls-2" d="M0,57.8c4.8,0,9.69-.13,14.64-.23A42.27,42.27,0,0,1,0,48.84Z"/><path class="cls-2" d="M330.32,27.59c-.77-9.19-1.6-18.38-1.9-27.59-5.25.08-10.5.16-15.76.27a40.17,40.17,0,0,1,.8,4.19,44.28,44.28,0,0,1-3.71,24.75C316.51,28.64,323.38,28.1,330.32,27.59Z"/><path class="cls-2" d="M554.77,6.21Q534.6,4.77,514,3.61c.24,1.88.42,3.77.56,5.64a66.73,66.73,0,0,1-1.16,15.65c9.53.68,18.81,1.54,27.78,2.59a46.38,46.38,0,0,1,11.13-19C553.07,7.69,553.91,6.94,554.77,6.21Z"/><path class="cls-2" d="M166.32,267.79c-8.91-1.37-14.33-6.57-17.21-14-1.61-.29-3.21-.59-4.8-.91-4.72-.92-9.42-2-14.07-3.26-3,0-6.07,0-9.11-.09-8.47,3.43-18.07,4.52-26.6,1.32l-5.36-2q-4.38-.08-8.76-.09c-18.4,0-33.19-11.35-39.8-27-13.27-12.83-18.09-31.4-13.76-49.36,3.8-15.73,16.61-28.45,30.13-36.41q2.76-1.62,5.69-3.09c.08-.52.18-1,.27-1.54-22.83-2.19-43.81-5-62.94-8.29V288.17H282.17c-25.55-1.81-51-4.71-76-10.8C192.78,274.1,180,269.89,166.32,267.79Z"/><path class="cls-2" d="M760,29.49a46,46,0,0,1-5.47,29c-5.58,9.54-13.8,15.06-23.6,19-8.46,4-16.6,8.46-25.35,12a71.71,71.71,0,0,1-8.46,2.82C686,108.9,632.52,124.2,513.86,133c0,0-6.37.36-18,.89a45.21,45.21,0,0,1-28.36,10.55c-21.63.08-43,1.63-64.24-2.14a56.39,56.39,0,0,1-8.12,3.34c-10.45,3.38-24.19,1.07-33.52-4.39a40.78,40.78,0,0,1-4.85-3.34c-45.77.66-98.66.78-154.66-.31a149.37,149.37,0,0,1,3.65,16.66,57.3,57.3,0,0,1,15,15.3A33.49,33.49,0,0,1,225.54,182a51.22,51.22,0,0,1,10.55,20,44.37,44.37,0,0,1,1.4,10.17c23.7,1,47.33,4.45,70.86,7.25,17.29,2.06,34.64,3.8,52,4,14.35.2,28.81-.05,42.17-5.82,20.7-8.94,35.75-26.92,58.4-32,30.34-6.74,60.72,4.45,90.2,10.22q5.24,1,10.49,1.67a43.11,43.11,0,0,1,1.44-10.24c3.26-11.83,10.58-18.9,20-26,12.52-9.45,28.41-15.36,43.62-18.8A234.14,234.14,0,0,1,679,137a327.84,327.84,0,0,1,91.72,13.48c1.13.35,2.23.74,3.31,1.15,1.94-5.25,4.61-10.13,9-14,9.53-8.45,23.54-11.09,35.82-12.15,29.94-2.58,60.71,4.5,89.07,13.54l-.55-.18.55.18c1.79,0,4.29-.49,6,0q6.82,4.26,13.67,8.48c9.52,5.89,19,11.77,28.47,17.81,15,9.63,29.87,19.66,44,30.6V80.79A2206.24,2206.24,0,0,0,760,29.49Z"/><path class="cls-2" d="M895.49,135.07l1.37.44Z"/><path class="cls-2" d="M897,135.55l2.5.8Z"/><path class="cls-3" d="M75.34,61.9c-15.58-.66-31.15-1.92-46.75-2a42.8,42.8,0,0,1-13.95-2.36c-5,.1-9.84.18-14.64.23V123c19.13,3.25,40.11,6.1,62.94,8.29C66,113.22,74.53,95.47,87.33,82.73A47.9,47.9,0,0,1,75.34,61.9Z"/><path class="cls-3" d="M341.6,115.24c-7.36-21.56-9.19-43.9-9.92-66.51-.23-7.06-.78-14.11-1.36-21.14-6.94.51-13.81,1.05-20.57,1.62-.45,1-.93,2-1.46,3-5.33,10.09-15.67,16.34-26,20-12.23,4.34-24.66,8.09-37,12.12a47.88,47.88,0,0,1-16.18,12.93c-10,4.88-19.67,8.11-31,7.8a77.47,77.47,0,0,1-21.62-3.4c-.62.9-1.26,1.76-1.93,2.59a85.61,85.61,0,0,1,10.31,13.23c6,9.46,10.22,20.28,14.13,30.7,1.17,3.13,2.19,6.27,3.09,9.43,56,1.09,108.89,1,154.66.31C349.49,132.09,344.64,124.14,341.6,115.24Z"/><path class="cls-3" d="M688.78,94a43.84,43.84,0,0,1-14,2.46c-15,.06-29.58.76-44.53-1.25a100.22,100.22,0,0,1-21.31-5.2c-1,0-2,.06-2.95,0-1.26,0-2.46-.07-3.64-.17q-3.68.15-7.37.17a41.56,41.56,0,0,1-27.88-10.43c-16-6.46-26.73-22.37-27.54-40.41a35.65,35.65,0,0,1,1.61-11.75c-9-1-18.25-1.91-27.78-2.59-.31,1.86-.64,3.69-1,5.48-1,5.8-2.9,11.41-4.4,17.1-.06,6.87.46,13.71.18,20.58a79.5,79.5,0,0,1-2,14.07A47.93,47.93,0,0,1,511,100.92c.49,10.84-5.19,23.22-12.74,30.76-.76.76-1.57,1.49-2.4,2.19,11.66-.53,18-.89,18-.89C632.52,124.2,686,108.9,697.1,92.33A73.48,73.48,0,0,1,688.78,94Z"/><path class="cls-4" d="M688.78,94a43.84,43.84,0,0,1-14,2.46c-15,.06-29.58.76-44.53-1.25a100.22,100.22,0,0,1-21.31-5.2c-1,0-2,.06-2.95,0-1.26,0-2.46-.07-3.64-.17q-3.68.15-7.37.17a41.56,41.56,0,0,1-27.88-10.43c-16-6.46-26.73-22.37-27.54-40.41a35.65,35.65,0,0,1,1.61-11.75c-9-1-18.25-1.91-27.78-2.59-.31,1.86-.64,3.69-1,5.48-1,5.8-2.9,11.41-4.4,17.1-.06,6.87.46,13.71.18,20.58a79.5,79.5,0,0,1-2,14.07A47.93,47.93,0,0,1,511,100.92c.49,10.84-5.19,23.22-12.74,30.76-.76.76-1.57,1.49-2.4,2.19,11.66-.53,18-.89,18-.89C632.52,124.2,686,108.9,697.1,92.33A73.48,73.48,0,0,1,688.78,94Z"/><path class="cls-4" d="M75.34,61.9c-15.58-.66-31.15-1.92-46.75-2a42.8,42.8,0,0,1-13.95-2.36c-5,.1-9.84.18-14.64.23V123c19.13,3.25,40.11,6.1,62.94,8.29C66,113.22,74.53,95.47,87.33,82.73A47.9,47.9,0,0,1,75.34,61.9Z"/><path class="cls-4" d="M341.6,115.24c-7.36-21.56-9.19-43.9-9.92-66.51-.23-7.06-.78-14.11-1.36-21.14-6.94.51-13.81,1.05-20.57,1.62-.45,1-.93,2-1.46,3-5.33,10.09-15.67,16.34-26,20-12.23,4.34-24.66,8.09-37,12.12a47.88,47.88,0,0,1-16.18,12.93c-10,4.88-19.67,8.11-31,7.8a77.47,77.47,0,0,1-21.62-3.4c-.62.9-1.26,1.76-1.93,2.59a85.61,85.61,0,0,1,10.31,13.23c6,9.46,10.22,20.28,14.13,30.7,1.17,3.13,2.19,6.27,3.09,9.43,56,1.09,108.89,1,154.66.31C349.49,132.09,344.64,124.14,341.6,115.24Z"/><path class="cls-5" d="M956,165.3c-9.43-6-19-11.92-28.47-17.81q-6.84-4.23-13.67-8.48c-1.71-.49-4.21,0-6,0-28.36-9-59.13-16.12-89.07-13.54-12.28,1.06-26.29,3.7-35.82,12.15-4.35,3.86-7,8.74-9,14,21.17,8.13,32.16,30,27.08,52.37-2.37,10.37-11,20.71-20,26-9.52,5.57-22.88,7.6-33.52,4.39l-1.46-.43a22,22,0,0,1-4.77,1.34,281.08,281.08,0,0,1-32.07,3.32c-5.34.22-10.68.42-16,.86-12.18,2.5-23.76,7.11-36.62,6.49a74.9,74.9,0,0,1-22-4.25,44.51,44.51,0,0,1-20.48,5.23,41.84,41.84,0,0,1-23-6.75c-10-3-18.17-10.73-23.75-19.38-4.14-6.43-6-15.09-5.83-23.28q-5.25-.66-10.49-1.67c-29.48-5.77-59.86-17-90.2-10.22-22.65,5-37.7,23-58.4,32-13.36,5.77-27.82,6-42.17,5.82-17.41-.24-34.76-2-52-4-23.53-2.8-47.16-6.21-70.86-7.25a47.49,47.49,0,0,1-5.78,23.35c-5.34,10.1-15.68,16.32-26,20-8,2.84-18.11,2.83-26.67,2.22a279.61,279.61,0,0,1-29.93-3.86c2.88,7.41,8.3,12.61,17.21,14,13.67,2.1,26.46,6.31,39.89,9.58,25,6.09,50.41,9,76,10.8H1000V195.9C985.87,185,971,174.93,956,165.3Z"/><path class="cls-4" d="M956,165.3c-9.43-6-19-11.92-28.47-17.81q-6.84-4.23-13.67-8.48c-1.71-.49-4.21,0-6,0-28.36-9-59.13-16.12-89.07-13.54-12.28,1.06-26.29,3.7-35.82,12.15-4.35,3.86-7,8.74-9,14,21.17,8.13,32.16,30,27.08,52.37-2.37,10.37-11,20.71-20,26-9.52,5.57-22.88,7.6-33.52,4.39l-1.46-.43a22,22,0,0,1-4.77,1.34,281.08,281.08,0,0,1-32.07,3.32c-5.34.22-10.68.42-16,.86-12.18,2.5-23.76,7.11-36.62,6.49a74.9,74.9,0,0,1-22-4.25,44.51,44.51,0,0,1-20.48,5.23,41.84,41.84,0,0,1-23-6.75c-10-3-18.17-10.73-23.75-19.38-4.14-6.43-6-15.09-5.83-23.28q-5.25-.66-10.49-1.67c-29.48-5.77-59.86-17-90.2-10.22-22.65,5-37.7,23-58.4,32-13.36,5.77-27.82,6-42.17,5.82-17.41-.24-34.76-2-52-4-23.53-2.8-47.16-6.21-70.86-7.25a47.49,47.49,0,0,1-5.78,23.35c-5.34,10.1-15.68,16.32-26,20-8,2.84-18.11,2.83-26.67,2.22a279.61,279.61,0,0,1-29.93-3.86c2.88,7.41,8.3,12.61,17.21,14,13.67,2.1,26.46,6.31,39.89,9.58,25,6.09,50.41,9,76,10.8H1000V195.9C985.87,185,971,174.93,956,165.3Z"/></g></g></g></g></svg>