<svg xmlns="http://www.w3.org/2000/svg" xmlns:xlink="http://www.w3.org/1999/xlink" viewBox="0 0 1000 288.51"><defs><style>.cls-1{isolation:isolate;}.cls-2{fill:url(#radial-gradient);}.cls-3{fill:url(#radial-gradient-2);}.cls-4{fill:#ede495;mix-blend-mode:overlay;opacity:0.24;}.cls-5{fill:url(#radial-gradient-3);}</style><radialGradient id="radial-gradient" cx="500" cy="-300.1" r="883.26" gradientUnits="userSpaceOnUse"><stop offset="0.09" stop-color="#c5d068"/><stop offset="0.34" stop-color="#a1c563"/><stop offset="0.47" stop-color="#92c161"/><stop offset="0.96" stop-color="#00a462"/></radialGradient><radialGradient id="radial-gradient-2" cy="-300.1" r="883.26" xlink:href="#radial-gradient"/><radialGradient id="radial-gradient-3" cy="-300.1" r="883.26" xlink:href="#radial-gradient"/></defs><g class="cls-1"><g id="Layer_2" data-name="Layer 2"><g id="Ground"><g id="Ground-2" data-name="Ground"><g id="Ground-3" data-name="Ground"><path class="cls-2" d="M206.21,277.71c-13.43-3.27-26.22-7.48-39.89-9.58-11.84-1.81-17.53-10.36-19.29-21.92-4.4-28.94,38.13-31.89,57.38-33.37,34.8-2.69,69.48,2.76,103.94,6.86,17.29,2.06,34.64,3.81,52,4,14.35.2,28.81,0,42.17-5.82C423.27,209,438.32,191,461,186c30.34-6.75,60.72,4.44,90.2,10.21,35,6.84,70.42,1,105.74,2.33,25.05.9,50.33,7.68,75.41,3.52,11.11-1.85,21.35-6.33,28.29-15.49,5.85-7.73,8.38-16.85,10.8-26.07,2.18-8.34,4.91-16.62,11.56-22.51,9.53-8.44,23.54-11.09,35.82-12.15,29.94-2.57,60.71,4.51,89.07,13.54l-.55-.17-.33-.11-.11,0-1.18-.38-.58-.18-.35-.12-.41-.13-1.67-.53-.36-.11-.59-.19-.47-.15-.42-.14-.64-.2-.13,0-.56-.18-2.5-.8-.15,0-1.37-.44-.3-.09-.15,0,0,0-.11,0h0l.11,0,0,0,.15,0,.3.09,1.37.44.15,0,2.5.8.56.18.13,0,.64.2.42.14.47.15.59.19.36.11,1.67.53.41.13.35.12.58.18,1.18.38.11,0,.33.11.55.17c1.79,0,4.29-.49,6,0q6.82,4.26,13.67,8.48c9.52,5.89,19,11.78,28.47,17.81,15,9.64,29.87,19.66,44,30.6V81.13C850.5,40.17,659.31,5.85,429.83.65,289.49-2.52,146.7,6.17,0,20.12v38c44.44-.48,95.3-2.83,149.31-9.81,0,0,263.21-41.81,411.73-17.74s235.13,81.83-47.18,102.74c0,0-192.92,10.78-399.21,1.9A920.81,920.81,0,0,1,0,123.36V288.51H282.17C256.62,286.7,231.19,283.8,206.21,277.71Z"/><path class="cls-3" d="M513.86,133.33C796.17,112.42,709.55,54.66,561,30.59S149.31,48.33,149.31,48.33c-54,7-104.87,9.33-149.31,9.81v65.22a920.81,920.81,0,0,0,114.65,11.87C320.94,144.11,513.86,133.33,513.86,133.33Z"/><path class="cls-4" d="M513.86,133.33C796.17,112.42,709.55,54.66,561,30.59S149.31,48.33,149.31,48.33c-54,7-104.87,9.33-149.31,9.81v65.22a920.81,920.81,0,0,0,114.65,11.87C320.94,144.11,513.86,133.33,513.86,133.33Z"/><path class="cls-5" d="M927.53,147.83q-6.84-4.23-13.67-8.48c-1.71-.49-4.21,0-6,0-28.36-9-59.13-16.11-89.07-13.54C806.51,126.87,792.5,129.52,783,138c-6.65,5.89-9.38,14.17-11.56,22.51-2.42,9.22-4.95,18.34-10.8,26.07-6.94,9.16-17.18,13.64-28.29,15.49-25.08,4.16-50.36-2.62-75.41-3.52-35.32-1.28-70.74,4.51-105.74-2.33-29.48-5.77-59.86-17-90.2-10.21-22.65,5-37.7,23-58.4,31.95-13.36,5.78-27.82,6-42.17,5.82-17.41-.23-34.76-2-52-4-34.46-4.1-69.14-9.55-103.94-6.86-19.25,1.48-61.78,4.43-57.38,33.37,1.76,11.56,7.45,20.11,19.29,21.92,13.67,2.1,26.46,6.31,39.89,9.58,25,6.09,50.41,9,76,10.8H1000V196.24c-14.13-10.94-29-21-44-30.6C946.57,159.61,937.05,153.72,927.53,147.83Z"/><path class="cls-4" d="M927.53,147.83q-6.84-4.23-13.67-8.48c-1.71-.49-4.21,0-6,0-28.36-9-59.13-16.11-89.07-13.54C806.51,126.87,792.5,129.52,783,138c-6.65,5.89-9.38,14.17-11.56,22.51-2.42,9.22-4.95,18.34-10.8,26.07-6.94,9.16-17.18,13.64-28.29,15.49-25.08,4.16-50.36-2.62-75.41-3.52-35.32-1.28-70.74,4.51-105.74-2.33-29.48-5.77-59.86-17-90.2-10.21-22.65,5-37.7,23-58.4,31.95-13.36,5.78-27.82,6-42.17,5.82-17.41-.23-34.76-2-52-4-34.46-4.1-69.14-9.55-103.94-6.86-19.25,1.48-61.78,4.43-57.38,33.37,1.76,11.56,7.45,20.11,19.29,21.92,13.67,2.1,26.46,6.31,39.89,9.58,25,6.09,50.41,9,76,10.8H1000V196.24c-14.13-10.94-29-21-44-30.6C946.57,159.61,937.05,153.72,927.53,147.83Z"/></g></g></g></g></g></svg>