<?xml version="1.0" encoding="utf-8"?>
<!-- Generator: Adobe Illustrator 25.4.1, SVG Export Plug-In . SVG Version: 6.00 Build 0)  -->
<svg version="1.1" id="Layer_1" xmlns="http://www.w3.org/2000/svg" xmlns:xlink="http://www.w3.org/1999/xlink" x="0px" y="0px"
	 viewBox="0 0 144 72" style="enable-background:new 0 0 144 72;" xml:space="preserve">
<style type="text/css">
	.st0{fill:#734E1F;stroke:#020202;stroke-width:1.85;}
	.st1{fill:url(#path174-2-7-7-2_00000096019339283829639870000000212417965079970701_);}
	.st2{fill:#3A2C15;}
</style>
<g id="Layer_2_00000003784330398761044460000004622375644778170253_">
	<g id="Burrow_Backs">
		<g id="Burrow_Back-2">
			<path id="path115416-7-2-8-85-6-9-9-4-53-1-24-84-2" class="st0" d="M47.6,21.2c1.2,0,2.3,0.3,3.3,1H51c3.4,0,6.2,2.7,6.4,6v0.3
				c0,0.9-0.2,1.8-0.6,2.6c0.7,1,1.1,2.3,1.1,3.5c0,0.1,0,0.2,0,0.3c-0.2,3.4-3,6-6.4,6c-0.3,0-0.7,0-1-0.1
				c-2.1,1.4-4.8,1.4-6.9,0.1h-0.4c-3.5,0-6.4-2.8-6.4-6.3c0-0.9,0.2-1.8,0.6-2.6c-0.7-1-1.1-2.3-1.1-3.5c0-3.5,2.8-6.4,6.3-6.4
				c0.4,0,0.9,0,1.3,0.1C45.1,21.6,46.3,21.2,47.6,21.2L47.6,21.2z"/>
			
				<linearGradient id="path174-2-7-7-2_00000031172119809944930660000001188603163311014316_" gradientUnits="userSpaceOnUse" x1="256.72" y1="507.7668" x2="256.72" y2="453.8716" gradientTransform="matrix(1 0 0 1 -184.72 -442.72)">
				<stop  offset="0" style="stop-color:#020202"/>
				<stop  offset="1" style="stop-color:#4B3417"/>
			</linearGradient>
			<path id="path174-2-7-7-2" style="fill:url(#path174-2-7-7-2_00000031172119809944930660000001188603163311014316_);" d="
				M102.5,6.2c-1.6,0-3.1,0.4-4.3,1.4c-1-0.5-2.1-0.7-3.2-0.7c-3.7,0-6.7,2.7-6.7,6c0,0.6,0.1,1.3,0.3,1.8c-0.3,0.3-0.5,0.6-0.7,0.9
				c-1.7-1.4-3.9-2.1-6.1-2.1c-3.6,0-6.6,1.8-7.8,4.3c-0.9-0.4-1.8-0.6-2.8-0.7c-1.6,0-3.1,0.6-4.3,1.6c-1.1-0.8-2.5-1.3-3.8-1.3
				c-2.1,0-4.1,1-5.4,2.7c-0.8-0.2-1.7-0.3-2.5-0.3c-2,0-3.9,0.6-5.6,1.7c-1.9-2.4-4.7-3.8-7.8-3.7c-5.1,0-9.3,3.6-9.3,8.1
				c0,1,0.2,2.1,0.7,3c-0.5-0.1-0.9-0.2-1.4-0.4c-1.4,3.1-4.5,5.2-8,5.2c-0.1,0-0.3,0-0.4,0c-0.7,4.6-5.1,8.1-10.3,8.1
				c-0.8,0-1.7-0.1-2.5-0.3c-1,1.5-2.4,2.7-4.2,3.2c-1.3,1.4-2.9,2.3-4.7,2.7c2,0.9,4.3,0.6,6.1-0.6c0.4,2,2.1,3.6,4.2,3.7
				c2.4,0,4.3-2.3,4.3-5.1c0-0.6-0.1-1.1-0.2-1.7c1.7-0.4,3.2-1.5,4.3-2.9c0.4,0.2,0.8,0.4,1.3,0.5c0.1,0.1,0.2,0.3,0.3,0.4
				c-0.1,0-0.3,0-0.4,0c-2.4,0-4.3,2.2-4.3,5.1s1.9,5.1,4.3,5.1c1.4,0,2.7-0.8,3.4-1.9c1.8,3.2,6.5,5.6,12.2,5.8
				c0.7,1.5,2.1,2.5,3.8,2.6c1.5,0,2.8-0.8,3.5-2.1c0.4,0.5,0.9,0.9,1.4,1.2c0.3,2.4,2.1,4.2,4.3,4.2c1.2,0,2.2-0.5,3-1.4h0.1
				c0.5,1.8,2.1,3,4,3.1c0.5,0,1-0.1,1.5-0.3c3.1,2,6.8,3,10.4,2.9c5.5,0,10.2-1.9,12.5-4.8l0.9-0.1c0.9,0.4,1.9,0.6,2.8,0.6
				c2.6,0.1,5.1-1.4,6.2-3.8c0.2-0.1,0.3-0.3,0.5-0.4c0.4,0.1,0.7,0.1,1.1,0.1c0.6,0,1.1-0.1,1.7-0.2c0.7,1.5,2.1,2.5,3.8,2.5
				c1.8-0.1,3.4-1.3,3.9-3c0.4,0.1,0.8,0.1,1.1,0.1c1.2,0,2.4-0.3,3.5-0.9c0.8,0.9,1.8,1.4,3,1.4c1.9-0.1,3.5-1.4,4-3.2
				c0.2,0,0.4,0,0.5,0c0.5,0,0.9-0.1,1.3-0.2c0.7,0.6,1.6,1,2.6,1c1.8-0.1,3.4-1.3,4-3.1c1.1,0.6,2.3,0.9,3.5,0.9
				c2.4,0,4.7-1.2,6-3.3c0.8,0.3,1.7,0.4,2.5,0.4c3.7,0,6.7-2.7,6.7-6.1c0-0.4,0-0.8-0.1-1.2c0.5-0.9,0.8-1.9,0.8-2.9
				c0-1.9-1-3.8-2.6-4.8c0.2-0.5,0.2-1.1,0.2-1.6c0-3.4-3-6.1-6.7-6.1c-0.3,0-0.6,0-1,0.1c0.1-0.5,0.2-1,0.2-1.4c0-3.3-3-6-6.7-6
				h-0.3c-0.7-1.5-2.1-2.5-3.8-2.5c-0.6,0-1.2,0.2-1.8,0.4c-1.7-2.8-5.7-5-10.6-5.6c0-0.1,0-0.2,0-0.3c0-3.3-3-6-6.7-6L102.5,6.2z
				 M119.5,28.3c0.3,0.5,0.6,1,1,1.5c-0.4-0.1-0.7-0.1-1.1-0.1c0.1-0.4,0.1-0.8,0.1-1.3L119.5,28.3L119.5,28.3z M104.6,29.5
				c0.5,0,1,0.1,1.5,0.1c0.1,0.3,0.2,0.6,0.3,0.8c-0.6-0.3-1.2-0.5-1.8-0.7L104.6,29.5L104.6,29.5z"/>
			<path id="path115416-7-2-8-85-3-4-0-3-8-7-2-7-7-2" class="st2" d="M49.2,23.2c1.2,0,2.3,0.3,3.3,1h0.1c3.4,0,6.2,2.7,6.4,6
				c0,0.1,0,0.2,0,0.3c0,0.9-0.2,1.8-0.6,2.6c0.7,1,1.1,2.3,1.1,3.5c0,0.1,0,0.2,0,0.3c-0.2,3.4-3,6-6.4,6c-0.3,0-0.7,0-1-0.1
				c-2.1,1.4-4.8,1.4-6.9,0.1h-0.4c-3.5,0-6.4-2.8-6.4-6.3c0-0.9,0.2-1.8,0.6-2.6c-0.7-1-1.1-2.3-1.1-3.5c0-3.5,2.9-6.4,6.4-6.4
				c0,0,0,0,0,0c0.4,0,0.8,0,1.2,0.1C46.7,23.6,47.9,23.2,49.2,23.2L49.2,23.2z"/>
		</g>
	</g>
</g>
</svg>
