<?xml version="1.0" encoding="utf-8"?>
<!-- Generator: Adobe Illustrator 25.4.1, SVG Export Plug-In . SVG Version: 6.00 Build 0)  -->
<svg version="1.1" id="Layer_1" xmlns="http://www.w3.org/2000/svg" xmlns:xlink="http://www.w3.org/1999/xlink" x="0px" y="0px"
	 viewBox="0 0 144 72" style="enable-background:new 0 0 144 72;" xml:space="preserve">
<style type="text/css">
	.st0{fill:url(#path174-2-7-3_00000078743398002763788400000016174525745601316492_);}
	.st1{fill:url(#path174-2-7-1-3_00000015354359313245091930000012054312713882844327_);}
	.st2{fill:#734E1F;stroke:#020202;stroke-width:1.07;}
	.st3{fill:#3A2C15;}
	.st4{fill:#734E1F;stroke:#020202;stroke-width:1.64;}
	.st5{fill:#734E1F;stroke:#020202;stroke-width:1.13;}
	.st6{opacity:0.8;fill:#3A2C15;enable-background:new    ;}
	.st7{fill:#3A2C15;fill-opacity:0.51;}
	.st8{fill:#734E1F;stroke:#020202;stroke-width:0.85;}
	.st9{fill:#734E1F;stroke:#020202;stroke-width:1.31;}
</style>
<g id="Layer_2_00000150789768277039944930000016793829512985494682_">
	<g id="Burrow_Fronts">
		<g id="Burrow_Front-3">
			
				<linearGradient id="path174-2-7-3_00000107577608834092612360000015696298356779224469_" gradientUnits="userSpaceOnUse" x1="186.4958" y1="317.0098" x2="325.4591" y2="317.0098" gradientTransform="matrix(1 0 0 1 -184.72 -281.04)">
				<stop  offset="0" style="stop-color:#584019"/>
				<stop  offset="1" style="stop-color:#7F5522"/>
			</linearGradient>
			<path id="path174-2-7-3" style="fill:url(#path174-2-7-3_00000107577608834092612360000015696298356779224469_);" d="M104,8.4
				c-1.4,0-2.9,0.5-4,1.3C99.1,9.2,98.1,9,97.1,9c-3.4,0-6.2,2.5-6.2,5.5c0,0.6,0.1,1.1,0.3,1.7c-1,1-1.5,2.3-1.5,3.6
				c0,0.5,0.1,0.9,0.2,1.4c-0.5,0.2-1.1,0.4-1.5,0.7c-0.9,0.4-1.7,1-2.3,1.8l0,0c-0.6,0.2-1.1,0.5-1.7,0.7c-0.9-2.2-2.7-3.8-5.1-4.3
				c-2.3-2.2-5.8-2.2-8.1-0.2c-1-0.7-2.3-1.2-3.5-1.2c-3.5,0-6.5,3.2-6.8,7.3c-0.6-0.2-1.3-0.3-2-0.3c-2.1,0.1-4.1,1.1-5.3,2.9
				c-0.3,0-0.7-0.1-1-0.1c-1.1,0-2.1,0.1-3.2,0.2c-1.2-2.4-3.4-4-5.9-4c-2.9,0-5.3,2.1-6.3,5c-1.1-2.7-3.4-4.7-6.2-4.7
				c-2.1,0.1-4.1,1.1-5.2,2.9c-0.8-0.4-1.7-0.6-2.6-0.6c-2.9,0-5.3,2-6.3,4.9c-1-0.7-2.2-1.1-3.4-1.1c-2.5,0-4.7,1.6-5.9,4
				c-0.5-0.2-1-0.4-1.6-0.4c-2.2,0-4,2.1-4,4.7c0,2.6,1.8,4.7,4,4.7c0.7,0,1.3-0.2,1.9-0.5c0,0.1,0.1,0.1,0.1,0.1
				c0.5,1.4,1.7,2.5,3.1,2.9c0.8,0.3,1.6,0.6,2.5,0.6c1.2,0,2.4-0.4,3.4-1c0.5,1.9,2,3.4,3.8,3.4c0.3,0,0.6-0.1,0.9-0.1
				C23,50,25,50,26.6,49.3c0.7,0.7,1.7,1.2,2.6,1.2c1.3-0.1,2.5-0.7,3.1-1.8c1.7,3,6.1,5.1,11.3,5.4c0.6,1.4,1.9,2.3,3.5,2.3
				c1.4-0.1,2.6-0.8,3.3-1.9c0.4,0.4,0.8,0.8,1.3,1.1c0.3,2.2,1.9,3.9,3.9,3.9c1.1,0,2.1-0.5,2.8-1.3h0.1c0.5,1.7,2,2.8,3.7,2.9
				c0.5,0,0.9-0.1,1.4-0.3c2.3,1.7,5.8,2.6,9.7,2.6c5.1,0,9.4-1.8,11.6-4.4c0.3,0,0.6-0.1,0.9-0.1c0.9,0.3,1.7,0.6,2.6,0.6
				c2.4,0.1,4.6-1.3,5.7-3.5c0.2-0.1,0.3-0.2,0.5-0.3c0.3,0.1,0.7,0.1,1,0.1c0.5,0,1-0.1,1.5-0.2c0.6,1.4,1.9,2.3,3.5,2.3
				c1.7-0.1,3.1-1.1,3.7-2.7c0.3,0.1,0.7,0.1,1.1,0.1c1.1,0,2.2-0.3,3.2-0.8c0.7,0.8,1.7,1.3,2.7,1.3c1.7,0,3.1-1.3,3.7-3
				c0.6,0.1,1.1,0,1.7-0.1c0.6,0.6,1.5,0.9,2.4,0.9c1.7-0.1,3.2-1.2,3.7-2.9c1,0.6,2.1,0.9,3.2,0.8c2.3,0.1,4.4-1.1,5.5-3.1
				c0.7,0.3,1.5,0.4,2.3,0.4c3.4,0,6.2-2.5,6.2-5.7c0-0.3-0.1-0.7-0.1-1.1c0.5-0.8,0.7-1.8,0.7-2.7c0-1.8-0.9-3.5-2.4-4.5
				c0.2-0.5,0.2-1,0.2-1.5c0-3.1-2.8-5.7-6.2-5.7c-0.3,0-0.6,0-0.9,0.1c0.1-0.5,0.2-0.9,0.2-1.3c0-3-2.8-5.5-6.2-5.5h-0.3
				c-0.6-1.4-1.9-2.3-3.5-2.3c-0.6,0-1.1,0.2-1.7,0.4c-1.5-2.6-5.3-4.6-9.8-5.1c0-0.1,0-0.2,0-0.3C110.2,10.8,107.4,8.4,104,8.4
				L104,8.4z M119.7,28.8c0.2,0.5,0.6,1,0.9,1.4c-0.3-0.1-0.7-0.1-1-0.1c0.1-0.4,0.1-0.7,0.1-1.1L119.7,28.8L119.7,28.8z M106,29.9
				c0.5,0.1,0.9,0.1,1.4,0.1c0.1,0.3,0.2,0.5,0.3,0.7c-0.6-0.3-1.1-0.5-1.7-0.7C105.9,30,105.9,30,106,29.9L106,29.9z"/>
			
				<linearGradient id="path174-2-7-1-3_00000070838718114205623670000013042625973150475170_" gradientUnits="userSpaceOnUse" x1="247.2291" y1="319.12" x2="323.2505" y2="319.12" gradientTransform="matrix(1 0 0 1 -182.34 -283.12)">
				<stop  offset="0" style="stop-color:#563E18"/>
				<stop  offset="1" style="stop-color:#2A2213"/>
			</linearGradient>
			<path id="path174-2-7-1-3" style="fill:url(#path174-2-7-1-3_00000070838718114205623670000013042625973150475170_);" d="
				M104.2,8.4c-1.4,0-2.9,0.5-4,1.3C99.3,9.2,98.2,9,97.3,9c-0.5,0-1,0.1-1.5,0.2c1.1,0.8,2.1,1.7,3.1,2.6c4.2,0.5,7.5,3.8,7.5,7.9
				c0,0.9-0.2,1.7-0.5,2.6c0.6,1.9,1,3.8,1,5.8l0,0c1.7,1.5,2.7,3.6,2.7,5.9c0,4.4-3.7,7.9-8.4,8l-0.5,0.5c0.3,0.8,0.6,1.7,0.6,2.6
				c0,4.5-4.8,8-10.7,8c-0.5,0-1,0-1.5-0.1c-0.9,3.9-6.3,6.9-12.9,6.9c-2.1,0-4.3-0.3-6.3-1c-1.3,1.5-3.1,2.5-5,2.9
				c2.6,1.4,5.6,2.1,8.6,2c5.1,0,9.4-1.8,11.6-4.4c0.3,0,0.6-0.1,0.9-0.1c0.9,0.3,1.7,0.6,2.6,0.6c2.4,0.1,4.6-1.3,5.7-3.5
				c0.2-0.1,0.3-0.2,0.5-0.3c0.3,0.1,0.7,0.1,1,0.1c0.5,0,1-0.1,1.5-0.2c0.6,1.4,1.9,2.3,3.5,2.3c1.7-0.1,3.1-1.1,3.7-2.7
				c0.3,0.1,0.7,0.1,1.1,0.1c1.1,0,2.2-0.3,3.2-0.8c0.7,0.8,1.7,1.3,2.7,1.3c1.7,0,3.1-1.3,3.7-3c0.2,0,0.3,0.1,0.5,0.1
				c0.4,0,0.8-0.1,1.2-0.2c0.6,0.6,1.5,0.9,2.4,0.9c1.7-0.1,3.2-1.2,3.7-2.9c1,0.5,2.1,0.8,3.2,0.8c2.3,0.1,4.4-1.1,5.5-3.1
				c0.7,0.3,1.5,0.4,2.3,0.4c3.4,0,6.2-2.5,6.2-5.7c0-0.3-0.1-0.7-0.1-1.1c0.5-0.8,0.7-1.7,0.7-2.7c0-1.8-0.9-3.5-2.4-4.5
				c0.2-0.5,0.2-1,0.2-1.5c0-3.1-2.8-5.7-6.2-5.7c-0.3,0-0.6,0-0.9,0.1c0.1-0.5,0.2-0.9,0.2-1.3c0-3-2.8-5.5-6.2-5.5h-0.3
				c-0.6-1.4-1.9-2.3-3.5-2.3c-0.6,0-1.1,0.1-1.7,0.4c-1.5-2.6-5.3-4.6-9.8-5.1c0-0.1,0-0.2,0-0.3C110.4,10.9,107.6,8.4,104.2,8.4
				L104.2,8.4z M119.8,28.9c0.2,0.5,0.6,1,0.9,1.4c-0.3-0.1-0.7-0.1-1.1-0.1c0.1-0.4,0.1-0.7,0.1-1.1L119.8,28.9L119.8,28.9z"/>
			<path id="path115416-7-2-8-85-6-9-9-4-53-1-24-3" class="st2" d="M62.1,51.2c0.5,0,1,0.2,1.5,0.4h0.1c1.5,0,2.7,1.2,2.8,2.7v0.1
				c0,0.4-0.1,0.8-0.2,1.1c0.3,0.5,0.5,1,0.5,1.5v0.1c-0.1,1.5-1.4,2.7-3,2.7c-0.1,0-0.2,0-0.3-0.1c-0.9,0.6-2.1,0.6-3,0h-0.2
				c-1.5,0-2.8-1.3-2.8-2.8c0-0.4,0.1-0.8,0.2-1.1c-0.3-0.5-0.5-1-0.5-1.5c0-1.5,1.3-2.8,2.8-2.8c0.2,0,0.4,0,0.6,0.1
				C61.1,51.3,61.6,51.2,62.1,51.2L62.1,51.2z"/>
			<path id="path115416-7-2-8-85-3-4-0-3-8-7-2-7-3" class="st3" d="M62.9,52.1c0.5,0,1,0.2,1.5,0.4h0.1c1.5,0,2.7,1.2,2.8,2.7
				c0,0.1,0,0.1,0,0.1c0,0.4-0.1,0.8-0.2,1.1c0.3,0.5,0.5,1,0.5,1.5c0,0.1,0,0.1,0,0.2c-0.1,1.5-1.3,2.7-2.8,2.7
				c-0.2,0-0.3,0-0.5-0.1c-0.5,0.3-1,0.5-1.5,0.5c-0.5,0-1-0.2-1.5-0.5H61c-1.5,0-2.8-1.3-2.8-2.8c0-0.4,0.1-0.8,0.2-1.1
				c-0.3-0.5-0.5-1-0.5-1.5c0-1.5,1.3-2.8,2.8-2.8c0.2,0,0.4,0,0.6,0.1C61.8,52.2,62.3,52.1,62.9,52.1L62.9,52.1z"/>
			<path id="path115416-7-2-8-85-6-9-9-4-53-1-24-8-3" class="st2" d="M93.3,51c0.5,0,1,0.2,1.5,0.5h0.1c1.5,0,2.7,1.1,2.8,2.7
				c0,0.1,0,0.1,0,0.2c0,0.4-0.1,0.8-0.2,1.1c0.3,0.5,0.5,1,0.5,1.5c0,0.1,0,0.1,0,0.1c-0.1,1.5-1.3,2.7-2.8,2.7
				c-0.2,0-0.3,0-0.5-0.1c-0.9,0.6-2.1,0.6-3,0h-0.2c-1.5,0-2.8-1.3-2.8-2.8c0-0.4,0.1-0.8,0.2-1.1c-0.3-0.5-0.5-1-0.5-1.5
				c0-1.5,1.3-2.8,2.8-2.8c0.2,0,0.4,0,0.6,0.1C92.2,51.2,92.8,51,93.3,51L93.3,51z"/>
			<path id="path115416-7-2-8-85-3-4-0-3-8-7-2-7-1-3" class="st3" d="M94,51.9c0.5,0,1,0.2,1.5,0.4l0,0c1.5,0,2.7,1.2,2.8,2.7v0.2
				c0,0.4-0.1,0.8-0.2,1.1c0.3,0.5,0.5,1,0.5,1.5V58c-0.1,1.5-1.4,2.7-3,2.7c-0.1,0-0.2,0-0.3-0.1c-0.9,0.6-2.1,0.6-3,0h-0.2
				c-1.5,0-2.8-1.3-2.8-2.8c0-0.4,0.1-0.8,0.2-1.1c-0.3-0.5-0.5-1-0.5-1.5c0-1.5,1.3-2.8,2.8-2.8c0.2,0,0.4,0,0.6,0.1
				C92.9,52,93.4,51.9,94,51.9L94,51.9z"/>
			<path id="path115416-7-2-8-85-6-9-9-4-53-1-24-6-3" class="st4" d="M134.1,33.6c0.8,0,1.6,0.2,2.3,0.7h0.1c2.3,0,4.2,1.8,4.3,4.1
				v0.2c0,0.6-0.1,1.2-0.4,1.8c0.5,0.7,0.7,1.5,0.7,2.4c0,0.1,0,0.2,0,0.2c-0.1,2.3-2.1,4.1-4.3,4.1c-0.2,0-0.5,0-0.7-0.1
				c-1.4,0.9-3.3,1-4.7,0.1h-0.3c-2.4,0-4.3-1.9-4.3-4.3l0,0c0-0.6,0.1-1.2,0.4-1.8c-0.5-0.7-0.7-1.5-0.7-2.4c0-2.4,1.9-4.3,4.3-4.3
				c0.3,0,0.6,0,0.9,0.1C132.4,33.8,133.2,33.5,134.1,33.6L134.1,33.6z"/>
			<path id="path115416-7-2-8-85-3-4-0-3-8-7-2-7-5-3" class="st3" d="M135.2,34.9c0.8,0,1.6,0.2,2.3,0.7h0.1c2.3,0,4.2,1.8,4.3,4.1
				c0,0.1,0,0.2,0,0.2c0,0.6-0.1,1.2-0.4,1.8c0.5,0.7,0.7,1.5,0.7,2.4c0,0.1,0,0.2,0,0.2c-0.1,2.3-2.1,4.1-4.3,4.1
				c-0.2,0-0.5,0-0.7-0.1c-0.7,0.5-1.5,0.7-2.4,0.7c-0.8,0-1.6-0.2-2.3-0.7h-0.3c-2.4,0-4.3-1.9-4.3-4.3l0,0c0-0.6,0.1-1.2,0.4-1.8
				c-0.5-0.7-0.7-1.5-0.7-2.4c0-2.4,1.9-4.3,4.3-4.3l0,0c0.3,0,0.6,0,0.9,0.1C133.5,35.2,134.3,34.9,135.2,34.9L135.2,34.9z"/>
			<path id="path115416-7-2-8-85-6-9-9-4-53-1-24-6-7-3" class="st5" d="M115.3,25.9c0.6,0,1.1,0.2,1.6,0.5h0.1c1.6,0,2.9,1.3,3,2.9
				c0,0.1,0,0.1,0,0.2c0,0.4-0.1,0.9-0.3,1.2c0.3,0.5,0.5,1.1,0.5,1.7v0.2c-0.1,1.6-1.4,2.9-3,2.9c-0.2,0-0.3,0-0.5-0.1
				c-0.5,0.3-1,0.5-1.7,0.5c-0.6,0-1.1-0.2-1.6-0.5h-0.2c-1.7,0-3-1.3-3-3c0-0.4,0.1-0.9,0.3-1.2c-0.3-0.5-0.5-1.1-0.5-1.7
				c0-1.7,1.3-3,3-3c0.2,0,0.4,0,0.6,0.1C114.1,26.1,114.6,25.9,115.3,25.9L115.3,25.9z"/>
			<path id="path115416-7-2-8-85-3-4-0-3-8-7-2-7-5-9-3" class="st6" d="M116.6,27.5c0.6,0,1.1,0.2,1.5,0.5h0.1c1.6,0,2.9,1.3,3,2.9
				c0,0.1,0,0.1,0,0.2c0,0.4-0.1,0.9-0.3,1.2c0.3,0.5,0.5,1.1,0.5,1.7V34c-0.1,1.6-1.4,2.9-3,2.9c-0.7-0.1-1.5,0.1-2.1,0.5
				c-0.6,0-1.1-0.2-1.6-0.5h-0.2c-1.7,0-3-1.3-3-3c0-0.4,0.1-0.9,0.3-1.2c-0.3-0.5-0.5-1.1-0.5-1.7c0-1.7,1.4-3,3-3l0,0
				c0.2,0,0.4,0,0.6,0.1C115.4,27.7,116,27.5,116.6,27.5L116.6,27.5z"/>
			<path id="path115416-7-2-8-85-6-9-9-4-53-1-24-9-3" class="st2" d="M13.5,38.4c0.5,0,1,0.2,1.5,0.4h0.1c1.5,0,2.7,1.2,2.8,2.7
				c0,0.1,0,0.1,0,0.1c0,0.4-0.1,0.8-0.2,1.1c0.3,0.5,0.5,1,0.5,1.5c0,0.1,0,0.1,0,0.2c-0.1,1.5-1.3,2.7-2.8,2.7
				c-0.2,0-0.3,0-0.5-0.1c-0.9,0.6-2.1,0.6-3,0h-0.2c-1.5,0-2.8-1.3-2.8-2.8c0-0.4,0.1-0.8,0.2-1.1c-0.3-0.5-0.5-1-0.5-1.5
				c0-1.5,1.3-2.8,2.8-2.8c0.2,0,0.4,0,0.6,0.1C12.5,38.6,13,38.4,13.5,38.4L13.5,38.4z"/>
			<path id="path115416-7-2-8-85-3-4-0-3-8-7-2-7-2-4" class="st3" d="M14.2,39.3c0.5,0,1,0.2,1.5,0.4h0.1c1.5,0,2.7,1.2,2.8,2.7
				v0.2c0,0.4-0.1,0.8-0.2,1.1c0.3,0.5,0.5,1,0.5,1.5v0.1c-0.1,1.5-1.4,2.7-3,2.7c-0.1,0-0.2,0-0.3-0.1c-0.9,0.6-2.1,0.6-3,0.1h-0.2
				c-1.5,0-2.8-1.3-2.8-2.8c0-0.4,0.1-0.8,0.2-1.1c-0.3-0.5-0.5-1-0.5-1.5c0-1.5,1.3-2.8,2.8-2.8l0,0c0.2,0,0.4,0,0.6,0.1
				C13.1,39.5,13.7,39.3,14.2,39.3L14.2,39.3z"/>
			<path id="path115416-7-2-8-85-6-9-9-4-53-1-24-96-3" class="st2" d="M42.4,40.3c0.5,0,1,0.2,1.5,0.4H44c1.5,0,2.7,1.1,2.8,2.7
				c0,0.1,0,0.1,0,0.2c0,0.4-0.1,0.8-0.2,1.1c0.3,0.5,0.5,1,0.5,1.5c0,0.1,0,0.1,0,0.1C47,47.8,45.7,49,44.2,49
				c-0.2,0-0.3,0-0.5-0.1c-0.9,0.6-2.1,0.6-3,0.1h-0.2c-1.5,0-2.8-1.3-2.8-2.8c0-0.4,0.1-0.8,0.2-1.1c-0.9-1.3-0.5-3,0.7-3.9
				c0.5-0.3,1-0.5,1.6-0.5c0.2,0,0.4,0,0.6,0.1C41.4,40.5,41.9,40.3,42.4,40.3L42.4,40.3z"/>
			<path id="path115416-7-2-8-85-3-4-0-3-8-7-2-7-23-3" class="st7" d="M43.1,41.2c0.5,0,1,0.2,1.5,0.4h0.1c1.5,0,2.7,1.2,2.8,2.7
				v0.1c0,0.4-0.1,0.8-0.2,1.1c0.3,0.5,0.5,1,0.5,1.5v0.2c-0.1,1.5-1.4,2.7-3,2.7c-0.1,0-0.2,0-0.3-0.1c-0.5,0.3-1,0.5-1.5,0.5
				c-0.5,0-1-0.2-1.5-0.5h-0.2c-1.5,0-2.8-1.3-2.8-2.8l0,0c0-0.4,0.1-0.8,0.2-1.1c-0.3-0.5-0.5-1-0.5-1.5c0-1.5,1.3-2.8,2.8-2.8
				c0.2,0,0.4,0,0.6,0.1C42,41.4,42.6,41.2,43.1,41.2L43.1,41.2z"/>
			<path id="path115416-7-2-8-85-6-9-9-4-53-1-24-96-1-3" class="st8" d="M104,36.8c0.5,0,1,0.1,1.5,0.3h0.1c1.5,0,2.7,0.7,2.9,1.7
				v0.1c0,0.3-0.1,0.5-0.2,0.7c0.3,0.2,0.5,0.6,0.5,1c0,0.1,0,0.1,0,0.1c-0.1,0.9-1.3,1.7-2.9,1.7c-0.2,0-0.3,0-0.5,0
				c-1,0.3-2.1,0.3-3.1,0H102c-1.6,0-2.9-0.8-2.9-1.8c0-0.3,0.1-0.5,0.2-0.7c-0.3-0.2-0.5-0.6-0.5-1c0-1,1.3-1.8,2.9-1.8
				c0.2,0,0.4,0,0.6,0.1C102.9,36.9,103.4,36.8,104,36.8L104,36.8z"/>
			<path id="path115416-7-2-8-85-3-4-0-3-8-7-2-7-23-8-3" class="st7" d="M104.7,37.4c0.5,0,1,0.1,1.5,0.3h0.1
				c1.5,0,2.7,0.7,2.9,1.7v0.1c0,0.3-0.1,0.5-0.2,0.7c0.3,0.2,0.5,0.6,0.5,1v0.1c-0.1,0.9-1.3,1.7-2.9,1.7c-0.2,0-0.3,0-0.5,0
				c-0.5,0.2-1,0.3-1.5,0.3c-0.5,0-1-0.1-1.5-0.3h-0.2c-1.6,0-2.9-0.8-2.9-1.8c0-0.3,0.1-0.5,0.2-0.7c-0.3-0.2-0.5-0.6-0.5-1
				c0-1,1.3-1.8,2.9-1.8c0.2,0,0.4,0,0.6,0.1C103.6,37.5,104.2,37.4,104.7,37.4L104.7,37.4z"/>
			<path id="path115416-7-2-8-85-6-9-9-4-53-1-24-96-1-4-3" class="st8" d="M32.3,25.5c0.5,0,1,0.1,1.5,0.3h0.1
				c1.5,0,2.7,0.7,2.9,1.7c0,0.1,0,0.1,0,0.1c0,0.3-0.1,0.5-0.2,0.7c0.3,0.2,0.5,0.6,0.5,1v0.1c-0.1,0.9-1.3,1.7-2.9,1.7
				c-0.2,0-0.3,0-0.5,0c-1,0.3-2.1,0.3-3.1,0h-0.2c-1.5,0-2.9-0.8-2.9-1.8c0-0.3,0.1-0.5,0.2-0.7c-0.3-0.2-0.5-0.6-0.5-1
				c0-1,1.3-1.8,2.9-1.8c0.2,0,0.4,0,0.6,0.1C31.2,25.6,31.8,25.5,32.3,25.5L32.3,25.5z"/>
			<path id="path115416-7-2-8-85-3-4-0-3-8-7-2-7-23-8-5-3" class="st7" d="M33.1,26.1c0.5,0,1,0.1,1.5,0.3h0.1
				c1.5,0,2.7,0.7,2.9,1.7v0.1c0,0.3-0.1,0.5-0.2,0.7c0.3,0.2,0.5,0.6,0.5,1c0,0.1,0,0.1,0,0.1c-0.1,0.9-1.3,1.7-2.9,1.7
				c-0.2,0-0.3,0-0.5,0c-1,0.3-2.1,0.3-3.1,0h-0.2c-1.6,0-2.9-0.8-2.9-1.8c0-0.3,0.1-0.5,0.2-0.7c-0.3-0.2-0.5-0.6-0.5-1
				c0-1,1.3-1.8,2.9-1.8c0.2,0,0.4,0,0.6,0.1C32,26.2,32.6,26.1,33.1,26.1L33.1,26.1z"/>
			<path id="path115416-7-2-8-85-6-9-9-4-53-1-24-96-1-4-2-4" class="st9" d="M79.1,31.7c0.8,0,1.5,0.1,2.3,0.4h0.1
				c2.3,0,4.3,1.1,4.4,2.6v0.1c0,0.4-0.2,0.8-0.4,1.1c0.5,0.4,0.7,0.9,0.7,1.5c0,0.1,0,0.1,0,0.1c-0.1,1.4-2.1,2.6-4.4,2.6
				c-0.2,0-0.5,0-0.7,0c-1.5,0.6-3.2,0.6-4.7,0H76c-2.4,0-4.4-1.2-4.4-2.7c0-0.4,0.2-0.8,0.4-1.1c-0.5-0.4-0.7-0.9-0.7-1.5
				c0-1.5,1.9-2.7,4.4-2.7c0.3,0,0.6,0,0.9,0.1C77.4,31.9,78.3,31.7,79.1,31.7L79.1,31.7z"/>
			<path id="path115416-7-2-8-85-3-4-0-3-8-7-2-7-23-8-5-8-3" class="st7" d="M80.2,32.6c0.8,0,1.5,0.1,2.3,0.4h0.1
				c2.3,0,4.3,1.1,4.4,2.6v0.1c0,0.4-0.1,0.8-0.4,1.1c0.5,0.4,0.7,0.9,0.7,1.5c0,0.1,0,0.1,0,0.1c-0.1,1.4-2.1,2.6-4.4,2.6
				c-0.2,0-0.5,0-0.7-0.1c-1.5,0.6-3.2,0.6-4.7,0h-0.2c-2.4,0-4.4-1.2-4.4-2.7c0-0.4,0.2-0.8,0.4-1.1c-0.5-0.4-0.7-0.9-0.7-1.5
				c0-1.5,1.9-2.7,4.4-2.7c0.3,0,0.6,0,0.9,0.1C78.5,32.7,79.3,32.5,80.2,32.6L80.2,32.6z"/>
		</g>
	</g>
</g>
</svg>
