<?xml version="1.0" encoding="utf-8"?>
<!-- Generator: Adobe Illustrator 25.4.1, SVG Export Plug-In . SVG Version: 6.00 Build 0)  -->
<svg version="1.1" id="Layer_1" xmlns="http://www.w3.org/2000/svg" xmlns:xlink="http://www.w3.org/1999/xlink" x="0px" y="0px"
	 viewBox="0 0 512 512" style="enable-background:new 0 0 512 512;" xml:space="preserve">
<style type="text/css">
	.st0{fill:#AADDE6;}
	.st1{fill:#8DCCD3;}
	.st2{opacity:0.1;enable-background:new    ;}
	.st3{fill:#00BC46;}
	.st4{fill:#FFFFFF;}
</style>
<path class="st0" d="M418,477.7L297,213.9h-81.9L94,477.7c-3.4,7.5-2.8,16.2,1.6,23.1c4.4,6.9,12.1,11.1,20.4,11.1H396
	c8.2,0,15.9-4.2,20.4-11.1C420.8,493.9,421.5,485.2,418,477.7z"/>
<path class="st1" d="M206.4,219.1c-10.7,0-19.4-8.7-19.4-19.4s8.7-19.4,19.4-19.4h99.2c10.7,0,19.4,8.7,19.4,19.4
	c0,10.7-8.7,19.4-19.4,19.4H206.4z"/>
<path class="st2" d="M122.4,500.9c-4.4-6.9-5.1-15.7-1.6-23.1l118.8-258.6h-6.3c-10.7,0-19.4-8.7-19.4-19.4
	c0-10.7,8.7-19.4,19.4-19.4h-26.8c-10.7,0-19.4,8.7-19.4,19.4c0,10.7,8.7,19.4,19.4,19.4h6.3L94,477.7c-3.4,7.5-2.8,16.2,1.6,23.1
	c4.4,6.9,12.1,11.1,20.4,11.1h26.8C134.5,512,126.9,507.8,122.4,500.9z"/>
<path class="st3" d="M124.4,487.8c-1.8,0-3.6-0.9-4.6-2.5c-1-1.6-1.1-3.5-0.4-5.2L182.8,342c0.9-1.9,2.8-3.2,4.9-3.2h136.5
	c2.1,0,4,1.2,4.9,3.2l63.3,138.1c0.8,1.7,0.6,3.6-0.4,5.2c-1,1.5-2.7,2.5-4.6,2.5H124.4L124.4,487.8z"/>
<path class="st2" d="M142.2,485.3c-1-1.6-1.1-3.5-0.4-5.2L205.1,342c0.9-1.9,2.8-3.2,4.9-3.2h-22.3c-2.1,0-4,1.2-4.9,3.2
	l-63.3,138.1c-0.8,1.7-0.6,3.6,0.4,5.2c1,1.5,2.7,2.5,4.6,2.5h22.3C144.9,487.8,143.2,486.9,142.2,485.3z"/>
<g>
	<path class="st4" d="M247.2,423.1h-1.3c-4.5,0-8.1-3.6-8.1-8.1s3.6-8.1,8.1-8.1h1.3c4.5,0,8.1,3.6,8.1,8.1S251.7,423.1,247.2,423.1
		z"/>
	<path class="st4" d="M276.9,443.7h-1.3c-4.5,0-8.1-3.6-8.1-8.1s3.6-8.1,8.1-8.1h1.3c4.5,0,8.1,3.6,8.1,8.1
		C285.1,440,281.4,443.7,276.9,443.7z"/>
	<path class="st4" d="M284.5,404h-1.3c-4.5,0-8.1-3.6-8.1-8.1c0-4.5,3.6-8.1,8.1-8.1h1.3c4.5,0,8.1,3.6,8.1,8.1
		C292.6,400.4,289,404,284.5,404z"/>
	<path class="st4" d="M228.8,379.8h-1.3c-4.5,0-8.1-3.6-8.1-8.1s3.6-8.1,8.1-8.1h1.3c4.5,0,8.1,3.6,8.1,8.1S233.3,379.8,228.8,379.8
		z"/>
	<path class="st4" d="M249.8,468.1h-1.3c-4.5,0-8.1-3.6-8.1-8.1s3.6-8.1,8.1-8.1h1.3c4.5,0,8.1,3.6,8.1,8.1S254.3,468.1,249.8,468.1
		z"/>
</g>
<path class="st3" d="M201.7,27.6c-9.8,6.7-15.8,12.7-22.5,22.5c-1,1.4-3.1,1.4-4,0c-6.7-9.8-12.7-15.8-22.5-22.5c-1.4-1-1.4-3.1,0-4
	c9.8-6.7,15.8-12.7,22.5-22.5c1-1.4,3.1-1.4,4,0c6.7,9.8,12.7,15.8,22.5,22.5C203.1,24.5,203.1,26.6,201.7,27.6z"/>
<g>
	<circle class="st4" cx="254.7" cy="269.8" r="18.1"/>
	<circle class="st4" cx="289.8" cy="304.5" r="12.7"/>
</g>
<g>
	<path class="st3" d="M332.9,58l-15.3-15.3c-1-1-1-2.5,0-3.4l15.3-15.3c1-0.9,2.5-0.9,3.4,0l15.3,15.3c1,1,1,2.5,0,3.4L336.3,58
		C335.4,58.9,333.8,58.9,332.9,58z"/>
	<path class="st3" d="M155.5,142.5l-15.3-15.3c-1-0.9-1-2.5,0-3.4l15.3-15.3c0.9-0.9,2.5-0.9,3.4,0l15.3,15.3c1,0.9,1,2.5,0,3.4
		l-15.3,15.3C157.9,143.5,156.4,143.5,155.5,142.5z"/>
</g>
</svg>
