<?xml version="1.0" encoding="utf-8"?>
<!-- Generator: Adobe Illustrator 25.4.1, SVG Export Plug-In . SVG Version: 6.00 Build 0)  -->
<svg version="1.1" id="Layer_1" xmlns="http://www.w3.org/2000/svg" xmlns:xlink="http://www.w3.org/1999/xlink" x="0px" y="0px"
	 viewBox="0 0 789.6 251.6" style="enable-background:new 0 0 789.6 251.6;" xml:space="preserve">
<style type="text/css">
	.st0{fill:url(#path174-2-7_00000075129744975382325840000017065311003662773147_);}
	.st1{fill:url(#path174-2-7-1_00000176722026874041504750000018160477577337115009_);}
	.st2{fill:#734D1E;stroke:#010101;stroke-width:1.07;}
	.st3{fill:#3A2B13;}
	.st4{fill:#734D1E;stroke:#010101;stroke-width:1.64;}
	.st5{fill:#734D1E;stroke:#010101;stroke-width:1.13;}
	.st6{opacity:0.8;fill:#3A2B13;enable-background:new    ;}
	.st7{fill:#3A2B13;fill-opacity:0.51;}
	.st8{fill:#734D1E;stroke:#010101;stroke-width:0.85;}
	.st9{fill:#734D1E;stroke:#010101;stroke-width:1.31;}
	.st10{fill:url(#path174-2-7-2_00000098212283876428617250000017873343617389940363_);}
	.st11{fill:url(#path174-2-7-1-2_00000083065512164735959010000007110384596343441025_);}
	.st12{fill:url(#path174-2-7-3_00000026150695778768042040000005023766933691584423_);}
	.st13{fill:url(#path174-2-7-1-3_00000124841066103056045320000010305697941964356286_);}
	.st14{fill:url(#path174-2-7-4_00000011745816530727961410000007957756661061702314_);}
	.st15{fill:url(#path174-2-7-1-4_00000157987788947494909630000013996665833045326986_);}
	.st16{fill:url(#path174-2-7-5_00000044860145806718225580000012039491851081970610_);}
	.st17{fill:url(#path174-2-7-1-5_00000177451201941350310940000018313422252248636812_);}
</style>
<g id="Layer_2_00000150789768277039944930000016793829512985494682_">
	<g id="Burrow_Fronts">
		<g id="Burrow_Front">
			
				<linearGradient id="path174-2-7_00000176014277854487996850000010513485061027748283_" gradientUnits="userSpaceOnUse" x1="209.12" y1="-257.34" x2="452.52" y2="-257.34" gradientTransform="matrix(1 0 0 -1 -184.72 -209.04)">
				<stop  offset="0" style="stop-color:#583F16"/>
				<stop  offset="1" style="stop-color:#7F5422"/>
			</linearGradient>
			<path id="path174-2-7" style="fill:url(#path174-2-7_00000176014277854487996850000010513485061027748283_);" d="M203.5,0
				c-2.5,0-5,0.8-7,2.2c-1.6-0.8-3.4-1.1-5.1-1.1c-6,0-10.9,4.3-10.9,9.6c0,1,0.2,2,0.5,3c-1.7,1.7-2.7,4-2.7,6.3
				c0,0.8,0.1,1.6,0.3,2.4c-0.9,0.3-1.9,0.7-2.7,1.2c-1.6,0.7-2.9,1.8-4,3.1l0,0c-1,0.4-1.9,0.8-2.9,1.3c-1.5-3.8-4.8-6.7-8.9-7.5
				c-4-3.8-10.1-3.9-14.2-0.3c-1.8-1.3-4-2.1-6.2-2.1c-6.2,0-11.3,5.6-11.9,12.7c-1.1-0.4-2.3-0.6-3.5-0.6c-3.7,0.1-7.1,1.9-9.2,5
				c-0.6,0-1.2-0.1-1.8-0.1c-1.9,0-3.7,0.1-5.6,0.4c-2.1-4.2-5.9-7-10.4-7c-5,0-9.3,3.6-11.1,8.8c-1.9-4.9-6-8.2-10.9-8.2
				c-3.7,0.1-7.1,2-9.1,5c-1.4-0.7-3-1.1-4.6-1.1c-4.9,0-9.2,3.5-11,8.5c-1.8-1.2-3.9-1.9-6-1.9c-4.4,0-8.3,2.8-10.4,7
				c-0.9-0.5-1.8-0.7-2.8-0.7c-3.9,0-7,3.7-7,8.2s3.1,8.2,7,8.2c1.2,0,2.3-0.3,3.3-0.9c0,0.1,0.1,0.1,0.1,0.2c0.8,2.5,2.9,4.4,5.5,5
				c3.3,1.5,7.2,1.2,10.2-0.9c0.8,3.4,3.5,5.9,6.7,5.9c0.5,0,1-0.1,1.5-0.2c1.6,0.8,3.3,1.1,5,1.1c1.5,0,2.9-0.3,4.2-0.8
				c1.2,1.3,2.9,2.1,4.7,2.1c2.2-0.1,4.3-1.2,5.5-3.1c2.9,5.2,10.5,9,19.7,9.4c1.1,2.4,3.5,4.1,6.1,4.1c2.4-0.1,4.5-1.4,5.7-3.4
				c0.7,0.7,1.4,1.4,2.2,2c0.5,3.9,3.4,6.9,6.9,6.9c1.9,0,3.7-0.9,4.9-2.3h0.2c0.9,2.9,3.5,4.9,6.5,5.1c0.8,0,1.6-0.2,2.4-0.5
				c4.1,2.8,10.2,4.6,16.9,4.6c8.9,0,16.5-3.1,20.3-7.7c0.5,0,1-0.1,1.5-0.1c1.5,0.6,3,1,4.6,1c4.2,0.1,8.1-2.3,10-6.1
				c0.3-0.2,0.5-0.4,0.8-0.6c1.5,0.3,3.1,0.2,4.5-0.2c1.1,2.4,3.4,4,6.1,4.1c2.9-0.1,5.5-2,6.4-4.8c0.6,0.1,1.2,0.2,1.9,0.2
				c2,0,3.9-0.5,5.7-1.5c1.2,1.4,3,2.2,4.8,2.2c3,0,5.5-2.2,6.5-5.2c0.3,0,0.6,0.1,0.9,0.1c0.7,0,1.4-0.1,2.1-0.3
				c1.1,1,2.6,1.6,4.2,1.6c3-0.1,5.6-2.1,6.4-5c1.7,1,3.7,1.5,5.7,1.5c4,0.1,7.7-2,9.7-5.4c1.3,0.5,2.7,0.7,4.1,0.7
				c6,0,10.9-4.4,10.9-9.9c0-0.6-0.1-1.3-0.2-1.9c0.9-1.4,1.3-3,1.3-4.7c0-3.1-1.6-6.1-4.2-7.8c0.3-0.8,0.4-1.7,0.4-2.6
				c0-5.5-4.9-9.9-10.9-9.9c-0.5,0-1,0.1-1.6,0.1c0.2-0.8,0.3-1.5,0.3-2.3c0-5.3-4.9-9.6-10.9-9.6h-0.5c-1.1-2.4-3.4-4-6.1-4.1
				c-1,0-2,0.2-2.9,0.7c-2.7-4.6-9.2-8.1-17.1-9c0-0.2,0-0.4,0-0.5C214.3,4.3,209.5,0,203.5,0L203.5,0z M230.8,35.8
				c0.4,0.9,1,1.7,1.6,2.4c-0.6-0.1-1.2-0.1-1.8-0.2c0.2-0.7,0.2-1.3,0.2-2V35.8L230.8,35.8z M206.8,37.8c0.8,0.1,1.6,0.1,2.5,0.1
				c0.1,0.5,0.3,0.9,0.4,1.3c-1-0.5-2-0.9-3-1.2C206.8,38,206.8,37.9,206.8,37.8L206.8,37.8z"/>
			
				<linearGradient id="path174-2-7-1_00000160888187118005894160000011065361000200619399_" gradientUnits="userSpaceOnUse" x1="317.24" y1="-259.6229" x2="450.44" y2="-259.6229" gradientTransform="matrix(1 0 0 -1 -182.34 -211.12)">
				<stop  offset="0" style="stop-color:#563D15"/>
				<stop  offset="1" style="stop-color:#2A2111"/>
			</linearGradient>
			<path id="path174-2-7-1" style="fill:url(#path174-2-7-1_00000160888187118005894160000011065361000200619399_);" d="M203.8,0.1
				c-2.5,0-5,0.8-7,2.2c-1.6-0.8-3.4-1.2-5.1-1.1c-0.9,0-1.8,0.1-2.6,0.3c1.9,1.4,3.7,2.9,5.4,4.5c7.4,0.8,13.1,6.7,13.1,13.9
				c0,1.5-0.3,3-0.8,4.5c1.1,3.3,1.6,6.7,1.6,10.1l0,0c3,2.6,4.7,6.3,4.7,10.2c0,7.7-6.6,13.9-14.7,14c-0.2,0.3-0.5,0.6-0.8,0.9
				c0.7,1.4,1,2.9,1,4.5c0,7.7-8.4,14-18.8,14c-0.9,0-1.8,0-2.7-0.1c-1.6,6.8-11,12-22.4,12c-3.7,0-7.5-0.6-11-1.7
				c-2.3,2.6-5.4,4.4-8.8,5.1c4.6,2.4,9.8,3.6,15,3.5c8.9,0,16.5-3.1,20.3-7.7c0.5,0,1-0.1,1.5-0.1c1.5,0.6,3,1,4.6,1
				c4.2,0.1,8.1-2.3,10-6.1c0.3-0.2,0.5-0.4,0.8-0.6c0.6,0.1,1.2,0.2,1.8,0.2c0.9,0,1.8-0.1,2.7-0.3c1.1,2.4,3.4,4,6.1,4.1
				c2.9-0.1,5.5-2,6.4-4.8c0.6,0.1,1.2,0.1,1.9,0.1c2,0,3.9-0.5,5.6-1.4c1.2,1.4,3,2.2,4.8,2.2c3,0,5.5-2.2,6.5-5.2
				c0.3,0,0.6,0.1,0.9,0.1c0.7,0,1.4-0.1,2.1-0.3c1.1,1,2.6,1.6,4.2,1.6c3-0.1,5.6-2.1,6.4-5c1.7,1,3.7,1.4,5.7,1.4
				c4,0.1,7.6-2,9.7-5.4c1.3,0.5,2.7,0.7,4.1,0.7c6,0,10.9-4.4,10.9-9.9c0-0.6-0.1-1.3-0.2-1.9c0.9-1.4,1.3-3,1.4-4.7
				c0-3.1-1.6-6.1-4.2-7.8c0.3-0.9,0.4-1.7,0.4-2.6c0-5.5-4.9-9.9-10.9-9.9c-0.5,0-1,0-1.6,0.1c0.2-0.8,0.3-1.5,0.3-2.3
				c0-5.3-4.9-9.6-10.9-9.6h-0.5c-1.1-2.4-3.4-4-6.1-4.1c-1,0-2,0.2-2.8,0.7c-2.7-4.6-9.2-8.1-17.1-9c0-0.2,0-0.4,0-0.5
				C214.6,4.3,209.8,0.1,203.8,0.1L203.8,0.1z M231.1,35.9c0.4,0.9,1,1.7,1.6,2.4c-0.6-0.1-1.2-0.1-1.8-0.2c0.2-0.7,0.2-1.3,0.2-2
				V35.9L231.1,35.9z"/>
			<path id="path115416-7-2-8-85-6-9-9-4-53-1-24" class="st2" d="M130.2,75c0.9,0,1.8,0.3,2.6,0.7h0.1c2.6,0,4.8,2.1,4.9,4.7v0.2
				c0,0.7-0.2,1.4-0.4,2c0.5,0.8,0.8,1.8,0.8,2.7v0.3c-0.1,2.6-2.3,4.7-4.9,4.7c-0.3,0-0.5,0-0.8-0.1c-0.8,0.5-1.7,0.8-2.7,0.8
				c-0.9,0-1.8-0.3-2.6-0.8h-0.3c-2.7,0-4.9-2.2-4.9-4.9c0-0.7,0.2-1.4,0.4-2c-0.5-0.8-0.8-1.8-0.8-2.7c0-2.7,2.2-4.9,4.9-4.9
				c0.3,0,0.7,0,1,0.1C128.3,75.3,129.2,75,130.2,75L130.2,75z"/>
			<path id="path115416-7-2-8-85-3-4-0-3-8-7-2-7" class="st3" d="M131.4,76.6c0.9,0,1.8,0.3,2.6,0.8h0.1c2.6,0,4.8,2.1,4.9,4.7v0.3
				c0,0.7-0.2,1.4-0.4,2c0.5,0.8,0.8,1.8,0.8,2.7v0.2c-0.1,2.7-2.5,4.8-5.2,4.7c-0.2,0-0.3,0-0.5-0.1c-0.8,0.5-1.7,0.8-2.7,0.8
				c-0.9,0-1.8-0.3-2.6-0.8h-0.3c-2.7,0-4.9-2.2-4.9-4.9c0-0.7,0.2-1.4,0.4-2c-0.5-0.8-0.8-1.8-0.8-2.7c0-2.7,2.2-4.9,4.9-4.9l0,0
				c0.3,0,0.7,0,1,0.1C129.5,76.9,130.5,76.6,131.4,76.6L131.4,76.6z"/>
			<path id="path115416-7-2-8-85-6-9-9-4-53-1-24-8" class="st2" d="M184.7,74.7c0.9,0,1.8,0.3,2.6,0.7h0.1c2.6,0,4.8,2.1,4.9,4.7
				v0.3c0,0.7-0.2,1.4-0.4,2c0.5,0.8,0.8,1.8,0.8,2.7v0.2c-0.1,2.7-2.5,4.8-5.2,4.7c-0.2,0-0.3,0-0.5-0.1c-1.6,1-3.7,1-5.3,0h-0.3
				c-2.7,0-4.9-2.2-4.9-4.9c0-0.7,0.2-1.4,0.4-2c-0.5-0.8-0.8-1.8-0.8-2.7c0-2.7,2.3-4.9,5-4.9l0,0c0.3,0,0.7,0,1,0.1
				C182.8,74.9,183.8,74.7,184.7,74.7L184.7,74.7z"/>
			<path id="path115416-7-2-8-85-3-4-0-3-8-7-2-7-1" class="st3" d="M185.9,76.2c0.9,0,1.8,0.3,2.6,0.7h0.1c2.6,0,4.8,2.1,4.9,4.7
				c0,0.1,0,0.2,0,0.2c0,0.7-0.1,1.4-0.4,2c0.5,0.8,0.8,1.8,0.8,2.7c0,0.1,0,0.2,0,0.3c-0.1,2.6-2.3,4.7-4.9,4.7
				c-0.3,0-0.5,0-0.8-0.1c-1.6,1-3.7,1-5.3,0h-0.3c-2.7,0-4.9-2.2-4.9-4.9c0-0.7,0.2-1.4,0.4-2c-0.5-0.8-0.8-1.8-0.8-2.7
				c0.1-2.7,2.2-4.8,4.9-4.8c0.3,0,0.7,0,1,0.1C184,76.6,185,76.3,185.9,76.2L185.9,76.2z"/>
			<path id="path115416-7-2-8-85-6-9-9-4-53-1-24-6" class="st4" d="M256.1,44.1c1.4,0,2.8,0.4,4,1.1h0.1c4,0,7.4,3.2,7.6,7.2
				c0,0.1,0,0.3,0,0.4c0,1.1-0.2,2.1-0.7,3.1c0.8,1.2,1.3,2.7,1.3,4.2c0,0.1,0,0.3,0,0.4c-0.2,4-3.6,7.2-7.6,7.2
				c-0.4,0-0.8,0-1.2-0.1c-2.5,1.6-5.7,1.7-8.2,0.1H251c-4.2,0-7.6-3.3-7.7-7.5c0-1.1,0.2-2.2,0.7-3.2c-0.8-1.2-1.3-2.7-1.3-4.2
				c0-4.2,3.4-7.6,7.6-7.6c0.5,0,1,0,1.5,0.2C253.1,44.6,254.5,44.1,256.1,44.1L256.1,44.1z"/>
			<path id="path115416-7-2-8-85-3-4-0-3-8-7-2-7-5" class="st3" d="M258,46.5c1.4,0,2.8,0.4,4,1.1h0.1c4,0,7.4,3.2,7.6,7.2
				c0,0.1,0,0.3,0,0.4c0,1.1-0.2,2.1-0.7,3.1c0.8,1.2,1.3,2.7,1.3,4.2V63c-0.2,4-3.6,7.2-7.6,7.2c-0.4,0-0.8,0-1.2-0.1
				c-1.2,0.8-2.7,1.2-4.1,1.2s-2.8-0.4-4-1.2H253c-4.2,0-7.6-3.4-7.6-7.6l0,0c0-1.1,0.2-2.1,0.7-3.1c-0.8-1.2-1.3-2.7-1.3-4.2
				c0-4.2,3.4-7.6,7.6-7.6l0,0c0.5,0,1,0,1.5,0.2C255.1,47,256.5,46.5,258,46.5z"/>
			<path id="path115416-7-2-8-85-6-9-9-4-53-1-24-6-7" class="st5" d="M223.1,30.7c1,0,1.9,0.3,2.8,0.8h0.1c2.8,0,5.1,2.2,5.2,5v0.3
				c0,0.7-0.2,1.5-0.5,2.1c0.6,0.9,0.9,1.9,0.9,2.9c0,0.1,0,0.2,0,0.3c-0.1,2.8-2.4,5-5.2,5c-0.3,0-0.5,0-0.8-0.1
				c-0.8,0.6-1.8,0.9-2.9,0.8c-1,0-1.9-0.3-2.8-0.8h-0.3c-2.9,0-5.2-2.3-5.2-5.2l0,0c0-0.7,0.2-1.5,0.5-2.1
				c-0.6-0.9-0.9-1.9-0.9-2.9c0-2.9,2.3-5.2,5.2-5.2c0.3,0,0.7,0,1,0.1C221.1,31.1,222.1,30.8,223.1,30.7L223.1,30.7z"/>
			<path id="path115416-7-2-8-85-3-4-0-3-8-7-2-7-5-9" class="st6" d="M225.6,33.5c1,0,1.9,0.3,2.8,0.8h0.1c2.8,0,5.1,2.2,5.2,5v0.3
				c0,0.7-0.2,1.5-0.5,2.1c0.6,0.9,0.9,1.9,0.9,2.9c0,0.1,0,0.2,0,0.3c-0.1,2.8-2.4,5-5.2,5c-0.3,0-0.5,0-0.8-0.1
				c-0.8,0.6-1.8,0.8-2.9,0.8c-1,0-1.9-0.3-2.8-0.8h-0.3c-2.9,0-5.2-2.3-5.2-5.2c0-0.7,0.2-1.5,0.5-2.1c-0.6-0.9-0.9-1.9-0.9-2.9
				c0-2.9,2.3-5.2,5.2-5.2c0.3,0,0.7,0,1,0.1C223.5,33.8,224.5,33.5,225.6,33.5L225.6,33.5z"/>
			<path id="path115416-7-2-8-85-6-9-9-4-53-1-24-9" class="st2" d="M45,52.7c0.9,0,1.8,0.3,2.6,0.8h0.1c2.6,0,4.8,2.1,4.9,4.7v0.3
				c0,0.7-0.2,1.4-0.4,2c0.5,0.8,0.8,1.8,0.8,2.7v0.2c-0.1,2.7-2.5,4.8-5.2,4.7c-0.2,0-0.3,0-0.5-0.1c-1.6,1-3.7,1-5.3,0h-0.3
				c-2.7,0-4.9-2.2-4.9-4.9c0-0.7,0.2-1.4,0.4-2c-0.5-0.8-0.8-1.8-0.8-2.7c0-2.7,2.2-4.9,4.9-4.9l0,0c0.3,0,0.7,0,1,0.1
				C43.1,53,44,52.7,45,52.7z"/>
			<path id="path115416-7-2-8-85-3-4-0-3-8-7-2-7-2" class="st3" d="M46.3,54.2c0.9,0,1.8,0.3,2.6,0.7H49c2.6,0,4.8,2,4.9,4.7
				c0,0.1,0,0.2,0,0.3c0,0.7-0.2,1.4-0.4,2c0.5,0.8,0.8,1.8,0.8,2.7c0,0.1,0,0.2,0,0.2c-0.1,2.6-2.3,4.7-4.9,4.7
				c-0.3,0-0.5,0-0.8-0.1c-1.6,1-3.7,1-5.3,0H43c-2.7,0-5-2.1-5-4.9c0-0.7,0.2-1.4,0.4-2c-0.5-0.8-0.8-1.8-0.8-2.7
				c0-2.7,2.2-4.9,5-4.9c0.3,0,0.7,0,1,0.1C44.4,54.6,45.3,54.3,46.3,54.2L46.3,54.2z"/>
			<path id="path115416-7-2-8-85-6-9-9-4-53-1-24-96" class="st2" d="M95.6,56c0.9,0,1.8,0.3,2.6,0.7h0.1c2.6,0,4.8,2.1,4.9,4.7v0.2
				c0,0.7-0.2,1.4-0.4,2c0.5,0.8,0.8,1.8,0.8,2.7v0.3c-0.1,2.7-2.5,4.8-5.2,4.7c-0.2,0-0.3,0-0.5-0.1c-0.8,0.5-1.7,0.8-2.7,0.7
				c-0.9,0-1.8-0.3-2.6-0.8h-0.3c-2.7,0-4.9-2.2-4.9-4.9l0,0c0-0.7,0.2-1.4,0.4-2c-0.5-0.8-0.8-1.7-0.8-2.7c0-2.7,2.2-4.9,4.9-4.9
				c0.3,0,0.7,0,1,0.1C93.7,56.3,94.7,56,95.6,56z"/>
			<path id="path115416-7-2-8-85-3-4-0-3-8-7-2-7-23" class="st7" d="M96.8,57.5c0.9,0,1.8,0.3,2.6,0.8h0.1c2.6,0,4.8,2,4.9,4.7
				c0,0.1,0,0.2,0,0.3c0,0.7-0.1,1.4-0.4,2c0.5,0.8,0.8,1.8,0.8,2.7c0,0.1,0,0.2,0,0.2c-0.1,2.6-2.3,4.7-4.9,4.7
				c-0.3,0-0.5,0-0.8-0.1c-0.8,0.5-1.7,0.8-2.7,0.8c-0.9,0-1.8-0.3-2.6-0.8h-0.3c-2.7,0-4.9-2.2-5-4.9c0-0.7,0.1-1.4,0.4-2
				c-1.5-2.3-0.9-5.3,1.3-6.8c0.8-0.5,1.8-0.8,2.8-0.8c0.3,0,0.7,0,1,0.1C94.9,57.8,95.9,57.5,96.8,57.5z"/>
			<path id="path115416-7-2-8-85-6-9-9-4-53-1-24-96-1" class="st8" d="M203.4,49.8c0.9,0,1.8,0.2,2.6,0.5l0,0c2.7,0,4.8,1.3,5,2.9
				c0,0.1,0,0.1,0,0.2c0,0.5-0.2,0.9-0.4,1.3c0.5,0.4,0.8,1.1,0.8,1.7v0.2c-0.1,1.6-2.3,2.9-5,2.9c-0.3,0-0.5,0-0.8,0
				c-1.7,0.6-3.6,0.6-5.4,0H200c-2.7,0-5-1.4-5-3.1c0-0.5,0.2-0.9,0.4-1.3c-0.5-0.4-0.8-1-0.9-1.7c0-1.7,2.2-3.1,5-3.1
				c0.3,0,0.7,0,1,0.1C201.5,50,202.4,49.8,203.4,49.8L203.4,49.8z"/>
			<path id="path115416-7-2-8-85-3-4-0-3-8-7-2-7-23-8" class="st7" d="M204.6,50.8c0.9,0,1.8,0.1,2.6,0.5h0.1c2.7,0,4.8,1.3,5,2.9
				c0,0.1,0,0.1,0,0.2c0,0.5-0.2,0.9-0.4,1.2c0.5,0.4,0.8,1.1,0.8,1.7v0.2c-0.1,1.6-2.3,2.9-5,2.9c-0.3,0-0.5,0-0.8,0
				c-0.9,0.3-1.8,0.5-2.7,0.5s-1.8-0.2-2.6-0.5h-0.3c-2.7,0-5-1.4-5-3.1c0-0.5,0.2-0.9,0.4-1.3c-0.5-0.4-0.8-1-0.9-1.7
				c0-1.7,2.2-3.1,5-3.1c0.3,0,0.7,0,1,0.1C202.7,51,203.7,50.9,204.6,50.8L204.6,50.8z"/>
			<path id="path115416-7-2-8-85-6-9-9-4-53-1-24-96-1-4" class="st8" d="M78,30.1c0.9,0,1.8,0.2,2.6,0.5h0.1c2.7,0,4.8,1.3,5,2.9
				v0.2c0,0.5-0.2,0.9-0.4,1.2c0.5,0.4,0.8,1.1,0.8,1.7c0,0.1,0,0.1,0,0.2c-0.1,1.6-2.3,2.9-5,2.9c-0.3,0-0.5,0-0.8,0
				c-0.9,0.3-1.8,0.5-2.7,0.5c-0.9,0-1.8-0.2-2.6-0.5h-0.3c-2.8,0-5-1.4-5-3.1c0-0.5,0.2-0.9,0.4-1.3c-0.5-0.4-0.8-1-0.8-1.7
				c0-1.7,2.2-3.1,5-3.1c0.3,0,0.7,0,1,0.1C76.1,30.3,77,30.1,78,30.1z"/>
			<path id="path115416-7-2-8-85-3-4-0-3-8-7-2-7-23-8-5" class="st7" d="M79.2,31c0.9,0,1.8,0.2,2.6,0.5h0.1c2.7,0,4.8,1.3,5,2.9
				c0,0.1,0,0.1,0,0.2c0,0.5-0.2,0.9-0.4,1.3c0.5,0.4,0.8,1,0.8,1.7v0.2c-0.1,1.6-2.3,2.9-5,2.9c-0.3,0-0.5,0-0.8,0
				c-1.7,0.6-3.6,0.6-5.4,0h-0.3c-2.7,0-5-1.4-5-3.1c0-0.5,0.2-0.9,0.4-1.3c-0.5-0.4-0.8-1-0.8-1.7c0-1.7,2.2-3.1,5-3.1
				c0.3,0,0.7,0,1,0.1C77.3,31.2,78.3,31,79.2,31L79.2,31z"/>
			<path id="path115416-7-2-8-85-6-9-9-4-53-1-24-96-1-4-2" class="st9" d="M159.8,40.9c1.4,0,2.7,0.2,4,0.7h0.1
				c4.1,0,7.4,2,7.6,4.5c0,0.1,0,0.2,0,0.2c0,0.7-0.2,1.4-0.7,1.9c0.8,0.7,1.3,1.6,1.3,2.7c0,0.1,0,0.2,0,0.2
				c-0.2,2.5-3.6,4.5-7.6,4.5c-0.4,0-0.8,0-1.2-0.1c-1.3,0.5-2.7,0.8-4.2,0.8c-1.4,0-2.8-0.2-4.1-0.7h-0.4c-4.2,0-7.7-2.1-7.7-4.8
				c0-0.7,0.2-1.4,0.7-2c-0.8-0.7-1.3-1.6-1.3-2.6c0-2.6,3.4-4.8,7.7-4.8c0.5,0,1,0,1.5,0.1C156.9,41.1,158.3,40.9,159.8,40.9
				L159.8,40.9z"/>
			<path id="path115416-7-2-8-85-3-4-0-3-8-7-2-7-23-8-5-8" class="st7" d="M161.7,42.4c1.4,0,2.7,0.2,4,0.7h0.1
				c4.1,0,7.4,2,7.6,4.5c0,0.1,0,0.2,0,0.2c0,0.7-0.2,1.4-0.7,1.9c0.8,0.7,1.2,1.6,1.3,2.7c0,0.1,0,0.2,0,0.2
				c-0.2,2.5-3.6,4.5-7.6,4.5c-0.4,0-0.8,0-1.2-0.1c-1.3,0.5-2.7,0.8-4.2,0.8c-1.4,0-2.8-0.2-4.1-0.7h-0.4c-4.2,0-7.7-2.1-7.7-4.8
				c0-0.7,0.3-1.4,0.7-2c-0.8-0.7-1.3-1.6-1.3-2.6c0-2.6,3.4-4.8,7.7-4.8c0.5,0,1,0,1.5,0.1C158.8,42.7,160.3,42.4,161.7,42.4
				L161.7,42.4z"/>
		</g>
		<g id="Burrow_Front-2">
			
				<linearGradient id="path174-2-7-2_00000139269972947747183370000003986530767543923869_" gradientUnits="userSpaceOnUse" x1="706.8199" y1="-274.54" x2="950.3199" y2="-274.54" gradientTransform="matrix(1 0 0 -1 -184.72 -209.04)">
				<stop  offset="0" style="stop-color:#583F16"/>
				<stop  offset="1" style="stop-color:#7F5422"/>
			</linearGradient>
			<path id="path174-2-7-2" style="fill:url(#path174-2-7-2_00000139269972947747183370000003986530767543923869_);" d="M701.2,17.2
				c-2.5,0-5,0.8-7,2.2c-1.6-0.8-3.4-1.2-5.1-1.1c-6,0-10.9,4.3-10.9,9.6c0,1,0.2,2,0.5,3c-1.7,1.7-2.7,3.9-2.7,6.3
				c0,0.8,0.1,1.6,0.3,2.4c-0.9,0.3-1.9,0.7-2.7,1.2c-1.6,0.7-2.9,1.8-4,3.1l0,0c-1,0.4-1.9,0.8-2.9,1.3c-1.5-3.8-4.8-6.7-8.9-7.5
				c-4-3.8-10.1-3.9-14.2-0.3c-1.8-1.3-4-2-6.2-2.1c-6.2,0-11.3,5.6-11.9,12.7c-1.1-0.4-2.3-0.6-3.5-0.6c-3.7,0.1-7.1,1.9-9.2,5
				c-0.6,0-1.2-0.1-1.8-0.1c-1.9,0-3.7,0.1-5.6,0.4c-2.1-4.2-5.9-7-10.4-7c-5,0-9.3,3.6-11.1,8.8c-1.9-4.8-6-8.2-10.9-8.2
				c-3.7,0.1-7.1,2-9.1,5c-1.4-0.7-3-1.1-4.6-1.1c-4.9,0-9.2,3.5-11,8.5c-1.8-1.2-3.8-1.9-6-1.9c-4.4,0-8.3,2.8-10.4,7
				c-0.9-0.5-1.8-0.7-2.8-0.7c-3.9,0-7,3.7-7,8.2s3.1,8.2,7,8.2c1.2,0,2.3-0.3,3.3-0.9c0,0.1,0.1,0.1,0.1,0.2c0.8,2.5,2.9,4.4,5.5,5
				c3.3,1.5,7.2,1.2,10.2-0.9c0.8,3.4,3.5,6,6.7,6c0.5,0,1-0.1,1.5-0.2c2.9,1.4,6.3,1.5,9.2,0.3c1.2,1.3,2.9,2.1,4.7,2.1
				c2.2-0.1,4.3-1.2,5.5-3.1c2.9,5.2,10.6,9,19.8,9.4c1.1,2.4,3.4,4,6.1,4.1c2.4-0.1,4.5-1.4,5.7-3.4c0.7,0.7,1.4,1.4,2.3,2
				c0.5,3.9,3.4,6.9,6.9,6.9c1.9-0.1,3.7-1,4.8-2.4h0.2c0.9,2.9,3.5,4.9,6.5,5.1c0.8,0,1.6-0.2,2.4-0.5c4.2,2.8,10.2,4.6,16.9,4.6
				c8.9,0,16.5-3.1,20.3-7.7c0.5,0,1-0.1,1.5-0.1c1.5,0.6,3,1,4.6,1c4.2,0.1,8.1-2.3,10-6.1c0.3-0.2,0.5-0.4,0.8-0.6
				c0.6,0.1,1.2,0.2,1.8,0.2c0.9,0,1.8-0.1,2.7-0.3c1.1,2.4,3.4,4,6.1,4.1c2.9-0.1,5.5-2,6.4-4.8c0.6,0.1,1.2,0.1,1.9,0.1
				c2,0,3.9-0.5,5.6-1.4c1.2,1.4,3,2.2,4.8,2.2c3,0,5.5-2.2,6.5-5.2c1,0.1,2,0,3-0.2c1.1,1,2.6,1.6,4.2,1.6c3-0.1,5.6-2.1,6.5-5
				c1.7,0.9,3.7,1.4,5.7,1.4c4,0.1,7.7-1.9,9.7-5.3c1.3,0.5,2.7,0.7,4.1,0.7c6,0,10.9-4.4,10.9-9.9c0-0.6-0.1-1.3-0.2-1.9
				c0.9-1.4,1.3-3.1,1.3-4.7c0-3.1-1.6-6.1-4.2-7.8c0.3-0.9,0.4-1.7,0.4-2.6c0-5.5-4.9-9.9-10.9-9.9c-0.5,0-1,0-1.6,0.1
				c0.2-0.8,0.3-1.5,0.3-2.3c0-5.3-4.9-9.6-10.9-9.6h-0.5c-1.1-2.4-3.4-4-6.1-4.1c-1,0-2,0.2-2.8,0.7c-2.7-4.6-9.2-8.1-17.1-9
				c0-0.2,0-0.4,0-0.5C712,21.5,707.2,17.2,701.2,17.2L701.2,17.2z M728.5,53.1c0.4,0.9,1,1.7,1.6,2.4c-0.6-0.1-1.2-0.1-1.8-0.2
				c0.2-0.7,0.2-1.3,0.2-2V53.1L728.5,53.1z M704.5,55c0.8,0.1,1.6,0.1,2.5,0.1c0.1,0.5,0.3,0.9,0.5,1.3c-1-0.5-2-0.9-3-1.2
				C704.5,55.2,704.5,55.1,704.5,55L704.5,55z"/>
			
				<linearGradient id="path174-2-7-1-2_00000124144225723190643270000014687039088139654842_" gradientUnits="userSpaceOnUse" x1="815.0402" y1="-276.8229" x2="948.0702" y2="-276.8229" gradientTransform="matrix(1 0 0 -1 -182.34 -211.12)">
				<stop  offset="0" style="stop-color:#563D15"/>
				<stop  offset="1" style="stop-color:#2A2111"/>
			</linearGradient>
			<path id="path174-2-7-1-2" style="fill:url(#path174-2-7-1-2_00000124144225723190643270000014687039088139654842_);" d="
				M701.5,17.3c-2.5,0-5,0.8-7,2.2c-1.6-0.8-3.4-1.1-5.1-1.1c-0.9,0-1.8,0.1-2.6,0.3c1.9,1.4,3.7,2.9,5.4,4.5
				c7.4,0.8,13.2,6.7,13.2,13.9c0,1.5-0.3,3-0.8,4.5c1.1,3.3,1.7,6.7,1.7,10.1l0,0c3,2.6,4.7,6.3,4.7,10.2c0,7.7-6.6,13.9-14.7,14
				c-0.2,0.3-0.5,0.6-0.8,0.9c0.6,1.4,1,2.9,1,4.5c0,7.7-8.4,14-18.8,14c-0.9,0-1.8,0-2.7-0.1c-1.6,6.8-11,12-22.5,12
				c-3.7,0-7.5-0.6-11-1.7c-2.3,2.6-5.4,4.4-8.8,5.1c4.6,2.4,9.8,3.6,15,3.5c8.9,0,16.5-3.1,20.3-7.7c0.5,0,1-0.1,1.5-0.1
				c1.5,0.6,3,1,4.6,1c4.2,0.1,8.1-2.3,10-6.1c0.3-0.2,0.5-0.4,0.8-0.6c1.5,0.3,3.1,0.2,4.5-0.2c1.1,2.4,3.4,4,6.1,4.1
				c2.9-0.1,5.4-2,6.4-4.8c0.6,0.1,1.2,0.2,1.9,0.2c2,0,3.9-0.5,5.7-1.4c1.2,1.4,3,2.2,4.8,2.2c3,0,5.5-2.2,6.5-5.2
				c0.3,0,0.6,0.1,0.9,0.1c0.7,0,1.4-0.1,2.2-0.3c1.1,1.1,2.6,1.7,4.2,1.7c3-0.1,5.6-2.1,6.5-5c1.7,1,3.7,1.4,5.7,1.4
				c4,0.1,7.6-2,9.6-5.4c1.3,0.5,2.7,0.7,4.1,0.7c6,0,10.8-4.4,10.8-9.9c0-0.6-0.1-1.3-0.2-1.9c0.9-1.4,1.3-3.1,1.3-4.7
				c0-3.1-1.6-6.1-4.2-7.8c0.3-0.8,0.4-1.7,0.4-2.6c0-5.5-4.9-9.9-10.9-9.9c-0.5,0-1,0-1.6,0.1c0.2-0.8,0.3-1.5,0.3-2.3
				c0-5.3-4.9-9.6-10.9-9.6c-0.2,0-0.3,0-0.5,0c-1.1-2.4-3.4-4-6.1-4.1c-1,0-2,0.2-2.8,0.7c-2.7-4.6-9.2-8.1-17.1-9
				c0-0.2,0-0.4,0-0.5C712.3,21.6,707.5,17.3,701.5,17.3L701.5,17.3z M728.8,53.1c0.4,0.9,1,1.7,1.6,2.4c-0.6-0.1-1.2-0.1-1.8-0.2
				c0.2-0.7,0.2-1.3,0.2-2V53.1L728.8,53.1z"/>
			<path id="path115416-7-2-8-85-6-9-9-4-53-1-24-2" class="st2" d="M627.9,92.2c0.9,0,1.8,0.3,2.6,0.7h0.1c2.6,0,4.8,2.1,4.9,4.7
				c0,0.1,0,0.2,0,0.3c0,0.7-0.1,1.4-0.4,2c0.5,0.8,0.8,1.8,0.8,2.7v0.2c-0.2,2.6-2.3,4.6-4.9,4.7c-0.3,0-0.5,0-0.8-0.1
				c-0.8,0.5-1.7,0.8-2.7,0.8c-0.9,0-1.8-0.3-2.6-0.8h-0.3c-2.7,0-4.9-2.2-4.9-4.9c0-0.7,0.1-1.4,0.4-2c-1.5-2.3-0.9-5.3,1.3-6.8
				c0.8-0.5,1.8-0.8,2.8-0.8c0.3,0,0.7,0,1,0.1C626,92.5,627,92.2,627.9,92.2L627.9,92.2z"/>
			<path id="path115416-7-2-8-85-3-4-0-3-8-7-2-7-2-2" class="st3" d="M629.1,93.8c0.9,0,1.8,0.3,2.6,0.7h0.1c2.6,0,4.8,2.1,4.9,4.7
				v0.2c0,0.7-0.1,1.4-0.4,2c0.5,0.8,0.8,1.8,0.8,2.7c0,0.1,0,0.2,0,0.3c-0.1,2.6-2.3,4.7-4.9,4.7c-0.3,0-0.5,0-0.8-0.1
				c-1.6,1-3.7,1-5.3,0h-0.3c-2.7,0-4.9-2.2-4.9-4.9c0-0.7,0.2-1.4,0.4-2c-0.5-0.8-0.8-1.8-0.8-2.7c0-2.7,2.2-4.9,4.9-4.9
				c0.3,0,0.7,0,1,0.1C627.2,94,628.2,93.7,629.1,93.8L629.1,93.8z"/>
			<path id="path115416-7-2-8-85-6-9-9-4-53-1-24-8-2" class="st2" d="M682.4,91.8c0.9,0,1.8,0.3,2.6,0.7l0,0c2.7,0,4.9,2,5,4.7v0.2
				c0,0.7-0.2,1.4-0.4,2c0.5,0.8,0.8,1.8,0.8,2.7c0,0.1,0,0.2,0,0.3c-0.1,2.6-2.3,4.7-4.9,4.7c-0.3,0-0.5,0-0.8,0
				c-1.6,1-3.7,1-5.3,0h-0.3c-2.7,0-4.9-2.2-4.9-4.9c0-0.7,0.2-1.4,0.4-2c-0.5-0.8-0.8-1.8-0.8-2.7c0-2.7,2.2-4.9,4.9-4.9
				c0.3,0,0.7,0,1,0.1C680.5,92.1,681.5,91.8,682.4,91.8L682.4,91.8z"/>
			<path id="path115416-7-2-8-85-3-4-0-3-8-7-2-7-1-2" class="st3" d="M683.6,93.4c0.9,0,1.8,0.3,2.6,0.7h0.1c2.6,0,4.8,2.1,4.9,4.7
				v0.3c0,0.7-0.2,1.4-0.4,2c0.5,0.8,0.8,1.8,0.8,2.7v0.2c-2,2.8-5,4.8-8.4,5.4c-0.9,0-1.8-0.3-2.6-0.8h-0.3c-2.7,0-4.9-2.2-4.9-4.9
				c0-0.7,0.2-1.4,0.4-2c-0.5-0.8-0.8-1.8-0.8-2.7c0-2.7,2.2-4.9,4.9-4.9c0.3,0,0.7,0,1,0.1C681.7,93.7,682.7,93.4,683.6,93.4
				L683.6,93.4z"/>
			<path id="path115416-7-2-8-85-6-9-9-4-53-1-24-6-2" class="st4" d="M753.8,61.3c1.4,0,2.8,0.4,4,1.2h0.1c4.1,0,7.4,3.2,7.6,7.2
				v0.4c0,1.1-0.2,2.1-0.7,3.1c0.8,1.2,1.3,2.7,1.3,4.2c0,0.1,0,0.3,0,0.4c-0.2,4.2-3.8,7.4-8,7.2c-0.3,0-0.5,0-0.8-0.1
				c-2.5,1.6-5.7,1.6-8.2,0.1h-0.5c-4.2,0-7.6-3.4-7.6-7.6c0-1.1,0.2-2.1,0.7-3.1c-0.8-1.2-1.3-2.7-1.3-4.2c0-4.2,3.4-7.6,7.6-7.6
				c0.5,0,1,0,1.5,0.1C750.8,61.8,752.3,61.3,753.8,61.3L753.8,61.3z"/>
			<path id="path115416-7-2-8-85-3-4-0-3-8-7-2-7-5-2" class="st3" d="M755.7,63.7c1.4,0,2.8,0.4,4,1.2h0.1c4,0,7.4,3.2,7.6,7.2
				c0,0.1,0,0.3,0,0.4c0,1.1-0.2,2.1-0.7,3.1c0.8,1.3,1.3,2.8,1.2,4.3c0,0.1,0,0.3,0,0.4c-0.2,4-3.6,7.2-7.6,7.2
				c-0.4,0-0.8,0-1.2-0.1c-2.5,1.6-5.7,1.7-8.2,0.1h-0.5c-4.2,0-7.6-3.4-7.6-7.6l0,0c0-1.1,0.2-2.1,0.7-3.1
				c-0.8-1.2-1.3-2.7-1.3-4.2c0-4.2,3.4-7.6,7.6-7.6l0,0c0.5,0,1,0,1.5,0.1C752.7,64.2,754.2,63.7,755.7,63.7z"/>
			<path id="path115416-7-2-8-85-6-9-9-4-53-1-24-6-7-2" class="st5" d="M720.8,47.9c1,0,1.9,0.3,2.8,0.8h0.1c2.8,0,5.1,2.2,5.2,5
				c0,0.1,0,0.2,0,0.3c0,0.7-0.2,1.5-0.5,2.1c0.6,0.9,0.9,1.9,0.9,2.9v0.3c-0.1,2.8-2.4,5-5.2,5c-0.3,0-0.5,0-0.8-0.1
				c-0.9,0.6-1.8,0.8-2.9,0.8c-1,0-1.9-0.3-2.8-0.8h-0.3c-2.9,0-5.2-2.3-5.2-5.2c0-0.7,0.2-1.5,0.5-2.1c-0.6-0.9-0.9-1.9-0.9-2.9
				c0-2.9,2.3-5.3,5.2-5.3l0,0c0.3,0,0.7,0,1,0.1C718.8,48.2,719.8,47.9,720.8,47.9L720.8,47.9z"/>
			<path id="path115416-7-2-8-85-3-4-0-3-8-7-2-7-5-9-2" class="st6" d="M723.3,50.7c1,0,1.9,0.3,2.7,0.8h0.1c2.8,0,5.1,2.2,5.2,5
				c0,0.1,0,0.2,0,0.3c0,0.7-0.2,1.5-0.5,2.1c0.6,0.9,0.9,1.9,0.9,2.9v0.3c-0.1,2.8-2.4,5-5.2,5c-0.3,0-0.5,0-0.8-0.1
				c-0.8,0.6-1.8,0.9-2.9,0.8c-1,0-1.9-0.3-2.8-0.8h-0.3c-2.9,0-5.2-2.3-5.3-5.2c0-0.8,0.2-1.6,0.5-2.3c-0.6-0.9-0.9-1.9-0.9-2.9
				c0-2.9,2.4-5.2,5.2-5.2l0,0c0.3,0,0.7,0,1,0.1C721.2,51,722.2,50.7,723.3,50.7L723.3,50.7z"/>
			<path id="path115416-7-2-8-85-6-9-9-4-53-1-24-9-2" class="st2" d="M542.7,69.9c0.9,0,1.8,0.3,2.6,0.7h0.1c2.6,0,4.8,2.1,4.9,4.7
				v0.2c0,0.7-0.2,1.4-0.4,2c0.5,0.8,0.8,1.8,0.8,2.7c0,0.1,0,0.2,0,0.3c-0.1,2.6-2.3,4.7-4.9,4.7c-0.3,0-0.5,0-0.8-0.1
				c-1.6,1-3.7,1-5.3,0h-0.3c-2.7,0-4.9-2.2-4.9-4.9c0-0.7,0.2-1.4,0.4-2c-0.5-0.8-0.8-1.8-0.8-2.7c0-2.7,2.2-4.9,4.9-4.9
				c0.3,0,0.7,0,1,0.1C540.8,70.1,541.8,69.9,542.7,69.9L542.7,69.9z"/>
			<path id="path115416-7-2-8-85-3-4-0-3-8-7-2-7-2-3" class="st3" d="M544,71.4c0.9,0,1.8,0.3,2.6,0.7h0.1c2.6,0,4.8,2.1,4.9,4.7
				V77c0,0.7-0.2,1.4-0.4,2c0.5,0.8,0.8,1.8,0.8,2.7V82c-0.1,2.6-2.3,4.7-5,4.7c-0.3,0-0.5,0-0.8,0c-1.6,1-3.7,1-5.3,0h-0.3
				c-2.7,0-4.9-2.2-4.9-4.9l0,0c0-0.7,0.2-1.4,0.4-2c-0.5-0.8-0.8-1.8-0.8-2.7c0-2.7,2.2-4.9,4.9-4.9c0.3,0,0.7,0,1,0.1
				C542,71.7,543,71.4,544,71.4L544,71.4z"/>
			<path id="path115416-7-2-8-85-6-9-9-4-53-1-24-96-2" class="st2" d="M593.3,73.2c0.9,0,1.8,0.3,2.6,0.7h0.1c2.6,0,4.8,2,4.9,4.7
				c0,0.1,0,0.2,0,0.3c0,0.7-0.2,1.4-0.4,2c0.5,0.8,0.8,1.8,0.8,2.7c0,0.1,0,0.2,0,0.2c-0.1,2.6-2.3,4.7-4.9,4.7
				c-0.3,0-0.5,0-0.8-0.1c-0.8,0.5-1.7,0.8-2.7,0.8c-0.9,0-1.8-0.3-2.6-0.8H590c-2.7,0-4.9-2.2-4.9-4.9c0-0.7,0.1-1.4,0.4-2.1
				c-0.5-0.8-0.8-1.8-0.8-2.7c0-2.7,2.2-4.9,4.9-4.9c0.3,0,0.7,0,1,0.1C591.4,73.4,592.4,73.1,593.3,73.2L593.3,73.2z"/>
			<path id="path115416-7-2-8-85-3-4-0-3-8-7-2-7-23-2" class="st7" d="M594.5,74.7c0.9,0,1.8,0.3,2.6,0.7h0.1
				c2.6,0,4.8,2.1,4.9,4.7v0.2c0,0.7-0.1,1.4-0.4,2c0.5,0.8,0.8,1.8,0.8,2.7v0.3c-0.1,2.7-2.5,4.8-5.2,4.7c-0.2,0-0.3,0-0.5-0.1
				c-1.6,1-3.7,1-5.3,0h-0.3c-2.7,0-4.9-2.2-4.9-4.9l0,0c0-0.7,0.2-1.4,0.4-2c-0.5-0.8-0.8-1.8-0.8-2.7c0-2.7,2.2-4.9,4.9-4.9
				c0.3,0,0.7,0,1,0.1C592.7,74.9,593.6,74.6,594.5,74.7L594.5,74.7z"/>
			<path id="path115416-7-2-8-85-6-9-9-4-53-1-24-96-1-2" class="st8" d="M701.1,67c0.9,0,1.8,0.2,2.6,0.5h0.1c2.7,0,4.8,1.3,5,2.9
				v0.2c0,0.5-0.2,0.9-0.4,1.2c0.5,0.4,0.8,1.1,0.8,1.7c0,0.1,0,0.1,0,0.2c-0.1,1.6-2.3,2.9-5,2.9c-0.3,0-0.5,0-0.8,0
				c-1.7,0.7-3.6,0.7-5.4,0h-0.3c-2.8,0-5-1.4-5-3.1c0-0.5,0.2-0.9,0.4-1.3c-0.5-0.4-0.8-1-0.8-1.7c0-1.7,2.2-3.1,5-3.1
				c0.3,0,0.7,0,1,0.1C699.2,67.2,700.1,67.1,701.1,67L701.1,67z"/>
			<path id="path115416-7-2-8-85-3-4-0-3-8-7-2-7-23-8-2" class="st7" d="M702.3,68c0.9,0,1.8,0.2,2.6,0.5h0.1c2.7,0,4.8,1.3,5,2.9
				v0.2c0,0.5-0.2,0.9-0.4,1.3c0.5,0.4,0.8,1,0.8,1.7v0.2c-0.1,1.6-2.3,2.9-5,2.9c-0.3,0-0.5,0-0.8,0c-0.9,0.3-1.8,0.5-2.7,0.5
				s-1.8-0.2-2.6-0.5H699c-2.8,0-5-1.4-5-3.1c0-0.5,0.2-0.9,0.4-1.3c-0.5-0.4-0.8-1-0.8-1.7c0-1.7,2.2-3.1,5-3.1c0.3,0,0.7,0,1,0.1
				C700.5,68.2,701.4,68,702.3,68L702.3,68z"/>
			<path id="path115416-7-2-8-85-6-9-9-4-53-1-24-96-1-4-2-2" class="st8" d="M575.7,47.3c0.9,0,1.8,0.1,2.6,0.5h0.1
				c2.7,0,4.8,1.3,5,2.9c0,0.1,0,0.1,0,0.2c0,0.5-0.2,0.9-0.4,1.3c0.5,0.4,0.8,1.1,0.8,1.7V54c-0.1,1.6-2.3,2.9-5,2.9
				c-0.3,0-0.5,0-0.8,0c-0.9,0.3-1.8,0.5-2.7,0.5s-1.8-0.2-2.6-0.5h-0.3c-2.7,0-5-1.4-5-3.1c0-0.5,0.2-0.9,0.4-1.3
				c-0.5-0.4-0.8-1.1-0.8-1.7c0-1.7,2.2-3.1,5-3.1c0.3,0,0.7,0,1,0.1C573.8,47.5,574.7,47.3,575.7,47.3L575.7,47.3z"/>
			<path id="path115416-7-2-8-85-3-4-0-3-8-7-2-7-23-8-5-2" class="st7" d="M576.9,48.3c0.9,0,1.8,0.2,2.6,0.5h0.1
				c2.7,0,4.8,1.3,5,2.9v0.2c0,0.5-0.2,0.9-0.4,1.2c0.5,0.4,0.8,1.1,0.8,1.7c0,0.1,0,0.1,0,0.2c-0.1,1.6-2.3,2.9-5,2.9
				c-0.3,0-0.5,0-0.8,0c-0.9,0.3-1.8,0.5-2.7,0.5s-1.8-0.2-2.6-0.5h-0.3c-2.8,0-5-1.4-5-3.1c0-0.5,0.2-0.9,0.4-1.3
				c-0.5-0.4-0.8-1-0.8-1.7c0-1.7,2.2-3.1,5-3.1c0.3,0,0.7,0,1,0.1C575.1,48.5,576,48.3,576.9,48.3L576.9,48.3z"/>
			<path id="path115416-7-2-8-85-6-9-9-4-53-1-24-96-1-4-2-3" class="st9" d="M657.5,58.1c1.4,0,2.7,0.2,4,0.7h0.1
				c4.1,0,7.5,2,7.7,4.5v0.2c0,0.7-0.2,1.4-0.7,1.9c0.8,0.7,1.3,1.6,1.3,2.7c0,0.1,0,0.2,0,0.2c-0.2,2.5-3.6,4.5-7.7,4.5
				c-0.4,0-0.8,0-1.2,0c-1.3,0.5-2.8,0.8-4.2,0.8s-2.8-0.2-4.1-0.7h-0.5c-4.2,0-7.7-2.1-7.7-4.8c0-0.7,0.3-1.4,0.7-1.9
				c-0.8-0.7-1.3-1.6-1.3-2.6c0-2.6,3.4-4.8,7.7-4.8c0.5,0,1,0,1.5,0.1C654.6,58.4,656,58.1,657.5,58.1L657.5,58.1z"/>
			<path id="path115416-7-2-8-85-3-4-0-3-8-7-2-7-23-8-5-8-2" class="st7" d="M659.4,59.6c1.4,0,2.7,0.2,4,0.7h0.1
				c4.1,0,7.5,2,7.7,4.5V65c0,0.7-0.3,1.4-0.7,1.9c0.8,0.7,1.3,1.6,1.3,2.7c0,0.1,0,0.2,0,0.2c-0.2,2.5-3.6,4.5-7.7,4.5
				c-0.4,0-0.8,0-1.2-0.1c-1.3,0.5-2.8,0.8-4.2,0.8s-2.8-0.2-4.1-0.7h-0.5c-4.2,0-7.7-2.1-7.7-4.8c0-0.7,0.3-1.4,0.7-1.9
				c-0.8-0.7-1.3-1.6-1.3-2.7c0-2.6,3.4-4.8,7.7-4.8c0.5,0,1,0,1.5,0.1C656.5,59.9,658,59.6,659.4,59.6L659.4,59.6z"/>
		</g>
		<g id="Burrow_Front-3">
			
				<linearGradient id="path174-2-7-3_00000103250086862632251380000004857825609828221883_" gradientUnits="userSpaceOnUse" x1="457.62" y1="-330.54" x2="700.9199" y2="-330.54" gradientTransform="matrix(1 0 0 -1 -184.72 -209.04)">
				<stop  offset="0" style="stop-color:#583F16"/>
				<stop  offset="1" style="stop-color:#7F5422"/>
			</linearGradient>
			<path id="path174-2-7-3" style="fill:url(#path174-2-7-3_00000103250086862632251380000004857825609828221883_);" d="M451.9,73.2
				c-2.5,0-5,0.8-7,2.2c-1.6-0.8-3.4-1.2-5.1-1.2c-6,0-10.9,4.3-10.9,9.6c0,1,0.2,2,0.5,3c-1.7,1.7-2.7,4-2.7,6.3
				c0,0.8,0.1,1.6,0.4,2.4c-0.9,0.3-1.9,0.7-2.7,1.2c-1.6,0.7-2.9,1.8-4,3.1l0,0c-1,0.4-1.9,0.8-2.9,1.3c-1.5-3.8-4.8-6.7-8.9-7.5
				c-4-3.8-10.1-3.9-14.2-0.3c-1.8-1.3-4-2.1-6.2-2.1c-6.2,0-11.3,5.6-11.9,12.7c-1.1-0.4-2.3-0.6-3.5-0.6c-3.7,0.1-7.1,1.9-9.2,5
				c-0.6,0-1.2-0.1-1.8-0.1c-1.9,0-3.7,0.1-5.6,0.4c-2.1-4.2-5.9-7-10.4-7c-5,0-9.3,3.6-11.1,8.8c-1.9-4.8-6-8.2-10.9-8.2
				c-3.7,0.1-7.1,2-9.1,5c-1.4-0.7-3-1.1-4.6-1.1c-5,0-9.2,3.5-11,8.5c-1.8-1.2-3.9-1.9-6-1.9c-4.4,0-8.3,2.8-10.4,7
				c-0.9-0.4-1.8-0.7-2.8-0.7c-3.9,0-7,3.7-7,8.2c0,4.5,3.1,8.2,7,8.2c1.2,0,2.3-0.3,3.3-0.9c0,0.1,0.1,0.1,0.1,0.2
				c0.8,2.5,2.9,4.4,5.5,5c1.4,0.6,2.8,1,4.3,1c2.1,0,4.2-0.7,5.9-1.8c0.9,3.4,3.5,5.9,6.7,5.9c0.5,0,1-0.1,1.5-0.2
				c2.9,1.4,6.3,1.5,9.2,0.3c1.2,1.3,2.9,2.1,4.6,2.1c2.2-0.1,4.3-1.2,5.5-3.1c2.9,5.2,10.6,9,19.8,9.4c1.1,2.4,3.4,4,6.1,4.1
				c2.4-0.1,4.5-1.4,5.7-3.4c0.7,0.7,1.4,1.4,2.3,2c0.5,3.9,3.4,6.9,6.9,6.9c1.9,0,3.7-0.9,4.9-2.3h0.2c0.9,2.9,3.5,4.9,6.5,5.1
				c0.8,0,1.6-0.2,2.4-0.5c4.1,2.9,10.2,4.6,16.9,4.6c8.9,0,16.5-3.1,20.3-7.7c0.5,0,1-0.1,1.5-0.1c1.5,0.6,3,1,4.6,1
				c4.2,0.1,8.1-2.3,10-6.1c0.3-0.2,0.5-0.4,0.8-0.6c0.6,0.1,1.2,0.2,1.8,0.2c0.9,0,1.8-0.1,2.7-0.3c1.1,2.4,3.4,4,6.1,4.1
				c2.9-0.1,5.5-2,6.4-4.8c0.6,0.1,1.2,0.1,1.9,0.1c2,0,3.9-0.5,5.6-1.4c1.2,1.4,3,2.2,4.8,2.2c3,0,5.5-2.2,6.5-5.2c1,0.1,2,0,3-0.2
				c1.1,1,2.6,1.6,4.2,1.6c3-0.1,5.6-2.1,6.5-5c1.7,1,3.7,1.5,5.6,1.4c4,0.1,7.7-2,9.7-5.4c1.3,0.5,2.7,0.7,4.1,0.7
				c6,0,10.8-4.4,10.8-9.9c0-0.6-0.1-1.3-0.2-1.9c0.9-1.4,1.3-3.1,1.3-4.7c0-3.1-1.6-6.1-4.2-7.8c0.3-0.8,0.4-1.7,0.4-2.6
				c0-5.5-4.9-9.9-10.9-9.9c-0.5,0-1,0-1.6,0.1c0.2-0.8,0.3-1.5,0.3-2.3c0-5.3-4.9-9.6-10.9-9.6h-0.5c-1.1-2.4-3.4-4-6.1-4.1
				c-1,0-2,0.3-2.9,0.7c-2.7-4.6-9.2-8.1-17.1-9c0-0.2,0-0.4,0-0.5C462.7,77.5,457.9,73.2,451.9,73.2L451.9,73.2z M479.3,109
				c0.4,0.9,1,1.7,1.6,2.4c-0.6-0.1-1.2-0.1-1.8-0.2c0.2-0.7,0.2-1.3,0.2-2L479.3,109L479.3,109z M455.3,110.9
				c0.8,0.1,1.6,0.1,2.5,0.1c0.1,0.5,0.3,0.9,0.5,1.3c-1-0.5-2-0.9-3-1.2C455.2,111.1,455.2,111,455.3,110.9L455.3,110.9z"/>
			
				<linearGradient id="path174-2-7-1-3_00000151507696072478837120000012014042336318642563_" gradientUnits="userSpaceOnUse" x1="565.7401" y1="-332.6729" x2="698.8401" y2="-332.6729" gradientTransform="matrix(1 0 0 -1 -182.34 -211.12)">
				<stop  offset="0" style="stop-color:#563D15"/>
				<stop  offset="1" style="stop-color:#2A2111"/>
			</linearGradient>
			<path id="path174-2-7-1-3" style="fill:url(#path174-2-7-1-3_00000151507696072478837120000012014042336318642563_);" d="
				M452.2,73.2c-2.5,0-5,0.8-7,2.2c-1.6-0.8-3.4-1.2-5.1-1.2c-0.9,0-1.8,0.1-2.6,0.3c1.9,1.4,3.7,2.9,5.4,4.5
				c7.4,0.8,13.2,6.7,13.2,13.9c0,1.5-0.3,3-0.8,4.5c1.1,3.3,1.7,6.7,1.7,10.1l0,0c3,2.6,4.7,6.3,4.7,10.3c0,7.7-6.5,13.9-14.7,14
				l-0.8,0.9c0.6,1.4,1,2.9,1,4.5c0,7.8-8.4,14-18.8,14c-0.9,0-1.8,0-2.7-0.1c-1.6,6.8-11,12-22.5,12c-3.7,0-7.5-0.6-11-1.8
				c-2.3,2.6-5.4,4.4-8.8,5.1c4.6,2.4,9.8,3.6,15,3.5c8.9,0,16.5-3.1,20.3-7.7c0.5,0,1-0.1,1.5-0.1c1.5,0.6,3,1,4.6,1
				c4.2,0.1,8.1-2.3,10-6.1c0.3-0.2,0.5-0.4,0.8-0.6c0.6,0.1,1.2,0.2,1.8,0.2c0.9,0,1.8-0.1,2.7-0.3c1.1,2.4,3.4,4,6.1,4.1
				c2.9-0.1,5.4-2,6.4-4.8c0.6,0.1,1.2,0.2,1.9,0.1c2,0,3.9-0.5,5.6-1.4c1.2,1.4,3,2.2,4.8,2.2c3,0,5.5-2.2,6.5-5.2
				c0.3,0,0.6,0.1,0.9,0.1c0.7,0,1.4-0.1,2.1-0.3c1.1,1,2.6,1.6,4.2,1.6c3-0.1,5.6-2.1,6.5-5c1.7,0.9,3.7,1.4,5.6,1.4
				c4,0.1,7.7-2,9.7-5.4c1.3,0.5,2.7,0.7,4.1,0.7c6,0,10.9-4.4,10.9-9.9c0-0.6-0.1-1.3-0.2-1.9c0.9-1.4,1.3-3,1.3-4.7
				c0-3.1-1.6-6.1-4.2-7.8c0.3-0.8,0.4-1.7,0.4-2.6c0-5.5-4.9-9.9-10.9-9.9c-0.5,0-1,0-1.6,0.1c0.2-0.8,0.3-1.5,0.3-2.3
				c0-5.3-4.9-9.6-10.9-9.6h-0.5c-1.1-2.4-3.4-4-6.1-4.1c-1,0-2,0.2-2.9,0.7c-2.7-4.6-9.2-8.1-17.1-9c0-0.2,0-0.4,0-0.5
				C463.1,77.6,458.2,73.3,452.2,73.2L452.2,73.2z M479.6,109.1c0.4,0.9,1,1.7,1.6,2.4c-0.6-0.1-1.2-0.1-1.9-0.2
				c0.2-0.7,0.2-1.3,0.2-2L479.6,109.1L479.6,109.1z"/>
			<path id="path115416-7-2-8-85-6-9-9-4-53-1-24-3" class="st2" d="M378.6,148.2c0.9,0,1.8,0.3,2.6,0.7h0.1c2.6,0,4.8,2.1,4.9,4.7
				v0.2c0,0.7-0.2,1.4-0.4,2c0.5,0.8,0.8,1.8,0.8,2.7v0.2c-0.1,2.7-2.5,4.8-5.2,4.7c-0.2,0-0.3,0-0.5-0.1c-1.6,1-3.7,1-5.3,0h-0.3
				c-2.7,0-4.9-2.2-4.9-4.9c0-0.7,0.2-1.4,0.4-2c-0.5-0.8-0.8-1.8-0.8-2.7c0-2.7,2.2-4.9,4.9-4.9c0.3,0,0.7,0,1,0.1
				C376.7,148.4,377.7,148.1,378.6,148.2L378.6,148.2z"/>
			<path id="path115416-7-2-8-85-3-4-0-3-8-7-2-7-3" class="st3" d="M379.9,149.8c0.9,0,1.8,0.3,2.6,0.7h0.1c2.6,0,4.8,2.1,4.9,4.7
				c0,0.1,0,0.2,0,0.2c0,0.7-0.2,1.4-0.4,2c0.5,0.8,0.8,1.8,0.8,2.7c0,0.1,0,0.2,0,0.3c-0.1,2.6-2.3,4.7-4.9,4.7
				c-0.3,0-0.5,0-0.8-0.1c-0.8,0.5-1.7,0.8-2.7,0.8c-0.9,0-1.8-0.3-2.6-0.8h-0.3c-2.7,0-4.9-2.2-4.9-4.9c0-0.7,0.2-1.4,0.4-2
				c-0.5-0.8-0.8-1.8-0.8-2.7c0-2.7,2.2-4.9,4.9-4.9c0.3,0,0.7,0,1,0.1C378,150,378.9,149.7,379.9,149.8L379.9,149.8z"/>
			<path id="path115416-7-2-8-85-6-9-9-4-53-1-24-8-3" class="st2" d="M433.1,147.8c0.9,0,1.8,0.3,2.6,0.8h0.1c2.6,0,4.8,2,4.9,4.7
				c0,0.1,0,0.2,0,0.3c0,0.7-0.2,1.4-0.4,2c0.5,0.8,0.8,1.8,0.8,2.7c0,0.1,0,0.2,0,0.2c-0.1,2.6-2.3,4.7-4.9,4.7
				c-0.3,0-0.5,0-0.8-0.1c-1.6,1-3.7,1-5.3,0h-0.3c-2.7,0-4.9-2.2-4.9-4.9c0-0.7,0.2-1.4,0.4-2c-0.5-0.8-0.8-1.8-0.8-2.7
				c0-2.7,2.2-4.9,4.9-4.9c0.3,0,0.7,0,1,0.1C431.2,148.1,432.2,147.8,433.1,147.8L433.1,147.8z"/>
			<path id="path115416-7-2-8-85-3-4-0-3-8-7-2-7-1-3" class="st3" d="M434.4,149.4c0.9,0,1.8,0.3,2.6,0.7l0,0
				c2.6,0,4.8,2.1,4.9,4.7v0.3c0,0.7-0.2,1.4-0.4,2c0.5,0.8,0.8,1.8,0.8,2.7v0.2c-0.1,2.7-2.5,4.8-5.2,4.7c-0.2,0-0.3,0-0.5-0.1
				c-1.6,1-3.7,1-5.3,0H431c-2.7,0-4.9-2.2-4.9-4.9c0-0.7,0.2-1.4,0.4-2c-0.5-0.8-0.8-1.8-0.8-2.7c0-2.7,2.2-4.9,4.9-4.9
				c0.3,0,0.7,0,1,0.1C432.4,149.6,433.4,149.4,434.4,149.4L434.4,149.4z"/>
			<path id="path115416-7-2-8-85-6-9-9-4-53-1-24-6-3" class="st4" d="M504.5,117.3c1.4,0,2.8,0.4,4,1.2h0.1c4,0,7.4,3.2,7.6,7.2
				v0.4c0,1.1-0.2,2.1-0.7,3.1c0.8,1.3,1.3,2.7,1.3,4.2c0,0.1,0,0.3,0,0.4c-0.2,4-3.6,7.2-7.6,7.2c-0.4,0-0.8,0-1.2-0.1
				c-2.5,1.6-5.7,1.7-8.2,0.1h-0.5c-4.2,0-7.6-3.4-7.6-7.6l0,0c0-1.1,0.2-2.1,0.7-3.1c-0.8-1.2-1.3-2.7-1.3-4.2
				c0-4.2,3.4-7.6,7.6-7.6c0.5,0,1,0,1.5,0.1C501.6,117.7,503,117.2,504.5,117.3L504.5,117.3z"/>
			<path id="path115416-7-2-8-85-3-4-0-3-8-7-2-7-5-3" class="st3" d="M506.5,119.7c1.4,0,2.8,0.4,4,1.2h0.1c4,0,7.4,3.2,7.6,7.2
				c0,0.1,0,0.3,0,0.4c0,1.1-0.2,2.1-0.7,3.1c0.8,1.3,1.3,2.7,1.3,4.2c0,0.1,0,0.3,0,0.4c-0.2,4-3.6,7.2-7.6,7.2
				c-0.4,0-0.8,0-1.2-0.1c-1.2,0.8-2.7,1.2-4.2,1.2c-1.4,0-2.8-0.4-4-1.2h-0.5c-4.2,0-7.6-3.4-7.6-7.6l0,0c0-1.1,0.2-2.1,0.7-3.1
				c-0.8-1.2-1.3-2.7-1.3-4.2c0-4.2,3.4-7.6,7.6-7.6l0,0c0.5,0,1,0,1.5,0.2C503.5,120.2,505,119.7,506.5,119.7L506.5,119.7z"/>
			<path id="path115416-7-2-8-85-6-9-9-4-53-1-24-6-7-3" class="st5" d="M471.6,103.9c1,0,1.9,0.3,2.8,0.8h0.1c2.8,0,5.1,2.2,5.2,5
				c0,0.1,0,0.2,0,0.3c0,0.7-0.2,1.5-0.5,2.1c0.6,0.9,0.9,1.9,0.9,2.9v0.3c-0.1,2.8-2.4,5-5.2,5c-0.3,0-0.5,0-0.8-0.1
				c-0.9,0.6-1.8,0.8-2.9,0.8c-1,0-1.9-0.3-2.8-0.8h-0.3c-2.9,0-5.2-2.3-5.2-5.2c0-0.7,0.2-1.5,0.5-2.1c-0.6-0.9-0.9-1.9-0.9-2.9
				c0-2.9,2.3-5.2,5.2-5.2c0.3,0,0.7,0,1,0.1C469.5,104.2,470.5,103.9,471.6,103.9L471.6,103.9z"/>
			<path id="path115416-7-2-8-85-3-4-0-3-8-7-2-7-5-9-3" class="st6" d="M474,106.6c1,0,1.9,0.3,2.7,0.8h0.1c2.8,0,5.1,2.2,5.2,5
				c0,0.1,0,0.2,0,0.3c0,0.7-0.2,1.5-0.5,2.1c0.6,0.9,0.9,1.9,0.9,2.9v0.3c-0.1,2.8-2.4,5-5.2,5c-1.3-0.2-2.6,0.1-3.7,0.8
				c-1,0-1.9-0.3-2.8-0.8h-0.3c-2.9,0-5.2-2.3-5.2-5.2c0-0.7,0.2-1.5,0.5-2.1c-0.6-0.9-0.9-1.9-0.9-2.9c0-2.9,2.4-5.2,5.2-5.2l0,0
				c0.3,0,0.7,0,1,0.1C471.9,107,472.9,106.7,474,106.6L474,106.6z"/>
			<path id="path115416-7-2-8-85-6-9-9-4-53-1-24-9-3" class="st2" d="M293.5,125.8c0.9,0,1.8,0.3,2.6,0.7h0.1
				c2.6,0,4.8,2.1,4.9,4.7c0,0.1,0,0.2,0,0.2c0,0.7-0.1,1.4-0.4,2c0.5,0.8,0.8,1.8,0.8,2.7c0,0.1,0,0.2,0,0.3
				c-0.1,2.6-2.3,4.7-4.9,4.7c-0.3,0-0.5,0-0.8-0.1c-1.6,1-3.7,1-5.3,0h-0.3c-2.7,0-4.9-2.2-4.9-4.9c0-0.7,0.2-1.4,0.4-2
				c-0.5-0.8-0.8-1.8-0.8-2.7c0-2.7,2.2-4.9,4.9-4.9c0.3,0,0.7,0,1,0.1C291.6,126.1,292.5,125.8,293.5,125.8L293.5,125.8z"/>
			<path id="path115416-7-2-8-85-3-4-0-3-8-7-2-7-2-4" class="st3" d="M294.7,127.4c0.9,0,1.8,0.3,2.6,0.7h0.1
				c2.6,0,4.8,2.1,4.9,4.7v0.3c0,0.7-0.2,1.4-0.4,2c0.5,0.8,0.8,1.8,0.8,2.7v0.2c-0.1,2.7-2.5,4.8-5.2,4.7c-0.2,0-0.3,0-0.5-0.1
				c-1.6,1-3.7,1.1-5.3,0.1h-0.3c-2.7,0-4.9-2.2-4.9-4.9c0-0.7,0.2-1.4,0.4-2c-0.5-0.8-0.8-1.8-0.8-2.7c0-2.7,2.2-4.9,4.9-4.9l0,0
				c0.3,0,0.7,0,1,0.1C292.8,127.7,293.8,127.4,294.7,127.4L294.7,127.4z"/>
			<path id="path115416-7-2-8-85-6-9-9-4-53-1-24-96-3" class="st2" d="M344.1,129.1c0.9,0,1.8,0.3,2.6,0.7h0.1c2.6,0,4.8,2,4.9,4.7
				c0,0.1,0,0.2,0,0.3c0,0.7-0.1,1.4-0.4,2c0.5,0.8,0.8,1.8,0.8,2.7c0,0.1,0,0.2,0,0.2c-0.1,2.6-2.3,4.7-4.9,4.7
				c-0.3,0-0.5,0-0.8-0.1c-1.6,1-3.7,1.1-5.3,0.1h-0.3c-2.7,0-4.9-2.2-4.9-4.9c0-0.7,0.1-1.4,0.4-2c-1.5-2.2-0.9-5.3,1.3-6.8
				c0.8-0.6,1.8-0.8,2.8-0.8c0.3,0,0.7,0,1,0.1C342.2,129.4,343.1,129.1,344.1,129.1L344.1,129.1z"/>
			<path id="path115416-7-2-8-85-3-4-0-3-8-7-2-7-23-3" class="st7" d="M345.3,130.7c0.9,0,1.8,0.3,2.6,0.7h0.1
				c2.6,0,4.8,2.1,4.9,4.7v0.2c0,0.7-0.2,1.4-0.4,2c0.5,0.8,0.8,1.8,0.8,2.7v0.3c-0.1,2.7-2.5,4.8-5.2,4.7c-0.2,0-0.3,0-0.5-0.1
				c-0.8,0.5-1.7,0.8-2.7,0.8c-0.9,0-1.8-0.3-2.6-0.8H342c-2.7,0-4.9-2.2-4.9-4.9l0,0c0-0.7,0.2-1.4,0.4-2c-0.5-0.8-0.8-1.8-0.8-2.7
				c0-2.7,2.2-4.9,4.9-4.9c0.3,0,0.7,0,1,0.1C343.4,131,344.4,130.7,345.3,130.7L345.3,130.7z"/>
			<path id="path115416-7-2-8-85-6-9-9-4-53-1-24-96-1-3" class="st8" d="M451.8,123c0.9,0,1.8,0.2,2.6,0.5h0.1c2.7,0,4.8,1.3,5,2.9
				v0.2c0,0.5-0.2,0.9-0.4,1.2c0.5,0.4,0.8,1.1,0.8,1.7c0,0.1,0,0.1,0,0.2c-0.1,1.6-2.3,2.9-5,2.9c-0.3,0-0.5,0-0.8,0
				c-1.7,0.6-3.6,0.6-5.4,0h-0.3c-2.8,0-5-1.4-5-3.1c0-0.5,0.2-0.9,0.4-1.3c-0.5-0.4-0.8-1-0.8-1.7c0-1.7,2.2-3.1,5-3.1
				c0.3,0,0.7,0,1,0.1C450,123.2,450.9,123,451.8,123L451.8,123z"/>
			<path id="path115416-7-2-8-85-3-4-0-3-8-7-2-7-23-8-3" class="st7" d="M453.1,124c0.9,0,1.8,0.2,2.6,0.5h0.1c2.7,0,4.8,1.3,5,2.9
				v0.2c0,0.5-0.2,0.9-0.4,1.3c0.5,0.4,0.8,1.1,0.8,1.7v0.1c-0.1,1.6-2.3,2.9-5,2.9c-0.3,0-0.5,0-0.8,0c-0.9,0.3-1.8,0.5-2.7,0.5
				c-0.9,0-1.8-0.2-2.6-0.5h-0.3c-2.8,0-5-1.4-5-3.1c0-0.5,0.2-0.9,0.4-1.3c-0.5-0.4-0.8-1-0.8-1.7c0-1.7,2.2-3.1,5-3.1
				c0.3,0,0.7,0,1,0.1C451.2,124.2,452.2,124,453.1,124L453.1,124z"/>
			<path id="path115416-7-2-8-85-6-9-9-4-53-1-24-96-1-4-3" class="st8" d="M326.4,103.2c0.9,0,1.8,0.1,2.6,0.5h0.1
				c2.7,0,4.8,1.3,5,2.9c0,0.1,0,0.1,0,0.2c0,0.5-0.2,0.9-0.4,1.3c0.5,0.4,0.8,1.1,0.8,1.7v0.2c-0.1,1.6-2.3,2.9-5,2.9
				c-0.3,0-0.5,0-0.8,0c-1.7,0.6-3.6,0.6-5.4,0H323c-2.7,0-5-1.4-5-3.1c0-0.5,0.2-0.9,0.4-1.3c-0.5-0.4-0.8-1.1-0.9-1.7
				c0-1.7,2.2-3.1,5-3.1c0.3,0,0.7,0,1,0.1C324.5,103.4,325.5,103.2,326.4,103.2L326.4,103.2z"/>
			<path id="path115416-7-2-8-85-3-4-0-3-8-7-2-7-23-8-5-3" class="st7" d="M327.7,104.2c0.9,0,1.8,0.2,2.6,0.5h0.1
				c2.7,0,4.8,1.3,5,2.9v0.2c0,0.5-0.2,0.9-0.4,1.2c0.5,0.4,0.8,1.1,0.8,1.7c0,0.1,0,0.1,0,0.2c-0.1,1.6-2.3,2.9-5,2.9
				c-0.3,0-0.5,0-0.8,0c-1.7,0.6-3.6,0.6-5.4,0h-0.3c-2.8,0-5-1.4-5-3.1c0-0.5,0.2-0.9,0.4-1.3c-0.5-0.4-0.8-1-0.8-1.7
				c0-1.7,2.2-3.1,5-3.1c0.3,0,0.7,0,1,0.1C325.8,104.4,326.8,104.2,327.7,104.2L327.7,104.2z"/>
			<path id="path115416-7-2-8-85-6-9-9-4-53-1-24-96-1-4-2-4" class="st9" d="M408.2,114.1c1.4,0,2.7,0.2,4,0.7h0.1
				c4.1,0,7.5,2,7.7,4.5v0.2c0,0.7-0.3,1.4-0.7,1.9c0.8,0.7,1.3,1.6,1.3,2.6c0,0.1,0,0.2,0,0.2c-0.2,2.5-3.6,4.5-7.7,4.5
				c-0.4,0-0.8,0-1.2,0c-2.7,1-5.6,1-8.3,0h-0.5c-4.2,0-7.7-2.1-7.7-4.8c0-0.7,0.3-1.4,0.7-1.9c-0.8-0.7-1.3-1.6-1.3-2.6
				c0-2.6,3.4-4.8,7.7-4.8c0.5,0,1,0,1.5,0.1C405.3,114.3,406.8,114,408.2,114.1L408.2,114.1z"/>
			<path id="path115416-7-2-8-85-3-4-0-3-8-7-2-7-23-8-5-8-3" class="st7" d="M410.2,115.6c1.4,0,2.7,0.2,4,0.7h0.1
				c4.1,0,7.5,2,7.7,4.5v0.2c0,0.7-0.2,1.4-0.7,1.9c0.8,0.7,1.3,1.6,1.3,2.6c0,0.1,0,0.2,0,0.2c-0.2,2.5-3.6,4.5-7.7,4.5
				c-0.4,0-0.8,0-1.2-0.1c-2.7,1-5.6,1-8.3,0H405c-4.2,0-7.7-2.1-7.7-4.8c0-0.7,0.3-1.4,0.7-1.9c-0.8-0.7-1.3-1.6-1.3-2.6
				c0-2.6,3.4-4.8,7.7-4.8c0.5,0,1,0,1.5,0.1C407.3,115.8,408.7,115.5,410.2,115.6L410.2,115.6z"/>
		</g>
		<g id="Burrow_Front-4">
			
				<linearGradient id="path174-2-7-4_00000178164570735827737950000016158223658694210462_" gradientUnits="userSpaceOnUse" x1="184.82" y1="-412.14" x2="428.12" y2="-412.14" gradientTransform="matrix(1 0 0 -1 -184.72 -209.04)">
				<stop  offset="0" style="stop-color:#583F16"/>
				<stop  offset="1" style="stop-color:#7F5422"/>
			</linearGradient>
			<path id="path174-2-7-4" style="fill:url(#path174-2-7-4_00000178164570735827737950000016158223658694210462_);" d="
				M179.1,154.8c-2.5,0-5,0.8-7,2.2c-1.6-0.8-3.4-1.2-5.1-1.1c-6,0-10.9,4.3-10.9,9.6c0,1,0.2,2,0.5,3c-1.7,1.7-2.7,4-2.7,6.4
				c0,0.8,0.1,1.6,0.4,2.4c-0.9,0.3-1.9,0.7-2.7,1.2c-1.6,0.7-2.9,1.8-4,3.1l0,0c-1,0.4-1.9,0.8-2.9,1.3c-1.5-3.8-4.8-6.7-8.9-7.5
				c-4-3.8-10.1-3.9-14.2-0.3c-1.8-1.3-4-2.1-6.2-2.1c-6.2,0-11.3,5.6-11.9,12.7c-1.1-0.4-2.3-0.6-3.5-0.6c-3.7,0.1-7.1,1.9-9.2,5
				c-0.6,0-1.2-0.1-1.8-0.1c-1.9,0-3.7,0.1-5.6,0.4c-2.1-4.2-5.9-7-10.4-7c-5,0-9.3,3.6-11.1,8.8c-1.9-4.9-6-8.2-10.9-8.2
				c-3.7,0.1-7.1,2-9.1,5c-1.4-0.7-3-1.1-4.6-1.1c-4.9,0-9.2,3.5-11,8.5c-1.8-1.2-3.8-1.9-6-1.9c-4.4,0-8.3,2.8-10.4,7
				C9,201,8,200.7,7.1,200.7c-3.9,0-7,3.7-7,8.2s3.1,8.2,7,8.2c1.2,0,2.3-0.3,3.3-0.9l0.1,0.2c0.8,2.5,2.9,4.4,5.4,5
				c1.4,0.6,2.8,1,4.3,1c2.1,0,4.2-0.7,5.9-1.9c0.8,3.4,3.5,5.9,6.7,5.9c0.5,0,1-0.1,1.5-0.2c2.9,1.4,6.3,1.5,9.2,0.3
				c1.2,1.3,2.9,2,4.7,2.1c2.2-0.1,4.3-1.2,5.5-3.1c2.9,5.2,10.6,9,19.8,9.4c1.1,2.4,3.4,4,6.1,4.1c2.4-0.1,4.5-1.4,5.7-3.4
				c0.7,0.7,1.4,1.4,2.2,2c0.6,3.9,3.4,6.9,6.9,6.9c1.9,0,3.7-0.9,4.9-2.3h0.2c0.9,2.9,3.5,4.9,6.5,5.1c0.8,0,1.6-0.2,2.4-0.5
				c4.2,2.8,10.2,4.6,16.9,4.6c8.9,0,16.5-3.1,20.3-7.7c0.5,0,1-0.1,1.5-0.1c1.5,0.6,3,1,4.6,1c4.2,0.1,8.1-2.3,10-6.1
				c0.3-0.2,0.5-0.4,0.8-0.6c0.6,0.1,1.2,0.2,1.8,0.2c0.9,0,1.8-0.1,2.7-0.3c1.1,2.4,3.4,4,6.1,4.1c2.9-0.1,5.5-2,6.4-4.8
				c0.6,0.1,1.2,0.2,1.9,0.1c2,0,3.9-0.5,5.6-1.4c1.2,1.4,3,2.2,4.8,2.2c3,0,5.5-2.2,6.5-5.2c1,0.1,2,0,3-0.2c1.1,1,2.6,1.6,4.2,1.6
				c3-0.1,5.6-2.1,6.4-5c1.7,0.9,3.7,1.4,5.7,1.4c4,0.1,7.7-2,9.7-5.4c1.3,0.5,2.7,0.7,4.1,0.7c6,0,10.9-4.4,10.9-9.9
				c0-0.6-0.1-1.3-0.2-1.9c0.9-1.4,1.3-3.1,1.3-4.7c0-3.1-1.6-6.1-4.2-7.8c0.3-0.8,0.4-1.7,0.4-2.6c0-5.5-4.9-9.9-10.9-9.9
				c-0.5,0-1,0-1.6,0.1c0.2-0.8,0.3-1.5,0.3-2.3c0-5.3-4.9-9.6-10.9-9.6H216c-1.1-2.4-3.4-4-6.1-4.1c-1,0-2,0.2-2.8,0.7
				c-2.7-4.6-9.2-8.1-17.1-9c0-0.2,0-0.4,0-0.5C189.9,159.1,185,154.8,179.1,154.8L179.1,154.8z M206.4,190.6c0.4,0.9,1,1.7,1.6,2.4
				c-0.6-0.1-1.2-0.1-1.8-0.2c0.2-0.7,0.2-1.3,0.2-2C206.5,190.8,206.5,190.7,206.4,190.6L206.4,190.6z M182.4,192.6
				c0.8,0.1,1.6,0.1,2.4,0.1c0.1,0.5,0.3,0.9,0.5,1.3c-1-0.5-2-0.9-3-1.2L182.4,192.6z"/>
			
				<linearGradient id="path174-2-7-1-4_00000083793830232807881630000002205650214567601832_" gradientUnits="userSpaceOnUse" x1="292.94" y1="-414.472" x2="425.96" y2="-414.472" gradientTransform="matrix(1 0 0 -1 -182.34 -211.12)">
				<stop  offset="0" style="stop-color:#563D15"/>
				<stop  offset="1" style="stop-color:#2A2111"/>
			</linearGradient>
			<path id="path174-2-7-1-4" style="fill:url(#path174-2-7-1-4_00000083793830232807881630000002205650214567601832_);" d="
				M179.4,154.9c-2.5,0-5,0.8-7,2.2c-1.6-0.8-3.4-1.2-5.1-1.1c-0.9,0-1.8,0.1-2.6,0.3c1.9,1.4,3.7,2.9,5.4,4.6
				c7.4,0.8,13.1,6.7,13.1,13.9c0,1.5-0.3,3-0.8,4.5c1.1,3.3,1.7,6.7,1.7,10.1l0,0c3,2.6,4.7,6.3,4.7,10.2c0,7.7-6.6,13.9-14.7,14
				c-0.2,0.3-0.5,0.6-0.8,0.9c0.7,1.4,1,2.9,1,4.5c0,7.7-8.4,14-18.8,14c-0.9,0-1.8,0-2.7-0.1c-1.6,6.8-11,12-22.4,12
				c-3.7,0-7.5-0.6-11-1.7c-2.3,2.6-5.4,4.4-8.8,5.1c4.6,2.4,9.8,3.6,15,3.5c8.9,0,16.5-3.1,20.3-7.7c0.5,0,1-0.1,1.5-0.1
				c1.5,0.6,3,1,4.6,1c4.2,0.1,8.1-2.3,10-6.1c0.3-0.2,0.5-0.4,0.8-0.6c1.5,0.3,3.1,0.2,4.6-0.2c1.1,2.4,3.4,4,6.1,4.1
				c2.9-0.1,5.5-2,6.4-4.8c0.6,0.1,1.2,0.1,1.9,0.1c2,0,3.9-0.5,5.6-1.4c1.2,1.4,3,2.2,4.8,2.2c3,0,5.5-2.2,6.5-5.2c1,0.1,2,0,3-0.2
				c1.1,1,2.6,1.6,4.2,1.6c3-0.1,5.6-2.1,6.5-5c1.7,1,3.7,1.5,5.6,1.4c4,0.1,7.7-2,9.7-5.4c1.3,0.5,2.7,0.7,4.1,0.7
				c6,0,10.9-4.4,10.9-9.9c0-0.6-0.1-1.3-0.2-1.9c0.9-1.4,1.3-3.1,1.3-4.7c0-3.1-1.6-6.1-4.2-7.8c0.3-0.8,0.4-1.7,0.4-2.6
				c0-5.5-4.9-9.9-10.9-9.9c-0.5,0-1,0.1-1.6,0.1c0.2-0.8,0.3-1.5,0.3-2.3c0-5.3-4.9-9.6-10.9-9.6h-0.5c-1.1-2.4-3.4-4-6.1-4.1
				c-1,0-2,0.2-2.9,0.7c-2.7-4.6-9.2-8.1-17.1-9c0-0.2,0-0.4,0-0.5C190.1,159.1,185.3,154.8,179.4,154.9L179.4,154.9z M206.7,190.7
				c0.4,0.9,1,1.7,1.6,2.4c-0.6-0.1-1.2-0.1-1.8-0.2c0.2-0.7,0.2-1.3,0.2-2V190.7L206.7,190.7z"/>
			<path id="path115416-7-2-8-85-6-9-9-4-53-1-24-4" class="st2" d="M105.8,229.8c0.9,0,1.8,0.3,2.6,0.8h0.1c2.6,0,4.8,2,4.9,4.7
				c0,0.1,0,0.2,0,0.3c0,0.7-0.1,1.4-0.4,2c0.5,0.8,0.8,1.8,0.8,2.7c0,0.1,0,0.2,0,0.2c-0.1,2.6-2.3,4.7-4.9,4.7
				c-0.3,0-0.5,0-0.8-0.1c-1.6,1-3.7,1-5.3,0h-0.3c-2.7,0-4.9-2.2-4.9-5c0-0.7,0.1-1.3,0.4-1.9c-1.5-2.3-0.9-5.3,1.3-6.8
				c0.8-0.5,1.8-0.8,2.8-0.8c0.3,0,0.7,0,1,0.1C103.9,230.1,104.9,229.8,105.8,229.8L105.8,229.8z"/>
			<path id="path115416-7-2-8-85-3-4-0-3-8-7-2-7-4" class="st3" d="M107.1,231.4c0.9,0,1.8,0.3,2.6,0.7h0.1c2.6,0,4.8,2,4.9,4.7
				v0.2c0,0.7-0.2,1.4-0.4,2c0.5,0.8,0.8,1.8,0.8,2.7v0.3c-0.1,2.6-2.3,4.7-4.9,4.7c-0.3,0-0.5,0-0.8-0.1c-1.6,1-3.7,1-5.3,0h-0.3
				c-2.7,0-4.9-2.2-4.9-4.9c0-0.7,0.2-1.4,0.4-2c-0.5-0.8-0.8-1.8-0.8-2.7c0-2.7,2.2-4.9,4.9-4.9c0.3,0,0.7,0,1,0.1
				C105.2,231.6,106.1,231.3,107.1,231.4L107.1,231.4z"/>
			<path id="path115416-7-2-8-85-6-9-9-4-53-1-24-8-4" class="st2" d="M160.3,229.4c0.9,0,1.8,0.3,2.6,0.7h0.1
				c2.6,0,4.8,2.1,4.9,4.7v0.2c0,0.7-0.1,1.4-0.4,2c0.5,0.8,0.8,1.8,0.8,2.7v0.3c-0.1,2.6-2.3,4.7-4.9,4.7c-0.3,0-0.5,0-0.8-0.1
				c-1.6,1-3.7,1.1-5.3,0.1H157c-2.7,0-4.9-2.2-4.9-4.9c0-0.7,0.2-1.4,0.4-2c-0.5-0.8-0.8-1.8-0.8-2.7c0-2.7,2.2-4.9,4.9-4.9
				c0.3,0,0.7,0,1,0.1C158.4,229.7,159.4,229.4,160.3,229.4L160.3,229.4z"/>
			<path id="path115416-7-2-8-85-3-4-0-3-8-7-2-7-1-4" class="st3" d="M161.5,231c0.9,0,1.8,0.3,2.6,0.8h0.1c2.6,0,4.8,2,4.9,4.7
				c0,0.1,0,0.2,0,0.3c0,0.7-0.1,1.4-0.4,2c0.5,0.8,0.8,1.8,0.8,2.7c0,0.1,0,0.2,0,0.2c-0.1,2.6-2.3,4.7-4.9,4.7
				c-0.3,0-0.5,0-0.8-0.1c-1.6,1-3.7,1-5.3,0h-0.3c-2.7,0-4.9-2.2-4.9-4.9c0-0.7,0.1-1.4,0.4-2c-1.5-2.3-0.9-5.3,1.3-6.8
				c0.8-0.5,1.8-0.8,2.8-0.8c0.3,0,0.7,0,1,0.1C159.6,231.2,160.6,230.9,161.5,231L161.5,231z"/>
			<path id="path115416-7-2-8-85-6-9-9-4-53-1-24-6-4" class="st4" d="M231.7,198.9c1.4,0,2.8,0.4,4,1.1h0.1c4.1,0,7.4,3.2,7.6,7.2
				c0,0.1,0,0.3,0,0.4c0,1.1-0.2,2.1-0.7,3.1c0.8,1.3,1.3,2.7,1.3,4.3c0,0.1,0,0.3,0,0.4c-0.2,4.2-3.8,7.4-8,7.2
				c-0.3,0-0.5,0-0.8-0.1c-2.5,1.6-5.7,1.6-8.2,0.1h-0.4c-4.2,0-7.6-3.4-7.6-7.6c0-1.1,0.2-2.1,0.7-3.1c-0.8-1.2-1.3-2.7-1.3-4.2
				c0-4.2,3.3-7.7,7.5-7.7c0,0,0,0,0.1,0c0.5,0,1,0,1.5,0.1C228.7,199.3,230.2,198.9,231.7,198.9L231.7,198.9z"/>
			<path id="path115416-7-2-8-85-3-4-0-3-8-7-2-7-5-4" class="st3" d="M233.6,201.3c1.4,0,2.8,0.4,4,1.1h0.1c4,0,7.4,3.2,7.6,7.2
				c0,0.1,0,0.3,0,0.4c0,1.1-0.2,2.1-0.7,3.1c0.8,1.2,1.3,2.7,1.3,4.2c0,0.1,0,0.3,0,0.4c-0.2,4-3.6,7.2-7.6,7.2
				c-0.4,0-0.8,0-1.2-0.1c-2.5,1.6-5.7,1.6-8.2,0.1h-0.4c-4.2,0-7.6-3.3-7.7-7.5c0-1.1,0.2-2.2,0.7-3.2c-0.8-1.2-1.3-2.7-1.3-4.2
				c0-4.2,3.4-7.6,7.6-7.6l0,0c0.5,0,1,0,1.5,0.1C230.6,201.8,232.1,201.3,233.6,201.3L233.6,201.3z"/>
			<path id="path115416-7-2-8-85-6-9-9-4-53-1-24-6-7-4" class="st5" d="M198.8,185.5c1,0,1.9,0.3,2.7,0.8h0.1
				c2.8,0,5.1,2.2,5.2,4.9c0,0.1,0,0.2,0,0.3c0,0.7-0.2,1.5-0.4,2.1c0.6,0.9,0.9,1.9,0.9,2.9v0.3c-0.1,2.8-2.4,5-5.2,5
				c-0.3,0-0.5,0-0.8-0.1c-1.7,1.1-3.9,1.1-5.6,0.1h-0.3c-2.9,0-5.2-2.3-5.2-5.2c0-0.7,0.2-1.5,0.5-2.1c-0.6-0.9-0.9-1.9-0.9-2.9
				c0-2.9,2.4-5.2,5.2-5.2l0,0c0.3,0,0.7,0,1,0.1C196.7,185.8,197.7,185.5,198.8,185.5L198.8,185.5z"/>
			<path id="path115416-7-2-8-85-3-4-0-3-8-7-2-7-5-9-4" class="st6" d="M201.2,188.2c1,0,1.9,0.3,2.8,0.8h0.1c2.8,0,5.1,2.2,5.2,5
				v0.3c0,0.7-0.2,1.5-0.5,2.1c0.6,0.9,0.9,1.9,0.9,2.9c0,0.1,0,0.2,0,0.3c-0.1,2.8-2.4,4.9-5.2,4.9c-0.3,0-0.5,0-0.8-0.1
				c-1.7,1.1-3.9,1.1-5.6,0.1h-0.3c-2.9,0-5.2-2.3-5.2-5.2c0-0.7,0.2-1.5,0.5-2.2c-0.6-0.9-0.9-1.9-0.9-2.9c0-2.9,2.3-5.2,5.2-5.2
				c0.3,0,0.7,0,1,0.1C199.1,188.6,200.1,188.3,201.2,188.2L201.2,188.2z"/>
			<path id="path115416-7-2-8-85-6-9-9-4-53-1-24-9-4" class="st2" d="M20.6,207.4c0.9,0,1.8,0.3,2.6,0.7h0.1c2.6,0,4.8,2,4.9,4.7
				v0.3c0,0.7-0.2,1.4-0.4,2c0.5,0.8,0.8,1.8,0.8,2.7v0.2c-0.1,2.6-2.3,4.7-4.9,4.7c-0.3,0-0.5,0-0.8-0.1c-1.6,1-3.7,1.1-5.3,0.1
				h-0.3c-2.7,0-4.9-2.2-4.9-4.9c0-0.7,0.2-1.4,0.4-2c-0.5-0.8-0.8-1.8-0.8-2.7c0-2.7,2.2-4.9,4.9-4.9c0.3,0,0.7,0,1,0.1
				C18.7,207.7,19.7,207.4,20.6,207.4L20.6,207.4z"/>
			<path id="path115416-7-2-8-85-3-4-0-3-8-7-2-7-2-5" class="st3" d="M21.9,209c0.9,0,1.8,0.3,2.6,0.7h0.1c2.6,0,4.8,2.1,4.9,4.7
				c0,0.1,0,0.2,0,0.2c0,0.7-0.1,1.4-0.4,2c0.5,0.8,0.8,1.8,0.8,2.7c0,0.1,0,0.2,0,0.3c-0.1,2.6-2.3,4.7-4.9,4.7
				c-0.3,0-0.5,0-0.8-0.1c-1.6,1-3.7,1-5.3,0h-0.3c-2.7,0-4.9-2.2-4.9-4.9c0-0.7,0.2-1.4,0.4-2c-1.5-2.3-0.9-5.3,1.3-6.8
				c0.8-0.5,1.8-0.8,2.8-0.8c0.3,0,0.7,0,1,0.1C20,209.3,21,209,21.9,209L21.9,209z"/>
			<path id="path115416-7-2-8-85-6-9-9-4-53-1-24-96-4" class="st2" d="M71.2,210.7c0.9,0,1.8,0.3,2.6,0.8h0.1c2.6,0,4.8,2,4.9,4.7
				c0,0.1,0,0.2,0,0.3c0,0.7-0.2,1.4-0.4,2c0.5,0.8,0.8,1.8,0.8,2.7c0,0.1,0,0.2,0,0.2c-0.1,2.6-2.3,4.7-4.9,4.7
				c-0.3,0-0.5,0-0.8-0.1c-1.6,1-3.7,1.1-5.3,0.1h-0.3c-2.7,0-4.9-2.2-4.9-4.9c0-0.7,0.2-1.4,0.4-2c-0.5-0.8-0.8-1.8-0.8-2.7
				c0-2.7,2.2-4.9,4.9-4.9c0.3,0,0.7,0,1,0.1C69.3,211,70.3,210.7,71.2,210.7L71.2,210.7z"/>
			<path id="path115416-7-2-8-85-3-4-0-3-8-7-2-7-23-4" class="st7" d="M72.5,212.3c0.9,0,1.8,0.3,2.6,0.7h0.1
				c2.6,0,4.8,2.1,4.9,4.7v0.3c0,0.7-0.2,1.4-0.4,2c0.5,0.8,0.8,1.8,0.8,2.7v0.3c-0.1,2.7-2.5,4.8-5.2,4.7c-0.2,0-0.3,0-0.5-0.1
				c-1.6,1-3.7,1.1-5.3,0.1h-0.3c-2.7,0-4.9-2.2-4.9-4.9c0-0.7,0.2-1.4,0.4-2c-0.5-0.8-0.8-1.8-0.8-2.7c0-2.7,2.2-4.9,4.9-4.9
				c0.3,0,0.7,0,1,0.1C70.6,212.6,71.5,212.3,72.5,212.3L72.5,212.3z"/>
			<path id="path115416-7-2-8-85-6-9-9-4-53-1-24-96-1-4-4" class="st8" d="M179,204.6c0.9,0,1.8,0.2,2.6,0.5h0.1
				c2.7,0,4.8,1.3,5,2.9v0.2c0,0.5-0.2,0.9-0.4,1.2c0.5,0.4,0.8,1.1,0.8,1.7c0,0.1,0,0.1,0,0.2c-0.1,1.6-2.3,2.9-5,2.9
				c-0.3,0-0.5,0-0.8,0c-0.9,0.3-1.8,0.5-2.7,0.5s-1.8-0.2-2.6-0.5h-0.3c-2.8,0-5-1.4-5-3.1c0-0.5,0.2-0.9,0.4-1.3
				c-0.5-0.4-0.8-1-0.8-1.7c0-1.7,2.2-3.1,5-3.1c0.3,0,0.7,0,1,0.1C177.1,204.8,178.1,204.7,179,204.6L179,204.6z"/>
			<path id="path115416-7-2-8-85-3-4-0-3-8-7-2-7-23-8-4" class="st7" d="M180.2,205.6c0.9,0,1.8,0.2,2.6,0.5h0.1
				c2.7,0,4.8,1.3,5,2.9v0.2c0,0.5-0.2,0.9-0.4,1.2c0.5,0.4,0.8,1.1,0.8,1.7v0.2c-0.1,1.6-2.3,2.9-5,2.9c-0.3,0-0.5,0-0.8,0
				c-0.9,0.3-1.8,0.5-2.7,0.5s-1.8-0.2-2.6-0.5h-0.3c-2.8,0-5-1.4-5-3.1c0-0.5,0.2-0.9,0.4-1.3c-0.5-0.4-0.8-1-0.8-1.7
				c0-1.7,2.2-3.1,5-3.1c0.3,0,0.7,0,1,0.1C178.4,205.8,179.3,205.6,180.2,205.6L180.2,205.6z"/>
			<path id="path115416-7-2-8-85-6-9-9-4-53-1-24-96-1-4-5" class="st8" d="M53.6,184.9c0.9,0,1.8,0.2,2.6,0.5h0.1
				c2.7,0,4.8,1.3,5,2.9v0.2c0,0.5-0.2,0.9-0.4,1.3c0.5,0.4,0.8,1,0.8,1.7c0,0.1,0,0.1,0,0.2c-0.1,1.6-2.3,2.9-5,2.9
				c-0.3,0-0.5,0-0.8,0c-0.9,0.3-1.8,0.5-2.7,0.5s-1.8-0.2-2.7-0.5h-0.3c-2.7,0-5-1.4-5-3.1c0-0.5,0.2-0.9,0.4-1.3
				c-0.5-0.4-0.8-1-0.8-1.7c0-1.7,2.2-3.1,5-3.1c0.3,0,0.7,0,1,0.1C51.7,185.1,52.7,184.9,53.6,184.9L53.6,184.9z"/>
			<path id="path115416-7-2-8-85-3-4-0-3-8-7-2-7-23-8-5-4" class="st7" d="M54.8,185.9c0.9,0,1.8,0.2,2.6,0.5h0.1
				c2.7,0,4.8,1.3,5,2.9v0.2c0,0.5-0.2,0.9-0.4,1.3c0.5,0.4,0.8,1.1,0.8,1.7v0.2c-0.1,1.6-2.3,2.9-5,2.9c-0.3,0-0.5,0-0.8,0
				c-1.7,0.6-3.6,0.6-5.4,0h-0.3c-2.8,0-5-1.4-5-3.1c0-0.5,0.2-0.9,0.4-1.3c-0.5-0.4-0.8-1.1-0.8-1.7c0-1.7,2.2-3.1,5-3.1
				c0.3,0,0.7,0,1,0.1C53,186,53.9,185.8,54.8,185.9L54.8,185.9z"/>
			<path id="path115416-7-2-8-85-6-9-9-4-53-1-24-96-1-4-2-5" class="st9" d="M135.4,195.7c1.4,0,2.7,0.2,4,0.7h0.1
				c4.1,0,7.4,2,7.7,4.5v0.2c0,0.7-0.2,1.4-0.7,1.9c0.8,0.7,1.3,1.6,1.3,2.6v0.2c-0.2,2.5-3.6,4.5-7.7,4.5c-0.4,0-0.8,0-1.2,0
				c-2.7,1-5.6,1-8.2,0h-0.5c-4.2,0-7.7-2.1-7.7-4.8c0-0.7,0.2-1.4,0.7-1.9c-0.8-0.7-1.3-1.6-1.3-2.6c0-2.6,3.4-4.8,7.7-4.8
				c0.5,0,1,0,1.5,0.1C132.5,196,133.9,195.7,135.4,195.7L135.4,195.7z"/>
			<path id="path115416-7-2-8-85-3-4-0-3-8-7-2-7-23-8-5-8-4" class="st7" d="M137.4,197.2c1.4,0,2.7,0.2,4,0.7h0.1
				c4.1,0,7.4,2,7.7,4.5v0.2c0,0.7-0.2,1.4-0.7,1.9c0.8,0.7,1.3,1.6,1.3,2.6v0.2c-0.2,2.5-3.6,4.5-7.7,4.5c-0.4,0-0.8,0-1.2-0.1
				c-2.7,1-5.6,1-8.2,0.1h-0.5c-4.2,0-7.7-2.1-7.7-4.8c0-0.7,0.2-1.4,0.7-1.9c-0.8-0.7-1.3-1.6-1.3-2.6c0-2.6,3.4-4.8,7.7-4.8
				c0.5,0,1,0,1.5,0.1C134.4,197.5,135.9,197.2,137.4,197.2L137.4,197.2z"/>
		</g>
		<g id="Burrow_Front-5">
			
				<linearGradient id="path174-2-7-5_00000029004952322906933220000017790848271988233652_" gradientUnits="userSpaceOnUse" x1="728.3199" y1="-412.3182" x2="971.5898" y2="-412.3182" gradientTransform="matrix(1 0 0 -1 -184.72 -209.04)">
				<stop  offset="0" style="stop-color:#583F16"/>
				<stop  offset="1" style="stop-color:#7F5422"/>
			</linearGradient>
			<path id="path174-2-7-5" style="fill:url(#path174-2-7-5_00000029004952322906933220000017790848271988233652_);" d="
				M722.7,154.9c-2.5,0-5,0.8-7,2.2c-1.6-0.8-3.4-1.2-5.1-1.1c-6,0-10.9,4.3-10.9,9.6c0,1,0.2,2,0.5,3c-1.7,1.7-2.7,4-2.7,6.4
				c0,0.8,0.1,1.6,0.3,2.4c-1,0.3-1.9,0.7-2.7,1.2c-1.6,0.7-2.9,1.8-4,3.1l0,0c-1,0.4-1.9,0.8-2.9,1.3c-1.5-3.8-4.8-6.7-8.9-7.5
				c-4-3.8-10.1-3.9-14.2-0.3c-1.8-1.3-4-2-6.2-2.1c-6.2,0-11.3,5.6-11.9,12.7c-1.1-0.4-2.3-0.6-3.5-0.6c-3.7,0.1-7.1,1.9-9.2,5
				c-0.6,0-1.2-0.1-1.8-0.1c-1.9,0-3.7,0.1-5.6,0.4c-2.1-4.2-5.9-7-10.4-7c-5,0-9.3,3.6-11.1,8.8c-1.9-4.9-6-8.2-10.9-8.2
				c-3.7,0.1-7.1,2-9.1,5c-1.4-0.7-3-1.1-4.6-1.1c-4.9,0-9.2,3.5-11,8.5c-1.8-1.2-3.8-1.9-6-1.9c-4.4,0-8.3,2.8-10.4,7.1
				c-0.9-0.5-1.8-0.7-2.8-0.7c-3.9,0-7,3.7-7,8.2s3.1,8.2,7,8.2c1.2,0,2.3-0.3,3.3-0.9c0,0.1,0.1,0.1,0.2,0.2c0.8,2.5,2.9,4.4,5.4,5
				c3.3,1.5,7.2,1.2,10.2-0.9c0.8,3.4,3.5,5.9,6.7,5.9c0.5,0,1-0.1,1.5-0.2c2.9,1.4,6.3,1.5,9.2,0.3c1.2,1.3,2.9,2,4.7,2.1
				c2.2-0.1,4.3-1.2,5.5-3.1c2.9,5.2,10.6,9,19.8,9.4c1.1,2.4,3.4,4,6.1,4.1c2.4-0.1,4.5-1.4,5.7-3.4c0.7,0.7,1.4,1.4,2.2,2
				c0.5,3.9,3.4,6.9,6.9,6.9c1.9,0,3.7-0.9,4.9-2.3h0.2c0.9,2.9,3.5,4.9,6.5,5.1c0.8,0,1.6-0.2,2.4-0.5c4.2,2.9,10.2,4.6,16.9,4.6
				c8.9,0,16.5-3.1,20.3-7.7c0.5,0,1-0.1,1.5-0.1c1.5,0.6,3,1,4.6,1c4.2,0.1,8.1-2.3,10-6.1c0.3-0.2,0.5-0.4,0.8-0.6
				c0.6,0.1,1.2,0.2,1.8,0.2c0.9,0,1.8-0.1,2.7-0.3c1.1,2.4,3.4,4,6.1,4.1c2.9-0.1,5.4-2,6.4-4.8c0.6,0.1,1.2,0.1,1.9,0.1
				c2,0,3.9-0.5,5.7-1.4c1.2,1.4,3,2.2,4.8,2.2c3,0,5.5-2.2,6.5-5.2c0.3,0,0.6,0.1,0.9,0.1c0.7,0,1.4-0.1,2.2-0.3
				c1.1,1,2.6,1.6,4.2,1.6c3-0.1,5.6-2.1,6.5-5c1.7,0.9,3.7,1.4,5.7,1.4c4,0.1,7.6-2,9.7-5.4c1.3,0.5,2.7,0.7,4.1,0.7
				c6,0,10.9-4.4,10.9-9.9c0-0.6-0.1-1.3-0.2-1.9c0.9-1.4,1.3-3,1.3-4.7c0-3.1-1.6-6.1-4.2-7.8c0.3-0.9,0.4-1.7,0.4-2.6
				c0-5.5-4.9-9.9-10.9-9.9c-0.5,0-1,0-1.6,0.1c0.2-0.8,0.3-1.5,0.3-2.3c0-5.3-4.9-9.6-10.9-9.6h-0.5c-1.1-2.4-3.4-4-6.1-4.1
				c-1,0-2,0.2-2.8,0.7c-2.7-4.6-9.2-8.1-17.1-9c0-0.2,0-0.4,0-0.5C733.5,159.2,728.7,154.9,722.7,154.9L722.7,154.9z M750.1,190.8
				c0.4,0.9,1,1.7,1.6,2.4c-0.6-0.1-1.2-0.1-1.8-0.2c0.2-0.7,0.2-1.3,0.2-2V190.8L750.1,190.8z M726.1,192.7
				c0.8,0.1,1.6,0.1,2.5,0.1c0.1,0.5,0.3,0.9,0.5,1.4c-1-0.5-2-0.9-3-1.2C726,192.9,726.1,192.8,726.1,192.7L726.1,192.7z"/>
			
				<linearGradient id="path174-2-7-1-5_00000160176634356480840180000008081548035983581845_" gradientUnits="userSpaceOnUse" x1="836.6401" y1="-414.5511" x2="969.6801" y2="-414.5511" gradientTransform="matrix(1 0 0 -1 -182.34 -211.12)">
				<stop  offset="0" style="stop-color:#563D15"/>
				<stop  offset="1" style="stop-color:#2A2111"/>
			</linearGradient>
			<path id="path174-2-7-1-5" style="fill:url(#path174-2-7-1-5_00000160176634356480840180000008081548035983581845_);" d="
				M723,155c-2.5,0-5,0.8-7,2.2c-1.6-0.8-3.4-1.1-5.1-1.1c-0.9,0-1.8,0.1-2.6,0.3c1.9,1.4,3.7,2.9,5.4,4.6
				c7.4,0.8,13.2,6.7,13.2,13.9c0,1.5-0.3,3-0.8,4.5c1.1,3.3,1.7,6.7,1.7,10.1l0,0c3,2.6,4.7,6.3,4.7,10.2c0,7.7-6.6,13.9-14.7,14
				c-0.2,0.3-0.5,0.6-0.8,0.9c0.7,1.4,1,2.9,1,4.5c0,7.7-8.4,14-18.8,14c-0.9,0-1.8,0-2.7-0.1c-1.6,6.8-11,12-22.5,12
				c-3.7,0-7.4-0.5-10.9-1.7c-2.3,2.6-5.4,4.4-8.8,5.1c4.6,2.4,9.8,3.6,15,3.5c8.9,0,16.5-3.1,20.3-7.7c0.5,0,1-0.1,1.5-0.1
				c1.5,0.6,3,1,4.6,1c4.2,0.1,8.1-2.3,10-6.1c0.3-0.2,0.5-0.4,0.8-0.6c0.6,0.1,1.2,0.2,1.8,0.2c0.9,0,1.8-0.1,2.7-0.3
				c1.1,2.4,3.4,4,6.1,4.1c2.9-0.1,5.5-2,6.4-4.8c0.6,0.1,1.2,0.2,1.9,0.1c2,0,3.9-0.5,5.7-1.4c1.2,1.4,3,2.2,4.8,2.2
				c3,0,5.5-2.2,6.5-5.2c0.3,0,0.6,0.1,0.9,0.1c0.7,0,1.4-0.1,2.2-0.3c1.1,1,2.6,1.6,4.2,1.6c3-0.1,5.6-2.1,6.5-5
				c1.7,0.9,3.7,1.4,5.7,1.4c4,0.1,7.7-2,9.7-5.4c1.3,0.5,2.7,0.7,4.1,0.7c6,0,10.9-4.4,10.9-9.9c0-0.6-0.1-1.3-0.2-1.9
				c0.9-1.4,1.3-3.1,1.3-4.7c0-3.1-1.6-6.1-4.2-7.8c0.3-0.8,0.4-1.7,0.4-2.6c0-5.5-4.9-9.9-10.9-9.9c-0.5,0-1,0.1-1.6,0.1
				c0.2-0.8,0.3-1.5,0.3-2.3c0-5.3-4.9-9.6-10.9-9.6h-0.5c-1.1-2.4-3.4-4-6.1-4.1c-1,0-2,0.2-2.8,0.7c-2.7-4.6-9.2-8.1-17.1-9
				c0-0.2,0-0.4,0-0.5C733.8,159.3,729,155,723,155L723,155z M750.3,190.8c0.4,0.9,1,1.7,1.7,2.4c-0.6-0.1-1.2-0.1-1.8-0.2
				c0.2-0.7,0.2-1.3,0.2-2C750.4,191,750.4,190.9,750.3,190.8L750.3,190.8z"/>
			<path id="path115416-7-2-8-85-6-9-9-4-53-1-24-5" class="st2" d="M649.5,229.9c0.9,0,1.8,0.3,2.6,0.7h0.1c2.6,0,4.8,2,4.9,4.7
				c0,0.1,0,0.2,0,0.3c0,0.7-0.2,1.4-0.4,2c0.5,0.8,0.8,1.8,0.8,2.7c0,0.1,0,0.2,0,0.2c-0.1,2.6-2.3,4.7-4.9,4.7
				c-0.3,0-0.5,0-0.8-0.1c-0.8,0.5-1.7,0.8-2.7,0.8c-0.9,0-1.8-0.3-2.6-0.8h-0.3c-2.7,0-4.9-2.2-4.9-4.9c0-0.7,0.1-1.4,0.4-2.1
				c-0.5-0.8-0.8-1.8-0.8-2.7c0-2.7,2.2-4.9,4.9-4.9c0.3,0,0.7,0,1,0.1C647.5,230.2,648.5,229.9,649.5,229.9L649.5,229.9z"/>
			<path id="path115416-7-2-8-85-3-4-0-3-8-7-2-7-5-5" class="st3" d="M650.7,231.5c0.9,0,1.8,0.3,2.6,0.7h0.1
				c2.6,0,4.8,2.1,4.9,4.7v0.3c0,0.7-0.1,1.4-0.4,2c0.5,0.8,0.8,1.8,0.8,2.7v0.3c-0.1,2.7-2.5,4.8-5.2,4.7c-0.2,0-0.3,0-0.5-0.1
				c-1.6,1-3.7,1.1-5.3,0.1h-0.3c-2.7,0-4.9-2.2-4.9-4.9c0-0.7,0.2-1.4,0.4-2c-0.5-0.8-0.8-1.8-0.8-2.7c0-2.7,2.2-5,4.9-5
				c0,0,0,0,0.1,0c0.3,0,0.7,0,1,0.1C648.8,231.8,649.8,231.5,650.7,231.5L650.7,231.5z"/>
			<path id="path115416-7-2-8-85-6-9-9-4-53-1-24-8-5" class="st2" d="M703.9,229.6c0.9,0,1.8,0.3,2.6,0.7h0.1
				c2.6,0,4.8,2.1,4.9,4.7v0.2c0,0.7-0.2,1.4-0.4,2c0.5,0.8,0.8,1.8,0.8,2.7v0.3c-0.1,2.6-2.3,4.7-4.9,4.7c-0.3,0-0.5,0-0.8,0
				c-1.6,1-3.7,1-5.3,0h-0.3c-2.7,0-4.9-2.2-4.9-4.9l0,0c0-0.7,0.2-1.4,0.4-2c-0.5-0.8-0.8-1.8-0.8-2.7c0-2.7,2.2-4.9,4.9-4.9
				c0.3,0,0.7,0,1,0.1C702,229.9,703,229.6,703.9,229.6L703.9,229.6z"/>
			<path id="path115416-7-2-8-85-3-4-0-3-8-7-2-7-1-5" class="st3" d="M705.2,231.1c0.9,0,1.8,0.3,2.6,0.8h0.1c2.6,0,4.8,2,4.9,4.7
				c0,0.1,0,0.2,0,0.3c0,0.7-0.1,1.4-0.4,2c0.5,0.8,0.8,1.8,0.8,2.7c0,0.1,0,0.2,0,0.2c-0.1,2.6-2.3,4.7-4.9,4.7
				c-0.3,0-0.5,0-0.8-0.1c-0.8,0.5-1.7,0.8-2.7,0.8c-0.9,0-1.8-0.3-2.6-0.8h-0.3c-2.7,0-4.9-2.2-4.9-4.9c0-0.7,0.1-1.4,0.4-2
				c-1.5-2.3-0.9-5.3,1.3-6.8c0.8-0.5,1.8-0.8,2.8-0.8c0.3,0,0.7,0,1,0.1C703.3,231.4,704.2,231.1,705.2,231.1L705.2,231.1z"/>
			<path id="path115416-7-2-8-85-6-9-9-4-53-1-24-6-5" class="st4" d="M775.3,199c1.4,0,2.8,0.4,4,1.1h0.1c4,0,7.4,3.2,7.6,7.2
				c0,0.1,0,0.3,0,0.4c0,1.1-0.2,2.1-0.7,3.1c0.8,1.2,1.3,2.7,1.3,4.2c0,0.1,0,0.3,0,0.4c-0.2,4-3.6,7.2-7.6,7.2
				c-0.4,0-0.8,0-1.2-0.1c-2.5,1.6-5.7,1.6-8.2,0.1h-0.5c-4.2,0-7.6-3.3-7.7-7.5c0-1.1,0.2-2.2,0.7-3.2c-0.8-1.2-1.3-2.7-1.3-4.2
				c0-4.2,3.4-7.6,7.6-7.6l0,0c0.5,0,1,0,1.5,0.1C772.3,199.5,773.8,199,775.3,199L775.3,199z"/>
			<path id="path115416-7-2-8-85-3-4-0-3-8-7-2-7-5-6" class="st3" d="M777.3,201.4c1.4,0,2.8,0.4,4,1.1h0.1c4,0,7.4,3.2,7.6,7.2
				c0,0.1,0,0.3,0,0.4c0,1.1-0.2,2.1-0.7,3.1c0.8,1.3,1.3,2.7,1.3,4.2c0,0.1,0,0.3,0,0.4c-0.2,4-3.6,7.2-7.6,7.2
				c-0.4,0-0.8,0-1.2-0.1c-2.5,1.6-5.7,1.7-8.2,0.1h-0.5c-4.2,0-7.6-3.4-7.6-7.6c0-1.1,0.2-2.2,0.7-3.1c-0.8-1.2-1.3-2.7-1.3-4.2
				c0-4.2,3.4-7.6,7.6-7.6l0,0c0.5,0,1,0,1.5,0.1C774.3,201.9,775.8,201.4,777.3,201.4L777.3,201.4z"/>
			<path id="path115416-7-2-8-85-6-9-9-4-53-1-24-6-7-5" class="st5" d="M742.4,185.6c1,0,1.9,0.3,2.8,0.8h0.1c2.8,0,5.1,2.2,5.2,5
				v0.3c0,0.7-0.2,1.5-0.5,2.1c0.6,0.9,0.9,1.9,0.9,2.9c0,0.1,0,0.2,0,0.3c-0.1,2.8-2.4,5-5.2,5c-1.3-0.2-2.6,0.1-3.7,0.8
				c-1,0-1.9-0.3-2.8-0.8h-0.3c-2.9,0-5.2-2.3-5.2-5.2c0-0.7,0.2-1.5,0.5-2.1c-0.6-0.9-0.9-1.9-0.9-2.9c0-2.9,2.3-5.2,5.2-5.2
				c0.3,0,0.7,0,1,0.1C740.3,186,741.3,185.7,742.4,185.6L742.4,185.6z"/>
			<path id="path115416-7-2-8-85-3-4-0-3-8-7-2-7-5-9-5" class="st6" d="M744.8,188.4c1,0,1.9,0.3,2.8,0.8c0,0,0,0,0.1,0
				c2.8,0,5.1,2.2,5.2,4.9v0.3c0,0.7-0.2,1.5-0.5,2.1c0.6,0.9,0.9,1.9,0.9,2.9c0,0.1,0,0.2,0,0.3c-0.1,2.8-2.4,5-5.2,5
				c-0.3,0-0.5,0-0.8-0.1c-0.8,0.6-1.8,0.9-2.8,0.9s-1.9-0.3-2.8-0.8h-0.3c-2.9,0-5.2-2.3-5.2-5.2c0-0.7,0.2-1.5,0.5-2.1
				c-0.6-0.9-0.9-1.9-0.9-2.9c0-2.9,2.3-5.2,5.2-5.2c0.3,0,0.7,0,1,0.1C742.7,188.7,743.8,188.4,744.8,188.4L744.8,188.4z"/>
			<path id="path115416-7-2-8-85-6-9-9-4-53-1-24-9-5" class="st2" d="M564.3,207.6c0.9,0,1.8,0.3,2.6,0.7h0.1
				c2.6,0,4.8,2.1,4.9,4.7v0.2c0,0.7-0.2,1.4-0.4,2c0.5,0.8,0.8,1.8,0.8,2.7v0.3c-0.1,2.7-2.5,4.8-5.2,4.7c-0.2,0-0.3,0-0.5-0.1
				c-1.6,1-3.7,1-5.3,0H561c-2.7,0-4.9-2.2-4.9-4.9c0-0.7,0.2-1.4,0.4-2c-0.5-0.8-0.8-1.8-0.8-2.7c0-2.7,2.2-4.9,4.9-4.9
				c0.3,0,0.7,0,1,0.1C562.4,207.8,563.4,207.5,564.3,207.6L564.3,207.6z"/>
			<path id="path115416-7-2-8-85-3-4-0-3-8-7-2-7-2-6" class="st3" d="M565.5,209.1c0.9,0,1.8,0.3,2.6,0.7h0.1
				c2.6,0,4.8,2.1,4.9,4.7c0,0.1,0,0.2,0,0.2c0,0.7-0.1,1.4-0.4,2c0.5,0.8,0.8,1.8,0.8,2.7c0,0.1,0,0.2,0,0.3
				c-0.1,2.6-2.3,4.7-4.9,4.7c-0.3,0-0.5,0-0.8-0.1c-1.6,1-3.7,1.1-5.3,0.1h-0.3c-2.7,0-4.9-2.2-4.9-4.9c0-0.7,0.2-1.4,0.4-2
				c-1.5-2.3-0.9-5.3,1.3-6.8c0.8-0.5,1.8-0.8,2.8-0.8c0.3,0,0.7,0,1,0.1C563.6,209.4,564.6,209.1,565.5,209.1L565.5,209.1z"/>
			<path id="path115416-7-2-8-85-6-9-9-4-53-1-24-96-5" class="st2" d="M614.9,210.9c0.9,0,1.8,0.3,2.6,0.7h0.1c2.6,0,4.8,2,4.9,4.7
				v0.3c0,0.7-0.2,1.4-0.4,2c0.5,0.8,0.8,1.8,0.8,2.7v0.2c-0.1,2.6-2.3,4.7-4.9,4.7c-0.3,0-0.5,0-0.8-0.1c-0.8,0.5-1.7,0.8-2.7,0.8
				c-0.9,0-1.8-0.3-2.6-0.8h-0.3c-2.7,0-4.9-2.2-4.9-4.9c0-0.7,0.2-1.4,0.4-2c-0.5-0.8-0.8-1.8-0.8-2.7c0-2.7,2.2-4.9,4.9-4.9l0,0
				c0.3,0,0.7,0,1,0.1C613,211.2,613.9,210.9,614.9,210.9L614.9,210.9z"/>
			<path id="path115416-7-2-8-85-3-4-0-3-8-7-2-7-23-5" class="st7" d="M616.1,212.4c0.9,0,1.8,0.3,2.6,0.7h0.1
				c2.6,0,4.8,2.1,4.9,4.7c0,0.1,0,0.2,0,0.2c0,0.7-0.1,1.4-0.4,2c0.5,0.8,0.8,1.8,0.8,2.7c0,0.1,0,0.2,0,0.3
				c-0.1,2.6-2.3,4.7-4.9,4.7c-0.3,0-0.5,0-0.8-0.1c-1.6,1-3.7,1-5.3,0h-0.3c-2.7,0-4.9-2.2-4.9-4.9c0-0.7,0.2-1.4,0.4-2
				c-1.5-2.3-0.9-5.3,1.3-6.8c0.8-0.5,1.8-0.8,2.8-0.8c0.3,0,0.7,0,1,0.1C614.2,212.7,615.2,212.4,616.1,212.4L616.1,212.4z"/>
			<path id="path115416-7-2-8-85-6-9-9-4-53-1-24-96-1-5" class="st8" d="M722.6,204.8c0.9,0,1.8,0.2,2.6,0.5h0.1
				c2.7,0,4.8,1.3,5,2.9c0,0.1,0,0.1,0,0.2c0,0.5-0.2,0.9-0.4,1.2c0.5,0.4,0.8,1.1,0.8,1.7v0.2c-0.1,1.6-2.3,2.9-5,2.9
				c-0.3,0-0.5,0-0.8,0c-1.7,0.7-3.6,0.7-5.4,0h-0.3c-2.8,0-5-1.4-5-3.1c0-0.5,0.2-0.9,0.4-1.3c-0.5-0.4-0.8-1-0.8-1.7
				c0-1.7,2.2-3.1,5-3.1c0.3,0,0.7,0,1,0C720.8,204.9,721.7,204.7,722.6,204.8L722.6,204.8z"/>
			<path id="path115416-7-2-8-85-3-4-0-3-8-7-2-7-23-8-5-5" class="st7" d="M723.9,205.7c0.9,0,1.8,0.2,2.6,0.5h0.1
				c2.7,0,4.8,1.3,5,2.9c0,0.1,0,0.1,0,0.2c0,0.5-0.2,0.9-0.4,1.3c0.5,0.4,0.8,1,0.8,1.7v0.2c-0.1,1.6-2.3,2.9-5,2.9
				c-0.3,0-0.5,0-0.8,0c-0.9,0.3-1.8,0.5-2.7,0.5s-1.8-0.2-2.6-0.5h-0.3c-2.7,0-5-1.4-5-3.1c0-0.5,0.2-0.9,0.4-1.3
				c-0.5-0.4-0.8-1-0.8-1.7c0-1.7,2.2-3.1,5-3.1c0.3,0,0.7,0,1,0.1C722,205.9,722.9,205.8,723.9,205.7L723.9,205.7z"/>
			<path id="path115416-7-2-8-85-6-9-9-4-53-1-24-96-1-4-6" class="st8" d="M597.2,185c0.9,0,1.8,0.2,2.6,0.5h0.1
				c2.7,0,4.8,1.3,5,2.9v0.2c0,0.5-0.2,0.9-0.4,1.3c0.5,0.4,0.8,1.1,0.8,1.7c0,0.1,0,0.1,0,0.2c-0.1,1.6-2.3,2.9-5,2.9
				c-0.3,0-0.5,0-0.8,0c-0.9,0.3-1.8,0.5-2.7,0.5s-1.8-0.2-2.7-0.5h-0.3c-2.8,0-5-1.4-5-3.1c0-0.5,0.2-0.9,0.4-1.3
				c-0.5-0.4-0.8-1-0.8-1.7c0-1.7,2.2-3.1,5-3.1c0.3,0,0.7,0,1,0.1C595.4,185.2,596.3,185,597.2,185L597.2,185z"/>
			<path id="path115416-7-2-8-85-3-4-0-3-8-7-2-7-23-8-5-6" class="st7" d="M598.5,186c0.9,0,1.8,0.1,2.6,0.5h0.1
				c2.7,0,4.8,1.3,5,2.9c0,0.1,0,0.1,0,0.2c0,0.5-0.2,0.9-0.4,1.2c0.5,0.4,0.8,1.1,0.8,1.7v0.2c-0.1,1.6-2.3,2.9-5,2.9
				c-0.3,0-0.5,0-0.8,0c-0.9,0.3-1.8,0.5-2.7,0.5s-1.8-0.2-2.6-0.5h-0.3c-2.7,0-5-1.4-5-3.1c0-0.5,0.2-0.9,0.4-1.3
				c-0.5-0.4-0.8-1-0.8-1.7c0-1.7,2.2-3.1,5-3.1c0.3,0,0.7,0,1,0.1C596.6,186.2,597.5,186,598.5,186L598.5,186z"/>
			<path id="path115416-7-2-8-85-6-9-9-4-53-1-24-96-1-4-2-6" class="st9" d="M679.1,195.8c1.4,0,2.7,0.2,4,0.7h0.1
				c4.1,0,7.5,2,7.7,4.5c0,0.1,0,0.2,0,0.2c0,0.7-0.2,1.4-0.7,1.9c0.8,0.7,1.3,1.6,1.3,2.6v0.2c-0.2,2.5-3.6,4.5-7.7,4.5
				c-0.4,0-0.8,0-1.2-0.1c-1.3,0.5-2.8,0.8-4.2,0.8s-2.8-0.2-4.1-0.7h-0.5c-4.2,0-7.7-2.1-7.7-4.8c0-0.7,0.3-1.4,0.7-1.9
				c-0.8-0.7-1.3-1.6-1.3-2.6c0-2.6,3.4-4.8,7.7-4.8c0.5,0,1,0,1.5,0.1C676.1,196.1,677.6,195.8,679.1,195.8L679.1,195.8z"/>
			<path id="path115416-7-2-8-85-3-4-0-3-8-7-2-7-23-8-5-8-5" class="st7" d="M681,197.3c1.4,0,2.7,0.2,4,0.7h0.1
				c4.1,0,7.5,2,7.7,4.5c0,0.1,0,0.2,0,0.2c0,0.7-0.2,1.4-0.7,1.9c0.8,0.7,1.3,1.6,1.3,2.6v0.2c-0.2,2.5-3.6,4.5-7.7,4.5
				c-0.4,0-0.8,0-1.2,0c-2.7,1-5.6,1-8.2,0h-0.5c-4.2,0-7.7-2.1-7.7-4.8c0-0.7,0.3-1.4,0.7-1.9c-0.8-0.7-1.3-1.6-1.3-2.6
				c0-2.6,3.4-4.8,7.7-4.8c0.5,0,1,0,1.5,0.1C678.1,197.6,679.5,197.3,681,197.3L681,197.3z"/>
		</g>
	</g>
</g>
</svg>
