<svg xmlns="http://www.w3.org/2000/svg" xmlns:xlink="http://www.w3.org/1999/xlink" viewBox="0 0 732.02 235.06"><defs><style>.cls-1{fill:#734d1e;stroke:#010101;stroke-width:1.85px;}.cls-2{fill:url(#linear-gradient);}.cls-3{fill:#3a2b13;}.cls-4{fill:url(#linear-gradient-2);}.cls-5{fill:url(#linear-gradient-3);}.cls-6{fill:url(#linear-gradient-4);}.cls-7{fill:url(#linear-gradient-5);}</style><linearGradient id="linear-gradient" x1="801" y1="83.76" x2="801" y2="156.07" gradientTransform="matrix(1, 0, 0, -1, -184.72, 169.28)" gradientUnits="userSpaceOnUse"><stop offset="0" stop-color="#010101"/><stop offset="1" stop-color="#4a3313"/></linearGradient><linearGradient id="linear-gradient-2" x1="551.75" y1="17.09" x2="551.75" y2="89.4" xlink:href="#linear-gradient"/><linearGradient id="linear-gradient-3" x1="278.92" y1="-64.53" x2="278.92" y2="7.78" xlink:href="#linear-gradient"/><linearGradient id="linear-gradient-4" x1="822.55" y1="-60.45" x2="822.55" y2="11.86" xlink:href="#linear-gradient"/><linearGradient id="linear-gradient-5" x1="303.29" y1="90.26" x2="303.29" y2="162.58" xlink:href="#linear-gradient"/></defs><g id="Layer_2" data-name="Layer 2"><g id="Burrow_Backs" data-name="Burrow Backs"><g id="Burrow_Back" data-name="Burrow Back"><path id="path115416-7-2-8-85-6-9-9-4-53-1-24-84" class="cls-1" d="M583.5,26.7A8.47,8.47,0,0,1,588,28h.12a8.55,8.55,0,0,1,8.54,8.1v.44A8.54,8.54,0,0,1,595.9,40a8.5,8.5,0,0,1,1.44,4.74c0,.15,0,.3,0,.45a8.54,8.54,0,0,1-8.54,8.09,8.2,8.2,0,0,1-1.32-.1,8.56,8.56,0,0,1-9.21.09h-.51a8.55,8.55,0,0,1-8.55-8.54,8.46,8.46,0,0,1,.76-3.48,8.35,8.35,0,0,1-1.45-4.73,8.53,8.53,0,0,1,10.23-8.37,8.43,8.43,0,0,1,4.75-1.45Z"/><path id="path174-2-7-7" class="cls-2" d="M657.2,6.5a9.65,9.65,0,0,0-5.77,1.85,9.82,9.82,0,0,0-4.26-.94c-5,0-9,3.58-9,8a7.26,7.26,0,0,0,.45,2.47,8.77,8.77,0,0,0-1,1.17,12.75,12.75,0,0,0-8.15-2.78c-4.79,0-8.88,2.37-10.51,5.71a8.63,8.63,0,0,0-3.73-.88,9,9,0,0,0-5.78,2.17,8.78,8.78,0,0,0-5.16-1.72,9.28,9.28,0,0,0-7.23,3.67,13.68,13.68,0,0,0-3.36-.39,13.06,13.06,0,0,0-7.46,2.23,12.94,12.94,0,0,0-10.42-5C569,22.09,563.38,27,563.38,33a9.76,9.76,0,0,0,.9,4.06,12.55,12.55,0,0,1-1.84-.53,12,12,0,0,1-10.72,7h-.55c-1,6.17-6.81,10.9-13.83,10.9A15.15,15.15,0,0,1,534,54a10,10,0,0,1-5.57,4.3,11.85,11.85,0,0,1-6.37,3.63,8.61,8.61,0,0,0,3.34.7,8.77,8.77,0,0,0,4.88-1.52A6,6,0,0,0,535.89,66c3.21,0,5.82-3.06,5.82-6.83a8,8,0,0,0-.33-2.25A9.72,9.72,0,0,0,547.09,53a8.79,8.79,0,0,0,1.73.65c.11.19.23.37.36.56a4.61,4.61,0,0,0-.53,0c-3.21,0-5.8,3-5.8,6.8s2.59,6.82,5.8,6.82a5.57,5.57,0,0,0,4.57-2.58c2.39,4.31,8.75,7.46,16.39,7.8a5.75,5.75,0,0,0,5.06,3.44,5.58,5.58,0,0,0,4.69-2.82,14.67,14.67,0,0,0,1.88,1.68c.45,3.24,2.85,5.69,5.74,5.69a5.38,5.38,0,0,0,4-1.92l.16,0a5.9,5.9,0,0,0,5.37,4.2,5.08,5.08,0,0,0,2-.41,25.22,25.22,0,0,0,14,3.85c7.35,0,13.7-2.61,16.79-6.41.43,0,.86,0,1.27-.09a9.62,9.62,0,0,0,3.81.8A9.07,9.07,0,0,0,642.74,76c.23-.17.43-.35.64-.53a9.42,9.42,0,0,0,1.51.14,9.91,9.91,0,0,0,2.26-.26,5.73,5.73,0,0,0,5.06,3.42,5.84,5.84,0,0,0,5.28-4,9.78,9.78,0,0,0,6.23-1,5.36,5.36,0,0,0,4,1.82,5.92,5.92,0,0,0,5.43-4.34c.24,0,.47,0,.72,0a7.65,7.65,0,0,0,1.8-.22,5.24,5.24,0,0,0,3.46,1.33,5.87,5.87,0,0,0,5.35-4.12,9.66,9.66,0,0,0,4.69,1.19,9.14,9.14,0,0,0,8-4.47,9.88,9.88,0,0,0,3.38.6c5,0,9-3.69,9-8.22a7.31,7.31,0,0,0-.17-1.56,7.52,7.52,0,0,0,1.09-3.91,7.94,7.94,0,0,0-3.53-6.49,7.45,7.45,0,0,0,.33-2.17c0-4.54-4-8.22-9-8.22a10.87,10.87,0,0,0-1.29.1,7.23,7.23,0,0,0,.26-1.92c0-4.41-4-8-9-8l-.41,0a5.73,5.73,0,0,0-5.06-3.4,5.06,5.06,0,0,0-2.36.59c-2.23-3.82-7.62-6.71-14.21-7.48,0-.14,0-.3,0-.45,0-4.4-4-8-9-8Zm22.7,29.75a8.13,8.13,0,0,0,1.33,2c-.5-.07-1-.13-1.51-.17a7.15,7.15,0,0,0,.18-1.68v-.12ZM660,37.85c.67.06,1.36.09,2,.1a7.23,7.23,0,0,0,.37,1.11,22.14,22.14,0,0,0-2.48-1l.06-.2Z"/><path id="path115416-7-2-8-85-3-4-0-3-8-7-2-7-7" class="cls-3" d="M585.66,29.42a8.47,8.47,0,0,1,4.49,1.29h.11a8.54,8.54,0,0,1,8.54,8.1c0,.14,0,.29,0,.44a8.53,8.53,0,0,1-.74,3.47,8.47,8.47,0,0,1,1.44,4.74v.44A8.54,8.54,0,0,1,591,56a8.42,8.42,0,0,1-1.33-.1A8.46,8.46,0,0,1,585,57.29a8.6,8.6,0,0,1-4.55-1.3h-.5a8.52,8.52,0,0,1-7.8-12,8.42,8.42,0,0,1-1.45-4.73,8.55,8.55,0,0,1,8.56-8.54,9.18,9.18,0,0,1,1.67.16,8.54,8.54,0,0,1,4.76-1.45Z"/></g><g id="Burrow_Back-2" data-name="Burrow Back"><path id="path115416-7-2-8-85-6-9-9-4-53-1-24-84-2" data-name="path115416-7-2-8-85-6-9-9-4-53-1-24-84" class="cls-1" d="M334.25,93.37a8.56,8.56,0,0,1,4.49,1.28h.12a8.55,8.55,0,0,1,8.54,8.1v.44a8.54,8.54,0,0,1-.75,3.47,8.5,8.5,0,0,1,1.44,4.75c0,.14,0,.29,0,.44a8.55,8.55,0,0,1-8.54,8.1,8.2,8.2,0,0,1-1.32-.11,8.56,8.56,0,0,1-9.21.09l-.51,0a8.51,8.51,0,0,1-7.79-12,8.42,8.42,0,0,1-1.45-4.73,8.53,8.53,0,0,1,10.23-8.37,8.43,8.43,0,0,1,4.75-1.45Z"/><path id="path174-2-7-7-2" data-name="path174-2-7-7" class="cls-4" d="M408,73.18A9.65,9.65,0,0,0,402.18,75a10,10,0,0,0-4.26-.94c-5,0-9,3.58-9,8a7.36,7.36,0,0,0,.45,2.48,8.82,8.82,0,0,0-1,1.16,12.75,12.75,0,0,0-8.15-2.78c-4.79,0-8.88,2.37-10.51,5.71a8.63,8.63,0,0,0-3.73-.88,9,9,0,0,0-5.78,2.17,8.78,8.78,0,0,0-5.16-1.72,9.28,9.28,0,0,0-7.23,3.67,14.12,14.12,0,0,0-3.36-.39A13.06,13.06,0,0,0,337,93.72a12.92,12.92,0,0,0-10.42-5c-6.87,0-12.46,4.86-12.46,10.87a9.76,9.76,0,0,0,.9,4.06,11.73,11.73,0,0,1-1.84-.53,12,12,0,0,1-10.72,7c-.18,0-.36,0-.55,0-1,6.17-6.81,10.9-13.83,10.9a15,15,0,0,1-3.31-.39,10,10,0,0,1-5.58,4.3,11.78,11.78,0,0,1-6.37,3.63,8.48,8.48,0,0,0,8.22-.82,6,6,0,0,0,5.59,4.92c3.21,0,5.82-3.06,5.82-6.82a8,8,0,0,0-.33-2.26,9.72,9.72,0,0,0,5.71-3.91,9.5,9.5,0,0,0,1.73.66c.11.18.23.36.36.55a4.61,4.61,0,0,0-.53,0c-3.21,0-5.8,3-5.8,6.8s2.59,6.82,5.8,6.82a5.57,5.57,0,0,0,4.57-2.58c2.39,4.31,8.75,7.46,16.39,7.8a5.76,5.76,0,0,0,5.06,3.45,5.57,5.57,0,0,0,4.69-2.83A14.67,14.67,0,0,0,332,142c.46,3.24,2.85,5.69,5.74,5.69a5.38,5.38,0,0,0,4-1.92l.16,0a5.9,5.9,0,0,0,5.37,4.2,5.08,5.08,0,0,0,2-.41,25.22,25.22,0,0,0,14,3.85c7.35,0,13.7-2.61,16.79-6.41l1.27-.08a9.79,9.79,0,0,0,3.81.79,9.07,9.07,0,0,0,8.34-5.08c.23-.17.43-.35.64-.53a9.42,9.42,0,0,0,1.51.14,9.91,9.91,0,0,0,2.26-.26,5.73,5.73,0,0,0,5.06,3.42,5.85,5.85,0,0,0,5.28-4,11.16,11.16,0,0,0,1.54.12,9.85,9.85,0,0,0,4.69-1.17,5.36,5.36,0,0,0,4,1.82,5.92,5.92,0,0,0,5.43-4.34,5.79,5.79,0,0,0,.72,0,7.16,7.16,0,0,0,1.8-.22,5.24,5.24,0,0,0,3.46,1.33,5.87,5.87,0,0,0,5.35-4.12,9.66,9.66,0,0,0,4.69,1.19,9.14,9.14,0,0,0,8-4.47,9.69,9.69,0,0,0,3.38.6c5,0,9-3.68,9-8.22a7.22,7.22,0,0,0-.17-1.55,7.58,7.58,0,0,0,1.09-3.92,8,8,0,0,0-3.53-6.49,7.45,7.45,0,0,0,.33-2.17c0-4.54-4-8.22-9-8.22a9.1,9.1,0,0,0-1.29.11,7.25,7.25,0,0,0,.26-1.93c0-4.41-4-8-9-8l-.41,0a5.73,5.73,0,0,0-5.06-3.4,5.11,5.11,0,0,0-2.35.59c-2.24-3.82-7.63-6.71-14.22-7.47,0-.15,0-.3,0-.45,0-4.41-4-8-9-8Zm22.69,29.74a7.94,7.94,0,0,0,1.33,2c-.5-.07-1-.12-1.51-.17a7.09,7.09,0,0,0,.18-1.68v-.12Zm-19.89,1.6c.67.06,1.36.09,2.05.1a7.23,7.23,0,0,0,.37,1.11,22.14,22.14,0,0,0-2.48-1l.06-.2Z"/><path id="path115416-7-2-8-85-3-4-0-3-8-7-2-7-7-2" data-name="path115416-7-2-8-85-3-4-0-3-8-7-2-7-7" class="cls-3" d="M336.41,96.09a8.47,8.47,0,0,1,4.49,1.29H341a8.55,8.55,0,0,1,8.54,8.1c0,.15,0,.29,0,.44a8.53,8.53,0,0,1-.74,3.47,8.47,8.47,0,0,1,1.44,4.74c0,.15,0,.3,0,.44a8.54,8.54,0,0,1-8.54,8.1,8.42,8.42,0,0,1-1.33-.1,8.56,8.56,0,0,1-9.21.09h-.5a8.52,8.52,0,0,1-7.8-12,8.42,8.42,0,0,1-1.45-4.73A8.55,8.55,0,0,1,330,97.38a8.37,8.37,0,0,1,1.67.17,8.5,8.5,0,0,1,4.76-1.46Z"/></g><g id="Burrow_Back-3" data-name="Burrow Back"><path id="path115416-7-2-8-85-6-9-9-4-53-1-24-84-3" data-name="path115416-7-2-8-85-6-9-9-4-53-1-24-84" class="cls-1" d="M61.42,175a8.47,8.47,0,0,1,4.49,1.29H66a8.55,8.55,0,0,1,8.54,8.1v.44a8.54,8.54,0,0,1-.75,3.47A8.47,8.47,0,0,1,75.26,193c0,.15,0,.3,0,.44a8.54,8.54,0,0,1-8.54,8.1,8.42,8.42,0,0,1-1.33-.1,8.54,8.54,0,0,1-9.2.09h-.51A8.54,8.54,0,0,1,47.13,193a8.43,8.43,0,0,1,.76-3.48,8.35,8.35,0,0,1-1.45-4.73A8.54,8.54,0,0,1,55,176.27a9.38,9.38,0,0,1,1.68.16A8.51,8.51,0,0,1,61.42,175Z"/><path id="path174-2-7-7-3" data-name="path174-2-7-7" class="cls-5" d="M135.12,154.79a9.65,9.65,0,0,0-5.77,1.85,9.83,9.83,0,0,0-4.26-.95c-5,0-9,3.59-9,8a7.32,7.32,0,0,0,.45,2.48,8.18,8.18,0,0,0-1,1.17,12.76,12.76,0,0,0-8.15-2.79c-4.79,0-8.88,2.38-10.51,5.72a8.63,8.63,0,0,0-3.73-.88,9,9,0,0,0-5.78,2.17,8.81,8.81,0,0,0-5.16-1.72A9.28,9.28,0,0,0,75,173.5a13.68,13.68,0,0,0-3.36-.39,13.06,13.06,0,0,0-7.46,2.23,12.92,12.92,0,0,0-10.43-5c-6.87,0-12.45,4.87-12.45,10.88a9.83,9.83,0,0,0,.9,4.06,11.45,11.45,0,0,1-1.84-.54,12,12,0,0,1-10.72,7h-.55c-1,6.17-6.82,10.9-13.83,10.9a15.15,15.15,0,0,1-3.32-.39,10,10,0,0,1-5.57,4.3A11.85,11.85,0,0,1,0,210.19a8.75,8.75,0,0,0,3.34.69,8.71,8.71,0,0,0,4.87-1.51,6,6,0,0,0,5.6,4.91c3.21,0,5.82-3.05,5.82-6.82a7.84,7.84,0,0,0-.33-2.25A9.76,9.76,0,0,0,25,201.3a8.94,8.94,0,0,0,1.72.65c.12.19.24.37.37.55l-.53,0c-3.21,0-5.8,3-5.8,6.81s2.59,6.82,5.8,6.82a5.57,5.57,0,0,0,4.57-2.58c2.39,4.3,8.75,7.45,16.39,7.8a5.75,5.75,0,0,0,5.06,3.44A5.6,5.6,0,0,0,57.28,222a13.89,13.89,0,0,0,1.88,1.67c.45,3.24,2.85,5.7,5.74,5.7a5.35,5.35,0,0,0,4-1.93l.17,0a5.87,5.87,0,0,0,5.37,4.2,4.94,4.94,0,0,0,2-.41,25.13,25.13,0,0,0,14,3.86c7.36,0,13.71-2.61,16.8-6.42.42,0,.86,0,1.27-.08a9.62,9.62,0,0,0,3.81.8,9.07,9.07,0,0,0,8.34-5.08c.23-.17.43-.35.64-.53a10.59,10.59,0,0,0,1.51.14,9.91,9.91,0,0,0,2.26-.27,5.73,5.73,0,0,0,5.06,3.43,5.84,5.84,0,0,0,5.28-4,9.7,9.7,0,0,0,1.54.12,9.84,9.84,0,0,0,4.69-1.16,5.34,5.34,0,0,0,4,1.82,5.92,5.92,0,0,0,5.43-4.34c.24,0,.47,0,.72,0a7.22,7.22,0,0,0,1.8-.23,5.19,5.19,0,0,0,3.46,1.33,5.86,5.86,0,0,0,5.35-4.11,9.61,9.61,0,0,0,4.69,1.19,9.14,9.14,0,0,0,8-4.47,9.88,9.88,0,0,0,3.38.59c5,0,9-3.68,9-8.21a7.31,7.31,0,0,0-.16-1.56,7.61,7.61,0,0,0,1.09-3.91,7.94,7.94,0,0,0-3.53-6.49,7.57,7.57,0,0,0,.33-2.18c0-4.53-4-8.21-9-8.21a10.87,10.87,0,0,0-1.29.1,7.23,7.23,0,0,0,.26-1.92c0-4.41-4-8-9-8l-.41,0a5.75,5.75,0,0,0-5.06-3.4,5.06,5.06,0,0,0-2.36.59c-2.23-3.82-7.62-6.71-14.21-7.48,0-.14,0-.3,0-.45,0-4.41-4-8-9-8Zm22.7,29.75a8.07,8.07,0,0,0,1.33,2c-.5-.06-1-.12-1.51-.16a7.15,7.15,0,0,0,.18-1.68v-.12Zm-19.89,1.6c.67.05,1.36.08,2,.1a6.77,6.77,0,0,0,.37,1.1,24.19,24.19,0,0,0-2.48-1l.06-.2Z"/><path id="path115416-7-2-8-85-3-4-0-3-8-7-2-7-7-3" data-name="path115416-7-2-8-85-3-4-0-3-8-7-2-7-7" class="cls-3" d="M63.58,177.71A8.5,8.5,0,0,1,68.07,179h.11a8.54,8.54,0,0,1,8.54,8.1c0,.14,0,.29,0,.44A8.57,8.57,0,0,1,76,191a8.45,8.45,0,0,1,1.44,4.74v.44a8.55,8.55,0,0,1-8.54,8.1,8.24,8.24,0,0,1-1.33-.1,8.56,8.56,0,0,1-9.21.09h-.5a8.54,8.54,0,0,1-8.55-8.54,8.42,8.42,0,0,1,.75-3.48,8.45,8.45,0,0,1-1.45-4.73A8.55,8.55,0,0,1,57.14,179a8.4,8.4,0,0,1,1.68.16,8.52,8.52,0,0,1,4.76-1.45Z"/></g><g id="Burrow_Back-4" data-name="Burrow Back"><path id="path115416-7-2-8-85-6-9-9-4-53-1-24-84-4" data-name="path115416-7-2-8-85-6-9-9-4-53-1-24-84" class="cls-1" d="M605.06,170.91a8.47,8.47,0,0,1,4.49,1.28h.11a8.55,8.55,0,0,1,8.54,8.1c0,.15,0,.29,0,.44a8.53,8.53,0,0,1-.74,3.47,8.47,8.47,0,0,1,1.44,4.74c0,.15,0,.3,0,.45a8.54,8.54,0,0,1-8.54,8.09,8.58,8.58,0,0,0-6,1.29,8.51,8.51,0,0,1-4.55-1.3h-.5a8.52,8.52,0,0,1-7.8-12,8.42,8.42,0,0,1-1.45-4.73,8.55,8.55,0,0,1,8.56-8.54,8.37,8.37,0,0,1,1.67.17,8.49,8.49,0,0,1,4.76-1.45Z"/><path id="path174-2-7-7-4" data-name="path174-2-7-7" class="cls-6" d="M678.76,150.71a9.7,9.7,0,0,0-5.78,1.85,9.76,9.76,0,0,0-4.26-.94c-5,0-9,3.58-9,8a7,7,0,0,0,.45,2.47,8.77,8.77,0,0,0-1,1.17,12.78,12.78,0,0,0-8.16-2.78c-4.78,0-8.87,2.37-10.5,5.71a8.63,8.63,0,0,0-3.73-.88,9,9,0,0,0-5.78,2.17,8.83,8.83,0,0,0-5.16-1.72,9.27,9.27,0,0,0-7.23,3.67,13.68,13.68,0,0,0-3.36-.39,13,13,0,0,0-7.46,2.23,12.94,12.94,0,0,0-10.43-5c-6.87,0-12.45,4.87-12.45,10.88a9.6,9.6,0,0,0,.9,4.06,12.2,12.2,0,0,1-1.84-.53,12,12,0,0,1-10.72,7c-.19,0-.37,0-.55,0-1,6.17-6.82,10.9-13.83,10.9a15.08,15.08,0,0,1-3.32-.39,10,10,0,0,1-5.57,4.3,11.85,11.85,0,0,1-6.37,3.63,8.57,8.57,0,0,0,3.34.69,8.71,8.71,0,0,0,4.87-1.51,6,6,0,0,0,5.6,4.92c3.21,0,5.81-3.06,5.81-6.83a7.89,7.89,0,0,0-.32-2.25,9.76,9.76,0,0,0,5.71-3.91,8.94,8.94,0,0,0,1.72.65l.37.56a4.61,4.61,0,0,0-.53,0c-3.21,0-5.8,3-5.8,6.8S567,212,570.21,212a5.59,5.59,0,0,0,4.57-2.58c2.39,4.3,8.75,7.46,16.39,7.8a5.74,5.74,0,0,0,5.05,3.44,5.6,5.6,0,0,0,4.7-2.82,14.67,14.67,0,0,0,1.88,1.68c.45,3.24,2.85,5.69,5.74,5.69a5.34,5.34,0,0,0,4-1.92l.17,0a5.88,5.88,0,0,0,5.36,4.2,5.13,5.13,0,0,0,2-.41,25.16,25.16,0,0,0,14,3.85c7.36,0,13.71-2.61,16.8-6.41.42,0,.86,0,1.27-.09a9.58,9.58,0,0,0,3.81.8,9.07,9.07,0,0,0,8.34-5.08c.22-.17.42-.35.63-.53a9.54,9.54,0,0,0,1.52.14,9.76,9.76,0,0,0,2.25-.26,5.74,5.74,0,0,0,5.06,3.42,5.85,5.85,0,0,0,5.29-4,9.7,9.7,0,0,0,1.54.13,9.88,9.88,0,0,0,4.69-1.17,5.34,5.34,0,0,0,4,1.82,5.93,5.93,0,0,0,5.43-4.34c.24,0,.47,0,.72,0a7.22,7.22,0,0,0,1.8-.23,5.2,5.2,0,0,0,3.46,1.34,5.87,5.87,0,0,0,5.35-4.12,9.61,9.61,0,0,0,4.69,1.19,9.14,9.14,0,0,0,8-4.47,9.88,9.88,0,0,0,3.38.59c5,0,9-3.68,9-8.21a7.31,7.31,0,0,0-.16-1.56,7.61,7.61,0,0,0,1.08-3.91,7.93,7.93,0,0,0-3.52-6.49,7.45,7.45,0,0,0,.33-2.17c0-4.54-4-8.22-9-8.22a11,11,0,0,0-1.3.1,6.85,6.85,0,0,0,.27-1.92c0-4.41-4-8-9-8l-.41,0a5.75,5.75,0,0,0-5.06-3.4,5,5,0,0,0-2.36.59c-2.23-3.82-7.62-6.71-14.22-7.48,0-.14,0-.3,0-.45,0-4.4-4-8-9-8Zm22.7,29.75a8.13,8.13,0,0,0,1.33,2c-.5-.07-1-.13-1.51-.17a7.15,7.15,0,0,0,.18-1.68v-.12Zm-19.89,1.6c.67.06,1.36.09,2,.1a6.29,6.29,0,0,0,.37,1.11,22.14,22.14,0,0,0-2.48-1l.06-.2Z"/><path id="path115416-7-2-8-85-3-4-0-3-8-7-2-7-7-4" data-name="path115416-7-2-8-85-3-4-0-3-8-7-2-7-7" class="cls-3" d="M607.22,173.63a8.53,8.53,0,0,1,4.49,1.29h.11a8.54,8.54,0,0,1,8.54,8.1c0,.14,0,.29,0,.44a8.53,8.53,0,0,1-.74,3.47,8.46,8.46,0,0,1,1.43,4.74c0,.15,0,.3,0,.44a8.54,8.54,0,0,1-8.54,8.1,8.2,8.2,0,0,1-1.32-.1,8.56,8.56,0,0,1-9.21.09h-.5a8.55,8.55,0,0,1-8.56-8.54,8.43,8.43,0,0,1,.76-3.48,8.45,8.45,0,0,1-1.45-4.73,8.55,8.55,0,0,1,8.55-8.54,9.2,9.2,0,0,1,1.68.16,8.52,8.52,0,0,1,4.76-1.45Z"/></g><g id="Burrow_Back-5" data-name="Burrow Back"><path id="path115416-7-2-8-85-6-9-9-4-53-1-24-84-5" data-name="path115416-7-2-8-85-6-9-9-4-53-1-24-84" class="cls-1" d="M85.8,20.19a8.5,8.5,0,0,1,4.49,1.29h.11a8.54,8.54,0,0,1,8.54,8.1c0,.14,0,.29,0,.44a8.57,8.57,0,0,1-.74,3.47,8.45,8.45,0,0,1,1.44,4.74v.44a8.55,8.55,0,0,1-8.54,8.1,8.24,8.24,0,0,1-1.33-.1,8.56,8.56,0,0,1-9.21.09h-.5a8.54,8.54,0,0,1-8.55-8.54,8.42,8.42,0,0,1,.75-3.48A8.45,8.45,0,0,1,70.81,30a8.55,8.55,0,0,1,8.55-8.54,8.4,8.4,0,0,1,1.68.16,8.52,8.52,0,0,1,4.76-1.45Z"/><path id="path174-2-7-7-5" data-name="path174-2-7-7" class="cls-7" d="M159.5,0a9.69,9.69,0,0,0-5.78,1.84A10,10,0,0,0,149.46.9c-5,0-9,3.58-9,8a7.12,7.12,0,0,0,.45,2.48,7.66,7.66,0,0,0-1,1.17,12.78,12.78,0,0,0-8.16-2.79c-4.79,0-8.87,2.38-10.51,5.72a8.55,8.55,0,0,0-3.72-.88,8.91,8.91,0,0,0-5.78,2.17A8.83,8.83,0,0,0,106.61,15a9.32,9.32,0,0,0-7.24,3.66A14,14,0,0,0,96,18.31a13,13,0,0,0-7.46,2.24,12.92,12.92,0,0,0-10.43-5c-6.87,0-12.45,4.87-12.45,10.88a9.59,9.59,0,0,0,.9,4.05A10.59,10.59,0,0,1,64.73,30,12,12,0,0,1,54,37h-.55c-1,6.16-6.82,10.89-13.83,10.89a15.71,15.71,0,0,1-3.32-.38,10,10,0,0,1-5.57,4.3,11.77,11.77,0,0,1-6.37,3.62,8.54,8.54,0,0,0,3.34.7,8.66,8.66,0,0,0,4.87-1.52,6,6,0,0,0,5.59,4.92c3.22,0,5.82-3.06,5.82-6.82a7.84,7.84,0,0,0-.33-2.25,9.77,9.77,0,0,0,5.72-3.92,9,9,0,0,0,1.72.66,6.61,6.61,0,0,0,.37.55,4.7,4.7,0,0,0-.53,0c-3.22,0-5.8,3-5.8,6.8s2.58,6.82,5.8,6.82a5.55,5.55,0,0,0,4.56-2.58c2.4,4.31,8.75,7.46,16.39,7.81A5.77,5.77,0,0,0,77,70a5.56,5.56,0,0,0,4.69-2.83,13.39,13.39,0,0,0,1.89,1.68c.45,3.24,2.84,5.7,5.74,5.7a5.37,5.37,0,0,0,4-1.93l.16,0a5.89,5.89,0,0,0,5.37,4.2,5.13,5.13,0,0,0,2-.41,25.16,25.16,0,0,0,14,3.85c7.36,0,13.7-2.61,16.8-6.41l1.27-.08a9.58,9.58,0,0,0,3.81.8A9.07,9.07,0,0,0,145,69.49c.22-.18.42-.35.63-.54a9.55,9.55,0,0,0,1.52.15,9.76,9.76,0,0,0,2.25-.27,5.74,5.74,0,0,0,5.06,3.42,5.84,5.84,0,0,0,5.29-4,9.67,9.67,0,0,0,1.53.12A9.82,9.82,0,0,0,166,67.23a5.34,5.34,0,0,0,4,1.83,5.93,5.93,0,0,0,5.43-4.35,5.65,5.65,0,0,0,.71.05,7.24,7.24,0,0,0,1.81-.23,5.19,5.19,0,0,0,3.46,1.33,5.87,5.87,0,0,0,5.35-4.12,9.61,9.61,0,0,0,4.69,1.19,9.15,9.15,0,0,0,8-4.46,9.84,9.84,0,0,0,3.38.59c5,0,9-3.68,9-8.21a7.31,7.31,0,0,0-.16-1.56,7.63,7.63,0,0,0,1.08-3.91,8,8,0,0,0-3.52-6.5,7.45,7.45,0,0,0,.33-2.17c0-4.53-4-8.21-9-8.21a9.22,9.22,0,0,0-1.29.1,6.87,6.87,0,0,0,.27-1.93c0-4.41-4-8-9-8l-.41,0a5.75,5.75,0,0,0-5.06-3.4,5,5,0,0,0-2.36.6c-2.23-3.83-7.62-6.71-14.22-7.48,0-.15,0-.3,0-.45,0-4.41-4-8-9-8Zm22.7,29.75a7.54,7.54,0,0,0,1.33,2c-.5-.06-1-.12-1.52-.16a6.71,6.71,0,0,0,.19-1.68v-.12Zm-19.89,1.59c.66.06,1.36.09,2.05.11a7.07,7.07,0,0,0,.36,1.1,24,24,0,0,0-2.47-1l.06-.21Z"/><path id="path115416-7-2-8-85-3-4-0-3-8-7-2-7-7-5" data-name="path115416-7-2-8-85-3-4-0-3-8-7-2-7-7" class="cls-3" d="M88,22.92a8.62,8.62,0,0,1,4.5,1.28h.11a8.55,8.55,0,0,1,8.54,8.1c0,.15,0,.3,0,.44a8.38,8.38,0,0,1-.75,3.47A8.5,8.5,0,0,1,101.79,41c0,.14,0,.29,0,.44a8.55,8.55,0,0,1-8.54,8.1,9.53,9.53,0,0,1-1.32-.1,8.56,8.56,0,0,1-4.67,1.38,8.45,8.45,0,0,1-4.54-1.3l-.51,0a8.51,8.51,0,0,1-7.79-12A8.42,8.42,0,0,1,73,32.74a8.55,8.55,0,0,1,8.55-8.54,8.4,8.4,0,0,1,1.68.17A8.43,8.43,0,0,1,88,22.92Z"/></g></g></g></svg>