<?xml version="1.0" encoding="utf-8"?>
<!-- Generator: Adobe Illustrator 25.4.1, SVG Export Plug-In . SVG Version: 6.00 Build 0)  -->
<svg version="1.1" id="Layer_1" xmlns="http://www.w3.org/2000/svg" xmlns:xlink="http://www.w3.org/1999/xlink" x="0px" y="0px"
	 viewBox="0 0 1000 288.2" style="enable-background:new 0 0 1000 288.2;" xml:space="preserve">
<style type="text/css">
	.st0{fill:url(#SVGID_1_);}
	.st1{fill:url(#SVGID_00000041259317079333529690000011856533426724186540_);}
	.st2{fill:url(#SVGID_00000099639344007139784410000009672834329482984865_);}
	.st3{fill:url(#SVGID_00000155839455509730545160000015154661950676116913_);}
	.st4{fill:url(#SVGID_00000104696301853786029540000007488220150355537580_);}
	.st5{fill:url(#SVGID_00000008859852569405497860000015743998017780604342_);}
	.st6{fill:url(#SVGID_00000021838353350954428810000013992430298000103829_);}
	.st7{opacity:0.24;fill:#EDE495;enable-background:new    ;}
	.st8{fill:url(#SVGID_00000039855042357865872620000010179186358054311064_);}
</style>
<g>
	<g id="Layer_2_00000122683130658587048740000005107849243220112311_">
		<g id="Moles">
			<g id="Ground">
				
					<radialGradient id="SVGID_1_" cx="500" cy="590.44" r="883.26" gradientTransform="matrix(1 0 0 -1 0 290)" gradientUnits="userSpaceOnUse">
					<stop  offset="9.000000e-02" style="stop-color:#C5D068"/>
					<stop  offset="0.34" style="stop-color:#A1C563"/>
					<stop  offset="0.47" style="stop-color:#92C161"/>
					<stop  offset="0.96" style="stop-color:#00A462"/>
				</radialGradient>
				<path class="st0" d="M0,57.8c4.8,0,9.7-0.1,14.6-0.2C9.2,55.7,4.2,52.7,0,48.8V57.8z"/>
				
					<radialGradient id="SVGID_00000108303053571691344770000018434268223572818335_" cx="500" cy="590.44" r="883.26" gradientTransform="matrix(1 0 0 -1 0 290)" gradientUnits="userSpaceOnUse">
					<stop  offset="9.000000e-02" style="stop-color:#C5D068"/>
					<stop  offset="0.34" style="stop-color:#A1C563"/>
					<stop  offset="0.47" style="stop-color:#92C161"/>
					<stop  offset="0.96" style="stop-color:#00A462"/>
				</radialGradient>
				<path style="fill:url(#SVGID_00000108303053571691344770000018434268223572818335_);" d="M166.3,267.8
					c-8.9-1.4-14.3-6.6-17.2-14c-1.6-0.3-3.2-0.6-4.8-0.9c-4.7-0.9-9.4-2-14.1-3.3c-3,0-6.1,0-9.1-0.1c-8.5,3.4-18.1,4.5-26.6,1.3
					l-5.4-2c-2.9-0.1-5.8-0.1-8.8-0.1c-18.4,0-33.2-11.4-39.8-27c-13.3-12.8-18.1-31.4-13.8-49.4C30.7,156.7,43.5,144,57,136
					c1.8-1.1,3.7-2.1,5.7-3.1c0.1-0.5,0.2-1,0.3-1.5c-22.8-2.2-43.8-5-62.9-8.3v165.1h282.2c-25.5-1.8-51-4.7-76-10.8
					C192.8,274.1,180,269.9,166.3,267.8z"/>
				
					<radialGradient id="SVGID_00000034047730388579823250000007642055589542278824_" cx="500" cy="590.44" r="883.26" gradientTransform="matrix(1 0 0 -1 0 290)" gradientUnits="userSpaceOnUse">
					<stop  offset="9.000000e-02" style="stop-color:#C5D068"/>
					<stop  offset="0.34" style="stop-color:#A1C563"/>
					<stop  offset="0.47" style="stop-color:#92C161"/>
					<stop  offset="0.96" style="stop-color:#00A462"/>
				</radialGradient>
				<path style="fill:url(#SVGID_00000034047730388579823250000007642055589542278824_);" d="M970.2,72.9c1,9.1-0.7,18.4-5.6,26.1
					c-0.9,1.4-1.7,2.8-2.5,4.3c-1.1,3.5-2,7-2.7,10.6c-0.8,9.4-0.9,18.7-0.9,28.1c0,7.9-2.1,15.1-5.7,21.3c1.1,0.7,2.2,1.4,3.2,2.1
					c15,9.6,29.9,19.7,44,30.6V80.8C990.1,78.1,980.2,75.5,970.2,72.9z"/>
				
					<radialGradient id="SVGID_00000095317301342068184040000007568043913028551296_" cx="500" cy="590.44" r="883.26" gradientTransform="matrix(1 0 0 -1 0 290)" gradientUnits="userSpaceOnUse">
					<stop  offset="9.000000e-02" style="stop-color:#C5D068"/>
					<stop  offset="0.34" style="stop-color:#A1C563"/>
					<stop  offset="0.47" style="stop-color:#92C161"/>
					<stop  offset="0.96" style="stop-color:#00A462"/>
				</radialGradient>
				<path style="fill:url(#SVGID_00000095317301342068184040000007568043913028551296_);" d="M670.8,108.4
					c-4.4,1.6-9.3,3.1-14.8,4.6c-2.3,5.2-5.5,10.1-9.2,13.8c-7.1,7.1-20.3,13.8-30.8,12.7c-17.9-1.8-35.9-2.1-53.9-1.7
					c-1.3,1.8-2.7,3.4-4.3,5c-2.9,2.3-5.9,4.5-8.8,6.8c-9.9,6.4-22.4,6.9-33.5,4.4c-7.6-1.7-15.2-6.8-20.7-12.9
					c-4.1,0.2-8.2,0.5-12.3,0.7c-4.7,1.7-9.8,2.7-14.9,2.8c-19.1,0.1-38,1.3-56.8-1c-3.2,0-6.3-0.1-9.5-0.1c-2,0.9-4,1.7-6.1,2.4
					c-10.3,3.3-23.8,1.1-33.1-4.2c-0.6-0.1-1.3-0.1-1.9-0.2c-9.3-0.8-18.5-1.9-27.7-3.1c-4.9,0-10,0.1-15,0.1
					c-0.8,2.2-1.7,4.5-2.8,6.6c-3.3,6.6-8.3,12.1-13.8,16.8c0.3,0.4,0.6,0.8,0.8,1.2c6,9.2,7.3,23.1,4.4,33.5
					c-2.4,8.6-7.2,15.3-13.5,20.9c5.3,0.7,10.6,1.3,15.9,2c17.3,2.1,34.6,3.8,52,4c14.4,0.2,28.8-0.1,42.2-5.8
					c20.7-8.9,35.8-26.9,58.4-32c30.3-6.7,60.7,4.4,90.2,10.2c3.5,0.7,7,1.2,10.5,1.7c0.1-3.5,0.6-6.9,1.4-10.2
					c3.3-11.8,10.6-18.9,20-26c12.5-9.5,28.4-15.4,43.6-18.8c15.8-3.5,32-5.3,48.2-5.4C672,127.9,670.5,118.1,670.8,108.4z"/>
				
					<radialGradient id="SVGID_00000135660812101773640930000000899937483507067014_" cx="500" cy="590.44" r="883.26" gradientTransform="matrix(1 0 0 -1 0 290)" gradientUnits="userSpaceOnUse">
					<stop  offset="9.000000e-02" style="stop-color:#C5D068"/>
					<stop  offset="0.34" style="stop-color:#A1C563"/>
					<stop  offset="0.47" style="stop-color:#92C161"/>
					<stop  offset="0.96" style="stop-color:#00A462"/>
				</radialGradient>
				<path style="fill:url(#SVGID_00000135660812101773640930000000899937483507067014_);" d="M75.3,61.9c-15.6-0.7-31.2-1.9-46.8-2
					c-4.7,0-9.5-0.8-13.9-2.4c-5,0.1-9.8,0.2-14.6,0.2V123c19.1,3.2,40.1,6.1,62.9,8.3c3.1-18.1,11.6-35.8,24.4-48.6
					C81.6,76.9,77.5,69.7,75.3,61.9z"/>
				
					<radialGradient id="SVGID_00000053537619448999803860000003810779592652172706_" cx="500" cy="590.44" r="883.26" gradientTransform="matrix(1 0 0 -1 0 290)" gradientUnits="userSpaceOnUse">
					<stop  offset="9.000000e-02" style="stop-color:#C5D068"/>
					<stop  offset="0.34" style="stop-color:#A1C563"/>
					<stop  offset="0.47" style="stop-color:#92C161"/>
					<stop  offset="0.96" style="stop-color:#00A462"/>
				</radialGradient>
				<path style="fill:url(#SVGID_00000053537619448999803860000003810779592652172706_);" d="M318.1,136.2c-0.2,0.7-0.4,1.4-0.7,2.1
					c5.1,0,10.2-0.1,15.2-0.1C327.7,137.6,322.9,136.9,318.1,136.2z"/>
				
					<radialGradient id="SVGID_00000046319691250210716400000010125816168211938216_" cx="500" cy="590.44" r="883.26" gradientTransform="matrix(1 0 0 -1 0 290)" gradientUnits="userSpaceOnUse">
					<stop  offset="9.000000e-02" style="stop-color:#C5D068"/>
					<stop  offset="0.34" style="stop-color:#A1C563"/>
					<stop  offset="0.47" style="stop-color:#92C161"/>
					<stop  offset="0.96" style="stop-color:#00A462"/>
				</radialGradient>
				<path style="fill:url(#SVGID_00000046319691250210716400000010125816168211938216_);" d="M672.1,96.5c-4.2,0-8.4,0.1-12.6,0.1
					c0.1,5.4-1.2,11.1-3.5,16.4c5.5-1.5,10.4-3,14.8-4.6C670.9,104.4,671.3,100.4,672.1,96.5z"/>
				<path class="st7" d="M672.1,96.5c-4.2,0-8.4,0.1-12.6,0.1c0.1,5.4-1.2,11.1-3.5,16.4c5.5-1.5,10.4-3,14.8-4.6
					C670.9,104.4,671.3,100.4,672.1,96.5z"/>
				<path class="st7" d="M75.3,61.9c-15.6-0.7-31.2-1.9-46.8-2c-4.7,0-9.5-0.8-13.9-2.4c-5,0.1-9.8,0.2-14.6,0.2V123
					c19.1,3.2,40.1,6.1,62.9,8.3c3.1-18.1,11.6-35.8,24.4-48.6C81.6,76.9,77.5,69.7,75.3,61.9z"/>
				<path class="st7" d="M318.1,136.2c-0.2,0.7-0.4,1.4-0.7,2.1c5.1,0,10.2-0.1,15.2-0.1C327.7,137.6,322.9,136.9,318.1,136.2z"/>
				
					<radialGradient id="SVGID_00000147200453876982327730000016154111410874249112_" cx="500" cy="590.44" r="883.26" gradientTransform="matrix(1 0 0 -1 0 290)" gradientUnits="userSpaceOnUse">
					<stop  offset="9.000000e-02" style="stop-color:#C5D068"/>
					<stop  offset="0.34" style="stop-color:#A1C563"/>
					<stop  offset="0.47" style="stop-color:#92C161"/>
					<stop  offset="0.96" style="stop-color:#00A462"/>
				</radialGradient>
				<path style="fill:url(#SVGID_00000147200453876982327730000016154111410874249112_);" d="M956,165.3c-1.1-0.7-2.1-1.3-3.2-2
					c-2.7,4.7-6.3,8.8-10.5,12.1c-0.6,9.2-2.9,18.2-8,26.1c-8.5,13.1-20.2,21-34.7,26.2c-8.9,3.1-18.7,4-28,4.8
					c-14.9,1.4-30,0.5-44.9-0.3c-12.1-0.6-24.6-2.1-36.7-0.6c-3.4,0.4-6.8,0.1-10.2-0.8c-9.4,5-22.1,6.8-32.3,3.7l-1.5-0.4
					c-1.5,0.6-3.1,1.1-4.8,1.3c-10.6,1.7-21.3,2.8-32.1,3.3c-5.3,0.2-10.7,0.4-16,0.9c-12.2,2.5-23.8,7.1-36.6,6.5
					c-7.5-0.3-14.9-1.7-22-4.2c-6.3,3.4-13.3,5.2-20.5,5.2c-8.2,0-16.2-2.3-23-6.8c-10-3-18.2-10.7-23.8-19.4
					c-4.1-6.4-6-15.1-5.8-23.3c-3.5-0.4-7-1-10.5-1.7c-29.5-5.8-59.9-17-90.2-10.2c-22.6,5-37.7,23-58.4,32
					c-13.4,5.8-27.8,6-42.2,5.8c-17.4-0.2-34.8-2-52-4c-5.3-0.6-10.6-1.3-15.9-1.9c-2,1.8-4.2,3.5-6.5,5
					c-15.7,10.9-35.3,15.2-53.6,11.7c-0.2,0.4-0.4,0.9-0.7,1.3c-5.3,10.1-15.7,16.3-26,20c-8,2.8-18.1,2.8-26.7,2.2
					c-10-0.7-20-2-29.9-3.9c2.9,7.4,8.3,12.6,17.2,14c13.7,2.1,26.5,6.3,39.9,9.6c25,6.1,50.4,9,76,10.8H1000v-92.4
					C985.9,185,971,174.9,956,165.3z"/>
				<path class="st7" d="M956,165.3c-1.1-0.7-2.1-1.3-3.2-2c-2.7,4.7-6.3,8.8-10.5,12.1c-0.6,9.2-2.9,18.2-8,26.1
					c-8.5,13.1-20.2,21-34.7,26.2c-8.9,3.1-18.7,4-28,4.8c-14.9,1.4-30,0.5-44.9-0.3c-12.1-0.6-24.6-2.1-36.7-0.6
					c-3.4,0.4-6.8,0.1-10.2-0.8c-9.4,5-22.1,6.8-32.3,3.7l-1.5-0.4c-1.5,0.6-3.1,1.1-4.8,1.3c-10.6,1.7-21.3,2.8-32.1,3.3
					c-5.3,0.2-10.7,0.4-16,0.9c-12.2,2.5-23.8,7.1-36.6,6.5c-7.5-0.3-14.9-1.7-22-4.2c-6.3,3.4-13.3,5.2-20.5,5.2
					c-8.2,0-16.2-2.3-23-6.8c-10-3-18.2-10.7-23.8-19.4c-4.1-6.4-6-15.1-5.8-23.3c-3.5-0.4-7-1-10.5-1.7
					c-29.5-5.8-59.9-17-90.2-10.2c-22.6,5-37.7,23-58.4,32c-13.4,5.8-27.8,6-42.2,5.8c-17.4-0.2-34.8-2-52-4
					c-5.3-0.6-10.6-1.3-15.9-1.9c-2,1.8-4.2,3.5-6.5,5c-15.7,10.9-35.3,15.2-53.6,11.7c-0.2,0.4-0.4,0.9-0.7,1.3
					c-5.3,10.1-15.7,16.3-26,20c-8,2.8-18.1,2.8-26.7,2.2c-10-0.7-20-2-29.9-3.9c2.9,7.4,8.3,12.6,17.2,14
					c13.7,2.1,26.5,6.3,39.9,9.6c25,6.1,50.4,9,76,10.8H1000v-92.4C985.9,185,971,174.9,956,165.3z"/>
			</g>
		</g>
	</g>
</g>
</svg>
