<svg xmlns="http://www.w3.org/2000/svg" xmlns:xlink="http://www.w3.org/1999/xlink" viewBox="0 0 1000 284.59"><defs><style>.cls-1{isolation:isolate;}.cls-2{fill:url(#radial-gradient);}.cls-3{fill:url(#radial-gradient-7);}.cls-4{fill:#ede495;mix-blend-mode:overlay;opacity:0.24;}.cls-5{fill:url(#radial-gradient-8);}</style><radialGradient id="radial-gradient" cx="500" cy="-304.02" r="883.26" gradientUnits="userSpaceOnUse"><stop offset="0.09" stop-color="#c5d068"/><stop offset="0.34" stop-color="#a1c563"/><stop offset="0.47" stop-color="#92c161"/><stop offset="0.96" stop-color="#00a462"/></radialGradient><radialGradient id="radial-gradient-7" cx="500" cy="-304.02" r="883.26" xlink:href="#radial-gradient"/><radialGradient id="radial-gradient-8" cx="500" cy="-304.03" r="883.26" xlink:href="#radial-gradient"/></defs><g class="cls-1"><g id="Layer_2" data-name="Layer 2"><g id="Moles"><g id="Ground"><path class="cls-2" d="M568.13,3.58Q541.36,1.53,513.77,0a44.89,44.89,0,0,1-1.62,21.24c17.22,1.2,33.67,3,48.89,5.43.9.14,1.79.3,2.7.45-.17-1.32-.29-2.65-.35-4C563.1,16.71,565,9.76,568.13,3.58Z"/><path class="cls-2" d="M610.08,162.13c-3.53-13.73-4.53-28.26-4.62-42.52-24.82,3.78-55.13,7.09-91.6,9.79,0,0-7.12.4-20.09,1a51.31,51.31,0,0,1-5.44,4.87,32.83,32.83,0,0,1-14.8,7.79L462,144.59a47.88,47.88,0,0,0-6.17-.43c-3.56.86-7.1,1.84-10.7,2.55a138.92,138.92,0,0,1-27.8,2.92c-9.06-.09-18.12-1.08-27.17-1a43.24,43.24,0,0,1-20.2,48.08c-30.43,17.77-64.54,11.85-97.62,9.13-19.48-1.61-39.05-3-58.53-5.09l-.43.29c-9.24,6-23.11,7.26-33.52,4.39a43.64,43.64,0,0,1-20.76-13.15,37.38,37.38,0,0,1-8.83-4.13c-2.62,6.31-5.21,12.63-7.7,19-4.08,10.4-9.59,20.5-20,26a51.57,51.57,0,0,1-22,5.93c-11.19.51-21.69-4.38-29.59-12-9.8-.81-20.2-6-26.85-12.65a45.11,45.11,0,0,1-12.41-25.76c-10.32-.64-20.62-1.72-31-3.16-.23,0-.47-.09-.71-.13v99.24H282.17c-25.55-1.81-51-4.71-76-10.8-13.43-3.27-26.22-7.48-39.89-9.58-11.84-1.81-17.53-10.36-19.29-21.93-4.4-28.93,38.13-31.88,57.38-33.37,34.8-2.68,69.48,2.77,103.94,6.87,17.29,2.06,34.64,3.8,52,4,14.35.2,28.81,0,42.17-5.82,20.7-8.94,35.75-26.92,58.4-32,30.34-6.74,60.72,4.45,90.2,10.22,25.18,4.92,50.58,3.31,76,2.49A79.51,79.51,0,0,1,610.08,162.13Z"/><path class="cls-2" d="M773.86,28.13a49.61,49.61,0,0,1,9.25,26.44c1.25,25.69.86,51.48,2.86,77.12,9.33-6.59,21.77-8.84,32.82-9.8,29.94-2.58,60.71,4.5,89.07,13.54l-.55-.18.55.18c1.79,0,4.29-.49,6,0q6.82,4.26,13.67,8.48c9.52,5.88,19,11.77,28.47,17.81,15,9.63,29.87,19.65,44,30.6V77.21A2200.36,2200.36,0,0,0,773.86,28.13Z"/><path class="cls-2" d="M716.06,196c-1.15,1.18-2.33,2.3-3.56,3.38,2.4,0,4.79,0,7.19-.07A48.67,48.67,0,0,1,716.06,196Z"/><path class="cls-2" d="M895.49,131.49l1.37.44Z"/><path class="cls-2" d="M897,132l2.5.8Z"/><path class="cls-3" d="M606.87,66.63c-23,0-40.34-17.73-43.13-39.51-.91-.15-1.8-.31-2.7-.45-15.22-2.47-31.67-4.23-48.89-5.43a42.24,42.24,0,0,1-3.71,8.5,47.41,47.41,0,0,1-8.35,10.18c1.29,7.42,2.73,14.81,3.79,22.27,2.51,17.67,3.75,32.76,0,50.47-1.39,6.65-5.33,12.77-10.14,17.72,13-.58,20.09-1,20.09-1,36.47-2.7,66.78-6,91.6-9.79,0-2.4,0-4.79,0-7.17.13-10.94,1.23-22.21-.16-33.11A28.16,28.16,0,0,1,606.87,66.63Z"/><path class="cls-4" d="M606.87,66.63c-23,0-40.34-17.73-43.13-39.51-.91-.15-1.8-.31-2.7-.45-15.22-2.47-31.67-4.23-48.89-5.43a42.24,42.24,0,0,1-3.71,8.5,47.41,47.41,0,0,1-8.35,10.18c1.29,7.42,2.73,14.81,3.79,22.27,2.51,17.67,3.75,32.76,0,50.47-1.39,6.65-5.33,12.77-10.14,17.72,13-.58,20.09-1,20.09-1,36.47-2.7,66.78-6,91.6-9.79,0-2.4,0-4.79,0-7.17.13-10.94,1.23-22.21-.16-33.11A28.16,28.16,0,0,1,606.87,66.63Z"/><path class="cls-5" d="M956,161.72c-9.43-6-19-11.93-28.47-17.81q-6.84-4.23-13.67-8.48c-1.71-.49-4.21,0-6,0-28.36-9-59.13-16.12-89.07-13.54-11,1-23.49,3.21-32.82,9.8.31,3.94.68,7.89,1.11,11.82.55,3.5,1.14,7,1.82,10.47,2.35,12,1.31,22.73-4.39,33.52-5.31,10.06-15.47,16.59-26,20s-24.2,1.07-33.52-4.38a39.49,39.49,0,0,1-5.31-3.76c-2.4.09-4.79.11-7.19.07a62.5,62.5,0,0,1-53.91,14.12C646,211,635.4,204,627.17,194.75c-25.42.82-50.82,2.43-76-2.49-29.48-5.77-59.86-17-90.2-10.22-22.65,5-37.7,23-58.4,32-13.36,5.77-27.82,6-42.17,5.82-17.41-.24-34.76-2-52-4-34.46-4.1-69.14-9.55-103.94-6.87-19.25,1.49-61.78,4.44-57.38,33.37,1.76,11.57,7.45,20.12,19.29,21.93,13.67,2.1,26.46,6.31,39.89,9.58,25,6.09,50.41,9,76,10.8H1000V192.32C985.87,181.37,971,171.35,956,161.72Z"/><path class="cls-4" d="M956,161.72c-9.43-6-19-11.93-28.47-17.81q-6.84-4.23-13.67-8.48c-1.71-.49-4.21,0-6,0-28.36-9-59.13-16.12-89.07-13.54-11,1-23.49,3.21-32.82,9.8.31,3.94.68,7.89,1.11,11.82.55,3.5,1.14,7,1.82,10.47,2.35,12,1.31,22.73-4.39,33.52-5.31,10.06-15.47,16.59-26,20s-24.2,1.07-33.52-4.38a39.49,39.49,0,0,1-5.31-3.76c-2.4.09-4.79.11-7.19.07a62.5,62.5,0,0,1-53.91,14.12C646,211,635.4,204,627.17,194.75c-25.42.82-50.82,2.43-76-2.49-29.48-5.77-59.86-17-90.2-10.22-22.65,5-37.7,23-58.4,32-13.36,5.77-27.82,6-42.17,5.82-17.41-.24-34.76-2-52-4-34.46-4.1-69.14-9.55-103.94-6.87-19.25,1.49-61.78,4.44-57.38,33.37,1.76,11.57,7.45,20.12,19.29,21.93,13.67,2.1,26.46,6.31,39.89,9.58,25,6.09,50.41,9,76,10.8H1000V192.32C985.87,181.37,971,171.35,956,161.72Z"/></g></g></g></g></svg>