<svg xmlns="http://www.w3.org/2000/svg" xmlns:xlink="http://www.w3.org/1999/xlink" viewBox="0 0 1000 550.84"><defs><style>.cls-1{isolation:isolate;}.cls-2{fill:url(#linear-gradient);}.cls-3{fill:#add6ce;}.cls-4{fill:url(#radial-gradient);}.cls-5{fill:#ede495;mix-blend-mode:overlay;opacity:0.24;}.cls-6{fill:url(#radial-gradient-2);}.cls-7{fill:url(#radial-gradient-3);}.cls-8{fill:url(#radial-gradient-4);}.cls-9{fill:url(#radial-gradient-5);}.cls-10{fill:url(#radial-gradient-6);}.cls-11{fill:url(#radial-gradient-7);}.cls-12{fill:url(#radial-gradient-8);}.cls-13{fill:url(#radial-gradient-9);}.cls-14{fill:url(#radial-gradient-10);}.cls-15{fill:url(#radial-gradient-11);}.cls-16{fill:url(#radial-gradient-12);}.cls-17{fill:url(#radial-gradient-13);}.cls-18{fill:url(#radial-gradient-14);}.cls-19{fill:url(#radial-gradient-15);}.cls-20{fill:url(#radial-gradient-16);}.cls-21{fill:url(#radial-gradient-17);}.cls-22{fill:url(#radial-gradient-18);}.cls-23{fill:url(#radial-gradient-19);}.cls-24{fill:url(#radial-gradient-20);}.cls-25{fill:url(#radial-gradient-21);}.cls-26{fill:url(#radial-gradient-22);}.cls-27{fill:url(#radial-gradient-23);}.cls-28{fill:url(#linear-gradient-2);}.cls-29{fill:#fff;opacity:0.61;}.cls-30{fill:url(#linear-gradient-3);}</style><linearGradient id="linear-gradient" x1="498.06" y1="423.67" x2="505.86" y2="-358.2" gradientUnits="userSpaceOnUse"><stop offset="0" stop-color="#fff"/><stop offset="0.24" stop-color="#b5e7f9"/><stop offset="0.52" stop-color="#68cef3"/><stop offset="0.74" stop-color="#30bcef"/><stop offset="0.91" stop-color="#0db1ec"/><stop offset="1" stop-color="#00adeb"/></linearGradient><radialGradient id="radial-gradient" cx="499.93" cy="111.33" r="883.4" gradientUnits="userSpaceOnUse"><stop offset="0.09" stop-color="#c5d068"/><stop offset="0.34" stop-color="#a1c563"/><stop offset="0.47" stop-color="#92c161"/><stop offset="0.96" stop-color="#00a462"/></radialGradient><radialGradient id="radial-gradient-2" cx="500.01" cy="111.41" r="883.23" xlink:href="#radial-gradient"/><radialGradient id="radial-gradient-3" cx="500.02" cy="111.31" r="883.34" xlink:href="#radial-gradient"/><radialGradient id="radial-gradient-4" cx="500.03" cy="111.41" r="883.2" xlink:href="#radial-gradient"/><radialGradient id="radial-gradient-5" cx="500.08" cy="111.7" r="882.84" xlink:href="#radial-gradient"/><radialGradient id="radial-gradient-6" cx="499.96" cy="111.37" r="883.32" xlink:href="#radial-gradient"/><radialGradient id="radial-gradient-7" cx="500.03" cy="111.14" r="883.5" xlink:href="#radial-gradient"/><radialGradient id="radial-gradient-8" cx="499.98" cy="111.5" r="883.16" xlink:href="#radial-gradient"/><radialGradient id="radial-gradient-9" cx="500.05" cy="111.28" r="883.34" xlink:href="#radial-gradient"/><radialGradient id="radial-gradient-10" cx="906.93" cy="550.54" r="0.04" xlink:href="#radial-gradient"/><radialGradient id="radial-gradient-11" cx="499.99" cy="111.39" r="883.27" xlink:href="#radial-gradient"/><radialGradient id="radial-gradient-12" cx="896.94" cy="547.36" r="0.05" xlink:href="#radial-gradient"/><radialGradient id="radial-gradient-13" cx="900.14" cy="548.38" r="0.05" xlink:href="#radial-gradient"/><radialGradient id="radial-gradient-14" cx="500" cy="111.39" r="883.26" xlink:href="#radial-gradient"/><radialGradient id="radial-gradient-15" cx="894.87" cy="546.7" r="0.01" xlink:href="#radial-gradient"/><radialGradient id="radial-gradient-16" cx="895.01" cy="546.75" r="0.02" xlink:href="#radial-gradient"/><radialGradient id="radial-gradient-17" cx="907.15" cy="550.61" r="0.12" xlink:href="#radial-gradient"/><radialGradient id="radial-gradient-18" cx="500" cy="111.37" r="883.27" xlink:href="#radial-gradient"/><radialGradient id="radial-gradient-19" cx="894.94" cy="546.72" r="0.04" xlink:href="#radial-gradient"/><radialGradient id="radial-gradient-20" cx="895.34" cy="546.85" r="0.11" xlink:href="#radial-gradient"/><radialGradient id="radial-gradient-21" cx="500.01" cy="111.36" r="883.28" xlink:href="#radial-gradient"/><radialGradient id="radial-gradient-22" cx="500.06" cy="111.4" r="883.2" xlink:href="#radial-gradient"/><radialGradient id="radial-gradient-23" cx="895.11" cy="546.78" r="0.06" xlink:href="#radial-gradient"/><linearGradient id="linear-gradient-2" x1="106.49" y1="120.04" x2="108.68" y2="-99.46" gradientUnits="userSpaceOnUse"><stop offset="0" stop-color="#fff"/><stop offset="0.1" stop-color="#f9fdff"/><stop offset="0.22" stop-color="#eaf8fd"/><stop offset="0.36" stop-color="#cff0fb"/><stop offset="0.51" stop-color="#abe4f8"/><stop offset="0.67" stop-color="#7cd5f5"/><stop offset="0.83" stop-color="#43c2f0"/><stop offset="1" stop-color="#00adeb"/></linearGradient><linearGradient id="linear-gradient-3" x1="512.17" y1="67.62" x2="513.42" y2="-57.65" xlink:href="#linear-gradient-2"/></defs><g class="cls-1"><g id="Layer_2" data-name="Layer 2"><g id="Layer_1-2" data-name="Layer 1"><path class="cls-2" d="M851.5,390.88C910.23,383.81,959,377.52,1000,372V0H618.7c-7.05,17.08-38.88,15.44-38.88,15.44s-4.81,30.91-27.51,37-34.76-10.55-34.76-10.55-5.62,15.84-31.7,20.1c-24,3.9-28.64-14.39-28.64-14.39-20.64,17.59-56.6-.87-49.61-24.66C415.65-4.55,446.4,4,446.4,4s-.7-1.52-1.57-4H137a54.24,54.24,0,0,1,1.55,17.34s18.32-15.84,35.38-4.7,8.14,40,8.14,40c19.89-6.19,37.79,11.23,31.24,27-10.71,25.84-61.3,5-61.3,5s-19.1,30.73-50.93,26.59-40.5-27.51-40.5-27.51S46.69,98.07,11.23,90.41A61.93,61.93,0,0,1,0,86.91V226.68q14.16,2,29.36,4.41C346,282.16,556.8,426.39,851.5,390.88Z"/><path class="cls-3" d="M429.83,412.14c229.48,5.2,420.67,39.52,570.17,80.48V372c-41,5.48-89.77,11.77-148.5,18.84C556.8,426.39,346,282.16,29.36,231.09Q14.14,228.65,0,226.68V431.61C146.7,417.66,289.49,409,429.83,412.14Z"/><path class="cls-4" d="M904.76,549.85l-.41-.13Z"/><path class="cls-5" d="M904.76,549.85l-.41-.13Z"/><path class="cls-6" d="M904.35,549.72l-1.67-.53Z"/><path class="cls-5" d="M904.35,549.72l-1.67-.53Z"/><path class="cls-7" d="M906.87,550.53l-1.18-.38Z"/><path class="cls-5" d="M906.87,550.53l-1.18-.38Z"/><path class="cls-8" d="M900.07,548.36l-.56-.18Z"/><path class="cls-5" d="M900.07,548.36l-.56-.18Z"/><path class="cls-9" d="M905.11,550l-.35-.11Z"/><path class="cls-5" d="M905.11,550l-.35-.11Z"/><path class="cls-10" d="M905.69,550.15l-.58-.19Z"/><path class="cls-5" d="M905.69,550.15l-.58-.19Z"/><path class="cls-11" d="M902.68,549.19l-.36-.12Z"/><path class="cls-5" d="M902.68,549.19l-.36-.12Z"/><path class="cls-12" d="M901.73,548.89l-.47-.15Z"/><path class="cls-5" d="M901.73,548.89l-.47-.15Z"/><path class="cls-13" d="M901.26,548.74l-.42-.14Z"/><path class="cls-5" d="M901.26,548.74l-.42-.14Z"/><path class="cls-14" d="M907,550.56l-.11,0Z"/><path class="cls-5" d="M907,550.56l-.11,0Z"/><path class="cls-15" d="M902.32,549.07l-.59-.18Z"/><path class="cls-5" d="M902.32,549.07l-.59-.18Z"/><path class="cls-16" d="M897,547.38l-.15,0Z"/><path class="cls-5" d="M897,547.38l-.15,0Z"/><path class="cls-17" d="M900.2,548.4l-.13,0Z"/><path class="cls-5" d="M900.2,548.4l-.13,0Z"/><path class="cls-18" d="M900.84,548.6l-.64-.2Z"/><path class="cls-5" d="M900.84,548.6l-.64-.2Z"/><path class="cls-19" d="M894.88,546.71Z"/><path class="cls-5" d="M894.88,546.71Z"/><path class="cls-20" d="M895,546.75h0Z"/><path class="cls-5" d="M895,546.75h0Z"/><path class="cls-21" d="M907.31,550.67l-.33-.11Z"/><path class="cls-5" d="M907.31,550.67l-.33-.11Z"/><path class="cls-22" d="M899.51,548.18l-2.5-.8Z"/><path class="cls-5" d="M899.51,548.18l-2.5-.8Z"/><path class="cls-23" d="M895,546.74l-.11,0Z"/><path class="cls-5" d="M895,546.74l-.11,0Z"/><path class="cls-24" d="M895.49,546.9l-.3-.1Z"/><path class="cls-5" d="M895.49,546.9l-.3-.1Z"/><path class="cls-25" d="M896.86,547.34l-1.37-.44Z"/><path class="cls-5" d="M896.86,547.34l-1.37-.44Z"/><path class="cls-26" d="M907.86,550.84l-.55-.17Z"/><path class="cls-5" d="M907.86,550.84l-.55-.17Z"/><path class="cls-27" d="M895.19,546.8l-.15,0Z"/><path class="cls-5" d="M895.19,546.8l-.15,0Z"/><path class="cls-28" d="M60.55,83.78s8.65,23.39,40.5,27.51S152,84.7,152,84.7s50.59,20.81,61.3-5c6.55-15.79-11.35-33.21-31.24-27,0,0,8.91-28.88-8.14-40s-35.38,4.7-35.38,4.7A54.24,54.24,0,0,0,137,0H0V86.91a61.93,61.93,0,0,0,11.23,3.5C46.69,98.07,60.55,83.78,60.55,83.78Z"/><path class="cls-29" d="M60.55,83.78s8.65,23.39,40.5,27.51S152,84.7,152,84.7s50.59,20.81,61.3-5c6.55-15.79-11.35-33.21-31.24-27,0,0,8.91-28.88-8.14-40s-35.38,4.7-35.38,4.7A54.24,54.24,0,0,0,137,0H0V86.91a61.93,61.93,0,0,0,11.23,3.5C46.69,98.07,60.55,83.78,60.55,83.78Z"/><path class="cls-30" d="M407.6,22.92c-7,23.79,29,42.25,49.61,24.66,0,0,4.66,18.29,28.64,14.39,26.08-4.26,31.7-20.1,31.7-20.1s12.07,16.62,34.76,10.55,27.51-37,27.51-37S611.65,17.08,618.7,0H444.83c.87,2.46,1.57,4,1.57,4S415.65-4.55,407.6,22.92Z"/><path class="cls-29" d="M407.6,22.92c-7,23.79,29,42.25,49.61,24.66,0,0,4.66,18.29,28.64,14.39,26.08-4.26,31.7-20.1,31.7-20.1s12.07,16.62,34.76,10.55,27.51-37,27.51-37S611.65,17.08,618.7,0H444.83c.87,2.46,1.57,4,1.57,4S415.65-4.55,407.6,22.92Z"/></g></g></g></svg>