<svg xmlns="http://www.w3.org/2000/svg" xmlns:xlink="http://www.w3.org/1999/xlink" viewBox="0 0 1000 288.5"><defs><style>.cls-1{isolation:isolate;}.cls-2{fill:url(#radial-gradient);}.cls-3{fill:url(#radial-gradient-4);}.cls-4{fill:#ede495;mix-blend-mode:overlay;opacity:0.24;}.cls-5{fill:url(#radial-gradient-5);}</style><radialGradient id="radial-gradient" cx="500" cy="-300.11" r="883.26" gradientUnits="userSpaceOnUse"><stop offset="0.09" stop-color="#c5d068"/><stop offset="0.34" stop-color="#a1c563"/><stop offset="0.47" stop-color="#92c161"/><stop offset="0.96" stop-color="#00a462"/></radialGradient><radialGradient id="radial-gradient-4" cy="-300.12" r="883.26" xlink:href="#radial-gradient"/><radialGradient id="radial-gradient-5" cy="-300.12" r="883.26" xlink:href="#radial-gradient"/></defs><g class="cls-1"><g id="Layer_2" data-name="Layer 2"><g id="Moles"><g id="Ground"><path class="cls-2" d="M511.13,3.75Q471.32,1.6,429.83.64,398.95-.06,367.9,0a48.93,48.93,0,0,1,1,8,39.35,39.35,0,0,1-3.83,17.66c48-2.71,97.95-3.63,142.79-.78-.16-1.35-.27-2.7-.33-4A39,39,0,0,1,511.13,3.75Z"/><path class="cls-2" d="M915.24,59.78a45.64,45.64,0,0,1-12,10.52A32.34,32.34,0,0,1,887,75.46a32.94,32.94,0,0,1-17.35-.77l-.63-.09a619.64,619.64,0,0,0-64.88-4.22c-37.62-.62-75.22,1.2-112.84,1.94,27.2,23.51-11,48.66-177.48,61,0,0-12.23.69-33.82,1.57a45.68,45.68,0,0,1-19.22,11.35c-22.67,6.5-46.1,5.29-69.35,5.22a42.75,42.75,0,0,1-12.94-2,43.06,43.06,0,0,1-12.74,2,42.06,42.06,0,0,1-30.55-13c-64.91.65-141.77.13-220.59-3.26A922.72,922.72,0,0,1,0,123.35V288.5H282.17c-25.55-1.81-51-4.72-76-10.8-13.43-3.27-26.22-7.48-39.89-9.58-11.84-1.82-17.53-10.36-19.29-21.93a25.06,25.06,0,0,1-.2-6.36c-11,.25-22,.67-32.88,1.82a43.83,43.83,0,0,1-23,0L80.6,237.23c-10.06-5.32-16.59-15.47-20-26S59.54,187,65,177.71c4.94-8.44,15.91-18.36,26-20,39.82-6.42,80.08-3.47,120-8.14,8.61-1.25,17.21-2.59,25.83-3.78a43.85,43.85,0,0,1,23.13,0l10.39,4.39c10.06,5.31,16.59,15.47,20,26s1.07,24.2-4.38,33.52a43.17,43.17,0,0,1-4.9,6.64c9.11,1.1,18.21,2.27,27.3,3.35,17.29,2.06,34.64,3.8,52,4,14.35.2,28.81,0,42.17-5.82C423.27,209,438.32,191,461,186c30.34-6.74,60.72,4.45,90.2,10.22a208.81,208.81,0,0,0,39.45,3.4,56.64,56.64,0,0,1-3.54-8.51c-3.38-10.46-1.07-24.2,4.38-33.52,5.07-8.67,15.8-18.09,26-20a444.75,444.75,0,0,1,69.27-6.93c36.7-1,73.33.87,110-2.07,2.51-.21,5-.39,7.54-.59a107.93,107.93,0,0,1,14.55-2.16,155.87,155.87,0,0,1,21.18-.3c24.13-1.42,48.28-2.32,72.47-2.35,24,0,41.86,19.34,43.42,42.4l.14.08c15,9.63,29.87,19.65,44,30.59V81.12Q959.64,70.07,915.24,59.78Z"/><path class="cls-2" d="M68.72,43.72C63.14,35.06,62,24.39,63.54,14.4Q31.89,17.07,0,20.11v38c24.43-.26,50.8-1.1,78.56-3A53.5,53.5,0,0,1,68.72,43.72Z"/><path class="cls-3" d="M691.34,72.32c-3.68.08-7.37.14-11.05.19-20.6.28-41.21.13-61.78-1-20.2-1.15-40.17-3.67-60.18-6.39-2.42-.3-4.84-.57-7.27-.77-12-1-21.85-4.57-30.76-12.74C512.78,44.67,509,34.8,507.89,24.86c-44.84-2.85-94.77-1.93-142.79.78a45.38,45.38,0,0,1-8.91,13.09,44.87,44.87,0,0,1-30.76,12.75h-65a30.17,30.17,0,0,1-3.78,2.34c-26.17,13.45-54.55,19.75-83.94,20-26.15.25-52.6-4.13-78-10.15a38.25,38.25,0,0,1-16.16-8.54C50.8,57,24.43,57.87,0,58.13v65.22a922.72,922.72,0,0,0,114.65,11.87c78.82,3.39,155.68,3.91,220.59,3.26A46.91,46.91,0,0,1,322.29,108c-.49-10.84,5.19-23.21,12.74-30.76a44.88,44.88,0,0,1,30.76-12.74,42.74,42.74,0,0,1,13,2,42.45,42.45,0,0,1,12.7-2c12.82,0,25.66.73,38.44-.26,2.61-.51,5.2-1.12,7.78-1.85,23.43-6.72,46.31,8.14,53.51,30.38,3.38,10.45,1.07,24.19-4.39,33.52a41.89,41.89,0,0,1-6.77,8.64c21.59-.88,33.82-1.57,33.82-1.57C680.39,121,718.54,95.83,691.34,72.32Z"/><path class="cls-4" d="M691.34,72.32c-3.68.08-7.37.14-11.05.19-20.6.28-41.21.13-61.78-1-20.2-1.15-40.17-3.67-60.18-6.39-2.42-.3-4.84-.57-7.27-.77-12-1-21.85-4.57-30.76-12.74C512.78,44.67,509,34.8,507.89,24.86c-44.84-2.85-94.77-1.93-142.79.78a45.38,45.38,0,0,1-8.91,13.09,44.87,44.87,0,0,1-30.76,12.75h-65a30.17,30.17,0,0,1-3.78,2.34c-26.17,13.45-54.55,19.75-83.94,20-26.15.25-52.6-4.13-78-10.15a38.25,38.25,0,0,1-16.16-8.54C50.8,57,24.43,57.87,0,58.13v65.22a922.72,922.72,0,0,0,114.65,11.87c78.82,3.39,155.68,3.91,220.59,3.26A46.91,46.91,0,0,1,322.29,108c-.49-10.84,5.19-23.21,12.74-30.76a44.88,44.88,0,0,1,30.76-12.74,42.74,42.74,0,0,1,13,2,42.45,42.45,0,0,1,12.7-2c12.82,0,25.66.73,38.44-.26,2.61-.51,5.2-1.12,7.78-1.85,23.43-6.72,46.31,8.14,53.51,30.38,3.38,10.45,1.07,24.19-4.39,33.52a41.89,41.89,0,0,1-6.77,8.64c21.59-.88,33.82-1.57,33.82-1.57C680.39,121,718.54,95.83,691.34,72.32Z"/><path class="cls-5" d="M840,125.5a155.87,155.87,0,0,0-21.18.3A107.93,107.93,0,0,0,804.24,128Q822.11,126.58,840,125.5Z"/><path class="cls-5" d="M956,165.63l-.14-.08c0,.36.06.73.08,1.1.48,10.84-5.2,23.22-12.74,30.76a44.88,44.88,0,0,1-30.76,12.74c-20.8,0-41.57.9-62.34,1.75-36,1.49-71.7,5.77-107.79,5.53-31.32-.2-62.84-.83-94,2.7-2.57.4-5.15.83-7.71,1.31-12.06,2.25-22.68,1.34-33.52-4.39-7.29-3.85-12.71-10.24-16.45-17.48a208.81,208.81,0,0,1-39.45-3.4c-29.48-5.77-59.86-17-90.2-10.22-22.65,5-37.7,23-58.4,32-13.36,5.77-27.82,6-42.17,5.82-17.41-.24-34.76-2-52-4-9.09-1.08-18.19-2.25-27.3-3.35-5.65,6.37-13.7,12.33-21.1,13.35-27.12,3.74-54,8.36-81.45,9.41-10.55.41-21.11.49-31.67.73a25.06,25.06,0,0,0,.2,6.36c1.76,11.57,7.45,20.11,19.29,21.93,13.67,2.1,26.46,6.31,39.89,9.58,25,6.08,50.41,9,76,10.8H1000V196.22C985.87,185.28,971,175.26,956,165.63Z"/><path class="cls-4" d="M840,125.5a155.87,155.87,0,0,0-21.18.3A107.93,107.93,0,0,0,804.24,128Q822.11,126.58,840,125.5Z"/><path class="cls-4" d="M956,165.63l-.14-.08c0,.36.06.73.08,1.1.48,10.84-5.2,23.22-12.74,30.76a44.88,44.88,0,0,1-30.76,12.74c-20.8,0-41.57.9-62.34,1.75-36,1.49-71.7,5.77-107.79,5.53-31.32-.2-62.84-.83-94,2.7-2.57.4-5.15.83-7.71,1.31-12.06,2.25-22.68,1.34-33.52-4.39-7.29-3.85-12.71-10.24-16.45-17.48a208.81,208.81,0,0,1-39.45-3.4c-29.48-5.77-59.86-17-90.2-10.22-22.65,5-37.7,23-58.4,32-13.36,5.77-27.82,6-42.17,5.82-17.41-.24-34.76-2-52-4-9.09-1.08-18.19-2.25-27.3-3.35-5.65,6.37-13.7,12.33-21.1,13.35-27.12,3.74-54,8.36-81.45,9.41-10.55.41-21.11.49-31.67.73a25.06,25.06,0,0,0,.2,6.36c1.76,11.57,7.45,20.11,19.29,21.93,13.67,2.1,26.46,6.31,39.89,9.58,25,6.08,50.41,9,76,10.8H1000V196.22C985.87,185.28,971,175.26,956,165.63Z"/></g></g></g></g></svg>